#N canvas -100 25 1412 615 12;
#N canvas 48 92 1632 609 placeholders 1;
#X obj 375 84 inlet;
#X obj 544 69 inlet;
#X text 342 85 play;
#X text 501 70 biome;
#X obj 544 136 select 1 2 3 4;
#X obj 375 141 bng 19 250 50 0 empty empty empty 0 -10 0 12 #fcfcfc #000000 #000000;
#X obj 434 470 dac~;
#X obj 746 74 inlet;
#X text 708 74 gain;
#X obj 434 439 *~;
#X floatatom 555 468 5 0 0 0 - - - 0;
#X obj 428 331 readsf~;
#X msg 385 301 1;
#X obj 544 105 int;
#X floatatom 583 104 5 0 0 0 - - - 0;
#X obj 745 103 s gain;
#X obj 543 411 r gain;
#X msg 627 207 open jungle_placeholder.wav;
#X msg 294 316 0;
#X msg 619 271 open space_placeholder.wav;
#X msg 619 325 open desert_placeholder.wav;
#X msg 618 379 open ocean_placeholder.wav;
#X obj 836 73 inlet;
#X obj 838 100 s uit;
#X obj 291 274 r uit;
#X connect 0 0 5 0;
#X connect 1 0 13 1;
#X connect 1 0 14 0;
#X connect 4 0 17 0;
#X connect 4 1 19 0;
#X connect 4 2 20 0;
#X connect 4 3 21 0;
#X connect 5 0 13 0;
#X connect 5 0 12 0;
#X connect 7 0 15 0;
#X connect 9 0 6 0;
#X connect 9 0 6 1;
#X connect 11 0 9 0;
#X connect 12 0 11 0;
#X connect 13 0 4 0;
#X connect 16 0 9 1;
#X connect 16 0 10 0;
#X connect 17 0 11 0;
#X connect 18 0 11 0;
#X connect 19 0 11 0;
#X connect 20 0 11 0;
#X connect 21 0 11 0;
#X connect 22 0 23 0;
#X connect 24 0 18 0;
#X restore 293 334 pd placeholders;
#X obj 395 196 vsl 10 100 0 1 0 0 empty empty empty 0 -9 0 12 #fcfcfc #000000 #000000 0 1;
#X obj 294 278 bng 19 250 50 0 empty empty empty 0 -10 0 12 #fcfcfc #000000 #000000;
#X floatatom 321 238 5 0 0 0 - - - 0;
#X text 271 237 biome:;
#X text 352 192 gain:;
#X text 686 277 jungle \, woestijn \, space \, ocean;
#X obj 416 285 bng 19 250 50 0 empty empty empty 0 -10 0 12 #fcfcfc #000000 #000000;
#X connect 1 0 0 2;
#X connect 2 0 0 0;
#X connect 3 0 0 1;
#X connect 7 0 0 3;
