#N canvas 121 146 1843 917 12;
#X msg 363 553 5.13338 52.0799, f 18;
#X obj 362 500 bng 19 250 50 0 empty empty empty 0 -10 0 12 #fcfcfc #000000 #000000;
#X floatatom 364 651 5 0 0 0 - - - 0;
#X msg 577 554 5.13338 52.0799, f 18;
#X obj 576 501 bng 19 250 50 0 empty empty empty 0 -10 0 12 #fcfcfc #000000 #000000;
#X floatatom 578 652 5 0 0 0 - - - 0;
#N canvas 92 117 1667 1012 gain 0;
#X obj 1208 249 unpack float float;
#X obj 1018 265 unpack float float;
#X floatatom 1114 329 11 0 0 0 - - - 0;
#X floatatom 1018 330 12 0 0 0 - - - 0;
#X text 913 225 live locatie;
#X floatatom 1014 435 12 0 0 0 - - - 0;
#X text 1231 498 range;
#X floatatom 1014 528 14 0 0 0 - - - 0;
#X obj 1013 579 expr if($f1 >= $f2 \, $f2 \, $f1);
#X floatatom 1010 644 5 0 0 0 - - - 0;
#X text 682 477 check if negative \, if negative make possitive;
#X text 921 581 cap range;
#X obj 1014 480 expr if($f1 <0 \, $f1 *-1 \, $f1);
#X floatatom 1048 643 5 0 0 0 - - - 0;
#X msg 1102 644 0.5;
#X obj 1048 609 t b;
#X floatatom 1007 743 5 0 0 0 - - - 0;
#N canvas 65 118 634 387 map 0;
#X obj 203 75 inlet;
#X obj 263 75 inlet;
#X obj 317 75 inlet;
#X obj 377 75 inlet;
#X obj 417 75 inlet;
#X obj 194 308 outlet;
#X text 270 59 lo;
#X text 324 59 hi;
#X text 384 59 lo;
#X text 424 59 hi;
#X obj 254 134 f \$1;
#X obj 308 134 f \$2;
#X obj 368 134 f \$3;
#X obj 408 134 f \$4;
#X obj 194 173 -;
#X obj 273 185 -;
#X obj 254 156 t f b f;
#X obj 194 202 /;
#X text 234 42 from;
#X text 347 40 to;
#X obj 194 246 *;
#X obj 194 274 +;
#X obj 387 185 -;
#X obj 368 156 t f b f;
#X text 53 176 subtract offset 1;
#X text 55 203 divide by range 1;
#X text 43 250 multiply by range 2;
#X text 85 274 add offset 2;
#X obj 493 58 loadbang;
#X obj 493 80 t b b b b;
#X obj 194 134 f;
#X text 399 39 initialize from arguments;
#X connect 0 0 30 0;
#X connect 1 0 10 0;
#X connect 2 0 11 0;
#X connect 3 0 12 0;
#X connect 4 0 13 0;
#X connect 10 0 16 0;
#X connect 11 0 15 0;
#X connect 12 0 23 0;
#X connect 13 0 22 0;
#X connect 14 0 17 0;
#X connect 15 0 17 1;
#X connect 16 0 14 1;
#X connect 16 1 15 0;
#X connect 16 2 15 1;
#X connect 17 0 20 0;
#X connect 20 0 21 0;
#X connect 21 0 5 0;
#X connect 22 0 20 1;
#X connect 23 0 21 1;
#X connect 23 1 22 0;
#X connect 23 2 22 1;
#X connect 28 0 29 0;
#X connect 29 0 10 0;
#X connect 29 1 11 0;
#X connect 29 2 12 0;
#X connect 29 3 13 0;
#X connect 30 0 14 0;
#X restore 1007 707 pd map;
#X f 15;
#X text 811 708 map the value from 0 to 0.5;
#X obj 1304 370 -;
#X floatatom 1305 412 28 0 0 0 - - - 0;
#X floatatom 1305 505 21 0 0 0 - - - 0;
#X obj 1304 556 expr if($f1 >= $f2 \, $f2 \, $f1);
#X floatatom 1301 621 5 0 0 0 - - - 0;
#X obj 1305 457 expr if($f1 <0 \, $f1 *-1 \, $f1);
#X floatatom 1339 620 5 0 0 0 - - - 0;
#X msg 1393 621 0.5;
#X obj 1339 586 t b;
#X floatatom 1299 743 20 0 0 0 - - - 0;
#N canvas 108 129 634 387 map 0;
#X obj 203 75 inlet;
#X obj 263 75 inlet;
#X obj 317 75 inlet;
#X obj 377 75 inlet;
#X obj 417 75 inlet;
#X obj 194 308 outlet;
#X text 270 59 lo;
#X text 324 59 hi;
#X text 384 59 lo;
#X text 424 59 hi;
#X obj 254 134 f \$1;
#X obj 308 134 f \$2;
#X obj 368 134 f \$3;
#X obj 408 134 f \$4;
#X obj 194 173 -;
#X obj 273 185 -;
#X obj 254 156 t f b f;
#X obj 194 202 /;
#X text 234 42 from;
#X text 347 40 to;
#X obj 194 246 *;
#X obj 194 274 +;
#X obj 387 185 -;
#X obj 368 156 t f b f;
#X text 53 176 subtract offset 1;
#X text 55 203 divide by range 1;
#X text 43 250 multiply by range 2;
#X text 85 274 add offset 2;
#X obj 493 58 loadbang;
#X obj 493 80 t b b b b;
#X obj 194 134 f;
#X text 399 39 initialize from arguments;
#X connect 0 0 30 0;
#X connect 1 0 10 0;
#X connect 2 0 11 0;
#X connect 3 0 12 0;
#X connect 4 0 13 0;
#X connect 10 0 16 0;
#X connect 11 0 15 0;
#X connect 12 0 23 0;
#X connect 13 0 22 0;
#X connect 14 0 17 0;
#X connect 15 0 17 1;
#X connect 16 0 14 1;
#X connect 16 1 15 0;
#X connect 16 2 15 1;
#X connect 17 0 20 0;
#X connect 20 0 21 0;
#X connect 21 0 5 0;
#X connect 22 0 20 1;
#X connect 23 0 21 1;
#X connect 23 1 22 0;
#X connect 23 2 22 1;
#X connect 28 0 29 0;
#X connect 29 0 10 0;
#X connect 29 1 11 0;
#X connect 29 2 12 0;
#X connect 29 3 13 0;
#X connect 30 0 14 0;
#X restore 1299 704 pd map;
#X f 15;
#X floatatom 1019 853 21 0 0 0 - - - 0;
#X floatatom 1292 316 11 0 0 0 - - - 0;
#X floatatom 1218 315 9 0 0 0 - - - 0;
#X text 589 806 If one of the values is out of range \, output 0 : else output sum;
#X obj 1019 810 expr if($f1 >=0.5 || $f2 >= 0.5 \, 0 \, 1 - ($f1+$f2));
#X msg 1227 522 0.0002;
#X obj 1013 393 -;
#X obj 1332 280 - 50;
#X obj 1141 294 - 50;
#X obj 1227 450 loadbang;
#X obj 1224 766 t b f;
#X obj 1013 224 inlet;
#X obj 1018 897 outlet;
#X obj 1209 214 inlet;
#X connect 0 0 31 0;
#X connect 0 1 37 0;
#X connect 1 0 2 0;
#X connect 1 1 38 0;
#X connect 2 0 19 0;
#X connect 3 0 36 0;
#X connect 5 0 12 0;
#X connect 7 0 8 0;
#X connect 8 0 9 0;
#X connect 8 0 15 0;
#X connect 9 0 17 0;
#X connect 12 0 7 0;
#X connect 13 0 17 1;
#X connect 13 0 17 3;
#X connect 14 0 17 4;
#X connect 15 0 13 0;
#X connect 15 0 14 0;
#X connect 16 0 34 0;
#X connect 17 0 16 0;
#X connect 19 0 20 0;
#X connect 20 0 24 0;
#X connect 21 0 22 0;
#X connect 22 0 23 0;
#X connect 22 0 27 0;
#X connect 23 0 29 0;
#X connect 24 0 21 0;
#X connect 25 0 29 1;
#X connect 25 0 29 3;
#X connect 26 0 29 4;
#X connect 27 0 25 0;
#X connect 27 0 26 0;
#X connect 28 0 40 0;
#X connect 29 0 28 0;
#X connect 30 0 42 0;
#X connect 31 0 19 1;
#X connect 32 0 36 1;
#X connect 34 0 30 0;
#X connect 35 0 8 1;
#X connect 35 0 22 1;
#X connect 35 0 29 2;
#X connect 35 0 17 2;
#X connect 36 0 5 0;
#X connect 37 0 32 0;
#X connect 38 0 3 0;
#X connect 39 0 35 0;
#X connect 40 0 34 0;
#X connect 40 1 34 1;
#X connect 41 0 1 0;
#X connect 43 0 0 0;
#X restore 573 603 pd gain biome space;
#X msg 796 559 5.13338 52.0799, f 18;
#X obj 795 506 bng 19 250 50 0 empty empty empty 0 -10 0 12 #fcfcfc #000000 #000000;
#X floatatom 797 657 5 0 0 0 - - - 0;
#X msg 997 541 5.13338 52.0799, f 18;
#X obj 996 488 bng 19 250 50 0 empty empty empty 0 -10 0 12 #fcfcfc #000000 #000000;
#X floatatom 998 639 5 0 0 0 - - - 0;
#N canvas 92 117 1667 1012 gain 0;
#X obj 1208 249 unpack float float;
#X obj 1018 265 unpack float float;
#X floatatom 1114 329 11 0 0 0 - - - 0;
#X floatatom 1018 330 12 0 0 0 - - - 0;
#X text 913 225 live locatie;
#X floatatom 1014 435 12 0 0 0 - - - 0;
#X text 1231 498 range;
#X floatatom 1014 528 14 0 0 0 - - - 0;
#X obj 1013 579 expr if($f1 >= $f2 \, $f2 \, $f1);
#X floatatom 1010 644 5 0 0 0 - - - 0;
#X text 682 477 check if negative \, if negative make possitive;
#X text 921 581 cap range;
#X obj 1014 480 expr if($f1 <0 \, $f1 *-1 \, $f1);
#X floatatom 1048 643 5 0 0 0 - - - 0;
#X msg 1102 644 0.5;
#X obj 1048 609 t b;
#X floatatom 1007 743 5 0 0 0 - - - 0;
#N canvas 65 118 634 387 map 0;
#X obj 203 75 inlet;
#X obj 263 75 inlet;
#X obj 317 75 inlet;
#X obj 377 75 inlet;
#X obj 417 75 inlet;
#X obj 194 308 outlet;
#X text 270 59 lo;
#X text 324 59 hi;
#X text 384 59 lo;
#X text 424 59 hi;
#X obj 254 134 f \$1;
#X obj 308 134 f \$2;
#X obj 368 134 f \$3;
#X obj 408 134 f \$4;
#X obj 194 173 -;
#X obj 273 185 -;
#X obj 254 156 t f b f;
#X obj 194 202 /;
#X text 234 42 from;
#X text 347 40 to;
#X obj 194 246 *;
#X obj 194 274 +;
#X obj 387 185 -;
#X obj 368 156 t f b f;
#X text 53 176 subtract offset 1;
#X text 55 203 divide by range 1;
#X text 43 250 multiply by range 2;
#X text 85 274 add offset 2;
#X obj 493 58 loadbang;
#X obj 493 80 t b b b b;
#X obj 194 134 f;
#X text 399 39 initialize from arguments;
#X connect 0 0 30 0;
#X connect 1 0 10 0;
#X connect 2 0 11 0;
#X connect 3 0 12 0;
#X connect 4 0 13 0;
#X connect 10 0 16 0;
#X connect 11 0 15 0;
#X connect 12 0 23 0;
#X connect 13 0 22 0;
#X connect 14 0 17 0;
#X connect 15 0 17 1;
#X connect 16 0 14 1;
#X connect 16 1 15 0;
#X connect 16 2 15 1;
#X connect 17 0 20 0;
#X connect 20 0 21 0;
#X connect 21 0 5 0;
#X connect 22 0 20 1;
#X connect 23 0 21 1;
#X connect 23 1 22 0;
#X connect 23 2 22 1;
#X connect 28 0 29 0;
#X connect 29 0 10 0;
#X connect 29 1 11 0;
#X connect 29 2 12 0;
#X connect 29 3 13 0;
#X connect 30 0 14 0;
#X restore 1007 707 pd map;
#X f 15;
#X text 811 708 map the value from 0 to 0.5;
#X obj 1304 370 -;
#X floatatom 1305 412 28 0 0 0 - - - 0;
#X floatatom 1305 505 21 0 0 0 - - - 0;
#X obj 1304 556 expr if($f1 >= $f2 \, $f2 \, $f1);
#X floatatom 1301 621 5 0 0 0 - - - 0;
#X obj 1305 457 expr if($f1 <0 \, $f1 *-1 \, $f1);
#X floatatom 1339 620 5 0 0 0 - - - 0;
#X msg 1393 621 0.5;
#X obj 1339 586 t b;
#X floatatom 1299 743 20 0 0 0 - - - 0;
#N canvas 108 129 634 387 map 0;
#X obj 203 75 inlet;
#X obj 263 75 inlet;
#X obj 317 75 inlet;
#X obj 377 75 inlet;
#X obj 417 75 inlet;
#X obj 194 308 outlet;
#X text 270 59 lo;
#X text 324 59 hi;
#X text 384 59 lo;
#X text 424 59 hi;
#X obj 254 134 f \$1;
#X obj 308 134 f \$2;
#X obj 368 134 f \$3;
#X obj 408 134 f \$4;
#X obj 194 173 -;
#X obj 273 185 -;
#X obj 254 156 t f b f;
#X obj 194 202 /;
#X text 234 42 from;
#X text 347 40 to;
#X obj 194 246 *;
#X obj 194 274 +;
#X obj 387 185 -;
#X obj 368 156 t f b f;
#X text 53 176 subtract offset 1;
#X text 55 203 divide by range 1;
#X text 43 250 multiply by range 2;
#X text 85 274 add offset 2;
#X obj 493 58 loadbang;
#X obj 493 80 t b b b b;
#X obj 194 134 f;
#X text 399 39 initialize from arguments;
#X connect 0 0 30 0;
#X connect 1 0 10 0;
#X connect 2 0 11 0;
#X connect 3 0 12 0;
#X connect 4 0 13 0;
#X connect 10 0 16 0;
#X connect 11 0 15 0;
#X connect 12 0 23 0;
#X connect 13 0 22 0;
#X connect 14 0 17 0;
#X connect 15 0 17 1;
#X connect 16 0 14 1;
#X connect 16 1 15 0;
#X connect 16 2 15 1;
#X connect 17 0 20 0;
#X connect 20 0 21 0;
#X connect 21 0 5 0;
#X connect 22 0 20 1;
#X connect 23 0 21 1;
#X connect 23 1 22 0;
#X connect 23 2 22 1;
#X connect 28 0 29 0;
#X connect 29 0 10 0;
#X connect 29 1 11 0;
#X connect 29 2 12 0;
#X connect 29 3 13 0;
#X connect 30 0 14 0;
#X restore 1299 704 pd map;
#X f 15;
#X floatatom 1019 853 21 0 0 0 - - - 0;
#X floatatom 1292 316 11 0 0 0 - - - 0;
#X floatatom 1218 315 9 0 0 0 - - - 0;
#X text 589 806 If one of the values is out of range \, output 0 : else output sum;
#X obj 1019 810 expr if($f1 >=0.5 || $f2 >= 0.5 \, 0 \, 1 - ($f1+$f2));
#X msg 1227 522 0.0002;
#X obj 1013 393 -;
#X obj 1332 280 - 50;
#X obj 1141 294 - 50;
#X obj 1227 450 loadbang;
#X obj 1224 766 t b f;
#X obj 1013 224 inlet;
#X obj 1018 897 outlet;
#X obj 1209 214 inlet;
#X connect 0 0 31 0;
#X connect 0 1 37 0;
#X connect 1 0 2 0;
#X connect 1 1 38 0;
#X connect 2 0 19 0;
#X connect 3 0 36 0;
#X connect 5 0 12 0;
#X connect 7 0 8 0;
#X connect 8 0 9 0;
#X connect 8 0 15 0;
#X connect 9 0 17 0;
#X connect 12 0 7 0;
#X connect 13 0 17 1;
#X connect 13 0 17 3;
#X connect 14 0 17 4;
#X connect 15 0 13 0;
#X connect 15 0 14 0;
#X connect 16 0 34 0;
#X connect 17 0 16 0;
#X connect 19 0 20 0;
#X connect 20 0 24 0;
#X connect 21 0 22 0;
#X connect 22 0 23 0;
#X connect 22 0 27 0;
#X connect 23 0 29 0;
#X connect 24 0 21 0;
#X connect 25 0 29 1;
#X connect 25 0 29 3;
#X connect 26 0 29 4;
#X connect 27 0 25 0;
#X connect 27 0 26 0;
#X connect 28 0 40 0;
#X connect 29 0 28 0;
#X connect 30 0 42 0;
#X connect 31 0 19 1;
#X connect 32 0 36 1;
#X connect 34 0 30 0;
#X connect 35 0 8 1;
#X connect 35 0 22 1;
#X connect 35 0 29 2;
#X connect 35 0 17 2;
#X connect 36 0 5 0;
#X connect 37 0 32 0;
#X connect 38 0 3 0;
#X connect 39 0 35 0;
#X connect 40 0 34 0;
#X connect 40 1 34 1;
#X connect 41 0 1 0;
#X connect 43 0 0 0;
#X restore 359 602 pd gain biome desert;
#N canvas 92 117 1667 1012 gain 0;
#X obj 1208 249 unpack float float;
#X obj 1018 265 unpack float float;
#X floatatom 1114 329 11 0 0 0 - - - 0;
#X floatatom 1018 330 12 0 0 0 - - - 0;
#X text 913 225 live locatie;
#X floatatom 1014 435 12 0 0 0 - - - 0;
#X text 1231 498 range;
#X floatatom 1014 528 14 0 0 0 - - - 0;
#X obj 1013 579 expr if($f1 >= $f2 \, $f2 \, $f1);
#X floatatom 1010 644 5 0 0 0 - - - 0;
#X text 682 477 check if negative \, if negative make possitive;
#X text 921 581 cap range;
#X obj 1014 480 expr if($f1 <0 \, $f1 *-1 \, $f1);
#X floatatom 1048 643 5 0 0 0 - - - 0;
#X msg 1102 644 0.5;
#X obj 1048 609 t b;
#X floatatom 1007 743 5 0 0 0 - - - 0;
#N canvas 65 118 634 387 map 0;
#X obj 203 75 inlet;
#X obj 263 75 inlet;
#X obj 317 75 inlet;
#X obj 377 75 inlet;
#X obj 417 75 inlet;
#X obj 194 308 outlet;
#X text 270 59 lo;
#X text 324 59 hi;
#X text 384 59 lo;
#X text 424 59 hi;
#X obj 254 134 f \$1;
#X obj 308 134 f \$2;
#X obj 368 134 f \$3;
#X obj 408 134 f \$4;
#X obj 194 173 -;
#X obj 273 185 -;
#X obj 254 156 t f b f;
#X obj 194 202 /;
#X text 234 42 from;
#X text 347 40 to;
#X obj 194 246 *;
#X obj 194 274 +;
#X obj 387 185 -;
#X obj 368 156 t f b f;
#X text 53 176 subtract offset 1;
#X text 55 203 divide by range 1;
#X text 43 250 multiply by range 2;
#X text 85 274 add offset 2;
#X obj 493 58 loadbang;
#X obj 493 80 t b b b b;
#X obj 194 134 f;
#X text 399 39 initialize from arguments;
#X connect 0 0 30 0;
#X connect 1 0 10 0;
#X connect 2 0 11 0;
#X connect 3 0 12 0;
#X connect 4 0 13 0;
#X connect 10 0 16 0;
#X connect 11 0 15 0;
#X connect 12 0 23 0;
#X connect 13 0 22 0;
#X connect 14 0 17 0;
#X connect 15 0 17 1;
#X connect 16 0 14 1;
#X connect 16 1 15 0;
#X connect 16 2 15 1;
#X connect 17 0 20 0;
#X connect 20 0 21 0;
#X connect 21 0 5 0;
#X connect 22 0 20 1;
#X connect 23 0 21 1;
#X connect 23 1 22 0;
#X connect 23 2 22 1;
#X connect 28 0 29 0;
#X connect 29 0 10 0;
#X connect 29 1 11 0;
#X connect 29 2 12 0;
#X connect 29 3 13 0;
#X connect 30 0 14 0;
#X restore 1007 707 pd map;
#X f 15;
#X text 811 708 map the value from 0 to 0.5;
#X obj 1304 370 -;
#X floatatom 1305 412 28 0 0 0 - - - 0;
#X floatatom 1305 505 21 0 0 0 - - - 0;
#X obj 1304 556 expr if($f1 >= $f2 \, $f2 \, $f1);
#X floatatom 1301 621 5 0 0 0 - - - 0;
#X obj 1305 457 expr if($f1 <0 \, $f1 *-1 \, $f1);
#X floatatom 1339 620 5 0 0 0 - - - 0;
#X msg 1393 621 0.5;
#X obj 1339 586 t b;
#X floatatom 1299 743 20 0 0 0 - - - 0;
#N canvas 108 129 634 387 map 0;
#X obj 203 75 inlet;
#X obj 263 75 inlet;
#X obj 317 75 inlet;
#X obj 377 75 inlet;
#X obj 417 75 inlet;
#X obj 194 308 outlet;
#X text 270 59 lo;
#X text 324 59 hi;
#X text 384 59 lo;
#X text 424 59 hi;
#X obj 254 134 f \$1;
#X obj 308 134 f \$2;
#X obj 368 134 f \$3;
#X obj 408 134 f \$4;
#X obj 194 173 -;
#X obj 273 185 -;
#X obj 254 156 t f b f;
#X obj 194 202 /;
#X text 234 42 from;
#X text 347 40 to;
#X obj 194 246 *;
#X obj 194 274 +;
#X obj 387 185 -;
#X obj 368 156 t f b f;
#X text 53 176 subtract offset 1;
#X text 55 203 divide by range 1;
#X text 43 250 multiply by range 2;
#X text 85 274 add offset 2;
#X obj 493 58 loadbang;
#X obj 493 80 t b b b b;
#X obj 194 134 f;
#X text 399 39 initialize from arguments;
#X connect 0 0 30 0;
#X connect 1 0 10 0;
#X connect 2 0 11 0;
#X connect 3 0 12 0;
#X connect 4 0 13 0;
#X connect 10 0 16 0;
#X connect 11 0 15 0;
#X connect 12 0 23 0;
#X connect 13 0 22 0;
#X connect 14 0 17 0;
#X connect 15 0 17 1;
#X connect 16 0 14 1;
#X connect 16 1 15 0;
#X connect 16 2 15 1;
#X connect 17 0 20 0;
#X connect 20 0 21 0;
#X connect 21 0 5 0;
#X connect 22 0 20 1;
#X connect 23 0 21 1;
#X connect 23 1 22 0;
#X connect 23 2 22 1;
#X connect 28 0 29 0;
#X connect 29 0 10 0;
#X connect 29 1 11 0;
#X connect 29 2 12 0;
#X connect 29 3 13 0;
#X connect 30 0 14 0;
#X restore 1299 704 pd map;
#X f 15;
#X floatatom 1019 853 21 0 0 0 - - - 0;
#X floatatom 1292 316 11 0 0 0 - - - 0;
#X floatatom 1218 315 9 0 0 0 - - - 0;
#X text 589 806 If one of the values is out of range \, output 0 : else output sum;
#X obj 1019 810 expr if($f1 >=0.5 || $f2 >= 0.5 \, 0 \, 1 - ($f1+$f2));
#X msg 1227 522 0.0002;
#X obj 1013 393 -;
#X obj 1332 280 - 50;
#X obj 1141 294 - 50;
#X obj 1227 450 loadbang;
#X obj 1224 766 t b f;
#X obj 1013 224 inlet;
#X obj 1018 897 outlet;
#X obj 1209 214 inlet;
#X connect 0 0 31 0;
#X connect 0 1 37 0;
#X connect 1 0 2 0;
#X connect 1 1 38 0;
#X connect 2 0 19 0;
#X connect 3 0 36 0;
#X connect 5 0 12 0;
#X connect 7 0 8 0;
#X connect 8 0 9 0;
#X connect 8 0 15 0;
#X connect 9 0 17 0;
#X connect 12 0 7 0;
#X connect 13 0 17 1;
#X connect 13 0 17 3;
#X connect 14 0 17 4;
#X connect 15 0 13 0;
#X connect 15 0 14 0;
#X connect 16 0 34 0;
#X connect 17 0 16 0;
#X connect 19 0 20 0;
#X connect 20 0 24 0;
#X connect 21 0 22 0;
#X connect 22 0 23 0;
#X connect 22 0 27 0;
#X connect 23 0 29 0;
#X connect 24 0 21 0;
#X connect 25 0 29 1;
#X connect 25 0 29 3;
#X connect 26 0 29 4;
#X connect 27 0 25 0;
#X connect 27 0 26 0;
#X connect 28 0 40 0;
#X connect 29 0 28 0;
#X connect 30 0 42 0;
#X connect 31 0 19 1;
#X connect 32 0 36 1;
#X connect 34 0 30 0;
#X connect 35 0 8 1;
#X connect 35 0 22 1;
#X connect 35 0 29 2;
#X connect 35 0 17 2;
#X connect 36 0 5 0;
#X connect 37 0 32 0;
#X connect 38 0 3 0;
#X connect 39 0 35 0;
#X connect 40 0 34 0;
#X connect 40 1 34 1;
#X connect 41 0 1 0;
#X connect 43 0 0 0;
#X restore 792 608 pd gain biome jungle;
#N canvas 92 117 1667 1012 gain 0;
#X obj 1208 249 unpack float float;
#X obj 1018 265 unpack float float;
#X floatatom 1114 329 11 0 0 0 - - - 0;
#X floatatom 1018 330 12 0 0 0 - - - 0;
#X text 913 225 live locatie;
#X floatatom 1014 435 12 0 0 0 - - - 0;
#X text 1231 498 range;
#X floatatom 1014 528 14 0 0 0 - - - 0;
#X obj 1013 579 expr if($f1 >= $f2 \, $f2 \, $f1);
#X floatatom 1010 644 5 0 0 0 - - - 0;
#X text 682 477 check if negative \, if negative make possitive;
#X text 921 581 cap range;
#X obj 1014 480 expr if($f1 <0 \, $f1 *-1 \, $f1);
#X floatatom 1048 643 5 0 0 0 - - - 0;
#X msg 1102 644 0.5;
#X obj 1048 609 t b;
#X floatatom 1007 743 5 0 0 0 - - - 0;
#N canvas 65 118 634 387 map 0;
#X obj 203 75 inlet;
#X obj 263 75 inlet;
#X obj 317 75 inlet;
#X obj 377 75 inlet;
#X obj 417 75 inlet;
#X obj 194 308 outlet;
#X text 270 59 lo;
#X text 324 59 hi;
#X text 384 59 lo;
#X text 424 59 hi;
#X obj 254 134 f \$1;
#X obj 308 134 f \$2;
#X obj 368 134 f \$3;
#X obj 408 134 f \$4;
#X obj 194 173 -;
#X obj 273 185 -;
#X obj 254 156 t f b f;
#X obj 194 202 /;
#X text 234 42 from;
#X text 347 40 to;
#X obj 194 246 *;
#X obj 194 274 +;
#X obj 387 185 -;
#X obj 368 156 t f b f;
#X text 53 176 subtract offset 1;
#X text 55 203 divide by range 1;
#X text 43 250 multiply by range 2;
#X text 85 274 add offset 2;
#X obj 493 58 loadbang;
#X obj 493 80 t b b b b;
#X obj 194 134 f;
#X text 399 39 initialize from arguments;
#X connect 0 0 30 0;
#X connect 1 0 10 0;
#X connect 2 0 11 0;
#X connect 3 0 12 0;
#X connect 4 0 13 0;
#X connect 10 0 16 0;
#X connect 11 0 15 0;
#X connect 12 0 23 0;
#X connect 13 0 22 0;
#X connect 14 0 17 0;
#X connect 15 0 17 1;
#X connect 16 0 14 1;
#X connect 16 1 15 0;
#X connect 16 2 15 1;
#X connect 17 0 20 0;
#X connect 20 0 21 0;
#X connect 21 0 5 0;
#X connect 22 0 20 1;
#X connect 23 0 21 1;
#X connect 23 1 22 0;
#X connect 23 2 22 1;
#X connect 28 0 29 0;
#X connect 29 0 10 0;
#X connect 29 1 11 0;
#X connect 29 2 12 0;
#X connect 29 3 13 0;
#X connect 30 0 14 0;
#X restore 1007 707 pd map;
#X f 15;
#X text 811 708 map the value from 0 to 0.5;
#X obj 1304 370 -;
#X floatatom 1305 412 28 0 0 0 - - - 0;
#X floatatom 1305 505 21 0 0 0 - - - 0;
#X obj 1304 556 expr if($f1 >= $f2 \, $f2 \, $f1);
#X floatatom 1301 621 5 0 0 0 - - - 0;
#X obj 1305 457 expr if($f1 <0 \, $f1 *-1 \, $f1);
#X floatatom 1339 620 5 0 0 0 - - - 0;
#X msg 1393 621 0.5;
#X obj 1339 586 t b;
#X floatatom 1299 743 20 0 0 0 - - - 0;
#N canvas 108 129 634 387 map 0;
#X obj 203 75 inlet;
#X obj 263 75 inlet;
#X obj 317 75 inlet;
#X obj 377 75 inlet;
#X obj 417 75 inlet;
#X obj 194 308 outlet;
#X text 270 59 lo;
#X text 324 59 hi;
#X text 384 59 lo;
#X text 424 59 hi;
#X obj 254 134 f \$1;
#X obj 308 134 f \$2;
#X obj 368 134 f \$3;
#X obj 408 134 f \$4;
#X obj 194 173 -;
#X obj 273 185 -;
#X obj 254 156 t f b f;
#X obj 194 202 /;
#X text 234 42 from;
#X text 347 40 to;
#X obj 194 246 *;
#X obj 194 274 +;
#X obj 387 185 -;
#X obj 368 156 t f b f;
#X text 53 176 subtract offset 1;
#X text 55 203 divide by range 1;
#X text 43 250 multiply by range 2;
#X text 85 274 add offset 2;
#X obj 493 58 loadbang;
#X obj 493 80 t b b b b;
#X obj 194 134 f;
#X text 399 39 initialize from arguments;
#X connect 0 0 30 0;
#X connect 1 0 10 0;
#X connect 2 0 11 0;
#X connect 3 0 12 0;
#X connect 4 0 13 0;
#X connect 10 0 16 0;
#X connect 11 0 15 0;
#X connect 12 0 23 0;
#X connect 13 0 22 0;
#X connect 14 0 17 0;
#X connect 15 0 17 1;
#X connect 16 0 14 1;
#X connect 16 1 15 0;
#X connect 16 2 15 1;
#X connect 17 0 20 0;
#X connect 20 0 21 0;
#X connect 21 0 5 0;
#X connect 22 0 20 1;
#X connect 23 0 21 1;
#X connect 23 1 22 0;
#X connect 23 2 22 1;
#X connect 28 0 29 0;
#X connect 29 0 10 0;
#X connect 29 1 11 0;
#X connect 29 2 12 0;
#X connect 29 3 13 0;
#X connect 30 0 14 0;
#X restore 1299 704 pd map;
#X f 15;
#X floatatom 1019 853 21 0 0 0 - - - 0;
#X floatatom 1292 316 11 0 0 0 - - - 0;
#X floatatom 1218 315 9 0 0 0 - - - 0;
#X text 589 806 If one of the values is out of range \, output 0 : else output sum;
#X obj 1019 810 expr if($f1 >=0.5 || $f2 >= 0.5 \, 0 \, 1 - ($f1+$f2));
#X msg 1227 522 0.0002;
#X obj 1013 393 -;
#X obj 1332 280 - 50;
#X obj 1141 294 - 50;
#X obj 1227 450 loadbang;
#X obj 1224 766 t b f;
#X obj 1013 224 inlet;
#X obj 1018 897 outlet;
#X obj 1209 214 inlet;
#X connect 0 0 31 0;
#X connect 0 1 37 0;
#X connect 1 0 2 0;
#X connect 1 1 38 0;
#X connect 2 0 19 0;
#X connect 3 0 36 0;
#X connect 5 0 12 0;
#X connect 7 0 8 0;
#X connect 8 0 9 0;
#X connect 8 0 15 0;
#X connect 9 0 17 0;
#X connect 12 0 7 0;
#X connect 13 0 17 1;
#X connect 13 0 17 3;
#X connect 14 0 17 4;
#X connect 15 0 13 0;
#X connect 15 0 14 0;
#X connect 16 0 34 0;
#X connect 17 0 16 0;
#X connect 19 0 20 0;
#X connect 20 0 24 0;
#X connect 21 0 22 0;
#X connect 22 0 23 0;
#X connect 22 0 27 0;
#X connect 23 0 29 0;
#X connect 24 0 21 0;
#X connect 25 0 29 1;
#X connect 25 0 29 3;
#X connect 26 0 29 4;
#X connect 27 0 25 0;
#X connect 27 0 26 0;
#X connect 28 0 40 0;
#X connect 29 0 28 0;
#X connect 30 0 42 0;
#X connect 31 0 19 1;
#X connect 32 0 36 1;
#X connect 34 0 30 0;
#X connect 35 0 8 1;
#X connect 35 0 22 1;
#X connect 35 0 29 2;
#X connect 35 0 17 2;
#X connect 36 0 5 0;
#X connect 37 0 32 0;
#X connect 38 0 3 0;
#X connect 39 0 35 0;
#X connect 40 0 34 0;
#X connect 40 1 34 1;
#X connect 41 0 1 0;
#X connect 43 0 0 0;
#X restore 993 590 pd gain biome water;
#X connect 0 0 13 0;
#X connect 1 0 0 0;
#X connect 3 0 6 0;
#X connect 4 0 3 0;
#X connect 6 0 5 0;
#X connect 7 0 14 0;
#X connect 8 0 7 0;
#X connect 10 0 15 0;
#X connect 11 0 10 0;
#X connect 13 0 2 0;
#X connect 14 0 9 0;
#X connect 15 0 12 0;
