#N canvas 278 171 843 574 10;
#X obj 300 495 outlet~;
#X obj 11 23 inlet;
#X obj 9 135 switch~;
#X obj 10 46 moses 1;
#X obj 10 91 delay 5000;
#X floatatom 9 113 5 0 0 0 - - -, f 5;
#X obj 8 69 sel 0;
#X text 6 0 switch off the audio dsp after it's finished fading out
;
#X text 10 196 comment;
#X obj 154 182 soundfiler;
#N canvas 0 50 450 300 (subpatch) 0;
#X array \$0-1s-sample-table 3.33017e+06 float 0;
#X coords 0 1.02 3.33017e+06 -1.02 200 130 1;
#X restore 225 214 graph;
#X obj 125 499 outlet~;
#X obj 141 57 inlet;
#X msg 143 109 read -resize \$1;
#X obj 243 87 f \$0;
#X obj 155 83 t b b;
#X obj 448 88 f \$0;
#N canvas 0 50 450 300 (subpatch) 0;
#X array \$0-1s-sample-table-right 3.33017e+06 float 0;
#X coords 0 1.02 3.33017e+06 -1.02 200 130 1;
#X restore 433 215 graph;
#X obj 143 129 pack s s s s s;
#X msg 144 153 \$1 \$2 \$3 \$4 \$5;
#X obj 124 472 *~ 0.08;
#X obj 299 469 *~ 0.08;
#X obj 244 110 makefilename %d-1s-sample-table;
#X obj 449 111 makefilename %d-1s-sample-table-right;
#X obj 124 419 tabplay~ \$0-1s-sample-table;
#X obj 301 416 tabplay~ \$0-1s-sample-table-right;
#X connect 1 0 3 0;
#X connect 3 0 6 0;
#X connect 3 1 2 0;
#X connect 3 1 24 0;
#X connect 3 1 25 0;
#X connect 4 0 5 0;
#X connect 5 0 2 0;
#X connect 6 0 4 0;
#X connect 12 0 13 0;
#X connect 12 0 15 0;
#X connect 13 0 18 0;
#X connect 14 0 22 0;
#X connect 15 0 13 0;
#X connect 15 1 14 0;
#X connect 15 1 16 0;
#X connect 16 0 23 0;
#X connect 18 0 19 0;
#X connect 19 0 9 0;
#X connect 20 0 11 0;
#X connect 21 0 0 0;
#X connect 22 0 18 3;
#X connect 23 0 18 4;
#X connect 24 0 20 0;
#X connect 25 0 21 0;
