#N canvas 42 142 1440 600 12;
#N canvas 611 482 506 313 counter 1;
#X text 60 10 Bang for +1;
#X obj 13 168 int 1;
#X msg 154 61 0;
#X obj 61 168 + 1;
#X obj 13 198 outlet;
#X text 71 199 The count;
#X obj 13 102 metro 1000;
#X obj 13 75 tgl 19 0 empty empty empty 0 -10 0 12 #fcfcfc #000000 #000000 0 1;
#X obj 156 28 r reset;
#X obj 13 47 inlet;
#X connect 1 0 3 0;
#X connect 1 0 4 0;
#X connect 2 0 1 0;
#X connect 3 0 1 1;
#X connect 6 0 1 0;
#X connect 7 0 6 0;
#X connect 8 0 2 0;
#X connect 9 0 7 0;
#X restore 803 112 pd counter;
#X floatatom 803 143 4 0 0 0 - - - 0;
#N canvas 829 335 450 300 geo_calc_gainvalue 0;
#X obj 15 12 inlet;
#X obj 140 12 inlet;
#X text 61 11 Distance;
#N canvas 63 88 686 391 map 0;
#X obj 203 75 inlet;
#X obj 263 75 inlet;
#X obj 317 75 inlet;
#X obj 377 75 inlet;
#X obj 417 75 inlet;
#X obj 194 308 outlet;
#X text 270 59 lo;
#X text 324 59 hi;
#X text 384 59 lo;
#X text 424 59 hi;
#X obj 254 134 f \$1;
#X obj 308 134 f \$2;
#X obj 368 134 f \$3;
#X obj 408 134 f \$4;
#X obj 194 173 -;
#X obj 273 185 -;
#X obj 254 156 t f b f;
#X obj 194 202 /;
#X text 234 42 from;
#X text 347 40 to;
#X obj 194 246 *;
#X obj 194 274 +;
#X obj 387 185 -;
#X obj 368 156 t f b f;
#X text 53 176 subtract offset 1;
#X text 55 203 divide by range 1;
#X text 43 250 multiply by range 2;
#X text 85 274 add offset 2;
#X obj 493 58 loadbang;
#X obj 493 80 t b b b b;
#X obj 194 134 f;
#X text 399 39 initialize from arguments;
#X connect 0 0 30 0;
#X connect 1 0 10 0;
#X connect 2 0 11 0;
#X connect 3 0 12 0;
#X connect 4 0 13 0;
#X connect 10 0 16 0;
#X connect 11 0 15 0;
#X connect 12 0 23 0;
#X connect 13 0 22 0;
#X connect 14 0 17 0;
#X connect 15 0 17 1;
#X connect 16 0 14 1;
#X connect 16 1 15 0;
#X connect 16 2 15 1;
#X connect 17 0 20 0;
#X connect 20 0 21 0;
#X connect 21 0 5 0;
#X connect 22 0 20 1;
#X connect 23 0 21 1;
#X connect 23 1 22 0;
#X connect 23 2 22 1;
#X connect 28 0 29 0;
#X connect 29 0 10 0;
#X connect 29 1 11 0;
#X connect 29 2 12 0;
#X connect 29 3 13 0;
#X connect 30 0 14 0;
#X restore 15 154 pd map;
#X f 36;
#X obj 261 82 loadbang;
#X msg 261 110 1;
#X msg 79 121 0;
#X text 74 211 Make edges most fading;
#X obj 15 209 pow 0.5;
#X floatatom 15 182 5 0 0 0 - - - 0;
#X text 192 11 Range;
#X obj 15 237 outlet;
#X text 78 239 Gain Value Scaled;
#X text 78 184 Mapped Value;
#X text 282 152 Map to [0.0 \, 1.0];
#X connect 0 0 3 0;
#X connect 1 0 3 2;
#X connect 3 0 9 0;
#X connect 4 0 6 0;
#X connect 4 0 5 0;
#X connect 5 0 3 4;
#X connect 6 0 3 1;
#X connect 6 0 3 3;
#X connect 8 0 11 0;
#X connect 9 0 8 0;
#X restore 184 143 pd geo_calc_gainvalue;
#X f 23;
#X floatatom 184 176 5 0 0 0 - - - 0;
#X text 354 143 Takes distance and maps and scales it to gainvalue;
#N canvas 287 430 1208 544 geo_trigger 0;
#X obj 16 8 inlet;
#X obj 196 8 inlet;
#X obj 16 136 bng 19 250 50 0 empty empty empty 0 -10 0 12 #fcfcfc #000000 #000000;
#X obj 16 72 sel 1;
#X text 51 134 Bang to send to player;
#X obj 16 496 outlet~;
#X obj 16 104 onebang, f 13;
#X obj 103 72 r reset;
#N canvas 854 254 818 702 geo_calc_dist_in_range 0;
#X obj 199 6 inlet;
#X text 241 6 Loc;
#X obj 207 343 outlet;
#X obj 17 39 unpack f f, f 15;
#X floatatom 17 101 9 0 0 0 - - - 0;
#X floatatom 118 101 8 0 0 0 - - - 0;
#X obj 199 39 unpack f f;
#X floatatom 200 101 7 0 0 0 - - - 0;
#X floatatom 268 101 7 0 0 0 - - - 0;
#X obj 17 212 expr pow(pow($f1 \, 2) + pow($f2 \, 2) \, 0.5);
#X floatatom 17 180 5 0 0 0 - - - 0;
#X floatatom 293 176 13 0 0 0 - - - 0;
#X obj 17 133 expr abs($f1 - $f3) \; abs($f2 - $f4), f 40;
#X text 310 139 Absolute value of dist between the x and y;
#X obj 317 6 inlet;
#X text 359 7 Range;
#X obj 20 276 expr if($f1 < $f2 \, 1 \, 0) \; if($f1 < $f2 \, $f1 \, 0), f 26;
#X obj 22 347 outlet;
#X floatatom 43 243 10 0 0 0 - - - 0;
#X text 119 242 Distance;
#X text 311 211 Pythagoras;
#X text 62 179 Distance x;
#X text 404 178 Distance y;
#X text 261 345 Distance > 0;
#X obj 16 7 r live_loc;
#X text 75 344 In Range 0 = no 1 = yes, f 8;
#X connect 0 0 6 0;
#X connect 3 0 4 0;
#X connect 3 1 5 0;
#X connect 4 0 12 0;
#X connect 5 0 12 1;
#X connect 6 0 7 0;
#X connect 6 1 8 0;
#X connect 7 0 12 2;
#X connect 8 0 12 3;
#X connect 9 0 16 0;
#X connect 9 0 18 0;
#X connect 10 0 9 0;
#X connect 11 0 9 1;
#X connect 12 0 10 0;
#X connect 12 1 11 0;
#X connect 14 0 16 1;
#X connect 16 0 17 0;
#X connect 16 1 2 0;
#X connect 24 0 3 0;
#X restore 16 47 pd geo_calc_dist_in_range;
#X f 26;
#X text 59 7 Loc of trigger;
#X text 244 7 Range of trigger;
#N canvas 63 88 450 300 player 0;
#X restore 19 190 pd player;
#X text 95 190 TODO;
#X obj 324 133 print;
#X msg 252 45 5.2 52.902, f 17;
#X connect 0 0 8 0;
#X connect 0 0 13 0;
#X connect 1 0 8 1;
#X connect 3 0 6 0;
#X connect 6 0 2 0;
#X connect 7 0 6 1;
#X connect 8 0 3 0;
#X connect 14 0 8 0;
#X restore 23 239 pd geo_trigger;
#N canvas 846 255 818 702 geo_calc_dist_in_range 0;
#X obj 199 6 inlet;
#X text 241 6 Loc;
#X obj 207 343 outlet;
#X obj 17 39 unpack f f, f 15;
#X floatatom 17 101 9 0 0 0 - - - 0;
#X floatatom 118 101 8 0 0 0 - - - 0;
#X obj 199 39 unpack f f;
#X floatatom 200 101 7 0 0 0 - - - 0;
#X floatatom 268 101 7 0 0 0 - - - 0;
#X obj 17 212 expr pow(pow($f1 \, 2) + pow($f2 \, 2) \, 0.5);
#X floatatom 17 180 5 0 0 0 - - - 0;
#X floatatom 293 176 13 0 0 0 - - - 0;
#X obj 17 133 expr abs($f1 - $f3) \; abs($f2 - $f4), f 40;
#X text 310 139 Absolute value of dist between the x and y;
#X obj 317 6 inlet;
#X text 359 7 Range;
#X obj 20 276 expr if($f1 < $f2 \, 1 \, 0) \; if($f1 < $f2 \, $f1 \, 0), f 26;
#X obj 22 347 outlet;
#X floatatom 43 243 10 0 0 0 - - - 0;
#X text 119 242 Distance;
#X text 311 211 Pythagoras;
#X text 62 179 Distance x;
#X text 404 178 Distance y;
#X text 261 345 Distance > 0;
#X obj 16 7 r live_loc;
#X text 75 344 In Range 0 = no 1 = yes, f 8;
#X connect 0 0 6 0;
#X connect 3 0 4 0;
#X connect 3 1 5 0;
#X connect 4 0 12 0;
#X connect 5 0 12 1;
#X connect 6 0 7 0;
#X connect 6 1 8 0;
#X connect 7 0 12 2;
#X connect 8 0 12 3;
#X connect 9 0 16 0;
#X connect 9 0 18 0;
#X connect 10 0 9 0;
#X connect 11 0 9 1;
#X connect 12 0 10 0;
#X connect 12 1 11 0;
#X connect 14 0 16 1;
#X connect 16 0 17 0;
#X connect 16 1 2 0;
#X connect 24 0 3 0;
#X restore 11 64 pd geo_calc_dist_in_range;
#X floatatom 11 97 5 0 0 0 - - - 0;
#X floatatom 184 111 5 0 0 0 - - - 0;
#X obj 12 6 inlet;
#X obj 235 2 inlet;
#X text 58 7 Loc Biome;
#X text 282 3 Range Biome;
#X text 841 143 Time elapsed in sec;
#N canvas 143 137 450 300 looper 0;
#X restore 404 251 pd looper;
#X f 10;
#X text 485 251 Still needs to be added;
#X obj 17 477 outlet~;
#X text 78 477 Audio bus for biome;
#X text 231 176 Scaled gainvalue to atmosphere player;
#X text 48 98 In Range 0 = no 1 = yes, f 9;
#X text 130 245 in 1: location of trigger in 2: range of trigger out 1: audio of sampler TODO: Add sampler, f 28;
#X text 190 65 in 1: biome location \, in 2 biome range \, out1: in range state \, out 2: distance;
#X msg 40 33 5.18995 52.9021, f 17;
#X text 228 111 Distance (values greater then range are filtered);
#X floatatom 234 29 5 0 0 0 - - - 0;
#X obj 412 6 inlet;
#X text 458 6 Local reset;
#X connect 0 0 1 0;
#X connect 2 0 3 0;
#X connect 6 0 7 0;
#X connect 6 1 8 0;
#X connect 7 0 0 0;
#X connect 8 0 2 0;
#X connect 9 0 6 0;
#X connect 9 0 22 0;
#X connect 10 0 24 0;
#X connect 22 0 6 0;
#X connect 24 0 2 1;
#X connect 24 0 6 1;
