#N canvas 0 142 1440 600 12;
#N canvas 726 112 506 313 counter 0;
#X text 60 10 Bang for +1;
#X obj 13 168 int 1;
#X msg 154 61 0;
#X obj 61 168 + 1;
#X obj 13 198 outlet;
#X text 71 199 The count;
#X obj 13 102 metro 1000;
#X obj 13 75 tgl 15 0 empty empty empty 17 7 0 10 #fcfcfc #000000 #000000 0 1;
#X obj 156 28 r reset;
#X obj 13 47 inlet;
#X connect 1 0 3 0;
#X connect 1 0 4 0;
#X connect 2 0 1 0;
#X connect 3 0 1 1;
#X connect 6 0 1 0;
#X connect 7 0 6 0;
#X connect 8 0 2 0;
#X connect 9 0 7 0;
#X restore 17 383 pd counter;
#X floatatom 17 414 4 0 0 0 - - - 0;
#X floatatom 213 186 5 0 0 0 - - - 0;
#X text 380 137 Takes distance and maps and scales it to gainvalue;
#N canvas 470 167 818 702 geo_calc_dist_in_range 0;
#X obj 199 6 inlet;
#X text 241 6 Loc;
#X obj 207 343 outlet;
#X obj 17 39 unpack f f, f 15;
#X floatatom 17 101 9 0 0 0 - - - 0;
#X floatatom 118 101 8 0 0 0 - - - 0;
#X obj 199 39 unpack f f;
#X floatatom 200 101 7 0 0 0 - - - 0;
#X floatatom 268 101 7 0 0 0 - - - 0;
#X obj 17 212 expr pow(pow($f1 \, 2) + pow($f2 \, 2) \, 0.5);
#X floatatom 17 180 5 0 0 0 - - - 0;
#X floatatom 293 176 13 0 0 0 - - - 0;
#X obj 17 133 expr abs($f1 - $f3) \; abs($f2 - $f4), f 40;
#X text 310 139 Absolute value of dist between the x and y;
#X obj 317 6 inlet;
#X text 359 7 Range;
#X obj 22 347 outlet;
#X floatatom 43 243 10 0 0 0 - - - 0;
#X text 119 242 Distance;
#X text 311 211 Pythagoras;
#X text 62 179 Distance x;
#X text 404 178 Distance y;
#X text 261 345 Distance > 0;
#X obj 16 7 r live_loc;
#X text 75 344 In Range 0 = no 1 = yes, f 29;
#X obj 20 276 expr if($f1 < $f2 \, 1 \, 0) \; if($f1 < $f2 \, $f1 \, $f2), f 26;
#X connect 0 0 6 0;
#X connect 3 0 4 0;
#X connect 3 1 5 0;
#X connect 4 0 12 0;
#X connect 5 0 12 1;
#X connect 6 0 7 0;
#X connect 6 1 8 0;
#X connect 7 0 12 2;
#X connect 8 0 12 3;
#X connect 9 0 17 0;
#X connect 9 0 25 0;
#X connect 10 0 9 0;
#X connect 11 0 9 1;
#X connect 12 0 10 0;
#X connect 12 1 11 0;
#X connect 14 0 25 1;
#X connect 23 0 3 0;
#X connect 25 0 16 0;
#X connect 25 1 2 0;
#X restore 11 64 pd geo_calc_dist_in_range;
#X floatatom 11 97 5 0 0 0 - - - 0;
#X floatatom 210 105 5 0 0 0 - - - 0;
#X obj 12 6 inlet;
#X obj 235 2 inlet;
#X text 58 7 Loc Biome;
#X text 282 3 Range Biome;
#X text 50 414 Time elapsed in sec;
#X obj 37 589 outlet~;
#X text 98 589 Audio bus for biome;
#X text 257 170 Scaled gainvalue to atmosphere player;
#X text 48 98 In Range 0 = no 1 = yes, f 9;
#X text 251 61 in 1: biome location \, in 2 biome range \, out1: in range state \, out 2: distance;
#X text 254 105 Distance (values greater then range are filtered);
#X floatatom 234 29 5 0 0 0 - - - 0;
#X text 314 188 in 1: location of trigger in 2: range of trigger in 3: Bang the sample out 1: audio of sampler, f 25;
#X obj 12 133 change;
#X obj 32 350 *~, f 30;
#X obj 239 323 line;
#X obj 239 299 pack f f;
#X obj 290 254 loadbang;
#N canvas 227 222 875 487 0-delay 0;
#X obj 7 17 inlet;
#X obj 14 250 outlet;
#X obj 7 46 route 0;
#X obj 8 85 t 0 b;
#X msg 50 129 clear;
#X obj 4 172 pipe 6000;
#X connect 0 0 2 0;
#X connect 2 0 3 0;
#X connect 2 1 1 0;
#X connect 2 1 4 0;
#X connect 3 0 5 0;
#X connect 3 1 4 0;
#X connect 4 0 5 0;
#X connect 5 0 1 0;
#X restore 22 160 pd 0-delay;
#X floatatom 165 181 5 0 0 0 - - - 0;
#X msg 290 277 6000;
#X floatatom 325 388 5 0 0 0 - - - 0;
#X obj 240 276 change;
#N canvas 527 205 450 300 geo_calc_gainvalue 0;
#X obj 15 12 inlet;
#X obj 140 12 inlet;
#X text 61 11 Distance;
#N canvas 63 88 686 391 map 0;
#X obj 203 75 inlet;
#X obj 263 75 inlet;
#X obj 317 75 inlet;
#X obj 377 75 inlet;
#X obj 417 75 inlet;
#X obj 194 308 outlet;
#X text 270 59 lo;
#X text 324 59 hi;
#X text 384 59 lo;
#X text 424 59 hi;
#X obj 254 134 f \$1;
#X obj 308 134 f \$2;
#X obj 368 134 f \$3;
#X obj 408 134 f \$4;
#X obj 194 173 -;
#X obj 273 185 -;
#X obj 254 156 t f b f;
#X obj 194 202 /;
#X text 234 42 from;
#X text 347 40 to;
#X obj 194 246 *;
#X obj 194 274 +;
#X obj 387 185 -;
#X obj 368 156 t f b f;
#X text 53 176 subtract offset 1;
#X text 55 203 divide by range 1;
#X text 43 250 multiply by range 2;
#X text 85 274 add offset 2;
#X obj 493 58 loadbang;
#X obj 493 80 t b b b b;
#X obj 194 134 f;
#X text 399 39 initialize from arguments, f 36;
#X connect 0 0 30 0;
#X connect 1 0 10 0;
#X connect 2 0 11 0;
#X connect 3 0 12 0;
#X connect 4 0 13 0;
#X connect 10 0 16 0;
#X connect 11 0 15 0;
#X connect 12 0 23 0;
#X connect 13 0 22 0;
#X connect 14 0 17 0;
#X connect 15 0 17 1;
#X connect 16 0 14 1;
#X connect 16 1 15 0;
#X connect 16 2 15 1;
#X connect 17 0 20 0;
#X connect 20 0 21 0;
#X connect 21 0 5 0;
#X connect 22 0 20 1;
#X connect 23 0 21 1;
#X connect 23 1 22 0;
#X connect 23 2 22 1;
#X connect 28 0 29 0;
#X connect 29 0 10 0;
#X connect 29 1 11 0;
#X connect 29 2 12 0;
#X connect 29 3 13 0;
#X connect 30 0 14 0;
#X restore 15 154 pd map;
#X obj 261 82 loadbang;
#X msg 261 110 1;
#X msg 79 121 0;
#X floatatom 15 182 5 0 0 0 - - - 0;
#X text 192 11 Range;
#X obj 15 237 outlet;
#X text 78 239 Gain Value Scaled;
#X text 78 184 Mapped Value;
#X text 282 152 Map to [0.0 \, 1.0], f 23;
#X obj 14 209 expr 1 - $f1;
#X floatatom 291 250 5 0 0 0 - - - 0;
#X connect 0 0 3 0;
#X connect 1 0 3 2;
#X connect 3 0 7 0;
#X connect 4 0 6 0;
#X connect 4 0 5 0;
#X connect 5 0 3 4;
#X connect 6 0 3 1;
#X connect 6 0 3 3;
#X connect 7 0 13 0;
#X connect 13 0 9 0;
#X restore 210 137 pd geo_calc_gainvalue;
#X obj 32 235 looper;
#X msg 609 308 open intro_reset.wav;
#X obj 441 3 inlet;
#X text 501 5 Message for .wav file for the biome looper;
#X connect 0 0 1 0;
#X connect 2 0 29 0;
#X connect 4 0 5 0;
#X connect 4 1 6 0;
#X connect 5 0 20 0;
#X connect 6 0 30 0;
#X connect 7 0 4 0;
#X connect 8 0 18 0;
#X connect 18 0 4 1;
#X connect 18 0 30 1;
#X connect 20 0 0 0;
#X connect 20 0 25 0;
#X connect 21 0 12 0;
#X connect 22 0 21 1;
#X connect 22 0 28 0;
#X connect 23 0 22 0;
#X connect 24 0 27 0;
#X connect 25 0 26 0;
#X connect 25 0 31 0;
#X connect 27 0 23 1;
#X connect 29 0 23 0;
#X connect 30 0 2 0;
#X connect 31 0 21 0;
#X connect 32 0 31 1;
#X connect 33 0 31 1;
