#N canvas 363 247 450 300 10;
#X obj 230 74 f;
#X obj 157 113 -;
#X obj 134 80 t f f;
#X obj 157 214 bng 15 250 50 0 empty empty empty 17 7 0 10 -262144
-1 -1;
#X obj 154 185 sel 1;
#X obj 230 45 spigot;
#X obj 143 12 inlet;
#X obj 152 248 outlet;
#X floatatom 221 133 5 0 0 0 - - -, f 5;
#X obj 157 162 > \$1;
#X obj 157 136 abs;
#X connect 0 0 1 1;
#X connect 0 0 8 0;
#X connect 1 0 10 0;
#X connect 2 0 5 0;
#X connect 2 1 1 0;
#X connect 3 0 7 0;
#X connect 4 0 3 0;
#X connect 5 0 0 0;
#X connect 6 0 2 0;
#X connect 9 0 4 0;
#X connect 9 0 5 1;
#X connect 10 0 9 0;
