#N canvas 235 252 720 526 12;
#N canvas 63 88 686 391 map 0;
#X obj 203 75 inlet;
#X obj 263 75 inlet;
#X obj 317 75 inlet;
#X obj 377 75 inlet;
#X obj 417 75 inlet;
#X obj 194 308 outlet;
#X text 270 59 lo;
#X text 324 59 hi;
#X text 384 59 lo;
#X text 424 59 hi;
#X obj 254 134 f \$1;
#X obj 308 134 f \$2;
#X obj 368 134 f \$3;
#X obj 408 134 f \$4;
#X obj 194 173 -;
#X obj 273 185 -;
#X obj 254 156 t f b f;
#X obj 194 202 /;
#X text 234 42 from;
#X text 347 40 to;
#X obj 194 246 *;
#X obj 194 274 +;
#X obj 387 185 -;
#X obj 368 156 t f b f;
#X text 53 176 subtract offset 1;
#X text 55 203 divide by range 1;
#X text 43 250 multiply by range 2;
#X text 85 274 add offset 2;
#X obj 493 58 loadbang;
#X obj 493 80 t b b b b;
#X obj 194 134 f;
#X text 399 39 initialize from arguments, f 36;
#X connect 0 0 30 0;
#X connect 1 0 10 0;
#X connect 2 0 11 0;
#X connect 3 0 12 0;
#X connect 4 0 13 0;
#X connect 10 0 16 0;
#X connect 11 0 15 0;
#X connect 12 0 23 0;
#X connect 13 0 22 0;
#X connect 14 0 17 0;
#X connect 15 0 17 1;
#X connect 16 0 14 1;
#X connect 16 1 15 0;
#X connect 16 2 15 1;
#X connect 17 0 20 0;
#X connect 20 0 21 0;
#X connect 21 0 5 0;
#X connect 22 0 20 1;
#X connect 23 0 21 1;
#X connect 23 1 22 0;
#X connect 23 2 22 1;
#X connect 28 0 29 0;
#X connect 29 0 10 0;
#X connect 29 1 11 0;
#X connect 29 2 12 0;
#X connect 29 3 13 0;
#X connect 30 0 14 0;
#X restore 47 243 pd map;
#X f 22;
#X obj 72 212 unpack i i i i, f 17;
#X obj 50 160 clip, f 8;
#X obj 83 132 unpack f f;
#X obj 45 302 expr 1 - $f1;
#X floatatom 45 349 5 0 0 0 - - - 0;
#X floatatom 152 349 5 0 0 0 - - - 0;
#X text -2 349 Dry;
#X text 202 351 Wet;
#X text 94 28 Counter in;
#X obj 245 23 inlet~;
#X obj 25 29 inlet;
#X obj 72 68 loadbang;
#X text 314 21 Audio In;
#X obj 333 379 *~;
#X obj 262 438 outlet~;
#X msg 73 100 0 80 0 1;
#X text 562 335 <-- frequency and Q, f 20;
#X obj 209 395 *~;
#X obj 350 298 stutter;
#X obj 490 284 tgl 19 0 empty empty empty 0 -10 0 12 #fcfcfc #000000 #000000 0 1;
#X obj 518 221 sel 0;
#X floatatom 617 222 5 0 0 0 - - - 0;
#X obj 319 236 rev3~ 100 90 3000 0;
#X obj 460 84 loadbang;
#X obj 511 189 random 4;
#X obj 458 125 metro 1500;
#X obj 567 268 delay 1400;
#X connect 0 0 4 0;
#X connect 0 0 6 0;
#X connect 1 0 0 1;
#X connect 1 1 0 2;
#X connect 1 2 0 3;
#X connect 1 3 0 4;
#X connect 2 0 0 0;
#X connect 3 0 2 1;
#X connect 3 1 2 2;
#X connect 4 0 5 0;
#X connect 5 0 18 1;
#X connect 6 0 14 1;
#X connect 10 0 18 0;
#X connect 10 0 23 0;
#X connect 11 0 2 0;
#X connect 12 0 16 0;
#X connect 14 0 15 0;
#X connect 16 0 1 0;
#X connect 16 0 3 0;
#X connect 18 0 15 0;
#X connect 19 0 14 0;
#X connect 20 0 19 2;
#X connect 21 0 20 0;
#X connect 21 0 27 0;
#X connect 23 0 14 0;
#X connect 23 1 19 0;
#X connect 24 0 26 0;
#X connect 25 0 21 0;
#X connect 25 0 22 0;
#X connect 26 0 25 0;
#X connect 27 0 20 0;
