#N canvas 0 44 1800 1097 12;
#N canvas 92 136 1170 811 fx_ocean 0;
#N canvas 333 143 1467 675 effects 0;
#X obj 57 23 inlet~;
#X obj 197 24 inlet;
#X text 4 24 audio:;
#X text 128 25 counter:;
#X obj 58 76 outlet~;
#N canvas 64 45 1467 675 flanger 0;
#X obj 18 27 inlet~;
#X text 67 27 audio;
#X obj 243 9 inlet;
#X text 186 9 counter;
#X text 743 284 rate depth (0-1);
#X text 1597 293 dry/wet (0-1);
#X obj 792 325 vsl 19 162 0 0.652 0 0 empty empty empty 0 -9 0 12 #fcfcfc #000000 #000000 0 1;
#X obj 1315 326 vsl 19 162 0 0.9 0 0 empty empty empty 0 -9 0 12 #fcfcfc #000000 #000000 0 1;
#X obj 1611 331 vsl 19 162 0 1 0 0 empty empty empty 0 -9 0 12 #fcfcfc #000000 #000000 0 1;
#X obj 1058 324 vsl 19 162 0 17 0 0 empty empty empty 0 -9 0 12 #fcfcfc #000000 #000000 0 1;
#X floatatom 1083 468 5 0 0 0 - - - 0;
#X obj 578 321 vsl 19 162 0 135 0 0 empty empty empty 0 -9 0 12 #fcfcfc #000000 #000000 0 1;
#X floatatom 603 465 5 0 0 0 - - - 0;
#X floatatom 818 470 5 0 0 0 - - - 0;
#X floatatom 1339 472 5 0 0 0 - - - 0;
#X floatatom 1638 476 5 0 0 0 - - - 0;
#X obj 19 99 delwrite~ flanger 300;
#X obj 190 270 osc~;
#X floatatom 239 271 5 0 135 0 - - - 0;
#X obj 190 300 *~;
#X text 265 270 rate;
#X floatatom 310 330 5 0 1 0 rate\ depth - - 0;
#X obj 192 401 +~;
#X obj 224 400 sig~;
#X floatatom 323 401 5 0 17 0 del\ time - - 0;
#X obj 296 474 *~;
#X floatatom 254 474 5 0 0.98 0 feedback - - 0;
#X obj 107 452 *~;
#X floatatom 108 428 5 0 1 0 wet - - 0;
#X obj 25 576 outlet~;
#X floatatom 404 423 5 0 0 0 - - - 0;
#X text 555 282 rate (0-135);
#X text 1016 294 delay time(0-17);
#X obj 137 452 - 1;
#X obj 135 488 abs;
#X obj 21 460 *~;
#X floatatom 39 429 5 0 1 0 dry - - 0;
#N canvas 788 68 450 300 scale 0;
#X obj 80 29 inlet;
#X obj 80 101 -;
#X obj 80 227 /;
#X obj 80 288 *;
#X obj 80 348 +;
#X obj 80 368 outlet;
#X obj 120 29 inlet;
#X obj 120 86 t a a;
#X obj 165 29 inlet;
#X obj 147 172 pack f f;
#X msg 147 192 \$1 \$2;
#X obj 147 212 -;
#X obj 165 139 t b a;
#X obj 210 29 inlet;
#X obj 210 191 t a a;
#X obj 255 29 inlet;
#X obj 237 233 pack f f;
#X msg 237 253 \$1 \$2;
#X obj 237 273 -;
#X obj 255 200 t b a;
#X obj 325 29 loadbang;
#X obj 325 49 t b b b b;
#X obj 127 64 f \$1;
#X obj 262 178 f \$4;
#X obj 217 169 f \$3;
#X obj 172 117 f \$2;
#X text 37 3 input \, old low \, old high \, new low \, new high;
#X connect 0 0 1 0;
#X connect 1 0 2 0;
#X connect 2 0 3 0;
#X connect 3 0 4 0;
#X connect 4 0 5 0;
#X connect 6 0 7 0;
#X connect 7 0 1 1;
#X connect 7 1 9 0;
#X connect 8 0 12 0;
#X connect 9 0 10 0;
#X connect 10 0 11 0;
#X connect 11 0 2 1;
#X connect 12 0 9 0;
#X connect 12 1 9 1;
#X connect 13 0 14 0;
#X connect 14 0 16 0;
#X connect 14 1 4 1;
#X connect 15 0 19 0;
#X connect 16 0 17 0;
#X connect 17 0 18 0;
#X connect 18 0 3 1;
#X connect 19 0 16 0;
#X connect 19 1 16 1;
#X connect 20 0 21 0;
#X connect 21 0 22 0;
#X connect 21 1 25 0;
#X connect 21 2 24 0;
#X connect 21 3 23 0;
#X connect 22 0 7 0;
#X connect 23 0 19 0;
#X connect 24 0 14 0;
#X connect 25 0 12 0;
#X restore 561 228 pd scale;
#X floatatom 561 255 5 0 0 0 - - - 0;
#X obj 245 100 spigot;
#X obj 282 74 tgl 19 0 empty empty empty 0 -10 0 12 #fcfcfc #000000 #000000 0 1;
#X floatatom 245 137 5 0 0 0 - - - 0;
#X msg 574 200 60;
#X msg 607 200 180;
#X msg 643 199 0;
#X msg 677 199 135;
#X obj 575 170 loadbang;
#N canvas 788 68 450 300 scale 0;
#X obj 80 29 inlet;
#X obj 80 101 -;
#X obj 80 227 /;
#X obj 80 288 *;
#X obj 80 348 +;
#X obj 80 368 outlet;
#X obj 120 29 inlet;
#X obj 120 86 t a a;
#X obj 165 29 inlet;
#X obj 147 172 pack f f;
#X msg 147 192 \$1 \$2;
#X obj 147 212 -;
#X obj 165 139 t b a;
#X obj 210 29 inlet;
#X obj 210 191 t a a;
#X obj 255 29 inlet;
#X obj 237 233 pack f f;
#X msg 237 253 \$1 \$2;
#X obj 237 273 -;
#X obj 255 200 t b a;
#X obj 325 29 loadbang;
#X obj 325 49 t b b b b;
#X obj 127 64 f \$1;
#X obj 262 178 f \$4;
#X obj 217 169 f \$3;
#X obj 172 117 f \$2;
#X text 37 3 input \, old low \, old high \, new low \, new high;
#X connect 0 0 1 0;
#X connect 1 0 2 0;
#X connect 2 0 3 0;
#X connect 3 0 4 0;
#X connect 4 0 5 0;
#X connect 6 0 7 0;
#X connect 7 0 1 1;
#X connect 7 1 9 0;
#X connect 8 0 12 0;
#X connect 9 0 10 0;
#X connect 10 0 11 0;
#X connect 11 0 2 1;
#X connect 12 0 9 0;
#X connect 12 1 9 1;
#X connect 13 0 14 0;
#X connect 14 0 16 0;
#X connect 14 1 4 1;
#X connect 15 0 19 0;
#X connect 16 0 17 0;
#X connect 17 0 18 0;
#X connect 18 0 3 1;
#X connect 19 0 16 0;
#X connect 19 1 16 1;
#X connect 20 0 21 0;
#X connect 21 0 22 0;
#X connect 21 1 25 0;
#X connect 21 2 24 0;
#X connect 21 3 23 0;
#X connect 22 0 7 0;
#X connect 23 0 19 0;
#X connect 24 0 14 0;
#X connect 25 0 12 0;
#X restore 789 225 pd scale;
#X floatatom 790 251 5 0 0 0 - - - 0;
#X msg 802 200 60;
#X msg 835 200 180;
#X msg 871 199 0;
#X obj 800 173 loadbang;
#X msg 905 199 0.652;
#N canvas 788 68 450 300 scale 0;
#X obj 80 29 inlet;
#X obj 80 101 -;
#X obj 80 227 /;
#X obj 80 288 *;
#X obj 80 348 +;
#X obj 80 368 outlet;
#X obj 120 29 inlet;
#X obj 120 86 t a a;
#X obj 165 29 inlet;
#X obj 147 172 pack f f;
#X msg 147 192 \$1 \$2;
#X obj 147 212 -;
#X obj 165 139 t b a;
#X obj 210 29 inlet;
#X obj 210 191 t a a;
#X obj 255 29 inlet;
#X obj 237 233 pack f f;
#X msg 237 253 \$1 \$2;
#X obj 237 273 -;
#X obj 255 200 t b a;
#X obj 325 29 loadbang;
#X obj 325 49 t b b b b;
#X obj 127 64 f \$1;
#X obj 262 178 f \$4;
#X obj 217 169 f \$3;
#X obj 172 117 f \$2;
#X text 37 3 input \, old low \, old high \, new low \, new high;
#X connect 0 0 1 0;
#X connect 1 0 2 0;
#X connect 2 0 3 0;
#X connect 3 0 4 0;
#X connect 4 0 5 0;
#X connect 6 0 7 0;
#X connect 7 0 1 1;
#X connect 7 1 9 0;
#X connect 8 0 12 0;
#X connect 9 0 10 0;
#X connect 10 0 11 0;
#X connect 11 0 2 1;
#X connect 12 0 9 0;
#X connect 12 1 9 1;
#X connect 13 0 14 0;
#X connect 14 0 16 0;
#X connect 14 1 4 1;
#X connect 15 0 19 0;
#X connect 16 0 17 0;
#X connect 17 0 18 0;
#X connect 18 0 3 1;
#X connect 19 0 16 0;
#X connect 19 1 16 1;
#X connect 20 0 21 0;
#X connect 21 0 22 0;
#X connect 21 1 25 0;
#X connect 21 2 24 0;
#X connect 21 3 23 0;
#X connect 22 0 7 0;
#X connect 23 0 19 0;
#X connect 24 0 14 0;
#X connect 25 0 12 0;
#X restore 1059 230 pd scale;
#X floatatom 1060 256 5 0 0 0 - - - 0;
#X msg 1073 201 60;
#X msg 1106 201 180;
#X msg 1142 200 0;
#X obj 1074 174 loadbang;
#X msg 1176 200 17;
#N canvas 788 68 450 300 scale 0;
#X obj 80 29 inlet;
#X obj 80 101 -;
#X obj 80 227 /;
#X obj 80 288 *;
#X obj 80 348 +;
#X obj 80 368 outlet;
#X obj 120 29 inlet;
#X obj 120 86 t a a;
#X obj 165 29 inlet;
#X obj 147 172 pack f f;
#X msg 147 192 \$1 \$2;
#X obj 147 212 -;
#X obj 165 139 t b a;
#X obj 210 29 inlet;
#X obj 210 191 t a a;
#X obj 255 29 inlet;
#X obj 237 233 pack f f;
#X msg 237 253 \$1 \$2;
#X obj 237 273 -;
#X obj 255 200 t b a;
#X obj 325 29 loadbang;
#X obj 325 49 t b b b b;
#X obj 127 64 f \$1;
#X obj 262 178 f \$4;
#X obj 217 169 f \$3;
#X obj 172 117 f \$2;
#X text 37 3 input \, old low \, old high \, new low \, new high;
#X connect 0 0 1 0;
#X connect 1 0 2 0;
#X connect 2 0 3 0;
#X connect 3 0 4 0;
#X connect 4 0 5 0;
#X connect 6 0 7 0;
#X connect 7 0 1 1;
#X connect 7 1 9 0;
#X connect 8 0 12 0;
#X connect 9 0 10 0;
#X connect 10 0 11 0;
#X connect 11 0 2 1;
#X connect 12 0 9 0;
#X connect 12 1 9 1;
#X connect 13 0 14 0;
#X connect 14 0 16 0;
#X connect 14 1 4 1;
#X connect 15 0 19 0;
#X connect 16 0 17 0;
#X connect 17 0 18 0;
#X connect 18 0 3 1;
#X connect 19 0 16 0;
#X connect 19 1 16 1;
#X connect 20 0 21 0;
#X connect 21 0 22 0;
#X connect 21 1 25 0;
#X connect 21 2 24 0;
#X connect 21 3 23 0;
#X connect 22 0 7 0;
#X connect 23 0 19 0;
#X connect 24 0 14 0;
#X connect 25 0 12 0;
#X restore 1607 245 pd scale;
#X floatatom 1608 270 5 0 0 0 - - - 0;
#X msg 1620 217 60;
#X msg 1653 217 180;
#X msg 1689 216 0;
#X obj 1620 185 loadbang;
#X msg 1722 214 1;
#N canvas 788 68 450 300 scale 0;
#X obj 80 29 inlet;
#X obj 80 101 -;
#X obj 80 227 /;
#X obj 80 288 *;
#X obj 80 348 +;
#X obj 80 368 outlet;
#X obj 120 29 inlet;
#X obj 120 86 t a a;
#X obj 165 29 inlet;
#X obj 147 172 pack f f;
#X msg 147 192 \$1 \$2;
#X obj 147 212 -;
#X obj 165 139 t b a;
#X obj 210 29 inlet;
#X obj 210 191 t a a;
#X obj 255 29 inlet;
#X obj 237 233 pack f f;
#X msg 237 253 \$1 \$2;
#X obj 237 273 -;
#X obj 255 200 t b a;
#X obj 325 29 loadbang;
#X obj 325 49 t b b b b;
#X obj 127 64 f \$1;
#X obj 262 178 f \$4;
#X obj 217 169 f \$3;
#X obj 172 117 f \$2;
#X text 37 3 input \, old low \, old high \, new low \, new high;
#X connect 0 0 1 0;
#X connect 1 0 2 0;
#X connect 2 0 3 0;
#X connect 3 0 4 0;
#X connect 4 0 5 0;
#X connect 6 0 7 0;
#X connect 7 0 1 1;
#X connect 7 1 9 0;
#X connect 8 0 12 0;
#X connect 9 0 10 0;
#X connect 10 0 11 0;
#X connect 11 0 2 1;
#X connect 12 0 9 0;
#X connect 12 1 9 1;
#X connect 13 0 14 0;
#X connect 14 0 16 0;
#X connect 14 1 4 1;
#X connect 15 0 19 0;
#X connect 16 0 17 0;
#X connect 17 0 18 0;
#X connect 18 0 3 1;
#X connect 19 0 16 0;
#X connect 19 1 16 1;
#X connect 20 0 21 0;
#X connect 21 0 22 0;
#X connect 21 1 25 0;
#X connect 21 2 24 0;
#X connect 21 3 23 0;
#X connect 22 0 7 0;
#X connect 23 0 19 0;
#X connect 24 0 14 0;
#X connect 25 0 12 0;
#X restore 1307 225 pd scale;
#X floatatom 1308 253 5 0 0 0 - - - 0;
#X msg 1319 200 60;
#X msg 1352 200 180;
#X msg 1388 199 0;
#X obj 1320 173 loadbang;
#X msg 1422 199 0.9;
#X text 1274 290 feedback(0-0.9);
#X obj 281 47 expr if($f1 > 59 && $f1 < 181 \, 1 \, 0);
#X text 256 25 let num through when its value is above 60 and below 180;
#X obj 312 75 sel 0;
#X msg 313 107 60;
#X text 545 47 return 0 when false and 1 when true;
#X text 18 536 wet cant be higher then 1 so dry can be abs value of wet - 1;
#X text 353 74 reset to 60 when false;
#X obj 578 502 s flanger_rate3;
#X obj 792 502 s flanger_rate_depth3;
#X obj 1059 499 s flanger_del_time3;
#X obj 1316 506 s flanger_feedback3;
#X obj 1608 516 s flanger_dry/wet3;
#X obj 1528 218 r ctr_value3;
#X obj 1224 201 r ctr_value3;
#X obj 981 201 r ctr_value3;
#X obj 709 199 r ctr_value3;
#X obj 476 201 r ctr_value3;
#X obj 332 473 r flanger_feedback3;
#X obj 297 502 s~ feedback3;
#X obj 58 396 r flanger_dry/wet3;
#X obj 260 366 r flanger_del_time3;
#X obj 246 300 r flanger_rate_depth3;
#X obj 227 242 r flanger_rate3;
#X obj 247 162 s ctr_value3;
#X obj 33 73 r~ feedback3;
#X obj 191 437 vd~ flanger 300;
#X connect 0 0 16 0;
#X connect 0 0 35 0;
#X connect 2 0 39 0;
#X connect 2 0 76 0;
#X connect 6 0 13 0;
#X connect 6 0 84 0;
#X connect 7 0 14 0;
#X connect 7 0 86 0;
#X connect 8 0 15 0;
#X connect 8 0 87 0;
#X connect 9 0 10 0;
#X connect 9 0 85 0;
#X connect 11 0 12 0;
#X connect 11 0 83 0;
#X connect 17 0 19 0;
#X connect 18 0 17 0;
#X connect 19 0 22 0;
#X connect 21 0 19 1;
#X connect 22 0 101 0;
#X connect 23 0 22 1;
#X connect 24 0 23 0;
#X connect 25 0 94 0;
#X connect 26 0 25 1;
#X connect 27 0 29 0;
#X connect 28 0 27 1;
#X connect 28 0 33 0;
#X connect 33 0 34 0;
#X connect 34 0 36 0;
#X connect 35 0 29 0;
#X connect 36 0 35 1;
#X connect 37 0 38 0;
#X connect 38 0 11 0;
#X connect 39 0 41 0;
#X connect 40 0 39 1;
#X connect 41 0 99 0;
#X connect 42 0 37 1;
#X connect 43 0 37 2;
#X connect 44 0 37 3;
#X connect 45 0 37 4;
#X connect 46 0 42 0;
#X connect 46 0 43 0;
#X connect 46 0 44 0;
#X connect 46 0 45 0;
#X connect 47 0 48 0;
#X connect 48 0 6 0;
#X connect 49 0 47 1;
#X connect 50 0 47 2;
#X connect 51 0 47 3;
#X connect 52 0 49 0;
#X connect 52 0 50 0;
#X connect 52 0 51 0;
#X connect 52 0 53 0;
#X connect 53 0 47 4;
#X connect 54 0 55 0;
#X connect 55 0 9 0;
#X connect 56 0 54 1;
#X connect 57 0 54 2;
#X connect 58 0 54 3;
#X connect 59 0 56 0;
#X connect 59 0 57 0;
#X connect 59 0 58 0;
#X connect 59 0 60 0;
#X connect 60 0 54 4;
#X connect 61 0 62 0;
#X connect 62 0 8 0;
#X connect 63 0 61 1;
#X connect 64 0 61 2;
#X connect 65 0 61 3;
#X connect 66 0 63 0;
#X connect 66 0 64 0;
#X connect 66 0 65 0;
#X connect 66 0 67 0;
#X connect 67 0 61 4;
#X connect 68 0 69 0;
#X connect 69 0 7 0;
#X connect 70 0 68 1;
#X connect 71 0 68 2;
#X connect 72 0 68 3;
#X connect 73 0 70 0;
#X connect 73 0 71 0;
#X connect 73 0 72 0;
#X connect 73 0 74 0;
#X connect 74 0 68 4;
#X connect 76 0 40 0;
#X connect 76 0 78 0;
#X connect 78 0 79 0;
#X connect 79 0 41 0;
#X connect 88 0 61 0;
#X connect 89 0 68 0;
#X connect 90 0 54 0;
#X connect 91 0 47 0;
#X connect 92 0 37 0;
#X connect 93 0 26 0;
#X connect 95 0 28 0;
#X connect 96 0 24 0;
#X connect 97 0 21 0;
#X connect 98 0 18 0;
#X connect 100 0 16 0;
#X connect 101 0 25 0;
#X connect 101 0 27 0;
#X restore 57 49 pd flanger;
#X connect 0 0 5 0;
#X connect 1 0 5 1;
#X connect 5 0 4 0;
#X restore 169 262 pd effects;
#X obj 237 198 inlet;
#X obj 171 311 outlet~;
#X obj 98 188 inlet~;
#X connect 0 0 2 0;
#X connect 1 0 0 1;
#X connect 3 0 0 0;
#X restore 906 339 pd fx_ocean;
#N canvas 92 136 1170 811 fx_jungle 0;
#N canvas 333 143 1467 675 effects 0;
#X obj 57 23 inlet~;
#X obj 197 24 inlet;
#X text 4 24 audio:;
#X text 128 25 counter:;
#X obj 58 76 outlet~;
#N canvas 64 45 1467 675 flanger 0;
#X obj 18 27 inlet~;
#X text 67 27 audio;
#X obj 243 9 inlet;
#X text 186 9 counter;
#X text 743 284 rate depth (0-1);
#X text 1597 293 dry/wet (0-1);
#X obj 792 325 vsl 19 162 0 0.652 0 0 empty empty empty 0 -9 0 12 #fcfcfc #000000 #000000 0 1;
#X obj 1315 326 vsl 19 162 0 0.9 0 0 empty empty empty 0 -9 0 12 #fcfcfc #000000 #000000 0 1;
#X obj 1611 331 vsl 19 162 0 1 0 0 empty empty empty 0 -9 0 12 #fcfcfc #000000 #000000 0 1;
#X obj 1058 324 vsl 19 162 0 17 0 0 empty empty empty 0 -9 0 12 #fcfcfc #000000 #000000 0 1;
#X floatatom 1083 468 5 0 0 0 - - - 0;
#X obj 578 321 vsl 19 162 0 135 0 0 empty empty empty 0 -9 0 12 #fcfcfc #000000 #000000 0 1;
#X floatatom 603 465 5 0 0 0 - - - 0;
#X floatatom 818 470 5 0 0 0 - - - 0;
#X floatatom 1339 472 5 0 0 0 - - - 0;
#X floatatom 1638 476 5 0 0 0 - - - 0;
#X obj 19 99 delwrite~ flanger 300;
#X obj 190 270 osc~;
#X floatatom 239 271 5 0 135 0 - - - 0;
#X obj 190 300 *~;
#X text 265 270 rate;
#X floatatom 310 330 5 0 1 0 rate\ depth - - 0;
#X obj 192 401 +~;
#X obj 224 400 sig~;
#X floatatom 323 401 5 0 17 0 del\ time - - 0;
#X obj 296 474 *~;
#X floatatom 254 474 5 0 0.98 0 feedback - - 0;
#X obj 107 452 *~;
#X floatatom 108 428 5 0 1 0 wet - - 0;
#X obj 25 576 outlet~;
#X floatatom 404 423 5 0 0 0 - - - 0;
#X text 555 282 rate (0-135);
#X text 1016 294 delay time(0-17);
#X obj 137 452 - 1;
#X obj 135 488 abs;
#X obj 21 460 *~;
#X floatatom 39 429 5 0 1 0 dry - - 0;
#N canvas 788 68 450 300 scale 0;
#X obj 80 29 inlet;
#X obj 80 101 -;
#X obj 80 227 /;
#X obj 80 288 *;
#X obj 80 348 +;
#X obj 80 368 outlet;
#X obj 120 29 inlet;
#X obj 120 86 t a a;
#X obj 165 29 inlet;
#X obj 147 172 pack f f;
#X msg 147 192 \$1 \$2;
#X obj 147 212 -;
#X obj 165 139 t b a;
#X obj 210 29 inlet;
#X obj 210 191 t a a;
#X obj 255 29 inlet;
#X obj 237 233 pack f f;
#X msg 237 253 \$1 \$2;
#X obj 237 273 -;
#X obj 255 200 t b a;
#X obj 325 29 loadbang;
#X obj 325 49 t b b b b;
#X obj 127 64 f \$1;
#X obj 262 178 f \$4;
#X obj 217 169 f \$3;
#X obj 172 117 f \$2;
#X text 37 3 input \, old low \, old high \, new low \, new high;
#X connect 0 0 1 0;
#X connect 1 0 2 0;
#X connect 2 0 3 0;
#X connect 3 0 4 0;
#X connect 4 0 5 0;
#X connect 6 0 7 0;
#X connect 7 0 1 1;
#X connect 7 1 9 0;
#X connect 8 0 12 0;
#X connect 9 0 10 0;
#X connect 10 0 11 0;
#X connect 11 0 2 1;
#X connect 12 0 9 0;
#X connect 12 1 9 1;
#X connect 13 0 14 0;
#X connect 14 0 16 0;
#X connect 14 1 4 1;
#X connect 15 0 19 0;
#X connect 16 0 17 0;
#X connect 17 0 18 0;
#X connect 18 0 3 1;
#X connect 19 0 16 0;
#X connect 19 1 16 1;
#X connect 20 0 21 0;
#X connect 21 0 22 0;
#X connect 21 1 25 0;
#X connect 21 2 24 0;
#X connect 21 3 23 0;
#X connect 22 0 7 0;
#X connect 23 0 19 0;
#X connect 24 0 14 0;
#X connect 25 0 12 0;
#X restore 561 228 pd scale;
#X floatatom 561 255 5 0 0 0 - - - 0;
#X obj 245 100 spigot;
#X obj 282 74 tgl 19 0 empty empty empty 0 -10 0 12 #fcfcfc #000000 #000000 0 1;
#X floatatom 245 137 5 0 0 0 - - - 0;
#X msg 574 200 60;
#X msg 607 200 180;
#X msg 643 199 0;
#X msg 677 199 135;
#X obj 575 170 loadbang;
#N canvas 788 68 450 300 scale 0;
#X obj 80 29 inlet;
#X obj 80 101 -;
#X obj 80 227 /;
#X obj 80 288 *;
#X obj 80 348 +;
#X obj 80 368 outlet;
#X obj 120 29 inlet;
#X obj 120 86 t a a;
#X obj 165 29 inlet;
#X obj 147 172 pack f f;
#X msg 147 192 \$1 \$2;
#X obj 147 212 -;
#X obj 165 139 t b a;
#X obj 210 29 inlet;
#X obj 210 191 t a a;
#X obj 255 29 inlet;
#X obj 237 233 pack f f;
#X msg 237 253 \$1 \$2;
#X obj 237 273 -;
#X obj 255 200 t b a;
#X obj 325 29 loadbang;
#X obj 325 49 t b b b b;
#X obj 127 64 f \$1;
#X obj 262 178 f \$4;
#X obj 217 169 f \$3;
#X obj 172 117 f \$2;
#X text 37 3 input \, old low \, old high \, new low \, new high;
#X connect 0 0 1 0;
#X connect 1 0 2 0;
#X connect 2 0 3 0;
#X connect 3 0 4 0;
#X connect 4 0 5 0;
#X connect 6 0 7 0;
#X connect 7 0 1 1;
#X connect 7 1 9 0;
#X connect 8 0 12 0;
#X connect 9 0 10 0;
#X connect 10 0 11 0;
#X connect 11 0 2 1;
#X connect 12 0 9 0;
#X connect 12 1 9 1;
#X connect 13 0 14 0;
#X connect 14 0 16 0;
#X connect 14 1 4 1;
#X connect 15 0 19 0;
#X connect 16 0 17 0;
#X connect 17 0 18 0;
#X connect 18 0 3 1;
#X connect 19 0 16 0;
#X connect 19 1 16 1;
#X connect 20 0 21 0;
#X connect 21 0 22 0;
#X connect 21 1 25 0;
#X connect 21 2 24 0;
#X connect 21 3 23 0;
#X connect 22 0 7 0;
#X connect 23 0 19 0;
#X connect 24 0 14 0;
#X connect 25 0 12 0;
#X restore 789 225 pd scale;
#X floatatom 790 251 5 0 0 0 - - - 0;
#X msg 802 200 60;
#X msg 835 200 180;
#X msg 871 199 0;
#X obj 800 173 loadbang;
#X msg 905 199 0.652;
#N canvas 788 68 450 300 scale 0;
#X obj 80 29 inlet;
#X obj 80 101 -;
#X obj 80 227 /;
#X obj 80 288 *;
#X obj 80 348 +;
#X obj 80 368 outlet;
#X obj 120 29 inlet;
#X obj 120 86 t a a;
#X obj 165 29 inlet;
#X obj 147 172 pack f f;
#X msg 147 192 \$1 \$2;
#X obj 147 212 -;
#X obj 165 139 t b a;
#X obj 210 29 inlet;
#X obj 210 191 t a a;
#X obj 255 29 inlet;
#X obj 237 233 pack f f;
#X msg 237 253 \$1 \$2;
#X obj 237 273 -;
#X obj 255 200 t b a;
#X obj 325 29 loadbang;
#X obj 325 49 t b b b b;
#X obj 127 64 f \$1;
#X obj 262 178 f \$4;
#X obj 217 169 f \$3;
#X obj 172 117 f \$2;
#X text 37 3 input \, old low \, old high \, new low \, new high;
#X connect 0 0 1 0;
#X connect 1 0 2 0;
#X connect 2 0 3 0;
#X connect 3 0 4 0;
#X connect 4 0 5 0;
#X connect 6 0 7 0;
#X connect 7 0 1 1;
#X connect 7 1 9 0;
#X connect 8 0 12 0;
#X connect 9 0 10 0;
#X connect 10 0 11 0;
#X connect 11 0 2 1;
#X connect 12 0 9 0;
#X connect 12 1 9 1;
#X connect 13 0 14 0;
#X connect 14 0 16 0;
#X connect 14 1 4 1;
#X connect 15 0 19 0;
#X connect 16 0 17 0;
#X connect 17 0 18 0;
#X connect 18 0 3 1;
#X connect 19 0 16 0;
#X connect 19 1 16 1;
#X connect 20 0 21 0;
#X connect 21 0 22 0;
#X connect 21 1 25 0;
#X connect 21 2 24 0;
#X connect 21 3 23 0;
#X connect 22 0 7 0;
#X connect 23 0 19 0;
#X connect 24 0 14 0;
#X connect 25 0 12 0;
#X restore 1059 230 pd scale;
#X floatatom 1060 256 5 0 0 0 - - - 0;
#X msg 1073 201 60;
#X msg 1106 201 180;
#X msg 1142 200 0;
#X obj 1074 174 loadbang;
#X msg 1176 200 17;
#N canvas 788 68 450 300 scale 0;
#X obj 80 29 inlet;
#X obj 80 101 -;
#X obj 80 227 /;
#X obj 80 288 *;
#X obj 80 348 +;
#X obj 80 368 outlet;
#X obj 120 29 inlet;
#X obj 120 86 t a a;
#X obj 165 29 inlet;
#X obj 147 172 pack f f;
#X msg 147 192 \$1 \$2;
#X obj 147 212 -;
#X obj 165 139 t b a;
#X obj 210 29 inlet;
#X obj 210 191 t a a;
#X obj 255 29 inlet;
#X obj 237 233 pack f f;
#X msg 237 253 \$1 \$2;
#X obj 237 273 -;
#X obj 255 200 t b a;
#X obj 325 29 loadbang;
#X obj 325 49 t b b b b;
#X obj 127 64 f \$1;
#X obj 262 178 f \$4;
#X obj 217 169 f \$3;
#X obj 172 117 f \$2;
#X text 37 3 input \, old low \, old high \, new low \, new high;
#X connect 0 0 1 0;
#X connect 1 0 2 0;
#X connect 2 0 3 0;
#X connect 3 0 4 0;
#X connect 4 0 5 0;
#X connect 6 0 7 0;
#X connect 7 0 1 1;
#X connect 7 1 9 0;
#X connect 8 0 12 0;
#X connect 9 0 10 0;
#X connect 10 0 11 0;
#X connect 11 0 2 1;
#X connect 12 0 9 0;
#X connect 12 1 9 1;
#X connect 13 0 14 0;
#X connect 14 0 16 0;
#X connect 14 1 4 1;
#X connect 15 0 19 0;
#X connect 16 0 17 0;
#X connect 17 0 18 0;
#X connect 18 0 3 1;
#X connect 19 0 16 0;
#X connect 19 1 16 1;
#X connect 20 0 21 0;
#X connect 21 0 22 0;
#X connect 21 1 25 0;
#X connect 21 2 24 0;
#X connect 21 3 23 0;
#X connect 22 0 7 0;
#X connect 23 0 19 0;
#X connect 24 0 14 0;
#X connect 25 0 12 0;
#X restore 1607 245 pd scale;
#X floatatom 1608 270 5 0 0 0 - - - 0;
#X msg 1620 217 60;
#X msg 1653 217 180;
#X msg 1689 216 0;
#X obj 1620 185 loadbang;
#X msg 1722 214 1;
#N canvas 788 68 450 300 scale 0;
#X obj 80 29 inlet;
#X obj 80 101 -;
#X obj 80 227 /;
#X obj 80 288 *;
#X obj 80 348 +;
#X obj 80 368 outlet;
#X obj 120 29 inlet;
#X obj 120 86 t a a;
#X obj 165 29 inlet;
#X obj 147 172 pack f f;
#X msg 147 192 \$1 \$2;
#X obj 147 212 -;
#X obj 165 139 t b a;
#X obj 210 29 inlet;
#X obj 210 191 t a a;
#X obj 255 29 inlet;
#X obj 237 233 pack f f;
#X msg 237 253 \$1 \$2;
#X obj 237 273 -;
#X obj 255 200 t b a;
#X obj 325 29 loadbang;
#X obj 325 49 t b b b b;
#X obj 127 64 f \$1;
#X obj 262 178 f \$4;
#X obj 217 169 f \$3;
#X obj 172 117 f \$2;
#X text 37 3 input \, old low \, old high \, new low \, new high;
#X connect 0 0 1 0;
#X connect 1 0 2 0;
#X connect 2 0 3 0;
#X connect 3 0 4 0;
#X connect 4 0 5 0;
#X connect 6 0 7 0;
#X connect 7 0 1 1;
#X connect 7 1 9 0;
#X connect 8 0 12 0;
#X connect 9 0 10 0;
#X connect 10 0 11 0;
#X connect 11 0 2 1;
#X connect 12 0 9 0;
#X connect 12 1 9 1;
#X connect 13 0 14 0;
#X connect 14 0 16 0;
#X connect 14 1 4 1;
#X connect 15 0 19 0;
#X connect 16 0 17 0;
#X connect 17 0 18 0;
#X connect 18 0 3 1;
#X connect 19 0 16 0;
#X connect 19 1 16 1;
#X connect 20 0 21 0;
#X connect 21 0 22 0;
#X connect 21 1 25 0;
#X connect 21 2 24 0;
#X connect 21 3 23 0;
#X connect 22 0 7 0;
#X connect 23 0 19 0;
#X connect 24 0 14 0;
#X connect 25 0 12 0;
#X restore 1307 225 pd scale;
#X floatatom 1308 253 5 0 0 0 - - - 0;
#X msg 1319 200 60;
#X msg 1352 200 180;
#X msg 1388 199 0;
#X obj 1320 173 loadbang;
#X msg 1422 199 0.9;
#X text 1274 290 feedback(0-0.9);
#X obj 281 47 expr if($f1 > 59 && $f1 < 181 \, 1 \, 0);
#X text 256 25 let num through when its value is above 60 and below 180;
#X obj 312 75 sel 0;
#X msg 313 107 60;
#X text 545 47 return 0 when false and 1 when true;
#X text 18 536 wet cant be higher then 1 so dry can be abs value of wet - 1;
#X text 353 74 reset to 60 when false;
#X obj 578 502 s flanger_rate2;
#X obj 792 502 s flanger_rate_depth2;
#X obj 1059 499 s flanger_del_time2;
#X obj 1316 506 s flanger_feedback2;
#X obj 1608 516 s flanger_dry/wet2;
#X obj 1528 218 r ctr_value2;
#X obj 1232 200 r ctr_value2;
#X obj 984 201 r ctr_value2;
#X obj 717 198 r ctr_value2;
#X obj 490 201 r ctr_value2;
#X obj 332 473 r flanger_feedback2;
#X obj 297 502 s~ feedback2;
#X obj 260 366 r flanger_del_time2;
#X obj 246 300 r flanger_rate_depth2;
#X obj 227 242 r flanger_rate2;
#X obj 58 396 r flanger_dry/wet2;
#X obj 33 73 r~ feedback2;
#X obj 247 162 s ctr_value2;
#X obj 192 437 vd~ flanger 300;
#X connect 0 0 16 0;
#X connect 0 0 35 0;
#X connect 2 0 39 0;
#X connect 2 0 76 0;
#X connect 6 0 13 0;
#X connect 6 0 84 0;
#X connect 7 0 14 0;
#X connect 7 0 86 0;
#X connect 8 0 15 0;
#X connect 8 0 87 0;
#X connect 9 0 10 0;
#X connect 9 0 85 0;
#X connect 11 0 12 0;
#X connect 11 0 83 0;
#X connect 17 0 19 0;
#X connect 18 0 17 0;
#X connect 19 0 22 0;
#X connect 21 0 19 1;
#X connect 22 0 101 0;
#X connect 23 0 22 1;
#X connect 24 0 23 0;
#X connect 25 0 94 0;
#X connect 26 0 25 1;
#X connect 27 0 29 0;
#X connect 28 0 27 1;
#X connect 28 0 33 0;
#X connect 33 0 34 0;
#X connect 34 0 36 0;
#X connect 35 0 29 0;
#X connect 36 0 35 1;
#X connect 37 0 38 0;
#X connect 38 0 11 0;
#X connect 39 0 41 0;
#X connect 40 0 39 1;
#X connect 41 0 100 0;
#X connect 42 0 37 1;
#X connect 43 0 37 2;
#X connect 44 0 37 3;
#X connect 45 0 37 4;
#X connect 46 0 42 0;
#X connect 46 0 43 0;
#X connect 46 0 44 0;
#X connect 46 0 45 0;
#X connect 47 0 48 0;
#X connect 48 0 6 0;
#X connect 49 0 47 1;
#X connect 50 0 47 2;
#X connect 51 0 47 3;
#X connect 52 0 49 0;
#X connect 52 0 50 0;
#X connect 52 0 51 0;
#X connect 52 0 53 0;
#X connect 53 0 47 4;
#X connect 54 0 55 0;
#X connect 55 0 9 0;
#X connect 56 0 54 1;
#X connect 57 0 54 2;
#X connect 58 0 54 3;
#X connect 59 0 56 0;
#X connect 59 0 57 0;
#X connect 59 0 58 0;
#X connect 59 0 60 0;
#X connect 60 0 54 4;
#X connect 61 0 62 0;
#X connect 62 0 8 0;
#X connect 63 0 61 1;
#X connect 64 0 61 2;
#X connect 65 0 61 3;
#X connect 66 0 63 0;
#X connect 66 0 64 0;
#X connect 66 0 65 0;
#X connect 66 0 67 0;
#X connect 67 0 61 4;
#X connect 68 0 69 0;
#X connect 69 0 7 0;
#X connect 70 0 68 1;
#X connect 71 0 68 2;
#X connect 72 0 68 3;
#X connect 73 0 70 0;
#X connect 73 0 71 0;
#X connect 73 0 72 0;
#X connect 73 0 74 0;
#X connect 74 0 68 4;
#X connect 76 0 40 0;
#X connect 76 0 78 0;
#X connect 78 0 79 0;
#X connect 79 0 41 0;
#X connect 88 0 61 0;
#X connect 89 0 68 0;
#X connect 90 0 54 0;
#X connect 91 0 47 0;
#X connect 92 0 37 0;
#X connect 93 0 26 0;
#X connect 95 0 24 0;
#X connect 96 0 21 0;
#X connect 97 0 18 0;
#X connect 98 0 28 0;
#X connect 99 0 16 0;
#X connect 101 0 25 0;
#X connect 101 0 27 0;
#X restore 57 49 pd flanger;
#X connect 0 0 5 0;
#X connect 1 0 5 1;
#X connect 5 0 4 0;
#X restore 169 262 pd effects;
#X obj 272 181 inlet;
#X obj 171 311 outlet~;
#X obj 104 203 inlet~;
#X connect 0 0 2 0;
#X connect 1 0 0 1;
#X connect 3 0 0 0;
#X restore 752 339 pd fx_jungle;
#N canvas 92 136 1170 811 fx_desert 0;
#N canvas 333 143 1467 675 effects 0;
#X obj 57 23 inlet~;
#X obj 197 24 inlet;
#X text 4 24 audio:;
#X text 128 25 counter:;
#X obj 58 76 outlet~;
#N canvas 64 45 1467 675 flanger 0;
#X obj 18 27 inlet~;
#X text 67 27 audio;
#X obj 243 9 inlet;
#X text 186 9 counter;
#X text 743 284 rate depth (0-1);
#X text 1597 293 dry/wet (0-1);
#X obj 792 325 vsl 19 162 0 0.652 0 0 empty empty empty 0 -9 0 12 #fcfcfc #000000 #000000 0 1;
#X obj 1315 326 vsl 19 162 0 0.9 0 0 empty empty empty 0 -9 0 12 #fcfcfc #000000 #000000 0 1;
#X obj 1611 331 vsl 19 162 0 1 0 0 empty empty empty 0 -9 0 12 #fcfcfc #000000 #000000 0 1;
#X obj 1058 324 vsl 19 162 0 17 0 0 empty empty empty 0 -9 0 12 #fcfcfc #000000 #000000 0 1;
#X floatatom 1083 468 5 0 0 0 - - - 0;
#X obj 578 321 vsl 19 162 0 135 0 0 empty empty empty 0 -9 0 12 #fcfcfc #000000 #000000 0 1;
#X floatatom 603 465 5 0 0 0 - - - 0;
#X floatatom 818 470 5 0 0 0 - - - 0;
#X floatatom 1339 472 5 0 0 0 - - - 0;
#X floatatom 1638 476 5 0 0 0 - - - 0;
#X obj 19 99 delwrite~ flanger 300;
#X obj 190 270 osc~;
#X floatatom 239 271 5 0 135 0 - - - 0;
#X obj 190 300 *~;
#X text 265 270 rate;
#X floatatom 310 330 5 0 1 0 rate\ depth - - 0;
#X obj 192 401 +~;
#X obj 224 400 sig~;
#X floatatom 323 401 5 0 17 0 del\ time - - 0;
#X obj 296 474 *~;
#X floatatom 254 474 5 0 0.98 0 feedback - - 0;
#X obj 107 452 *~;
#X floatatom 108 428 5 0 1 0 wet - - 0;
#X obj 25 576 outlet~;
#X floatatom 404 423 5 0 0 0 - - - 0;
#X text 555 282 rate (0-135);
#X text 1016 294 delay time(0-17);
#X obj 137 452 - 1;
#X obj 135 488 abs;
#X obj 21 460 *~;
#X floatatom 39 429 5 0 1 0 dry - - 0;
#N canvas 788 68 450 300 scale 0;
#X obj 80 29 inlet;
#X obj 80 101 -;
#X obj 80 227 /;
#X obj 80 288 *;
#X obj 80 348 +;
#X obj 80 368 outlet;
#X obj 120 29 inlet;
#X obj 120 86 t a a;
#X obj 165 29 inlet;
#X obj 147 172 pack f f;
#X msg 147 192 \$1 \$2;
#X obj 147 212 -;
#X obj 165 139 t b a;
#X obj 210 29 inlet;
#X obj 210 191 t a a;
#X obj 255 29 inlet;
#X obj 237 233 pack f f;
#X msg 237 253 \$1 \$2;
#X obj 237 273 -;
#X obj 255 200 t b a;
#X obj 325 29 loadbang;
#X obj 325 49 t b b b b;
#X obj 127 64 f \$1;
#X obj 262 178 f \$4;
#X obj 217 169 f \$3;
#X obj 172 117 f \$2;
#X text 37 3 input \, old low \, old high \, new low \, new high;
#X connect 0 0 1 0;
#X connect 1 0 2 0;
#X connect 2 0 3 0;
#X connect 3 0 4 0;
#X connect 4 0 5 0;
#X connect 6 0 7 0;
#X connect 7 0 1 1;
#X connect 7 1 9 0;
#X connect 8 0 12 0;
#X connect 9 0 10 0;
#X connect 10 0 11 0;
#X connect 11 0 2 1;
#X connect 12 0 9 0;
#X connect 12 1 9 1;
#X connect 13 0 14 0;
#X connect 14 0 16 0;
#X connect 14 1 4 1;
#X connect 15 0 19 0;
#X connect 16 0 17 0;
#X connect 17 0 18 0;
#X connect 18 0 3 1;
#X connect 19 0 16 0;
#X connect 19 1 16 1;
#X connect 20 0 21 0;
#X connect 21 0 22 0;
#X connect 21 1 25 0;
#X connect 21 2 24 0;
#X connect 21 3 23 0;
#X connect 22 0 7 0;
#X connect 23 0 19 0;
#X connect 24 0 14 0;
#X connect 25 0 12 0;
#X restore 561 228 pd scale;
#X floatatom 561 255 5 0 0 0 - - - 0;
#X obj 245 100 spigot;
#X obj 282 74 tgl 19 0 empty empty empty 0 -10 0 12 #fcfcfc #000000 #000000 0 1;
#X floatatom 245 137 5 0 0 0 - - - 0;
#X msg 574 200 60;
#X msg 607 200 180;
#X msg 643 199 0;
#X msg 677 199 135;
#X obj 575 170 loadbang;
#N canvas 788 68 450 300 scale 0;
#X obj 80 29 inlet;
#X obj 80 101 -;
#X obj 80 227 /;
#X obj 80 288 *;
#X obj 80 348 +;
#X obj 80 368 outlet;
#X obj 120 29 inlet;
#X obj 120 86 t a a;
#X obj 165 29 inlet;
#X obj 147 172 pack f f;
#X msg 147 192 \$1 \$2;
#X obj 147 212 -;
#X obj 165 139 t b a;
#X obj 210 29 inlet;
#X obj 210 191 t a a;
#X obj 255 29 inlet;
#X obj 237 233 pack f f;
#X msg 237 253 \$1 \$2;
#X obj 237 273 -;
#X obj 255 200 t b a;
#X obj 325 29 loadbang;
#X obj 325 49 t b b b b;
#X obj 127 64 f \$1;
#X obj 262 178 f \$4;
#X obj 217 169 f \$3;
#X obj 172 117 f \$2;
#X text 37 3 input \, old low \, old high \, new low \, new high;
#X connect 0 0 1 0;
#X connect 1 0 2 0;
#X connect 2 0 3 0;
#X connect 3 0 4 0;
#X connect 4 0 5 0;
#X connect 6 0 7 0;
#X connect 7 0 1 1;
#X connect 7 1 9 0;
#X connect 8 0 12 0;
#X connect 9 0 10 0;
#X connect 10 0 11 0;
#X connect 11 0 2 1;
#X connect 12 0 9 0;
#X connect 12 1 9 1;
#X connect 13 0 14 0;
#X connect 14 0 16 0;
#X connect 14 1 4 1;
#X connect 15 0 19 0;
#X connect 16 0 17 0;
#X connect 17 0 18 0;
#X connect 18 0 3 1;
#X connect 19 0 16 0;
#X connect 19 1 16 1;
#X connect 20 0 21 0;
#X connect 21 0 22 0;
#X connect 21 1 25 0;
#X connect 21 2 24 0;
#X connect 21 3 23 0;
#X connect 22 0 7 0;
#X connect 23 0 19 0;
#X connect 24 0 14 0;
#X connect 25 0 12 0;
#X restore 789 225 pd scale;
#X floatatom 790 251 5 0 0 0 - - - 0;
#X msg 802 200 60;
#X msg 835 200 180;
#X msg 871 199 0;
#X obj 800 173 loadbang;
#X msg 905 199 0.652;
#N canvas 788 68 450 300 scale 0;
#X obj 80 29 inlet;
#X obj 80 101 -;
#X obj 80 227 /;
#X obj 80 288 *;
#X obj 80 348 +;
#X obj 80 368 outlet;
#X obj 120 29 inlet;
#X obj 120 86 t a a;
#X obj 165 29 inlet;
#X obj 147 172 pack f f;
#X msg 147 192 \$1 \$2;
#X obj 147 212 -;
#X obj 165 139 t b a;
#X obj 210 29 inlet;
#X obj 210 191 t a a;
#X obj 255 29 inlet;
#X obj 237 233 pack f f;
#X msg 237 253 \$1 \$2;
#X obj 237 273 -;
#X obj 255 200 t b a;
#X obj 325 29 loadbang;
#X obj 325 49 t b b b b;
#X obj 127 64 f \$1;
#X obj 262 178 f \$4;
#X obj 217 169 f \$3;
#X obj 172 117 f \$2;
#X text 37 3 input \, old low \, old high \, new low \, new high;
#X connect 0 0 1 0;
#X connect 1 0 2 0;
#X connect 2 0 3 0;
#X connect 3 0 4 0;
#X connect 4 0 5 0;
#X connect 6 0 7 0;
#X connect 7 0 1 1;
#X connect 7 1 9 0;
#X connect 8 0 12 0;
#X connect 9 0 10 0;
#X connect 10 0 11 0;
#X connect 11 0 2 1;
#X connect 12 0 9 0;
#X connect 12 1 9 1;
#X connect 13 0 14 0;
#X connect 14 0 16 0;
#X connect 14 1 4 1;
#X connect 15 0 19 0;
#X connect 16 0 17 0;
#X connect 17 0 18 0;
#X connect 18 0 3 1;
#X connect 19 0 16 0;
#X connect 19 1 16 1;
#X connect 20 0 21 0;
#X connect 21 0 22 0;
#X connect 21 1 25 0;
#X connect 21 2 24 0;
#X connect 21 3 23 0;
#X connect 22 0 7 0;
#X connect 23 0 19 0;
#X connect 24 0 14 0;
#X connect 25 0 12 0;
#X restore 1059 230 pd scale;
#X floatatom 1060 256 5 0 0 0 - - - 0;
#X msg 1073 201 60;
#X msg 1106 201 180;
#X msg 1142 200 0;
#X obj 1074 174 loadbang;
#X msg 1176 200 17;
#N canvas 788 68 450 300 scale 0;
#X obj 80 29 inlet;
#X obj 80 101 -;
#X obj 80 227 /;
#X obj 80 288 *;
#X obj 80 348 +;
#X obj 80 368 outlet;
#X obj 120 29 inlet;
#X obj 120 86 t a a;
#X obj 165 29 inlet;
#X obj 147 172 pack f f;
#X msg 147 192 \$1 \$2;
#X obj 147 212 -;
#X obj 165 139 t b a;
#X obj 210 29 inlet;
#X obj 210 191 t a a;
#X obj 255 29 inlet;
#X obj 237 233 pack f f;
#X msg 237 253 \$1 \$2;
#X obj 237 273 -;
#X obj 255 200 t b a;
#X obj 325 29 loadbang;
#X obj 325 49 t b b b b;
#X obj 127 64 f \$1;
#X obj 262 178 f \$4;
#X obj 217 169 f \$3;
#X obj 172 117 f \$2;
#X text 37 3 input \, old low \, old high \, new low \, new high;
#X connect 0 0 1 0;
#X connect 1 0 2 0;
#X connect 2 0 3 0;
#X connect 3 0 4 0;
#X connect 4 0 5 0;
#X connect 6 0 7 0;
#X connect 7 0 1 1;
#X connect 7 1 9 0;
#X connect 8 0 12 0;
#X connect 9 0 10 0;
#X connect 10 0 11 0;
#X connect 11 0 2 1;
#X connect 12 0 9 0;
#X connect 12 1 9 1;
#X connect 13 0 14 0;
#X connect 14 0 16 0;
#X connect 14 1 4 1;
#X connect 15 0 19 0;
#X connect 16 0 17 0;
#X connect 17 0 18 0;
#X connect 18 0 3 1;
#X connect 19 0 16 0;
#X connect 19 1 16 1;
#X connect 20 0 21 0;
#X connect 21 0 22 0;
#X connect 21 1 25 0;
#X connect 21 2 24 0;
#X connect 21 3 23 0;
#X connect 22 0 7 0;
#X connect 23 0 19 0;
#X connect 24 0 14 0;
#X connect 25 0 12 0;
#X restore 1607 245 pd scale;
#X floatatom 1608 270 5 0 0 0 - - - 0;
#X msg 1620 217 60;
#X msg 1653 217 180;
#X msg 1689 216 0;
#X obj 1620 185 loadbang;
#X msg 1722 214 1;
#N canvas 788 68 450 300 scale 0;
#X obj 80 29 inlet;
#X obj 80 101 -;
#X obj 80 227 /;
#X obj 80 288 *;
#X obj 80 348 +;
#X obj 80 368 outlet;
#X obj 120 29 inlet;
#X obj 120 86 t a a;
#X obj 165 29 inlet;
#X obj 147 172 pack f f;
#X msg 147 192 \$1 \$2;
#X obj 147 212 -;
#X obj 165 139 t b a;
#X obj 210 29 inlet;
#X obj 210 191 t a a;
#X obj 255 29 inlet;
#X obj 237 233 pack f f;
#X msg 237 253 \$1 \$2;
#X obj 237 273 -;
#X obj 255 200 t b a;
#X obj 325 29 loadbang;
#X obj 325 49 t b b b b;
#X obj 127 64 f \$1;
#X obj 262 178 f \$4;
#X obj 217 169 f \$3;
#X obj 172 117 f \$2;
#X text 37 3 input \, old low \, old high \, new low \, new high;
#X connect 0 0 1 0;
#X connect 1 0 2 0;
#X connect 2 0 3 0;
#X connect 3 0 4 0;
#X connect 4 0 5 0;
#X connect 6 0 7 0;
#X connect 7 0 1 1;
#X connect 7 1 9 0;
#X connect 8 0 12 0;
#X connect 9 0 10 0;
#X connect 10 0 11 0;
#X connect 11 0 2 1;
#X connect 12 0 9 0;
#X connect 12 1 9 1;
#X connect 13 0 14 0;
#X connect 14 0 16 0;
#X connect 14 1 4 1;
#X connect 15 0 19 0;
#X connect 16 0 17 0;
#X connect 17 0 18 0;
#X connect 18 0 3 1;
#X connect 19 0 16 0;
#X connect 19 1 16 1;
#X connect 20 0 21 0;
#X connect 21 0 22 0;
#X connect 21 1 25 0;
#X connect 21 2 24 0;
#X connect 21 3 23 0;
#X connect 22 0 7 0;
#X connect 23 0 19 0;
#X connect 24 0 14 0;
#X connect 25 0 12 0;
#X restore 1307 225 pd scale;
#X floatatom 1308 253 5 0 0 0 - - - 0;
#X msg 1319 200 60;
#X msg 1352 200 180;
#X msg 1388 199 0;
#X obj 1320 173 loadbang;
#X msg 1422 199 0.9;
#X text 1274 290 feedback(0-0.9);
#X obj 281 47 expr if($f1 > 59 && $f1 < 181 \, 1 \, 0);
#X text 256 25 let num through when its value is above 60 and below 180;
#X obj 312 75 sel 0;
#X msg 313 107 60;
#X text 545 47 return 0 when false and 1 when true;
#X text 18 536 wet cant be higher then 1 so dry can be abs value of wet - 1;
#X text 353 74 reset to 60 when false;
#X obj 578 502 s flanger_rate1;
#X obj 792 502 s flanger_rate_depth1;
#X obj 1059 499 s flanger_del_time1;
#X obj 1316 506 s flanger_feedback1;
#X obj 227 242 r flanger_rate1;
#X obj 246 300 r flanger_rate_depth1;
#X obj 260 366 r flanger_del_time1;
#X obj 297 502 s~ feedback1;
#X obj 58 396 r flanger_dry/wet1;
#X obj 1608 516 s flanger_dry/wet1;
#X obj 247 162 s ctr_value1;
#X obj 490 201 r ctr_value1;
#X obj 717 198 r ctr_value1;
#X obj 984 201 r ctr_value1;
#X obj 1232 200 r ctr_value1;
#X obj 33 73 r~ feedback1;
#X obj 332 473 r flanger_feedback1;
#X obj 1528 218 r ctr_value1;
#X obj 192 437 vd~ flanger300;
#X connect 0 0 16 0;
#X connect 0 0 35 0;
#X connect 2 0 39 0;
#X connect 2 0 76 0;
#X connect 6 0 13 0;
#X connect 6 0 84 0;
#X connect 7 0 14 0;
#X connect 7 0 86 0;
#X connect 8 0 15 0;
#X connect 8 0 92 0;
#X connect 9 0 10 0;
#X connect 9 0 85 0;
#X connect 11 0 12 0;
#X connect 11 0 83 0;
#X connect 17 0 19 0;
#X connect 18 0 17 0;
#X connect 19 0 22 0;
#X connect 21 0 19 1;
#X connect 22 0 101 0;
#X connect 23 0 22 1;
#X connect 24 0 23 0;
#X connect 25 0 90 0;
#X connect 26 0 25 1;
#X connect 27 0 29 0;
#X connect 28 0 27 1;
#X connect 28 0 33 0;
#X connect 33 0 34 0;
#X connect 34 0 36 0;
#X connect 35 0 29 0;
#X connect 36 0 35 1;
#X connect 37 0 38 0;
#X connect 38 0 11 0;
#X connect 39 0 41 0;
#X connect 40 0 39 1;
#X connect 41 0 93 0;
#X connect 42 0 37 1;
#X connect 43 0 37 2;
#X connect 44 0 37 3;
#X connect 45 0 37 4;
#X connect 46 0 42 0;
#X connect 46 0 43 0;
#X connect 46 0 44 0;
#X connect 46 0 45 0;
#X connect 47 0 48 0;
#X connect 48 0 6 0;
#X connect 49 0 47 1;
#X connect 50 0 47 2;
#X connect 51 0 47 3;
#X connect 52 0 49 0;
#X connect 52 0 50 0;
#X connect 52 0 51 0;
#X connect 52 0 53 0;
#X connect 53 0 47 4;
#X connect 54 0 55 0;
#X connect 55 0 9 0;
#X connect 56 0 54 1;
#X connect 57 0 54 2;
#X connect 58 0 54 3;
#X connect 59 0 56 0;
#X connect 59 0 57 0;
#X connect 59 0 58 0;
#X connect 59 0 60 0;
#X connect 60 0 54 4;
#X connect 61 0 62 0;
#X connect 62 0 8 0;
#X connect 63 0 61 1;
#X connect 64 0 61 2;
#X connect 65 0 61 3;
#X connect 66 0 63 0;
#X connect 66 0 64 0;
#X connect 66 0 65 0;
#X connect 66 0 67 0;
#X connect 67 0 61 4;
#X connect 68 0 69 0;
#X connect 69 0 7 0;
#X connect 70 0 68 1;
#X connect 71 0 68 2;
#X connect 72 0 68 3;
#X connect 73 0 70 0;
#X connect 73 0 71 0;
#X connect 73 0 72 0;
#X connect 73 0 74 0;
#X connect 74 0 68 4;
#X connect 76 0 40 0;
#X connect 76 0 78 0;
#X connect 78 0 79 0;
#X connect 79 0 41 0;
#X connect 87 0 18 0;
#X connect 88 0 21 0;
#X connect 89 0 24 0;
#X connect 91 0 28 0;
#X connect 94 0 37 0;
#X connect 95 0 47 0;
#X connect 96 0 54 0;
#X connect 97 0 68 0;
#X connect 98 0 16 0;
#X connect 99 0 26 0;
#X connect 100 0 61 0;
#X connect 101 0 25 0;
#X connect 101 0 27 0;
#X restore 57 49 pd flanger;
#X connect 0 0 5 0;
#X connect 1 0 5 1;
#X connect 5 0 4 0;
#X restore 169 262 pd effects;
#X obj 279 148 inlet;
#X obj 171 311 outlet~;
#X obj 72 199 inlet~;
#X connect 0 0 2 0;
#X connect 1 0 0 1;
#X connect 3 0 0 0;
#X restore 617 339 pd fx_desert;
#N canvas 92 136 1170 811 fx_space 0;
#N canvas 333 143 1467 675 effects 0;
#X obj 57 23 inlet~;
#X obj 197 24 inlet;
#X text 4 24 audio:;
#X text 128 25 counter:;
#X obj 58 76 outlet~;
#N canvas 64 45 1467 675 flanger 0;
#X obj 18 27 inlet~;
#X text 67 27 audio;
#X obj 243 9 inlet;
#X text 186 9 counter;
#X text 743 284 rate depth (0-1);
#X text 1597 293 dry/wet (0-1);
#X obj 792 325 vsl 19 162 0 0.652 0 0 empty empty empty 0 -9 0 12 #fcfcfc #000000 #000000 0 1;
#X obj 1315 326 vsl 19 162 0 0.9 0 0 empty empty empty 0 -9 0 12 #fcfcfc #000000 #000000 0 1;
#X obj 1611 331 vsl 19 162 0 1 0 0 empty empty empty 0 -9 0 12 #fcfcfc #000000 #000000 0 1;
#X obj 1058 324 vsl 19 162 0 17 0 0 empty empty empty 0 -9 0 12 #fcfcfc #000000 #000000 0 1;
#X floatatom 1083 468 5 0 0 0 - - - 0;
#X obj 578 321 vsl 19 162 0 135 0 0 empty empty empty 0 -9 0 12 #fcfcfc #000000 #000000 0 1;
#X floatatom 603 465 5 0 0 0 - - - 0;
#X floatatom 818 470 5 0 0 0 - - - 0;
#X floatatom 1339 472 5 0 0 0 - - - 0;
#X floatatom 1638 476 5 0 0 0 - - - 0;
#X obj 578 502 s flanger_rate;
#X obj 792 502 s flanger_rate_depth;
#X obj 1059 499 s flanger_del_time;
#X obj 1316 506 s flanger_feedback;
#X obj 1608 516 s flanger_dry/wet;
#X obj 227 242 r flanger_rate;
#X obj 246 300 r flanger_rate_depth;
#X obj 260 366 r flanger_del_time;
#X obj 332 473 r flanger_feedback;
#X obj 58 396 r flanger_dry/wet;
#X obj 19 99 delwrite~ flanger 300;
#X obj 190 270 osc~;
#X floatatom 239 271 5 0 135 0 - - - 0;
#X obj 190 300 *~;
#X text 265 270 rate;
#X floatatom 310 330 5 0 1 0 rate\ depth - - 0;
#X obj 192 401 +~;
#X obj 224 400 sig~;
#X floatatom 323 401 5 0 17 0 del\ time - - 0;
#X obj 296 474 *~;
#X floatatom 254 474 5 0 0.98 0 feedback - - 0;
#X obj 297 502 s~ feedback;
#X obj 33 73 r~ feedback;
#X obj 107 452 *~;
#X floatatom 108 428 5 0 1 0 wet - - 0;
#X obj 25 576 outlet~;
#X floatatom 404 423 5 0 0 0 - - - 0;
#X text 555 282 rate (0-135);
#X text 1016 294 delay time(0-17);
#X obj 137 452 - 1;
#X obj 135 488 abs;
#X obj 21 460 *~;
#X floatatom 39 429 5 0 1 0 dry - - 0;
#N canvas 788 68 450 300 scale 0;
#X obj 80 29 inlet;
#X obj 80 101 -;
#X obj 80 227 /;
#X obj 80 288 *;
#X obj 80 348 +;
#X obj 80 368 outlet;
#X obj 120 29 inlet;
#X obj 120 86 t a a;
#X obj 165 29 inlet;
#X obj 147 172 pack f f;
#X msg 147 192 \$1 \$2;
#X obj 147 212 -;
#X obj 165 139 t b a;
#X obj 210 29 inlet;
#X obj 210 191 t a a;
#X obj 255 29 inlet;
#X obj 237 233 pack f f;
#X msg 237 253 \$1 \$2;
#X obj 237 273 -;
#X obj 255 200 t b a;
#X obj 325 29 loadbang;
#X obj 325 49 t b b b b;
#X obj 127 64 f \$1;
#X obj 262 178 f \$4;
#X obj 217 169 f \$3;
#X obj 172 117 f \$2;
#X text 37 3 input \, old low \, old high \, new low \, new high;
#X connect 0 0 1 0;
#X connect 1 0 2 0;
#X connect 2 0 3 0;
#X connect 3 0 4 0;
#X connect 4 0 5 0;
#X connect 6 0 7 0;
#X connect 7 0 1 1;
#X connect 7 1 9 0;
#X connect 8 0 12 0;
#X connect 9 0 10 0;
#X connect 10 0 11 0;
#X connect 11 0 2 1;
#X connect 12 0 9 0;
#X connect 12 1 9 1;
#X connect 13 0 14 0;
#X connect 14 0 16 0;
#X connect 14 1 4 1;
#X connect 15 0 19 0;
#X connect 16 0 17 0;
#X connect 17 0 18 0;
#X connect 18 0 3 1;
#X connect 19 0 16 0;
#X connect 19 1 16 1;
#X connect 20 0 21 0;
#X connect 21 0 22 0;
#X connect 21 1 25 0;
#X connect 21 2 24 0;
#X connect 21 3 23 0;
#X connect 22 0 7 0;
#X connect 23 0 19 0;
#X connect 24 0 14 0;
#X connect 25 0 12 0;
#X restore 561 228 pd scale;
#X floatatom 561 255 5 0 0 0 - - - 0;
#X obj 245 100 spigot;
#X obj 282 74 tgl 19 0 empty empty empty 0 -10 0 12 #fcfcfc #000000 #000000 0 1;
#X floatatom 245 137 5 0 0 0 - - - 0;
#X msg 574 200 60;
#X msg 607 200 180;
#X msg 643 199 0;
#X msg 677 199 135;
#X obj 575 170 loadbang;
#N canvas 788 68 450 300 scale 0;
#X obj 80 29 inlet;
#X obj 80 101 -;
#X obj 80 227 /;
#X obj 80 288 *;
#X obj 80 348 +;
#X obj 80 368 outlet;
#X obj 120 29 inlet;
#X obj 120 86 t a a;
#X obj 165 29 inlet;
#X obj 147 172 pack f f;
#X msg 147 192 \$1 \$2;
#X obj 147 212 -;
#X obj 165 139 t b a;
#X obj 210 29 inlet;
#X obj 210 191 t a a;
#X obj 255 29 inlet;
#X obj 237 233 pack f f;
#X msg 237 253 \$1 \$2;
#X obj 237 273 -;
#X obj 255 200 t b a;
#X obj 325 29 loadbang;
#X obj 325 49 t b b b b;
#X obj 127 64 f \$1;
#X obj 262 178 f \$4;
#X obj 217 169 f \$3;
#X obj 172 117 f \$2;
#X text 37 3 input \, old low \, old high \, new low \, new high;
#X connect 0 0 1 0;
#X connect 1 0 2 0;
#X connect 2 0 3 0;
#X connect 3 0 4 0;
#X connect 4 0 5 0;
#X connect 6 0 7 0;
#X connect 7 0 1 1;
#X connect 7 1 9 0;
#X connect 8 0 12 0;
#X connect 9 0 10 0;
#X connect 10 0 11 0;
#X connect 11 0 2 1;
#X connect 12 0 9 0;
#X connect 12 1 9 1;
#X connect 13 0 14 0;
#X connect 14 0 16 0;
#X connect 14 1 4 1;
#X connect 15 0 19 0;
#X connect 16 0 17 0;
#X connect 17 0 18 0;
#X connect 18 0 3 1;
#X connect 19 0 16 0;
#X connect 19 1 16 1;
#X connect 20 0 21 0;
#X connect 21 0 22 0;
#X connect 21 1 25 0;
#X connect 21 2 24 0;
#X connect 21 3 23 0;
#X connect 22 0 7 0;
#X connect 23 0 19 0;
#X connect 24 0 14 0;
#X connect 25 0 12 0;
#X restore 789 225 pd scale;
#X floatatom 790 251 5 0 0 0 - - - 0;
#X msg 802 200 60;
#X msg 835 200 180;
#X msg 871 199 0;
#X obj 800 173 loadbang;
#X msg 905 199 0.652;
#N canvas 788 68 450 300 scale 0;
#X obj 80 29 inlet;
#X obj 80 101 -;
#X obj 80 227 /;
#X obj 80 288 *;
#X obj 80 348 +;
#X obj 80 368 outlet;
#X obj 120 29 inlet;
#X obj 120 86 t a a;
#X obj 165 29 inlet;
#X obj 147 172 pack f f;
#X msg 147 192 \$1 \$2;
#X obj 147 212 -;
#X obj 165 139 t b a;
#X obj 210 29 inlet;
#X obj 210 191 t a a;
#X obj 255 29 inlet;
#X obj 237 233 pack f f;
#X msg 237 253 \$1 \$2;
#X obj 237 273 -;
#X obj 255 200 t b a;
#X obj 325 29 loadbang;
#X obj 325 49 t b b b b;
#X obj 127 64 f \$1;
#X obj 262 178 f \$4;
#X obj 217 169 f \$3;
#X obj 172 117 f \$2;
#X text 37 3 input \, old low \, old high \, new low \, new high;
#X connect 0 0 1 0;
#X connect 1 0 2 0;
#X connect 2 0 3 0;
#X connect 3 0 4 0;
#X connect 4 0 5 0;
#X connect 6 0 7 0;
#X connect 7 0 1 1;
#X connect 7 1 9 0;
#X connect 8 0 12 0;
#X connect 9 0 10 0;
#X connect 10 0 11 0;
#X connect 11 0 2 1;
#X connect 12 0 9 0;
#X connect 12 1 9 1;
#X connect 13 0 14 0;
#X connect 14 0 16 0;
#X connect 14 1 4 1;
#X connect 15 0 19 0;
#X connect 16 0 17 0;
#X connect 17 0 18 0;
#X connect 18 0 3 1;
#X connect 19 0 16 0;
#X connect 19 1 16 1;
#X connect 20 0 21 0;
#X connect 21 0 22 0;
#X connect 21 1 25 0;
#X connect 21 2 24 0;
#X connect 21 3 23 0;
#X connect 22 0 7 0;
#X connect 23 0 19 0;
#X connect 24 0 14 0;
#X connect 25 0 12 0;
#X restore 1059 230 pd scale;
#X floatatom 1060 256 5 0 0 0 - - - 0;
#X msg 1073 201 60;
#X msg 1106 201 180;
#X msg 1142 200 0;
#X obj 1074 174 loadbang;
#X msg 1176 200 17;
#N canvas 788 68 450 300 scale 0;
#X obj 80 29 inlet;
#X obj 80 101 -;
#X obj 80 227 /;
#X obj 80 288 *;
#X obj 80 348 +;
#X obj 80 368 outlet;
#X obj 120 29 inlet;
#X obj 120 86 t a a;
#X obj 165 29 inlet;
#X obj 147 172 pack f f;
#X msg 147 192 \$1 \$2;
#X obj 147 212 -;
#X obj 165 139 t b a;
#X obj 210 29 inlet;
#X obj 210 191 t a a;
#X obj 255 29 inlet;
#X obj 237 233 pack f f;
#X msg 237 253 \$1 \$2;
#X obj 237 273 -;
#X obj 255 200 t b a;
#X obj 325 29 loadbang;
#X obj 325 49 t b b b b;
#X obj 127 64 f \$1;
#X obj 262 178 f \$4;
#X obj 217 169 f \$3;
#X obj 172 117 f \$2;
#X text 37 3 input \, old low \, old high \, new low \, new high;
#X connect 0 0 1 0;
#X connect 1 0 2 0;
#X connect 2 0 3 0;
#X connect 3 0 4 0;
#X connect 4 0 5 0;
#X connect 6 0 7 0;
#X connect 7 0 1 1;
#X connect 7 1 9 0;
#X connect 8 0 12 0;
#X connect 9 0 10 0;
#X connect 10 0 11 0;
#X connect 11 0 2 1;
#X connect 12 0 9 0;
#X connect 12 1 9 1;
#X connect 13 0 14 0;
#X connect 14 0 16 0;
#X connect 14 1 4 1;
#X connect 15 0 19 0;
#X connect 16 0 17 0;
#X connect 17 0 18 0;
#X connect 18 0 3 1;
#X connect 19 0 16 0;
#X connect 19 1 16 1;
#X connect 20 0 21 0;
#X connect 21 0 22 0;
#X connect 21 1 25 0;
#X connect 21 2 24 0;
#X connect 21 3 23 0;
#X connect 22 0 7 0;
#X connect 23 0 19 0;
#X connect 24 0 14 0;
#X connect 25 0 12 0;
#X restore 1607 245 pd scale;
#X floatatom 1608 270 5 0 0 0 - - - 0;
#X msg 1620 217 60;
#X msg 1653 217 180;
#X msg 1689 216 0;
#X obj 1620 185 loadbang;
#X msg 1722 214 1;
#N canvas 788 68 450 300 scale 0;
#X obj 80 29 inlet;
#X obj 80 101 -;
#X obj 80 227 /;
#X obj 80 288 *;
#X obj 80 348 +;
#X obj 80 368 outlet;
#X obj 120 29 inlet;
#X obj 120 86 t a a;
#X obj 165 29 inlet;
#X obj 147 172 pack f f;
#X msg 147 192 \$1 \$2;
#X obj 147 212 -;
#X obj 165 139 t b a;
#X obj 210 29 inlet;
#X obj 210 191 t a a;
#X obj 255 29 inlet;
#X obj 237 233 pack f f;
#X msg 237 253 \$1 \$2;
#X obj 237 273 -;
#X obj 255 200 t b a;
#X obj 325 29 loadbang;
#X obj 325 49 t b b b b;
#X obj 127 64 f \$1;
#X obj 262 178 f \$4;
#X obj 217 169 f \$3;
#X obj 172 117 f \$2;
#X text 37 3 input \, old low \, old high \, new low \, new high;
#X connect 0 0 1 0;
#X connect 1 0 2 0;
#X connect 2 0 3 0;
#X connect 3 0 4 0;
#X connect 4 0 5 0;
#X connect 6 0 7 0;
#X connect 7 0 1 1;
#X connect 7 1 9 0;
#X connect 8 0 12 0;
#X connect 9 0 10 0;
#X connect 10 0 11 0;
#X connect 11 0 2 1;
#X connect 12 0 9 0;
#X connect 12 1 9 1;
#X connect 13 0 14 0;
#X connect 14 0 16 0;
#X connect 14 1 4 1;
#X connect 15 0 19 0;
#X connect 16 0 17 0;
#X connect 17 0 18 0;
#X connect 18 0 3 1;
#X connect 19 0 16 0;
#X connect 19 1 16 1;
#X connect 20 0 21 0;
#X connect 21 0 22 0;
#X connect 21 1 25 0;
#X connect 21 2 24 0;
#X connect 21 3 23 0;
#X connect 22 0 7 0;
#X connect 23 0 19 0;
#X connect 24 0 14 0;
#X connect 25 0 12 0;
#X restore 1307 225 pd scale;
#X floatatom 1308 253 5 0 0 0 - - - 0;
#X msg 1319 200 60;
#X msg 1352 200 180;
#X msg 1388 199 0;
#X obj 1320 173 loadbang;
#X msg 1422 199 0.9;
#X text 1274 290 feedback(0-0.9);
#X obj 281 47 expr if($f1 > 59 && $f1 < 181 \, 1 \, 0);
#X text 256 25 let num through when its value is above 60 and below 180;
#X obj 312 75 sel 0;
#X msg 313 107 60;
#X text 545 47 return 0 when false and 1 when true;
#X text 18 536 wet cant be higher then 1 so dry can be abs value of wet - 1;
#X text 353 74 reset to 60 when false;
#X obj 247 162 s ctr_value;
#X obj 490 201 r ctr_value;
#X obj 717 198 r ctr_value;
#X obj 984 201 r ctr_value;
#X obj 1232 200 r ctr_value;
#X obj 1528 218 r ctr_value;
#X obj 192 437 vd~ flanger 300;
#X connect 0 0 26 0;
#X connect 0 0 47 0;
#X connect 2 0 51 0;
#X connect 2 0 88 0;
#X connect 6 0 13 0;
#X connect 6 0 17 0;
#X connect 7 0 14 0;
#X connect 7 0 19 0;
#X connect 8 0 15 0;
#X connect 8 0 20 0;
#X connect 9 0 10 0;
#X connect 9 0 18 0;
#X connect 11 0 12 0;
#X connect 11 0 16 0;
#X connect 21 0 28 0;
#X connect 22 0 31 0;
#X connect 23 0 34 0;
#X connect 24 0 36 0;
#X connect 25 0 40 0;
#X connect 27 0 29 0;
#X connect 28 0 27 0;
#X connect 29 0 32 0;
#X connect 31 0 29 1;
#X connect 32 0 101 0;
#X connect 33 0 32 1;
#X connect 34 0 33 0;
#X connect 35 0 37 0;
#X connect 36 0 35 1;
#X connect 38 0 26 0;
#X connect 39 0 41 0;
#X connect 40 0 39 1;
#X connect 40 0 45 0;
#X connect 45 0 46 0;
#X connect 46 0 48 0;
#X connect 47 0 41 0;
#X connect 48 0 47 1;
#X connect 49 0 50 0;
#X connect 50 0 11 0;
#X connect 51 0 53 0;
#X connect 52 0 51 1;
#X connect 53 0 95 0;
#X connect 54 0 49 1;
#X connect 55 0 49 2;
#X connect 56 0 49 3;
#X connect 57 0 49 4;
#X connect 58 0 54 0;
#X connect 58 0 55 0;
#X connect 58 0 56 0;
#X connect 58 0 57 0;
#X connect 59 0 60 0;
#X connect 60 0 6 0;
#X connect 61 0 59 1;
#X connect 62 0 59 2;
#X connect 63 0 59 3;
#X connect 64 0 61 0;
#X connect 64 0 62 0;
#X connect 64 0 63 0;
#X connect 64 0 65 0;
#X connect 65 0 59 4;
#X connect 66 0 67 0;
#X connect 67 0 9 0;
#X connect 68 0 66 1;
#X connect 69 0 66 2;
#X connect 70 0 66 3;
#X connect 71 0 68 0;
#X connect 71 0 69 0;
#X connect 71 0 70 0;
#X connect 71 0 72 0;
#X connect 72 0 66 4;
#X connect 73 0 74 0;
#X connect 74 0 8 0;
#X connect 75 0 73 1;
#X connect 76 0 73 2;
#X connect 77 0 73 3;
#X connect 78 0 75 0;
#X connect 78 0 76 0;
#X connect 78 0 77 0;
#X connect 78 0 79 0;
#X connect 79 0 73 4;
#X connect 80 0 81 0;
#X connect 81 0 7 0;
#X connect 82 0 80 1;
#X connect 83 0 80 2;
#X connect 84 0 80 3;
#X connect 85 0 82 0;
#X connect 85 0 83 0;
#X connect 85 0 84 0;
#X connect 85 0 86 0;
#X connect 86 0 80 4;
#X connect 88 0 52 0;
#X connect 88 0 90 0;
#X connect 90 0 91 0;
#X connect 91 0 53 0;
#X connect 96 0 49 0;
#X connect 97 0 59 0;
#X connect 98 0 66 0;
#X connect 99 0 80 0;
#X connect 100 0 73 0;
#X connect 101 0 35 0;
#X connect 101 0 39 0;
#X restore 57 49 pd flanger;
#X connect 0 0 5 0;
#X connect 1 0 5 1;
#X connect 5 0 4 0;
#X restore 169 262 pd effects;
#X obj 305 169 inlet;
#X obj 171 311 outlet~;
#X obj 108 165 inlet~;
#X connect 0 0 2 0;
#X connect 1 0 0 1;
#X connect 3 0 0 0;
#X restore 1039 339 pd fx_space;
#X text 256 162 1:audio 2:counter;
