#N canvas 0 95 1440 700 12;
#X obj 20 155 unpack f f;
#X msg 469 71 read GPSFake.txt;
#X obj 469 104 text define -k GPSFake;
#A set 52.0798 5.13421 \; 52.0799 5.13417 \;;
#X obj 20 48 metro 1000;
#X obj 130 74 + 1;
#X obj 20 74 int 1, f 8;
#X msg 124 41 0;
#X obj 125 12 loadbang;
#X floatatom 63 103 5 0 0 0 - - - 0;
#X floatatom 107 104 5 0 0 0 - - - 0;
#X floatatom 20 103 5 0 0 0 - - - 0;
#X obj 20 130 text get GPSFake;
#X text 618 68 Read the .txt file;
#X text 650 103 Put it in text object;
#X text 165 109 Output the next value every second;
#X obj 21 242 outlet;
#X obj 20 178 swap, f 10;
#X obj 20 203 pack f f, f 10;
#X obj 19 8 inlet;
#X text 63 4 Toggle;
#X text 82 248 Output fake GPS;
#X obj 469 35 inlet;
#X text 520 29 Bang to load gps file;
#X obj 356 35 loadbang;
#X text 120 174 Swap the be able to copy the coords from google (in this patch the order is swapped.);
#X connect 0 0 16 0;
#X connect 0 1 16 1;
#X connect 1 0 2 0;
#X connect 3 0 5 0;
#X connect 4 0 5 1;
#X connect 5 0 4 0;
#X connect 5 0 10 0;
#X connect 6 0 5 1;
#X connect 7 0 6 0;
#X connect 8 0 11 1;
#X connect 9 0 11 2;
#X connect 10 0 11 0;
#X connect 11 0 0 0;
#X connect 16 0 17 0;
#X connect 16 1 17 1;
#X connect 17 0 15 0;
#X connect 18 0 3 0;
#X connect 21 0 1 0;
#X connect 23 0 1 0;
