#N canvas 285 39 1087 756 12;
#X obj 83 153 + 1;
#X obj 31 113 metro 1000;
#X msg 126 110 0;
#X floatatom 32 183 5 0 0 0 - - - 0;
#X obj 31 85 tgl 19 0 empty empty empty 0 -10 0 12 #fcfcfc #000000 #000000 0 1;
#X obj 98 86 expr 60000 / $f1;
#X obj 32 208 % 4;
#X obj 32 230 sel 0 1 2 3;
#X floatatom 192 64 5 0 0 0 - - - 0;
#X obj 182 370 readsf~;
#X msg 182 317 open nofix.wav;
#X msg 135 338 start;
#X msg 204 341 open heartbeat.wav;
#X obj 182 290 sel 0 1;
#X msg 200 229 0;
#X msg 268 232 1;
#X obj 182 260 int;
#X obj 202 175 r live_loc;
#X obj 201 205 select 999;
#X msg 286 175 999;
#X obj 32 22 loadbang;
#X msg 32 46 1;
#X obj 182 410 outlet~;
#X obj 98 62 speed3;
#X obj 32 154 f 1;
#X connect 0 0 24 1;
#X connect 1 0 24 0;
#X connect 2 0 24 1;
#X connect 3 0 6 0;
#X connect 4 0 1 0;
#X connect 5 0 1 1;
#X connect 6 0 7 0;
#X connect 7 0 11 0;
#X connect 7 3 16 0;
#X connect 9 0 22 0;
#X connect 10 0 9 0;
#X connect 11 0 9 0;
#X connect 12 0 9 0;
#X connect 13 0 10 0;
#X connect 13 1 12 0;
#X connect 14 0 16 1;
#X connect 15 0 16 1;
#X connect 16 0 13 0;
#X connect 17 0 18 0;
#X connect 18 0 14 0;
#X connect 18 1 15 0;
#X connect 19 0 18 0;
#X connect 20 0 21 0;
#X connect 21 0 4 0;
#X connect 23 0 5 0;
#X connect 23 0 8 0;
#X connect 24 0 0 0;
#X connect 24 0 3 0;
