#N canvas 357 295 1020 569 12;
#N canvas 454 136 1124 834 looper 1;
#X obj 36 32 inlet;
#X obj 454 71 inlet;
#X obj 36 65 sel 0 1;
#X obj 47 705 outlet~;
#X text 85 32 state** = 0 = OOB or 1 = IB;
#X text 501 71 state* 0 = fixed \, 1 = broken or 2 = glitched;
#X obj 36 398 readsf~;
#X msg 36 111 0;
#X msg 79 141 1;
#X msg 112 141 open desert_placeholder.wav;
#X text 103 162 sample that needs to be played;
#X obj 79 110 t b b;
#X msg 454 140 0;
#X obj 418 381 readsf~;
#X msg 508 178 1;
#X msg 541 178 open desert_placeholder.wav;
#X obj 508 147 t b b;
#X text 438 202 sample that needs to be played when broken;
#X obj 454 104 sel 0 1 2;
#X obj 765 382 readsf~;
#X msg 858 186 1;
#X msg 891 185 open desert_placeholder.wav;
#X obj 858 154 t b b;
#X text 788 209 sample that needs to be played when glitched;
#X connect 0 0 2 0;
#X connect 1 0 18 0;
#X connect 2 0 7 0;
#X connect 2 1 11 0;
#X connect 6 0 3 0;
#X connect 7 0 6 0;
#X connect 8 0 6 0;
#X connect 9 0 6 0;
#X connect 11 0 8 0;
#X connect 11 1 9 0;
#X connect 12 0 13 0;
#X connect 12 0 19 0;
#X connect 13 0 3 0;
#X connect 13 1 16 0;
#X connect 14 0 13 0;
#X connect 15 0 13 0;
#X connect 16 0 14 0;
#X connect 16 1 15 0;
#X connect 18 0 12 0;
#X connect 18 1 16 0;
#X connect 18 2 22 0;
#X connect 19 0 3 0;
#X connect 19 1 22 0;
#X connect 20 0 19 0;
#X connect 21 0 19 0;
#X connect 22 0 20 0;
#X connect 22 1 21 0;
#X restore 337 168 pd looper;
#X obj 342 362 dac~;
#X obj 342 331 *~;
#X obj 539 182 vsl 19 162 0 1 0 0 empty empty empty 0 -9 0 12 #fcfcfc #000000 #000000 0 1;
#X floatatom 529 366 5 0 0 0 - - - 0;
#X msg 296 87 0;
#X msg 334 87 1;
#X msg 423 82 0;
#X msg 461 82 1;
#X msg 500 82 2;
#X text 539 81 state;
#X connect 0 0 2 0;
#X connect 2 0 1 0;
#X connect 2 0 1 1;
#X connect 3 0 4 0;
#X connect 4 0 2 1;
#X connect 5 0 0 0;
#X connect 6 0 0 0;
#X connect 7 0 0 1;
#X connect 8 0 0 1;
#X connect 9 0 0 1;
