#N canvas 357 226 1020 569 12;
#X obj 36 32 inlet;
#X obj 36 65 sel 0 1;
#X obj 35 260 outlet~;
#X text 85 32 state** = 0 = OOB or 1 = IB;
#X obj 35 186 readsf~;
#X msg 36 111 0;
#X msg 79 141 1;
#X text 103 162 sample that needs to be played;
#X obj 79 110 t b b;
#X obj 335 28 inlet;
#X text 388 27 Message to set the sample;
#X msg 112 141;
#X connect 0 0 1 0;
#X connect 1 0 5 0;
#X connect 1 1 8 0;
#X connect 4 0 2 0;
#X connect 4 1 8 0;
#X connect 5 0 4 0;
#X connect 6 0 4 0;
#X connect 8 0 6 0;
#X connect 8 1 11 0;
#X connect 9 0 11 0;
#X connect 11 0 4 0;
