#N canvas 287 156 843 574 10;
#X obj 300 495 outlet~;
#X obj 11 23 inlet;
#X obj 124 444 *~;
#X obj 361 35 line~;
#X obj 362 10 pack 1 5000;
#X obj 9 135 switch~;
#X obj 10 46 moses 1;
#X obj 10 91 delay 5000;
#X floatatom 9 113 5 0 0 0 - - -, f 5;
#X obj 8 69 sel 0;
#X text 255 25 fade in/out bit;
#X text 6 0 switch off the audio dsp after it's finished fading out
;
#X text 10 196 comment;
#X obj 154 182 soundfiler;
#N canvas 0 50 450 300 (subpatch) 0;
#X array \$0-sample-table 3.33017e+06 float 0;
#X coords 0 1.02 3.33017e+06 -1.02 200 130 1;
#X restore 225 214 graph;
#X obj 138 354 +~ 1;
#X obj 129 287 /;
#X obj 121 236 t b;
#X obj 121 261 f 1;
#X obj 144 210 / 44100;
#X obj 129 309 phasor~;
#X obj 139 331 *~;
#X obj 125 499 outlet~;
#X obj 124 419 tabread4~ \$0-sample-table;
#X obj 141 57 inlet;
#X msg 143 109 read -resize \$1;
#X obj 244 110 makefilename %d-sample-table;
#X obj 243 87 f \$0;
#X obj 155 83 t b b;
#X obj 425 87 f \$0;
#X obj 426 110 makefilename %d-sample-table-right;
#N canvas 0 50 450 300 (subpatch) 0;
#X array \$0-sample-table-right 3.33017e+06 float 0;
#X coords 0 1.02 3.33017e+06 -1.02 200 130 1;
#X restore 433 215 graph;
#X obj 143 129 pack s s s s s;
#X msg 144 153 \$1 \$2 \$3 \$4 \$5;
#X obj 301 415 tabread4~ \$0-sample-table-right;
#X obj 300 443 *~;
#X obj 299 470 *~ 0.08;
#X obj 124 473 *~ 0.08;
#X connect 1 0 4 0;
#X connect 1 0 6 0;
#X connect 2 0 37 0;
#X connect 3 0 2 1;
#X connect 3 0 35 1;
#X connect 4 0 3 0;
#X connect 6 0 9 0;
#X connect 6 1 5 0;
#X connect 7 0 8 0;
#X connect 8 0 5 0;
#X connect 9 0 7 0;
#X connect 13 0 19 0;
#X connect 13 0 21 1;
#X connect 15 0 23 0;
#X connect 15 0 34 0;
#X connect 16 0 20 0;
#X connect 17 0 18 0;
#X connect 18 0 16 0;
#X connect 19 0 16 1;
#X connect 19 0 17 0;
#X connect 20 0 21 0;
#X connect 21 0 15 0;
#X connect 23 0 2 0;
#X connect 24 0 25 0;
#X connect 24 0 28 0;
#X connect 25 0 32 0;
#X connect 26 0 32 3;
#X connect 27 0 26 0;
#X connect 28 0 25 0;
#X connect 28 1 27 0;
#X connect 28 1 29 0;
#X connect 29 0 30 0;
#X connect 30 0 32 4;
#X connect 32 0 33 0;
#X connect 33 0 13 0;
#X connect 34 0 35 0;
#X connect 35 0 36 0;
#X connect 36 0 0 0;
#X connect 37 0 22 0;
