#N canvas -85 203 1345 615 12;
#N canvas 48 436 1632 609 placeholders 0;
#X obj 375 84 inlet;
#X obj 544 69 inlet;
#X text 342 85 play;
#X text 501 70 biome;
#X obj 544 136 select 1 2 3 4;
#X obj 375 141 bng 15 250 50 0 empty empty empty 17 7 0 10 -262144
-1 -1;
#X obj 434 470 dac~;
#X obj 746 74 inlet;
#X text 708 74 gain;
#X obj 434 439 *~;
#X floatatom 555 468 5 0 0 0 - - -, f 5;
#X obj 428 331 readsf~;
#X msg 385 301 1;
#X obj 544 105 int;
#X floatatom 583 104 5 0 0 0 - - -, f 5;
#X obj 745 103 s gain;
#X obj 543 411 r gain;
#X msg 627 207 open jungle_placeholder.wav;
#X msg 294 316 0;
#X msg 619 271 open space_placeholder.wav;
#X msg 619 325 open desert_placeholder.wav;
#X msg 618 379 open ocean_placeholder.wav;
#X obj 836 73 inlet;
#X obj 838 100 s uit;
#X obj 291 274 r uit;
#X text 926 233 1 = jungle 2 = space 3 = desert 4 = ocean;
#X obj 369 471 outlet~;
#X connect 0 0 5 0;
#X connect 1 0 13 1;
#X connect 1 0 14 0;
#X connect 4 0 17 0;
#X connect 4 1 19 0;
#X connect 4 2 20 0;
#X connect 4 3 21 0;
#X connect 5 0 13 0;
#X connect 5 0 12 0;
#X connect 7 0 15 0;
#X connect 9 0 26 0;
#X connect 11 0 9 0;
#X connect 11 1 5 0;
#X connect 12 0 11 0;
#X connect 13 0 4 0;
#X connect 16 0 9 1;
#X connect 16 0 10 0;
#X connect 17 0 11 0;
#X connect 18 0 11 0;
#X connect 19 0 11 0;
#X connect 20 0 11 0;
#X connect 21 0 11 0;
#X connect 22 0 23 0;
#X connect 24 0 18 0;
#X restore 293 334 pd placeholders;
#X obj 395 196 vsl 15 128 0 127 0 0 empty empty empty 0 -9 0 10 -262144
-1 -1 0 1;
#X obj 294 278 bng 15 250 50 0 empty empty empty 17 7 0 10 -262144
-1 -1;
#X floatatom 321 238 5 0 0 0 - - -, f 5;
#X text 271 237 biome:;
#X text 352 192 gain:;
#X obj 416 285 bng 15 250 50 0 empty empty empty 17 7 0 10 -262144
-1 -1;
#X text 87 133 1 = jungle 2 = space 3 = desert 4 = ocean;
#N canvas 48 92 1632 609 placeholders 0;
#X obj 375 84 inlet;
#X obj 544 69 inlet;
#X text 342 85 play;
#X text 501 70 biome;
#X obj 544 136 select 1 2 3 4;
#X obj 375 141 bng 15 250 50 0 empty empty empty 17 7 0 10 -262144
-1 -1;
#X obj 746 74 inlet;
#X text 708 74 gain;
#X obj 434 439 *~;
#X floatatom 555 468 5 0 0 0 - - -, f 5;
#X obj 428 331 readsf~;
#X msg 385 301 1;
#X obj 544 105 int;
#X floatatom 583 104 5 0 0 0 - - -, f 5;
#X obj 745 103 s gain;
#X obj 543 411 r gain;
#X msg 627 207 open jungle_placeholder.wav;
#X msg 294 316 0;
#X msg 619 271 open space_placeholder.wav;
#X msg 619 325 open desert_placeholder.wav;
#X msg 618 379 open ocean_placeholder.wav;
#X obj 836 73 inlet;
#X obj 838 100 s uit;
#X obj 291 274 r uit;
#X text 926 233 1 = jungle 2 = space 3 = desert 4 = ocean;
#X obj 369 471 outlet~;
#X connect 0 0 5 0;
#X connect 1 0 12 1;
#X connect 1 0 13 0;
#X connect 4 0 16 0;
#X connect 4 1 18 0;
#X connect 4 2 19 0;
#X connect 4 3 20 0;
#X connect 5 0 12 0;
#X connect 5 0 11 0;
#X connect 6 0 14 0;
#X connect 8 0 25 0;
#X connect 10 0 8 0;
#X connect 10 1 5 0;
#X connect 11 0 10 0;
#X connect 12 0 4 0;
#X connect 15 0 8 1;
#X connect 15 0 9 0;
#X connect 16 0 10 0;
#X connect 17 0 10 0;
#X connect 18 0 10 0;
#X connect 19 0 10 0;
#X connect 20 0 10 0;
#X connect 21 0 22 0;
#X connect 23 0 17 0;
#X restore 661 334 pd placeholders;
#X obj 763 196 vsl 15 128 0 127 0 0 empty empty empty 0 -9 0 10 -262144
-1 -1 0 1;
#X obj 662 278 bng 15 250 50 0 empty empty empty 17 7 0 10 -262144
-1 -1;
#X floatatom 689 238 5 0 0 0 - - -, f 5;
#X text 639 237 biome:;
#X text 720 192 gain:;
#X obj 784 285 bng 15 250 50 0 empty empty empty 17 7 0 10 -262144
-1 -1;
#X text 455 133 1 = jungle 2 = space 3 = desert 4 = ocean;
#N canvas 48 92 1632 609 placeholders 0;
#X obj 375 84 inlet;
#X obj 544 69 inlet;
#X text 342 85 play;
#X text 501 70 biome;
#X obj 544 136 select 1 2 3 4;
#X obj 375 141 bng 15 250 50 0 empty empty empty 17 7 0 10 -262144
-1 -1;
#X obj 746 74 inlet;
#X text 708 74 gain;
#X obj 434 439 *~;
#X floatatom 555 468 5 0 0 0 - - -, f 5;
#X obj 428 331 readsf~;
#X msg 385 301 1;
#X obj 544 105 int;
#X floatatom 583 104 5 0 0 0 - - -, f 5;
#X obj 745 103 s gain;
#X obj 543 411 r gain;
#X msg 627 207 open jungle_placeholder.wav;
#X msg 294 316 0;
#X msg 619 271 open space_placeholder.wav;
#X msg 619 325 open desert_placeholder.wav;
#X msg 618 379 open ocean_placeholder.wav;
#X obj 836 73 inlet;
#X obj 838 100 s uit;
#X obj 291 274 r uit;
#X text 926 233 1 = jungle 2 = space 3 = desert 4 = ocean;
#X obj 301 480 outlet~;
#X connect 0 0 5 0;
#X connect 1 0 12 1;
#X connect 1 0 13 0;
#X connect 4 0 16 0;
#X connect 4 1 18 0;
#X connect 4 2 19 0;
#X connect 4 3 20 0;
#X connect 5 0 12 0;
#X connect 5 0 11 0;
#X connect 6 0 14 0;
#X connect 8 0 25 0;
#X connect 10 0 8 0;
#X connect 10 1 5 0;
#X connect 11 0 10 0;
#X connect 12 0 4 0;
#X connect 15 0 8 1;
#X connect 15 0 9 0;
#X connect 16 0 10 0;
#X connect 17 0 10 0;
#X connect 18 0 10 0;
#X connect 19 0 10 0;
#X connect 20 0 10 0;
#X connect 21 0 22 0;
#X connect 23 0 17 0;
#X restore 1041 325 pd placeholders;
#X obj 1143 187 vsl 15 128 0 127 0 0 empty empty empty 0 -9 0 10 -262144
-1 -1 0 1;
#X obj 1042 269 bng 15 250 50 0 empty empty empty 17 7 0 10 -262144
-1 -1;
#X floatatom 1069 229 5 0 0 0 - - -, f 5;
#X text 1019 228 biome:;
#X text 1100 183 gain:;
#X obj 1164 276 bng 15 250 50 0 empty empty empty 17 7 0 10 -262144
-1 -1;
#X text 835 124 1 = jungle 2 = space 3 = desert 4 = ocean;
#N canvas 48 92 1632 609 placeholders 0;
#X obj 375 84 inlet;
#X obj 544 69 inlet;
#X text 342 85 play;
#X text 501 70 biome;
#X obj 544 136 select 1 2 3 4;
#X obj 375 141 bng 15 250 50 0 empty empty empty 17 7 0 10 -262144
-1 -1;
#X obj 746 74 inlet;
#X text 708 74 gain;
#X obj 434 439 *~;
#X floatatom 555 468 5 0 0 0 - - -, f 5;
#X obj 428 331 readsf~;
#X msg 385 301 1;
#X obj 544 105 int;
#X floatatom 583 104 5 0 0 0 - - -, f 5;
#X obj 745 103 s gain;
#X obj 543 411 r gain;
#X msg 627 207 open jungle_placeholder.wav;
#X msg 294 316 0;
#X msg 619 271 open space_placeholder.wav;
#X msg 619 325 open desert_placeholder.wav;
#X msg 618 379 open ocean_placeholder.wav;
#X obj 836 73 inlet;
#X obj 838 100 s uit;
#X obj 291 274 r uit;
#X text 926 233 1 = jungle 2 = space 3 = desert 4 = ocean;
#X obj 349 506 outlet~;
#X connect 0 0 5 0;
#X connect 1 0 12 1;
#X connect 1 0 13 0;
#X connect 4 0 16 0;
#X connect 4 1 18 0;
#X connect 4 2 19 0;
#X connect 4 3 20 0;
#X connect 5 0 12 0;
#X connect 5 0 11 0;
#X connect 6 0 14 0;
#X connect 8 0 25 0;
#X connect 10 0 8 0;
#X connect 10 1 5 0;
#X connect 11 0 10 0;
#X connect 12 0 4 0;
#X connect 15 0 8 1;
#X connect 15 0 9 0;
#X connect 16 0 10 0;
#X connect 17 0 10 0;
#X connect 18 0 10 0;
#X connect 19 0 10 0;
#X connect 20 0 10 0;
#X connect 21 0 22 0;
#X connect 23 0 17 0;
#X restore 1409 325 pd placeholders;
#X obj 1511 187 vsl 15 128 0 127 0 0 empty empty empty 0 -9 0 10 -262144
-1 -1 0 1;
#X obj 1410 269 bng 15 250 50 0 empty empty empty 17 7 0 10 -262144
-1 -1;
#X floatatom 1437 229 5 0 0 0 - - -, f 5;
#X text 1387 228 biome:;
#X text 1468 183 gain:;
#X obj 1532 276 bng 15 250 50 0 empty empty empty 17 7 0 10 -262144
-1 -1;
#X text 1203 124 1 = jungle 2 = space 3 = desert 4 = ocean;
#X obj 588 16 loadbang;
#X msg 463 60 0.9;
#X floatatom 510 64 5 0 0 0 - - -, f 5;
#X obj 687 16 bng 15 250 50 0 empty empty empty 17 7 0 10 -262144 -1
-1;
#X msg 323 192 1;
#X msg 686 173 2;
#X msg 1065 175 3;
#X msg 1430 177 4;
#X obj 679 75 t b b;
#X connect 1 0 0 2;
#X connect 2 0 0 0;
#X connect 3 0 0 1;
#X connect 6 0 0 3;
#X connect 9 0 8 2;
#X connect 10 0 8 0;
#X connect 11 0 8 1;
#X connect 14 0 8 3;
#X connect 17 0 16 2;
#X connect 18 0 16 0;
#X connect 19 0 16 1;
#X connect 22 0 16 3;
#X connect 25 0 24 2;
#X connect 26 0 24 0;
#X connect 27 0 24 1;
#X connect 30 0 24 3;
#X connect 35 0 40 0;
#X connect 36 0 3 0;
#X connect 37 0 11 0;
#X connect 38 0 19 0;
#X connect 39 0 27 0;
#X connect 40 0 2 0;
#X connect 40 0 10 0;
#X connect 40 0 18 0;
#X connect 40 0 26 0;
#X connect 40 1 36 0;
#X connect 40 1 37 0;
#X connect 40 1 38 0;
#X connect 40 1 39 0;
