#N canvas -36 205 1344 708 12;
#N canvas 610 205 450 441 counter 1;
#X obj 124 76 tgl 15 0 empty empty empty 17 7 0 10 -262144 -1 -1 0
1;
#X obj 124 40 inlet;
#X obj 208 40 inlet;
#X floatatom 209 80 5 0 0 0 - - -, f 5;
#X obj 124 123 t f b;
#X text 22 123 reset aan/uit;
#X msg 209 123 tempo \$1 permin;
#X msg 156 197 0;
#X obj 118 291 % 32;
#X obj 117 323 outlet;
#X obj 122 163 metro 0.25 120 permin;
#X obj 118 259 f;
#X obj 153 260 + 1;
#X connect 0 0 4 0;
#X connect 1 0 0 0;
#X connect 2 0 3 0;
#X connect 3 0 6 0;
#X connect 4 0 10 0;
#X connect 4 1 7 0;
#X connect 6 0 10 0;
#X connect 7 0 11 1;
#X connect 8 0 9 0;
#X connect 10 0 11 0;
#X connect 11 0 12 0;
#X connect 11 0 8 0;
#X connect 12 0 11 1;
#X restore 83 92 pd counter;
#X floatatom 150 41 5 0 0 0 - - -, f 5;
#X text 120 40 bpm;
#X obj 84 41 tgl 15 0 empty empty empty 17 7 0 10 -262144 -1 -1 0 1
;
#X text 23 43 aan uit;
#X obj 83 125 hradio 15 1 0 8 empty empty empty 0 -8 0 10 -262144 -1
-1 0;
#X floatatom 84 162 5 0 0 0 - - -, f 5;
#N canvas 0 50 450 278 (subpatch) 0;
#X array \$0-steps 32 float 3;
#A 0 0 11 11 11 0 11 11 11 0 11 11 11 0 11 11 11 0 11 11 11 0 11 11
11 0 11 11 11 0 11 11 11;
#X coords 0 11 32 0 160 90 1 0 0;
#X restore 991 235 graph;
#X text 765 347 drum options:;
#X obj 1044 486 array set \$0-steps;
#X floatatom 1104 449 5 0 0 0 - - -, f 5;
#X msg 998 395 0 3 4 5 6 7 11 10 7 5 6 3 8 6 2 7 0 3 4 5 6 7 11 10
7 5 6 3 8 6 2 7;
#X obj 86 193 array get \$0-steps;
#X floatatom 84 229 5 0 0 0 - - -, f 5;
#X obj 84 269 select 0 1 2 3 4 5 6 7 8 9 10 11;
#X text 868 345 0 = k \, 1 = s \, 2 = h \, 3 = b \, 4 = ks \, 5 = kh
\, 6 = kb \, 7 = sh \, 8 = sb \, 9 = hb 10 = kshb \, 11 = rest;
#N canvas 188 198 450 300 kick 0;
#X obj 36 8 inlet;
#X obj 211 9 inlet;
#X text 3 9 play;
#X text 168 10 biome;
#X obj 211 76 select 1 2 3 4;
#X obj 36 65 bng 15 250 50 0 empty empty empty 17 7 0 10 -262144 -1
-1;
#X obj 101 410 dac~;
#X obj 413 14 inlet;
#X text 375 14 gain;
#X obj 101 379 *~;
#X floatatom 222 408 5 0 0 0 - - -, f 5;
#X obj 95 271 readsf~;
#X msg 52 241 1;
#X obj 211 45 int;
#X floatatom 250 44 5 0 0 0 - - -, f 5;
#X obj 412 43 s gain;
#X obj 210 351 r gain;
#X msg 285 154 open kick1.wav;
#X msg 286 211 open kick2.wav;
#X msg 286 265 open kick3.wav;
#X msg 285 319 open kick4.wav;
#X connect 0 0 5 0;
#X connect 1 0 13 1;
#X connect 1 0 14 0;
#X connect 4 0 17 0;
#X connect 4 1 18 0;
#X connect 4 2 19 0;
#X connect 4 3 20 0;
#X connect 5 0 13 0;
#X connect 5 0 12 0;
#X connect 7 0 15 0;
#X connect 9 0 6 0;
#X connect 9 0 6 1;
#X connect 11 0 9 0;
#X connect 12 0 11 0;
#X connect 13 0 4 0;
#X connect 16 0 9 1;
#X connect 16 0 10 0;
#X connect 17 0 11 0;
#X connect 18 0 11 0;
#X connect 19 0 11 0;
#X connect 20 0 11 0;
#X restore 74 473 pd kick;
#N canvas 217 227 450 300 snare 0;
#X obj 36 8 inlet;
#X obj 211 9 inlet;
#X text 3 9 play;
#X text 168 10 biome;
#X obj 211 76 select 1 2 3 4;
#X obj 36 65 bng 15 250 50 0 empty empty empty 17 7 0 10 -262144 -1
-1;
#X obj 101 410 dac~;
#X obj 413 14 inlet;
#X text 375 14 gain;
#X obj 101 379 *~;
#X floatatom 222 408 5 0 0 0 - - -, f 5;
#X obj 95 271 readsf~;
#X msg 52 241 1;
#X obj 211 45 int;
#X floatatom 250 44 5 0 0 0 - - -, f 5;
#X obj 412 43 s gain;
#X obj 210 351 r gain;
#X msg 285 154 open snare1.wav;
#X msg 286 265 open snare3.wav;
#X msg 286 211 open snare2.wav;
#X msg 285 319 open snare4.wav;
#X connect 0 0 5 0;
#X connect 1 0 13 1;
#X connect 1 0 14 0;
#X connect 4 0 17 0;
#X connect 4 1 19 0;
#X connect 4 2 18 0;
#X connect 4 3 20 0;
#X connect 5 0 13 0;
#X connect 5 0 12 0;
#X connect 7 0 15 0;
#X connect 9 0 6 0;
#X connect 9 0 6 1;
#X connect 11 0 9 0;
#X connect 12 0 11 0;
#X connect 13 0 4 0;
#X connect 16 0 9 1;
#X connect 16 0 10 0;
#X connect 17 0 11 0;
#X connect 18 0 11 0;
#X connect 19 0 11 0;
#X connect 20 0 11 0;
#X restore 154 473 pd snare;
#N canvas 246 256 450 713 hihat 0;
#X obj 36 8 inlet;
#X obj 211 9 inlet;
#X text 3 9 play;
#X text 168 10 biome;
#X obj 211 76 select 1 2 3 4;
#X obj 36 65 bng 15 250 50 0 empty empty empty 17 7 0 10 -262144 -1
-1;
#X obj 101 410 dac~;
#X obj 413 14 inlet;
#X text 375 14 gain;
#X obj 101 379 *~;
#X floatatom 222 408 5 0 0 0 - - -, f 5;
#X obj 95 271 readsf~;
#X msg 52 241 1;
#X obj 211 45 int;
#X floatatom 250 44 5 0 0 0 - - -, f 5;
#X obj 412 43 s gain;
#X obj 210 351 r gain;
#X msg 285 154 open hh1.wav;
#X msg 286 211 open hh2.wav;
#X msg 286 265 open hh3.wav;
#X msg 285 319 open hh4.wav;
#X connect 0 0 5 0;
#X connect 1 0 13 1;
#X connect 1 0 14 0;
#X connect 4 0 17 0;
#X connect 4 1 18 0;
#X connect 4 2 19 0;
#X connect 4 3 20 0;
#X connect 5 0 13 0;
#X connect 5 0 12 0;
#X connect 7 0 15 0;
#X connect 9 0 6 0;
#X connect 9 0 6 1;
#X connect 11 0 9 0;
#X connect 12 0 11 0;
#X connect 13 0 4 0;
#X connect 16 0 9 1;
#X connect 16 0 10 0;
#X connect 17 0 11 0;
#X connect 18 0 11 0;
#X connect 19 0 11 0;
#X connect 20 0 11 0;
#X restore 241 474 pd hihat;
#N canvas 275 285 450 300 biomesound 0;
#X obj 36 8 inlet;
#X obj 211 9 inlet;
#X text 3 9 play;
#X text 168 10 biome;
#X obj 211 76 select 1 2 3 4;
#X obj 36 65 bng 15 250 50 0 empty empty empty 17 7 0 10 -262144 -1
-1;
#X obj 101 410 dac~;
#X obj 413 14 inlet;
#X text 375 14 gain;
#X obj 101 379 *~;
#X floatatom 222 408 5 0 0 0 - - -, f 5;
#X obj 95 271 readsf~;
#X msg 52 241 1;
#X obj 211 45 int;
#X floatatom 250 44 5 0 0 0 - - -, f 5;
#X obj 412 43 s gain;
#X obj 210 351 r gain;
#X msg 285 154 open bsound1.wav;
#X msg 286 211 open bsound2.wav;
#X msg 286 265 open bsound3.wav;
#X msg 285 319 open bsound4.wav;
#X connect 0 0 5 0;
#X connect 1 0 13 1;
#X connect 1 0 14 0;
#X connect 4 0 17 0;
#X connect 4 1 18 0;
#X connect 4 2 19 0;
#X connect 4 3 20 0;
#X connect 5 0 13 0;
#X connect 5 0 12 0;
#X connect 7 0 15 0;
#X connect 9 0 6 0;
#X connect 9 0 6 1;
#X connect 11 0 9 0;
#X connect 12 0 11 0;
#X connect 13 0 4 0;
#X connect 16 0 9 1;
#X connect 16 0 10 0;
#X connect 17 0 11 0;
#X connect 18 0 11 0;
#X connect 19 0 11 0;
#X connect 20 0 11 0;
#X restore 331 473 pd biomesound;
#X obj 98 410 r kbiome;
#X obj 181 408 r sbiome;
#X obj 265 407 r hhbiome;
#X obj 372 406 r bsbiome;
#X obj 121 440 r kgain;
#X obj 198 438 r sgain;
#X obj 288 436 r hhgain;
#X obj 417 436 r bsgain;
#X obj 82 840 s kbiome;
#X obj 157 840 s sbiome;
#X obj 228 840 s hhbiome;
#X obj 308 841 s bsbiome;
#X obj 827 784 s kgain;
#X obj 918 784 s sgain;
#X obj 1008 785 s hhgain;
#X obj 1100 787 s bsgain;
#X text 873 619 audio mixer;
#X obj 826 658 vsl 15 128 0 1 0 0 empty empty empty 0 -9 0 10 -262144
-1 -1 12700 1;
#X obj 923 663 vsl 15 128 0 1 0 0 empty empty empty 0 -9 0 10 -262144
-1 -1 12700 1;
#X text 753 655 gain kick;
#X text 848 661 gain snare;
#X obj 1022 664 vsl 15 128 0 1 0 0 empty empty empty 0 -9 0 10 -262144
-1 -1 12700 1;
#X text 961 661 gain hh;
#X obj 1135 659 vsl 15 128 0 1 0 0 empty empty empty 0 -9 0 10 -262144
-1 -1 12700 1;
#X text 1068 657 gain bs;
#X floatatom 81 810 5 0 0 0 - - -, f 5;
#X floatatom 156 811 5 0 0 0 - - -, f 5;
#X floatatom 227 807 5 0 0 0 - - -, f 5;
#X floatatom 305 803 5 0 0 0 - - -, f 5;
#X msg 554 393 0 11 11 11 0 11 11 11 0 11 11 11 0 11 11 11 0 11 11
11 0 11 11 11 0 11 11 11 0 11 11 11;
#X msg 80 773 1;
#X obj 78 742 loadbang;
#X obj 686 544 loadbang;
#X msg 687 575 1;
#X connect 0 0 5 0;
#X connect 1 0 0 1;
#X connect 3 0 0 0;
#X connect 5 0 6 0;
#X connect 6 0 12 0;
#X connect 10 0 9 1;
#X connect 11 0 9 0;
#X connect 12 0 13 0;
#X connect 13 0 14 0;
#X connect 14 0 16 0;
#X connect 14 1 17 0;
#X connect 14 2 18 0;
#X connect 14 3 19 0;
#X connect 14 4 16 0;
#X connect 14 4 17 0;
#X connect 14 5 16 0;
#X connect 14 5 18 0;
#X connect 14 6 16 0;
#X connect 14 6 19 0;
#X connect 14 7 17 0;
#X connect 14 7 18 0;
#X connect 14 8 17 0;
#X connect 14 8 19 0;
#X connect 14 9 18 0;
#X connect 14 9 19 0;
#X connect 14 10 16 0;
#X connect 14 10 17 0;
#X connect 14 10 18 0;
#X connect 14 10 19 0;
#X connect 20 0 16 1;
#X connect 21 0 17 1;
#X connect 22 0 18 1;
#X connect 23 0 19 1;
#X connect 24 0 16 2;
#X connect 25 0 17 2;
#X connect 26 0 18 2;
#X connect 27 0 19 2;
#X connect 37 0 32 0;
#X connect 38 0 33 0;
#X connect 41 0 34 0;
#X connect 43 0 35 0;
#X connect 45 0 28 0;
#X connect 46 0 29 0;
#X connect 47 0 30 0;
#X connect 48 0 31 0;
#X connect 49 0 9 0;
#X connect 50 0 45 0;
#X connect 51 0 50 0;
#X connect 52 0 53 0;
#X connect 53 0 37 0;
#X connect 53 0 38 0;
#X connect 53 0 41 0;
#X connect 53 0 43 0;
