#N canvas 0 25 1440 770 10;
#X declare -path mrpeach;
#X obj 420 527 +~;
#X obj 419 631 dac~;
#X text 8 7 sonic kayak zone mixer;
#X msg 396 43 port 8888;
#X obj 395 72 udpreceive 8888;
#X obj 396 97 unpackOSC;
#X obj 424 132 route /entered-zone /left-zone;
#X obj 423 159 unpack s;
#X obj 511 159 unpack s;
#X obj 708 372 loadbang;
#X msg 708 396 1;
#X msg 740 418 0;
#X msg 3 86 \; pd dsp 1;
#X obj 70 32 loadbang;
#X obj 465 527 +~;
#X msg 608 291 1;
#X text 715 347 startup sound;
#X obj 3 150 zone-gps-sense;
#N canvas 0 50 450 250 (subpatch) 0;
#X array out 100 float 3;
#A 0 0 0 0 0 0 0 0 0 0 0 0 0 0 0 0 0 0 0 0 0 0 0 0 0 0 0 0 0 0 0 0 0 0 0 0 0 0 0 0 0 0 0 0 0 0 0 0 0 0 0 0 0 0 0 0 0 0 0 0 0 0 0 0 0 0 0 0 0 0 0 0 0 0 0 0 0 0 0 0 0 0 0 0 0 0 0 0 0 0 0 0 0 0 0 0 0 0 0 0 0;
#X coords 0 1 99 -1 200 140 1;
#X restore 952 49 graph;
#X text 137 61 continuously playing things, f 13;
#X text 393 23 input from swamp zone system;
#X msg 455 276 0;
#X msg 424 275 1;
#X obj 424 346 loop;
#X obj 459 301 loadbang;
#X obj 708 460 loop;
#X obj 773 418 loadbang;
#X msg 775 438 _ ../sound/kayaks.wav;
#X obj 419 594 *~;
#X obj 465 594 *~;
#X floatatom 507 570 5 0 0 0 - - - 0;
#X obj 506 526 loadbang;
#X msg 506 548 4;
#X obj 608 343 +~;
#X obj 634 343 +~;
#X obj 647 310 loadbang;
#X obj 608 310 1shot;
#X msg 1035 230 1;
#X msg 1068 231 1;
#X msg 1065 279 _ ../sound/lz7.wav;
#X msg 1065 300 _ ../sound/lz8.wav;
#X msg 1069 325 _ ../sound/lz9.wav;
#X msg 1064 350 _ ../sound/lz10.wav;
#X msg 713 310 _ ../sound/duck.wav;
#X msg 609 250 1;
#X obj 648 269 loadbang;
#X obj 609 269 1shot;
#X msg 714 269 _ ../sound/pulse_fat.wav;
#X msg 461 320 _ ../sound/welcome.wav;
#X obj 423 213 select start;
#X obj 455 241 select start;
#X obj 608 226 select duck hydro;
#X obj 721 45 declare -path mrpeach;
#X obj 740 396 delay 10000;
#X obj 4 125 tgl 15 0 empty empty empty 17 7 0 10 #fcfcfc #000000 #000000 0 1;
#X obj 142 143 soundscape/_main-soundscape, f 35;
#X obj 142 121 tgl 15 0 empty empty empty 17 7 0 10 #fcfcfc #000000 #000000 0 1;
#X obj 70 59 t b b b;
#X obj 3 331 dac~;
#X msg 85 99 1;
#X msg 116 98 0;
#X obj 84 204 *~ \$1, f 6;
#X obj 117 133 tgl 15 0 empty empty empty 17 7 0 10 #fcfcfc #000000 #000000 0 1;
#N canvas 118 25 1322 597 zone-gps-biomes 1;
#X obj 15 144 s live_loc;
#X text 6 161 Sends to geo_calc_dist_in_range, f 14;
#X obj 341 122 bng 15 250 50 0 empty empty empty 17 7 0 10 #fcfcfc #000000 #000000;
#X obj 271 166 s reset;
#N canvas 308 93 818 702 geo_calc_dist_in_range 0;
#X obj 199 6 inlet;
#X text 241 6 Loc;
#X obj 207 343 outlet;
#X obj 17 39 unpack f f, f 15;
#X floatatom 17 101 9 0 0 0 - - - 0;
#X floatatom 118 101 8 0 0 0 - - - 0;
#X obj 199 39 unpack f f;
#X floatatom 200 101 7 0 0 0 - - - 0;
#X floatatom 268 101 7 0 0 0 - - - 0;
#X obj 17 212 expr pow(pow($f1 \, 2) + pow($f2 \, 2) \, 0.5);
#X floatatom 17 180 5 0 0 0 - - - 0;
#X floatatom 293 176 13 0 0 0 - - - 0;
#X obj 17 133 expr abs($f1 - $f3) \; abs($f2 - $f4), f 40;
#X text 310 139 Absolute value of dist between the x and y;
#X obj 317 6 inlet;
#X text 359 7 Range;
#X obj 20 276 expr if($f1 < $f2 \, 1 \, 0) \; if($f1 < $f2 \, $f1 \, 0), f 26;
#X obj 22 347 outlet;
#X floatatom 43 243 10 0 0 0 - - - 0;
#X text 119 242 Distance;
#X text 311 211 Pythagoras;
#X text 62 179 Distance x;
#X text 404 178 Distance y;
#X text 261 345 Distance > 0;
#X obj 16 7 r live_loc;
#X text 75 344 In Range 0 = no 1 = yes, f 8;
#X floatatom 376 47 5 0 0 0 - - - 0;
#X floatatom 256 309 22 0 0 0 - - - 0;
#X connect 0 0 6 0;
#X connect 3 0 4 0;
#X connect 3 1 5 0;
#X connect 4 0 12 0;
#X connect 5 0 12 1;
#X connect 6 0 7 0;
#X connect 6 1 8 0;
#X connect 7 0 12 2;
#X connect 8 0 12 3;
#X connect 9 0 16 0;
#X connect 9 0 18 0;
#X connect 10 0 9 0;
#X connect 11 0 9 1;
#X connect 12 0 10 0;
#X connect 12 1 11 0;
#X connect 14 0 16 1;
#X connect 14 0 26 0;
#X connect 16 0 17 0;
#X connect 16 1 2 0;
#X connect 16 1 27 0;
#X connect 24 0 3 0;
#X restore 268 57 pd geo_calc_dist_in_range;
#X text 435 58 in 1: loc|in 2: range|out 1: in rage [0 \, 1]|out2: dist;
#X obj 272 128 onebang;
#X floatatom 341 83 5 0 0 0 - - - 0;
#X obj 341 167 bng 15 250 50 0 empty empty empty 17 7 0 10 #fcfcfc #000000 #000000;
#X text 590 31 location and range for reset point;
#X obj 272 101 sel 1 0, f 14;
#X text 365 122 Manual reset;
#X text 380 82 0 = out or range \, 1 = in range;
#X text 365 166 check if reset;
#X text 185 165 Global reset;
#X text 127 369 out1: biome audio;
#X obj 20 529 outlet~;
#X floatatom 677 302 5 0 0 0 - - - 0;
#N canvas 560 106 854 632 biome_desert 0;
#N canvas 726 112 506 313 counter 0;
#X text 60 10 Bang for +1;
#X obj 13 168 int 1;
#X msg 154 61 0;
#X obj 61 168 + 1;
#X obj 13 198 outlet;
#X text 71 199 The count;
#X obj 13 102 metro 1000;
#X obj 13 75 tgl 15 0 empty empty empty 17 7 0 10 #fcfcfc #000000 #000000 0 1;
#X obj 156 28 r reset;
#X obj 13 47 inlet;
#X connect 1 0 3 0;
#X connect 1 0 4 0;
#X connect 2 0 1 0;
#X connect 3 0 1 1;
#X connect 6 0 1 0;
#X connect 7 0 6 0;
#X connect 8 0 2 0;
#X connect 9 0 7 0;
#X restore 17 383 pd counter;
#X floatatom 17 414 4 0 0 0 - - - 0;
#X floatatom 213 186 5 0 0 0 - - - 0;
#X text 380 137 Takes distance and maps and scales it to gainvalue;
#N canvas 847 1678 818 702 geo_calc_dist_in_range 0;
#X obj 199 6 inlet;
#X text 241 6 Loc;
#X obj 207 343 outlet;
#X obj 17 39 unpack f f, f 15;
#X floatatom 17 101 9 0 0 0 - - - 0;
#X floatatom 118 101 8 0 0 0 - - - 0;
#X obj 199 39 unpack f f;
#X floatatom 200 101 7 0 0 0 - - - 0;
#X floatatom 268 101 7 0 0 0 - - - 0;
#X obj 17 212 expr pow(pow($f1 \, 2) + pow($f2 \, 2) \, 0.5);
#X floatatom 17 180 5 0 0 0 - - - 0;
#X floatatom 293 176 13 0 0 0 - - - 0;
#X obj 17 133 expr abs($f1 - $f3) \; abs($f2 - $f4), f 40;
#X text 310 139 Absolute value of dist between the x and y;
#X obj 317 6 inlet;
#X text 359 7 Range;
#X obj 22 347 outlet;
#X floatatom 43 243 10 0 0 0 - - - 0;
#X text 119 242 Distance;
#X text 311 211 Pythagoras;
#X text 62 179 Distance x;
#X text 404 178 Distance y;
#X text 261 345 Distance > 0;
#X obj 16 7 r live_loc;
#X text 75 344 In Range 0 = no 1 = yes, f 29;
#X obj 20 276 expr if($f1 < $f2 \, 1 \, 0) \; if($f1 < $f2 \, $f1 \, $f2), f 26;
#X connect 0 0 6 0;
#X connect 3 0 4 0;
#X connect 3 1 5 0;
#X connect 4 0 12 0;
#X connect 5 0 12 1;
#X connect 6 0 7 0;
#X connect 6 1 8 0;
#X connect 7 0 12 2;
#X connect 8 0 12 3;
#X connect 9 0 17 0;
#X connect 9 0 25 0;
#X connect 10 0 9 0;
#X connect 11 0 9 1;
#X connect 12 0 10 0;
#X connect 12 1 11 0;
#X connect 14 0 25 1;
#X connect 23 0 3 0;
#X connect 25 0 16 0;
#X connect 25 1 2 0;
#X restore 11 64 pd geo_calc_dist_in_range;
#X floatatom 11 97 5 0 0 0 - - - 0;
#X floatatom 210 105 5 0 0 0 - - - 0;
#X obj 12 6 inlet;
#X obj 235 2 inlet;
#X text 58 7 Loc Biome;
#X text 282 3 Range Biome;
#X text 50 414 Time elapsed in sec;
#X obj 37 589 outlet~;
#X text 98 589 Audio bus for biome;
#X text 257 170 Scaled gainvalue to atmosphere player;
#X text 48 98 In Range 0 = no 1 = yes, f 9;
#X text 243 62 in 1: biome location \, in 2 biome range \, out1: in range state \, out 2: distance;
#X text 254 105 Distance (values greater then range are filtered);
#X floatatom 234 29 5 0 0 0 - - - 0;
#X text 314 188 in 1: location of trigger in 2: range of trigger in 3: Bang the sample out 1: audio of sampler, f 25;
#X obj 12 133 change;
#N canvas 199 152 1124 708 looper_desert 0;
#X obj 36 32 inlet;
#X obj 36 65 sel 0 1;
#X obj 35 260 outlet~;
#X text 85 32 state** = 0 = OOB or 1 = IB;
#X obj 35 186 readsf~;
#X msg 36 111 0;
#X msg 79 141 1;
#X text 103 162 sample that needs to be played;
#X obj 79 110 t b b;
#X msg 112 141 open desert.wav;
#X connect 0 0 1 0;
#X connect 1 0 5 0;
#X connect 1 1 8 0;
#X connect 4 0 2 0;
#X connect 4 1 8 0;
#X connect 5 0 4 0;
#X connect 6 0 4 0;
#X connect 8 0 6 0;
#X connect 8 1 9 0;
#X connect 9 0 4 0;
#X restore 31 185 pd looper_desert;
#X obj 32 350 *~, f 30;
#X obj 239 323 line;
#X obj 239 299 pack f f;
#X obj 290 254 loadbang;
#N canvas 227 222 875 487 0-delay 0;
#X obj 7 17 inlet;
#X obj 14 250 outlet;
#X obj 7 46 route 0;
#X obj 8 85 t 0 b;
#X msg 50 129 clear;
#X obj 4 172 pipe 6000;
#X connect 0 0 2 0;
#X connect 2 0 3 0;
#X connect 2 1 1 0;
#X connect 2 1 4 0;
#X connect 3 0 5 0;
#X connect 3 1 4 0;
#X connect 4 0 5 0;
#X connect 5 0 1 0;
#X restore 22 160 pd 0-delay;
#X floatatom 165 181 5 0 0 0 - - - 0;
#X msg 290 277 6000;
#X floatatom 325 388 5 0 0 0 - - - 0;
#X obj 240 276 change;
#N canvas 527 205 450 300 geo_calc_gainvalue 0;
#X obj 15 12 inlet;
#X obj 140 12 inlet;
#X text 61 11 Distance;
#N canvas 63 88 686 391 map 0;
#X obj 203 75 inlet;
#X obj 263 75 inlet;
#X obj 317 75 inlet;
#X obj 377 75 inlet;
#X obj 417 75 inlet;
#X obj 194 308 outlet;
#X text 270 59 lo;
#X text 324 59 hi;
#X text 384 59 lo;
#X text 424 59 hi;
#X obj 254 134 f \$1;
#X obj 308 134 f \$2;
#X obj 368 134 f \$3;
#X obj 408 134 f \$4;
#X obj 194 173 -;
#X obj 273 185 -;
#X obj 254 156 t f b f;
#X obj 194 202 /;
#X text 234 42 from;
#X text 347 40 to;
#X obj 194 246 *;
#X obj 194 274 +;
#X obj 387 185 -;
#X obj 368 156 t f b f;
#X text 53 176 subtract offset 1;
#X text 55 203 divide by range 1;
#X text 43 250 multiply by range 2;
#X text 85 274 add offset 2;
#X obj 493 58 loadbang;
#X obj 493 80 t b b b b;
#X obj 194 134 f;
#X text 399 39 initialize from arguments, f 36;
#X connect 0 0 30 0;
#X connect 1 0 10 0;
#X connect 2 0 11 0;
#X connect 3 0 12 0;
#X connect 4 0 13 0;
#X connect 10 0 16 0;
#X connect 11 0 15 0;
#X connect 12 0 23 0;
#X connect 13 0 22 0;
#X connect 14 0 17 0;
#X connect 15 0 17 1;
#X connect 16 0 14 1;
#X connect 16 1 15 0;
#X connect 16 2 15 1;
#X connect 17 0 20 0;
#X connect 20 0 21 0;
#X connect 21 0 5 0;
#X connect 22 0 20 1;
#X connect 23 0 21 1;
#X connect 23 1 22 0;
#X connect 23 2 22 1;
#X connect 28 0 29 0;
#X connect 29 0 10 0;
#X connect 29 1 11 0;
#X connect 29 2 12 0;
#X connect 29 3 13 0;
#X connect 30 0 14 0;
#X restore 15 154 pd map;
#X obj 261 82 loadbang;
#X msg 261 110 1;
#X msg 79 121 0;
#X floatatom 15 182 5 0 0 0 - - - 0;
#X text 192 11 Range;
#X obj 15 237 outlet;
#X text 78 239 Gain Value Scaled;
#X text 78 184 Mapped Value;
#X text 282 152 Map to [0.0 \, 1.0], f 23;
#X obj 14 209 expr 1 - $f1;
#X floatatom 291 250 5 0 0 0 - - - 0;
#X connect 0 0 3 0;
#X connect 1 0 3 2;
#X connect 3 0 7 0;
#X connect 4 0 6 0;
#X connect 4 0 5 0;
#X connect 5 0 3 4;
#X connect 6 0 3 1;
#X connect 6 0 3 3;
#X connect 7 0 13 0;
#X connect 13 0 9 0;
#X restore 210 137 pd geo_calc_gainvalue;
#X obj 107 493 fx;
#X connect 0 0 1 0;
#X connect 1 0 32 0;
#X connect 2 0 30 0;
#X connect 4 0 5 0;
#X connect 4 1 6 0;
#X connect 5 0 20 0;
#X connect 6 0 31 0;
#X connect 7 0 4 0;
#X connect 8 0 18 0;
#X connect 18 0 4 1;
#X connect 18 0 31 1;
#X connect 20 0 0 0;
#X connect 20 0 26 0;
#X connect 21 0 22 0;
#X connect 22 0 32 1;
#X connect 23 0 22 1;
#X connect 23 0 29 0;
#X connect 24 0 23 0;
#X connect 25 0 28 0;
#X connect 26 0 21 0;
#X connect 26 0 27 0;
#X connect 28 0 24 1;
#X connect 30 0 24 0;
#X connect 31 0 2 0;
#X connect 32 0 12 0;
#X restore 592 329 pd biome_desert;
#X obj 590 383 *~ \$1;
#X obj 616 356 tgl 15 0 empty empty empty 17 7 0 10 #fcfcfc #000000 #000000 0 1;
#X floatatom 304 308 5 0 0 0 - - - 0;
#X obj 201 382 *~ \$1;
#X obj 227 355 tgl 15 0 empty empty empty 17 7 0 10 #fcfcfc #000000 #000000 0 1;
#X obj 676 258 loadbang;
#X obj 285 257 loadbang;
#X floatatom 507 301 5 0 0 0 - - - 0;
#X obj 420 382 *~ \$1;
#X obj 446 355 tgl 15 0 empty empty empty 17 7 0 10 #fcfcfc #000000 #000000 0 1;
#X obj 504 257 loadbang;
#X floatatom 827 302 5 0 0 0 - - - 0;
#X obj 740 383 *~ \$1;
#X obj 766 356 tgl 15 0 empty empty empty 17 7 0 10 #fcfcfc #000000 #000000 0 1;
#X obj 824 258 loadbang;
#X obj 589 207 loadbang;
#X obj 203 209 loadbang;
#X obj 419 207 loadbang;
#X obj 742 211 loadbang;
#N canvas 168 195 817 498 biome_jungle 0;
#N canvas 726 112 506 313 counter 0;
#X text 60 10 Bang for +1;
#X obj 13 168 int 1;
#X msg 154 61 0;
#X obj 61 168 + 1;
#X obj 13 198 outlet;
#X text 71 199 The count;
#X obj 13 102 metro 1000;
#X obj 13 75 tgl 15 0 empty empty empty 17 7 0 10 #fcfcfc #000000 #000000 0 1;
#X obj 156 28 r reset;
#X obj 13 47 inlet;
#X connect 1 0 3 0;
#X connect 1 0 4 0;
#X connect 2 0 1 0;
#X connect 3 0 1 1;
#X connect 6 0 1 0;
#X connect 7 0 6 0;
#X connect 8 0 2 0;
#X connect 9 0 7 0;
#X restore 17 383 pd counter;
#X floatatom 17 414 4 0 0 0 - - - 0;
#X floatatom 210 170 5 0 0 0 - - - 0;
#X text 380 137 Takes distance and maps and scales it to gainvalue;
#N canvas 394 202 818 702 geo_calc_dist_in_range 0;
#X obj 199 6 inlet;
#X text 241 6 Loc;
#X obj 207 343 outlet;
#X obj 17 39 unpack f f, f 15;
#X floatatom 17 101 9 0 0 0 - - - 0;
#X floatatom 118 101 8 0 0 0 - - - 0;
#X obj 199 39 unpack f f;
#X floatatom 200 101 7 0 0 0 - - - 0;
#X floatatom 268 101 7 0 0 0 - - - 0;
#X obj 17 212 expr pow(pow($f1 \, 2) + pow($f2 \, 2) \, 0.5);
#X floatatom 17 180 5 0 0 0 - - - 0;
#X floatatom 293 176 13 0 0 0 - - - 0;
#X obj 17 133 expr abs($f1 - $f3) \; abs($f2 - $f4), f 40;
#X text 310 139 Absolute value of dist between the x and y;
#X obj 317 6 inlet;
#X text 359 7 Range;
#X obj 22 347 outlet;
#X floatatom 43 243 10 0 0 0 - - - 0;
#X text 119 242 Distance;
#X text 311 211 Pythagoras;
#X text 62 179 Distance x;
#X text 404 178 Distance y;
#X text 261 345 Distance > 0;
#X obj 16 7 r live_loc;
#X text 75 344 In Range 0 = no 1 = yes, f 29;
#X obj 20 276 expr if($f1 < $f2 \, 1 \, 0) \; if($f1 < $f2 \, $f1 \, $f2), f 26;
#X connect 0 0 6 0;
#X connect 3 0 4 0;
#X connect 3 1 5 0;
#X connect 4 0 12 0;
#X connect 5 0 12 1;
#X connect 6 0 7 0;
#X connect 6 1 8 0;
#X connect 7 0 12 2;
#X connect 8 0 12 3;
#X connect 9 0 17 0;
#X connect 9 0 25 0;
#X connect 10 0 9 0;
#X connect 11 0 9 1;
#X connect 12 0 10 0;
#X connect 12 1 11 0;
#X connect 14 0 25 1;
#X connect 23 0 3 0;
#X connect 25 0 16 0;
#X connect 25 1 2 0;
#X restore 11 64 pd geo_calc_dist_in_range;
#X floatatom 11 97 5 0 0 0 - - - 0;
#X floatatom 210 105 5 0 0 0 - - - 0;
#X obj 12 6 inlet;
#X obj 235 2 inlet;
#X text 58 7 Loc Biome;
#X text 282 3 Range Biome;
#X text 50 414 Time elapsed in sec;
#X obj 37 589 outlet~;
#X text 98 589 Audio bus for biome;
#X text 257 170 Scaled gainvalue to atmosphere player;
#X text 48 98 In Range 0 = no 1 = yes, f 9;
#X text 243 62 in 1: biome location \, in 2 biome range \, out1: in range state \, out 2: distance;
#X text 254 105 Distance (values greater then range are filtered);
#X floatatom 234 29 5 0 0 0 - - - 0;
#X text 365 205 in 1: location of trigger in 2: range of trigger in 3: Bang the sample out 1: audio of sampler, f 25;
#X obj 8 136 change;
#X obj 30 350 *~, f 30;
#N canvas 215 289 1124 708 looper_jungle 0;
#X obj 36 32 inlet;
#X obj 36 65 sel 0 1;
#X obj 35 260 outlet~;
#X text 85 32 state** = 0 = OOB or 1 = IB;
#X obj 35 186 readsf~;
#X msg 36 111 0;
#X msg 79 141 1;
#X text 103 162 sample that needs to be played;
#X obj 79 110 t b b;
#X msg 112 141 open jungle.wav;
#X connect 0 0 1 0;
#X connect 1 0 5 0;
#X connect 1 1 8 0;
#X connect 4 0 2 0;
#X connect 4 1 8 0;
#X connect 5 0 4 0;
#X connect 6 0 4 0;
#X connect 8 0 6 0;
#X connect 8 1 9 0;
#X connect 9 0 4 0;
#X restore 31 185 pd looper_jungle;
#N canvas 227 222 875 487 0-delay 0;
#X obj 7 17 inlet;
#X obj 14 250 outlet;
#X obj 7 46 route 0;
#X obj 8 85 t 0 b;
#X msg 50 129 clear;
#X obj 4 172 pipe 6000;
#X connect 0 0 2 0;
#X connect 2 0 3 0;
#X connect 2 1 1 0;
#X connect 2 1 4 0;
#X connect 3 0 5 0;
#X connect 3 1 4 0;
#X connect 4 0 5 0;
#X connect 5 0 1 0;
#X restore 31 160 pd 0-delay;
#X obj 243 327 line;
#X obj 243 303 pack f f;
#X obj 294 258 loadbang;
#X msg 294 281 6000;
#X floatatom 263 376 5 0 0 0 - - - 0;
#X obj 232 252 change;
#N canvas 527 205 450 300 geo_calc_gainvalue 0;
#X obj 15 12 inlet;
#X obj 140 12 inlet;
#X text 61 11 Distance;
#N canvas 63 88 686 391 map 0;
#X obj 203 75 inlet;
#X obj 263 75 inlet;
#X obj 317 75 inlet;
#X obj 377 75 inlet;
#X obj 417 75 inlet;
#X obj 194 308 outlet;
#X text 270 59 lo;
#X text 324 59 hi;
#X text 384 59 lo;
#X text 424 59 hi;
#X obj 254 134 f \$1;
#X obj 308 134 f \$2;
#X obj 368 134 f \$3;
#X obj 408 134 f \$4;
#X obj 194 173 -;
#X obj 273 185 -;
#X obj 254 156 t f b f;
#X obj 194 202 /;
#X text 234 42 from;
#X text 347 40 to;
#X obj 194 246 *;
#X obj 194 274 +;
#X obj 387 185 -;
#X obj 368 156 t f b f;
#X text 53 176 subtract offset 1;
#X text 55 203 divide by range 1;
#X text 43 250 multiply by range 2;
#X text 85 274 add offset 2;
#X obj 493 58 loadbang;
#X obj 493 80 t b b b b;
#X obj 194 134 f;
#X text 399 39 initialize from arguments, f 36;
#X connect 0 0 30 0;
#X connect 1 0 10 0;
#X connect 2 0 11 0;
#X connect 3 0 12 0;
#X connect 4 0 13 0;
#X connect 10 0 16 0;
#X connect 11 0 15 0;
#X connect 12 0 23 0;
#X connect 13 0 22 0;
#X connect 14 0 17 0;
#X connect 15 0 17 1;
#X connect 16 0 14 1;
#X connect 16 1 15 0;
#X connect 16 2 15 1;
#X connect 17 0 20 0;
#X connect 20 0 21 0;
#X connect 21 0 5 0;
#X connect 22 0 20 1;
#X connect 23 0 21 1;
#X connect 23 1 22 0;
#X connect 23 2 22 1;
#X connect 28 0 29 0;
#X connect 29 0 10 0;
#X connect 29 1 11 0;
#X connect 29 2 12 0;
#X connect 29 3 13 0;
#X connect 30 0 14 0;
#X restore 15 154 pd map;
#X obj 261 82 loadbang;
#X msg 261 110 1;
#X msg 79 121 0;
#X floatatom 15 182 5 0 0 0 - - - 0;
#X text 192 11 Range;
#X obj 15 237 outlet;
#X text 78 239 Gain Value Scaled;
#X text 78 184 Mapped Value;
#X text 282 152 Map to [0.0 \, 1.0], f 23;
#X obj 14 209 expr 1 - $f1;
#X floatatom 291 250 5 0 0 0 - - - 0;
#X connect 0 0 3 0;
#X connect 1 0 3 2;
#X connect 3 0 7 0;
#X connect 4 0 6 0;
#X connect 4 0 5 0;
#X connect 5 0 3 4;
#X connect 6 0 3 1;
#X connect 6 0 3 3;
#X connect 7 0 13 0;
#X connect 13 0 9 0;
#X restore 210 137 pd geo_calc_gainvalue;
#N canvas 92 25 1170 770 fx_jungle 0;
#N canvas 89 226 1440 675 effects 0;
#X obj 57 23 inlet~;
#X obj 197 24 inlet;
#X text 4 24 audio:;
#X text 128 25 counter:;
#X obj 58 76 outlet~;
#N canvas 28 141 1440 675 flanger 0;
#X obj 18 27 inlet~;
#X text 67 27 audio;
#X obj 243 9 inlet;
#X text 186 9 counter;
#X text 743 284 rate depth (0-1);
#X text 1597 293 dry/wet (0-1);
#X obj 792 325 vsl 19 162 0 0.652 0 0 empty empty empty 0 -9 0 12 #fcfcfc #000000 #000000 0 1;
#X obj 1315 326 vsl 19 162 0 0.9 0 0 empty empty empty 0 -9 0 12 #fcfcfc #000000 #000000 0 1;
#X obj 1611 331 vsl 19 162 0 1 0 0 empty empty empty 0 -9 0 12 #fcfcfc #000000 #000000 0 1;
#X obj 1058 324 vsl 19 162 0 17 0 0 empty empty empty 0 -9 0 12 #fcfcfc #000000 #000000 0 1;
#X floatatom 1083 468 5 0 0 0 - - - 0;
#X obj 578 321 vsl 19 162 0 135 0 0 empty empty empty 0 -9 0 12 #fcfcfc #000000 #000000 0 1;
#X floatatom 603 465 5 0 0 0 - - - 0;
#X floatatom 818 470 5 0 0 0 - - - 0;
#X floatatom 1339 472 5 0 0 0 - - - 0;
#X floatatom 1638 476 5 0 0 0 - - - 0;
#X obj 19 99 delwrite~ flanger 300;
#X obj 190 270 osc~;
#X floatatom 239 271 5 0 135 0 - - - 0;
#X obj 190 300 *~;
#X text 265 270 rate;
#X floatatom 310 330 5 0 1 0 rate\ depth - - 0;
#X obj 192 401 +~;
#X obj 224 400 sig~;
#X floatatom 323 401 5 0 17 0 del\ time - - 0;
#X obj 296 474 *~;
#X floatatom 254 474 5 0 0.98 0 feedback - - 0;
#X obj 107 452 *~;
#X floatatom 108 428 5 0 1 0 wet - - 0;
#X obj 25 576 outlet~;
#X floatatom 404 423 5 0 0 0 - - - 0;
#X text 555 282 rate (0-135);
#X text 1016 294 delay time(0-17);
#X obj 137 452 - 1;
#X obj 135 488 abs;
#X obj 21 460 *~;
#X floatatom 39 429 5 0 1 0 dry - - 0;
#N canvas 788 68 450 300 scale 0;
#X obj 80 29 inlet;
#X obj 80 101 -;
#X obj 80 227 /;
#X obj 80 288 *;
#X obj 80 348 +;
#X obj 80 368 outlet;
#X obj 120 29 inlet;
#X obj 120 86 t a a;
#X obj 165 29 inlet;
#X obj 147 172 pack f f;
#X msg 147 192 \$1 \$2;
#X obj 147 212 -;
#X obj 165 139 t b a;
#X obj 210 29 inlet;
#X obj 210 191 t a a;
#X obj 255 29 inlet;
#X obj 237 233 pack f f;
#X msg 237 253 \$1 \$2;
#X obj 237 273 -;
#X obj 255 200 t b a;
#X obj 325 29 loadbang;
#X obj 325 49 t b b b b;
#X obj 127 64 f \$1;
#X obj 262 178 f \$4;
#X obj 217 169 f \$3;
#X obj 172 117 f \$2;
#X text 37 3 input \, old low \, old high \, new low \, new high;
#X connect 0 0 1 0;
#X connect 1 0 2 0;
#X connect 2 0 3 0;
#X connect 3 0 4 0;
#X connect 4 0 5 0;
#X connect 6 0 7 0;
#X connect 7 0 1 1;
#X connect 7 1 9 0;
#X connect 8 0 12 0;
#X connect 9 0 10 0;
#X connect 10 0 11 0;
#X connect 11 0 2 1;
#X connect 12 0 9 0;
#X connect 12 1 9 1;
#X connect 13 0 14 0;
#X connect 14 0 16 0;
#X connect 14 1 4 1;
#X connect 15 0 19 0;
#X connect 16 0 17 0;
#X connect 17 0 18 0;
#X connect 18 0 3 1;
#X connect 19 0 16 0;
#X connect 19 1 16 1;
#X connect 20 0 21 0;
#X connect 21 0 22 0;
#X connect 21 1 25 0;
#X connect 21 2 24 0;
#X connect 21 3 23 0;
#X connect 22 0 7 0;
#X connect 23 0 19 0;
#X connect 24 0 14 0;
#X connect 25 0 12 0;
#X restore 561 228 pd scale;
#X floatatom 561 255 5 0 0 0 - - - 0;
#X obj 245 100 spigot;
#X obj 282 74 tgl 19 0 empty empty empty 0 -10 0 12 #fcfcfc #000000 #000000 0 1;
#X floatatom 245 137 5 0 0 0 - - - 0;
#X msg 574 200 60;
#X msg 607 200 180;
#X msg 643 199 0;
#X msg 677 199 135;
#X obj 575 170 loadbang;
#N canvas 788 68 450 300 scale 0;
#X obj 80 29 inlet;
#X obj 80 101 -;
#X obj 80 227 /;
#X obj 80 288 *;
#X obj 80 348 +;
#X obj 80 368 outlet;
#X obj 120 29 inlet;
#X obj 120 86 t a a;
#X obj 165 29 inlet;
#X obj 147 172 pack f f;
#X msg 147 192 \$1 \$2;
#X obj 147 212 -;
#X obj 165 139 t b a;
#X obj 210 29 inlet;
#X obj 210 191 t a a;
#X obj 255 29 inlet;
#X obj 237 233 pack f f;
#X msg 237 253 \$1 \$2;
#X obj 237 273 -;
#X obj 255 200 t b a;
#X obj 325 29 loadbang;
#X obj 325 49 t b b b b;
#X obj 127 64 f \$1;
#X obj 262 178 f \$4;
#X obj 217 169 f \$3;
#X obj 172 117 f \$2;
#X text 37 3 input \, old low \, old high \, new low \, new high;
#X connect 0 0 1 0;
#X connect 1 0 2 0;
#X connect 2 0 3 0;
#X connect 3 0 4 0;
#X connect 4 0 5 0;
#X connect 6 0 7 0;
#X connect 7 0 1 1;
#X connect 7 1 9 0;
#X connect 8 0 12 0;
#X connect 9 0 10 0;
#X connect 10 0 11 0;
#X connect 11 0 2 1;
#X connect 12 0 9 0;
#X connect 12 1 9 1;
#X connect 13 0 14 0;
#X connect 14 0 16 0;
#X connect 14 1 4 1;
#X connect 15 0 19 0;
#X connect 16 0 17 0;
#X connect 17 0 18 0;
#X connect 18 0 3 1;
#X connect 19 0 16 0;
#X connect 19 1 16 1;
#X connect 20 0 21 0;
#X connect 21 0 22 0;
#X connect 21 1 25 0;
#X connect 21 2 24 0;
#X connect 21 3 23 0;
#X connect 22 0 7 0;
#X connect 23 0 19 0;
#X connect 24 0 14 0;
#X connect 25 0 12 0;
#X restore 789 225 pd scale;
#X floatatom 790 251 5 0 0 0 - - - 0;
#X msg 802 200 60;
#X msg 835 200 180;
#X msg 871 199 0;
#X obj 800 173 loadbang;
#X msg 905 199 0.652;
#N canvas 788 68 450 300 scale 0;
#X obj 80 29 inlet;
#X obj 80 101 -;
#X obj 80 227 /;
#X obj 80 288 *;
#X obj 80 348 +;
#X obj 80 368 outlet;
#X obj 120 29 inlet;
#X obj 120 86 t a a;
#X obj 165 29 inlet;
#X obj 147 172 pack f f;
#X msg 147 192 \$1 \$2;
#X obj 147 212 -;
#X obj 165 139 t b a;
#X obj 210 29 inlet;
#X obj 210 191 t a a;
#X obj 255 29 inlet;
#X obj 237 233 pack f f;
#X msg 237 253 \$1 \$2;
#X obj 237 273 -;
#X obj 255 200 t b a;
#X obj 325 29 loadbang;
#X obj 325 49 t b b b b;
#X obj 127 64 f \$1;
#X obj 262 178 f \$4;
#X obj 217 169 f \$3;
#X obj 172 117 f \$2;
#X text 37 3 input \, old low \, old high \, new low \, new high;
#X connect 0 0 1 0;
#X connect 1 0 2 0;
#X connect 2 0 3 0;
#X connect 3 0 4 0;
#X connect 4 0 5 0;
#X connect 6 0 7 0;
#X connect 7 0 1 1;
#X connect 7 1 9 0;
#X connect 8 0 12 0;
#X connect 9 0 10 0;
#X connect 10 0 11 0;
#X connect 11 0 2 1;
#X connect 12 0 9 0;
#X connect 12 1 9 1;
#X connect 13 0 14 0;
#X connect 14 0 16 0;
#X connect 14 1 4 1;
#X connect 15 0 19 0;
#X connect 16 0 17 0;
#X connect 17 0 18 0;
#X connect 18 0 3 1;
#X connect 19 0 16 0;
#X connect 19 1 16 1;
#X connect 20 0 21 0;
#X connect 21 0 22 0;
#X connect 21 1 25 0;
#X connect 21 2 24 0;
#X connect 21 3 23 0;
#X connect 22 0 7 0;
#X connect 23 0 19 0;
#X connect 24 0 14 0;
#X connect 25 0 12 0;
#X restore 1059 230 pd scale;
#X floatatom 1060 256 5 0 0 0 - - - 0;
#X msg 1073 201 60;
#X msg 1106 201 180;
#X msg 1142 200 0;
#X obj 1074 174 loadbang;
#X msg 1176 200 17;
#N canvas 788 68 450 300 scale 0;
#X obj 80 29 inlet;
#X obj 80 101 -;
#X obj 80 227 /;
#X obj 80 288 *;
#X obj 80 348 +;
#X obj 80 368 outlet;
#X obj 120 29 inlet;
#X obj 120 86 t a a;
#X obj 165 29 inlet;
#X obj 147 172 pack f f;
#X msg 147 192 \$1 \$2;
#X obj 147 212 -;
#X obj 165 139 t b a;
#X obj 210 29 inlet;
#X obj 210 191 t a a;
#X obj 255 29 inlet;
#X obj 237 233 pack f f;
#X msg 237 253 \$1 \$2;
#X obj 237 273 -;
#X obj 255 200 t b a;
#X obj 325 29 loadbang;
#X obj 325 49 t b b b b;
#X obj 127 64 f \$1;
#X obj 262 178 f \$4;
#X obj 217 169 f \$3;
#X obj 172 117 f \$2;
#X text 37 3 input \, old low \, old high \, new low \, new high;
#X connect 0 0 1 0;
#X connect 1 0 2 0;
#X connect 2 0 3 0;
#X connect 3 0 4 0;
#X connect 4 0 5 0;
#X connect 6 0 7 0;
#X connect 7 0 1 1;
#X connect 7 1 9 0;
#X connect 8 0 12 0;
#X connect 9 0 10 0;
#X connect 10 0 11 0;
#X connect 11 0 2 1;
#X connect 12 0 9 0;
#X connect 12 1 9 1;
#X connect 13 0 14 0;
#X connect 14 0 16 0;
#X connect 14 1 4 1;
#X connect 15 0 19 0;
#X connect 16 0 17 0;
#X connect 17 0 18 0;
#X connect 18 0 3 1;
#X connect 19 0 16 0;
#X connect 19 1 16 1;
#X connect 20 0 21 0;
#X connect 21 0 22 0;
#X connect 21 1 25 0;
#X connect 21 2 24 0;
#X connect 21 3 23 0;
#X connect 22 0 7 0;
#X connect 23 0 19 0;
#X connect 24 0 14 0;
#X connect 25 0 12 0;
#X restore 1607 245 pd scale;
#X floatatom 1608 270 5 0 0 0 - - - 0;
#X msg 1620 217 60;
#X msg 1653 217 180;
#X msg 1689 216 0;
#X obj 1620 185 loadbang;
#X msg 1722 214 1;
#N canvas 788 68 450 300 scale 0;
#X obj 80 29 inlet;
#X obj 80 101 -;
#X obj 80 227 /;
#X obj 80 288 *;
#X obj 80 348 +;
#X obj 80 368 outlet;
#X obj 120 29 inlet;
#X obj 120 86 t a a;
#X obj 165 29 inlet;
#X obj 147 172 pack f f;
#X msg 147 192 \$1 \$2;
#X obj 147 212 -;
#X obj 165 139 t b a;
#X obj 210 29 inlet;
#X obj 210 191 t a a;
#X obj 255 29 inlet;
#X obj 237 233 pack f f;
#X msg 237 253 \$1 \$2;
#X obj 237 273 -;
#X obj 255 200 t b a;
#X obj 325 29 loadbang;
#X obj 325 49 t b b b b;
#X obj 127 64 f \$1;
#X obj 262 178 f \$4;
#X obj 217 169 f \$3;
#X obj 172 117 f \$2;
#X text 37 3 input \, old low \, old high \, new low \, new high;
#X connect 0 0 1 0;
#X connect 1 0 2 0;
#X connect 2 0 3 0;
#X connect 3 0 4 0;
#X connect 4 0 5 0;
#X connect 6 0 7 0;
#X connect 7 0 1 1;
#X connect 7 1 9 0;
#X connect 8 0 12 0;
#X connect 9 0 10 0;
#X connect 10 0 11 0;
#X connect 11 0 2 1;
#X connect 12 0 9 0;
#X connect 12 1 9 1;
#X connect 13 0 14 0;
#X connect 14 0 16 0;
#X connect 14 1 4 1;
#X connect 15 0 19 0;
#X connect 16 0 17 0;
#X connect 17 0 18 0;
#X connect 18 0 3 1;
#X connect 19 0 16 0;
#X connect 19 1 16 1;
#X connect 20 0 21 0;
#X connect 21 0 22 0;
#X connect 21 1 25 0;
#X connect 21 2 24 0;
#X connect 21 3 23 0;
#X connect 22 0 7 0;
#X connect 23 0 19 0;
#X connect 24 0 14 0;
#X connect 25 0 12 0;
#X restore 1307 225 pd scale;
#X floatatom 1308 253 5 0 0 0 - - - 0;
#X msg 1319 200 60;
#X msg 1352 200 180;
#X msg 1388 199 0;
#X obj 1320 173 loadbang;
#X msg 1422 199 0.9;
#X text 1274 290 feedback(0-0.9);
#X obj 281 47 expr if($f1 > 59 && $f1 < 181 \, 1 \, 0);
#X text 256 25 let num through when its value is above 60 and below 180;
#X obj 312 75 sel 0;
#X msg 313 107 60;
#X text 545 47 return 0 when false and 1 when true;
#X text 18 536 wet cant be higher then 1 so dry can be abs value of wet - 1;
#X text 353 74 reset to 60 when false;
#X obj 578 502 s flanger_rate2;
#X obj 792 502 s flanger_rate_depth2;
#X obj 1059 499 s flanger_del_time2;
#X obj 1316 506 s flanger_feedback2;
#X obj 1608 516 s flanger_dry/wet2;
#X obj 1528 218 r ctr_value2;
#X obj 1232 200 r ctr_value2;
#X obj 984 201 r ctr_value2;
#X obj 717 198 r ctr_value2;
#X obj 490 201 r ctr_value2;
#X obj 332 473 r flanger_feedback2;
#X obj 297 502 s~ feedback2;
#X obj 260 366 r flanger_del_time2;
#X obj 246 300 r flanger_rate_depth2;
#X obj 227 242 r flanger_rate2;
#X obj 58 396 r flanger_dry/wet2;
#X obj 33 73 r~ feedback2;
#X obj 247 162 s ctr_value2;
#X obj 192 437 vd~ flanger 300;
#X connect 0 0 16 0;
#X connect 0 0 35 0;
#X connect 2 0 39 0;
#X connect 2 0 76 0;
#X connect 6 0 13 0;
#X connect 6 0 84 0;
#X connect 7 0 14 0;
#X connect 7 0 86 0;
#X connect 8 0 15 0;
#X connect 8 0 87 0;
#X connect 9 0 10 0;
#X connect 9 0 85 0;
#X connect 11 0 12 0;
#X connect 11 0 83 0;
#X connect 17 0 19 0;
#X connect 18 0 17 0;
#X connect 19 0 22 0;
#X connect 21 0 19 1;
#X connect 22 0 101 0;
#X connect 23 0 22 1;
#X connect 24 0 23 0;
#X connect 25 0 94 0;
#X connect 26 0 25 1;
#X connect 27 0 29 0;
#X connect 28 0 27 1;
#X connect 28 0 33 0;
#X connect 33 0 34 0;
#X connect 34 0 36 0;
#X connect 35 0 29 0;
#X connect 36 0 35 1;
#X connect 37 0 38 0;
#X connect 38 0 11 0;
#X connect 39 0 41 0;
#X connect 40 0 39 1;
#X connect 41 0 100 0;
#X connect 42 0 37 1;
#X connect 43 0 37 2;
#X connect 44 0 37 3;
#X connect 45 0 37 4;
#X connect 46 0 42 0;
#X connect 46 0 43 0;
#X connect 46 0 44 0;
#X connect 46 0 45 0;
#X connect 47 0 48 0;
#X connect 48 0 6 0;
#X connect 49 0 47 1;
#X connect 50 0 47 2;
#X connect 51 0 47 3;
#X connect 52 0 49 0;
#X connect 52 0 50 0;
#X connect 52 0 51 0;
#X connect 52 0 53 0;
#X connect 53 0 47 4;
#X connect 54 0 55 0;
#X connect 55 0 9 0;
#X connect 56 0 54 1;
#X connect 57 0 54 2;
#X connect 58 0 54 3;
#X connect 59 0 56 0;
#X connect 59 0 57 0;
#X connect 59 0 58 0;
#X connect 59 0 60 0;
#X connect 60 0 54 4;
#X connect 61 0 62 0;
#X connect 62 0 8 0;
#X connect 63 0 61 1;
#X connect 64 0 61 2;
#X connect 65 0 61 3;
#X connect 66 0 63 0;
#X connect 66 0 64 0;
#X connect 66 0 65 0;
#X connect 66 0 67 0;
#X connect 67 0 61 4;
#X connect 68 0 69 0;
#X connect 69 0 7 0;
#X connect 70 0 68 1;
#X connect 71 0 68 2;
#X connect 72 0 68 3;
#X connect 73 0 70 0;
#X connect 73 0 71 0;
#X connect 73 0 72 0;
#X connect 73 0 74 0;
#X connect 74 0 68 4;
#X connect 76 0 40 0;
#X connect 76 0 78 0;
#X connect 78 0 79 0;
#X connect 79 0 41 0;
#X connect 88 0 61 0;
#X connect 89 0 68 0;
#X connect 90 0 54 0;
#X connect 91 0 47 0;
#X connect 92 0 37 0;
#X connect 93 0 26 0;
#X connect 95 0 24 0;
#X connect 96 0 21 0;
#X connect 97 0 18 0;
#X connect 98 0 28 0;
#X connect 99 0 16 0;
#X connect 101 0 25 0;
#X connect 101 0 27 0;
#X restore 57 49 pd flanger;
#X connect 0 0 5 0;
#X connect 1 0 5 1;
#X connect 5 0 4 0;
#X restore 169 262 pd effects;
#X obj 272 181 inlet;
#X obj 171 311 outlet~;
#X obj 104 203 inlet~;
#X connect 0 0 2 0;
#X connect 1 0 0 1;
#X connect 3 0 0 0;
#X restore 40 478 pd fx_jungle;
#X obj 218 495 fx;
#X connect 0 0 1 0;
#X connect 1 0 31 1;
#X connect 1 0 32 0;
#X connect 2 0 29 0;
#X connect 4 0 5 0;
#X connect 4 1 6 0;
#X connect 5 0 20 0;
#X connect 6 0 30 0;
#X connect 7 0 4 0;
#X connect 8 0 18 0;
#X connect 18 0 4 1;
#X connect 18 0 30 1;
#X connect 20 0 0 0;
#X connect 20 0 23 0;
#X connect 21 0 31 0;
#X connect 21 0 32 1;
#X connect 22 0 21 0;
#X connect 23 0 22 0;
#X connect 24 0 21 1;
#X connect 24 0 28 0;
#X connect 25 0 24 0;
#X connect 26 0 27 0;
#X connect 27 0 25 1;
#X connect 29 0 25 0;
#X connect 30 0 2 0;
#X connect 32 0 12 0;
#X restore 201 328 pd biome_jungle;
#N canvas 285 149 817 498 biome_space 0;
#N canvas 726 112 506 313 counter 0;
#X text 60 10 Bang for +1;
#X obj 13 168 int 1;
#X msg 154 61 0;
#X obj 61 168 + 1;
#X obj 13 198 outlet;
#X text 71 199 The count;
#X obj 13 102 metro 1000;
#X obj 13 75 tgl 15 0 empty empty empty 17 7 0 10 #fcfcfc #000000 #000000 0 1;
#X obj 156 28 r reset;
#X obj 13 47 inlet;
#X connect 1 0 3 0;
#X connect 1 0 4 0;
#X connect 2 0 1 0;
#X connect 3 0 1 1;
#X connect 6 0 1 0;
#X connect 7 0 6 0;
#X connect 8 0 2 0;
#X connect 9 0 7 0;
#X restore 17 383 pd counter;
#X floatatom 17 414 4 0 0 0 - - - 0;
#X floatatom 210 170 5 0 0 0 - - - 0;
#X text 380 137 Takes distance and maps and scales it to gainvalue;
#N canvas 268 143 818 702 geo_calc_dist_in_range 0;
#X obj 199 6 inlet;
#X text 241 6 Loc;
#X obj 207 343 outlet;
#X obj 17 39 unpack f f, f 15;
#X floatatom 17 101 9 0 0 0 - - - 0;
#X floatatom 118 101 8 0 0 0 - - - 0;
#X obj 199 39 unpack f f;
#X floatatom 200 101 7 0 0 0 - - - 0;
#X floatatom 268 101 7 0 0 0 - - - 0;
#X obj 17 212 expr pow(pow($f1 \, 2) + pow($f2 \, 2) \, 0.5);
#X floatatom 17 180 5 0 0 0 - - - 0;
#X floatatom 293 176 13 0 0 0 - - - 0;
#X obj 17 133 expr abs($f1 - $f3) \; abs($f2 - $f4), f 40;
#X text 310 139 Absolute value of dist between the x and y;
#X obj 317 6 inlet;
#X text 359 7 Range;
#X obj 22 347 outlet;
#X floatatom 43 243 10 0 0 0 - - - 0;
#X text 119 242 Distance;
#X text 311 211 Pythagoras;
#X text 62 179 Distance x;
#X text 404 178 Distance y;
#X text 261 345 Distance > 0;
#X obj 16 7 r live_loc;
#X text 75 344 In Range 0 = no 1 = yes, f 29;
#X obj 20 276 expr if($f1 < $f2 \, 1 \, 0) \; if($f1 < $f2 \, $f1 \, $f2), f 26;
#X connect 0 0 6 0;
#X connect 3 0 4 0;
#X connect 3 1 5 0;
#X connect 4 0 12 0;
#X connect 5 0 12 1;
#X connect 6 0 7 0;
#X connect 6 1 8 0;
#X connect 7 0 12 2;
#X connect 8 0 12 3;
#X connect 9 0 17 0;
#X connect 9 0 25 0;
#X connect 10 0 9 0;
#X connect 11 0 9 1;
#X connect 12 0 10 0;
#X connect 12 1 11 0;
#X connect 14 0 25 1;
#X connect 23 0 3 0;
#X connect 25 0 16 0;
#X connect 25 1 2 0;
#X restore 11 64 pd geo_calc_dist_in_range;
#X floatatom 11 97 5 0 0 0 - - - 0;
#X floatatom 210 105 5 0 0 0 - - - 0;
#X obj 12 6 inlet;
#X obj 235 2 inlet;
#X text 58 7 Loc Biome;
#X text 282 3 Range Biome;
#X text 50 414 Time elapsed in sec;
#X obj 37 589 outlet~;
#X text 98 589 Audio bus for biome;
#X text 257 170 Scaled gainvalue to atmosphere player;
#X text 48 98 In Range 0 = no 1 = yes, f 9;
#X text 243 62 in 1: biome location \, in 2 biome range \, out1: in range state \, out 2: distance;
#X text 254 105 Distance (values greater then range are filtered);
#X floatatom 234 29 5 0 0 0 - - - 0;
#X text 390 211 in 1: location of trigger in 2: range of trigger in 3: Bang the sample out 1: audio of sampler, f 25;
#X obj 12 156 change;
#X obj 32 350 *~, f 30;
#N canvas 316 50 1124 770 looper_space 0;
#X obj 36 32 inlet;
#X obj 36 65 sel 0 1;
#X obj 35 260 outlet~;
#X text 85 32 state** = 0 = OOB or 1 = IB;
#X obj 35 186 readsf~;
#X msg 36 111 0;
#X msg 79 141 1;
#X text 103 162 sample that needs to be played;
#X obj 79 110 t b b;
#X msg 112 141 open space.wav;
#X connect 0 0 1 0;
#X connect 1 0 5 0;
#X connect 1 1 8 0;
#X connect 4 0 2 0;
#X connect 4 1 8 0;
#X connect 5 0 4 0;
#X connect 6 0 4 0;
#X connect 8 0 6 0;
#X connect 8 1 9 0;
#X connect 9 0 4 0;
#X restore 31 200 pd looper_space;
#N canvas 182 260 875 487 0-delay 0;
#X obj 7 17 inlet;
#X obj 14 250 outlet;
#X obj 7 46 route 0;
#X obj 8 85 t 0 b;
#X msg 50 129 clear;
#X obj 4 172 pipe 6000;
#X connect 0 0 2 0;
#X connect 2 0 3 0;
#X connect 2 1 1 0;
#X connect 2 1 4 0;
#X connect 3 0 5 0;
#X connect 3 1 4 0;
#X connect 4 0 5 0;
#X connect 5 0 1 0;
#X restore 30 178 pd 0-delay;
#X obj 239 324 line;
#X obj 239 299 pack f f;
#X obj 290 254 loadbang;
#X msg 290 277 6000;
#X floatatom 280 366 5 0 0 0 - - - 0;
#X text 39 39 comment;
#X obj 238 224 change;
#N canvas 527 205 450 300 geo_calc_gainvalue 0;
#X obj 15 12 inlet;
#X obj 140 12 inlet;
#X text 61 11 Distance;
#N canvas 63 88 686 391 map 0;
#X obj 203 75 inlet;
#X obj 263 75 inlet;
#X obj 317 75 inlet;
#X obj 377 75 inlet;
#X obj 417 75 inlet;
#X obj 194 308 outlet;
#X text 270 59 lo;
#X text 324 59 hi;
#X text 384 59 lo;
#X text 424 59 hi;
#X obj 254 134 f \$1;
#X obj 308 134 f \$2;
#X obj 368 134 f \$3;
#X obj 408 134 f \$4;
#X obj 194 173 -;
#X obj 273 185 -;
#X obj 254 156 t f b f;
#X obj 194 202 /;
#X text 234 42 from;
#X text 347 40 to;
#X obj 194 246 *;
#X obj 194 274 +;
#X obj 387 185 -;
#X obj 368 156 t f b f;
#X text 53 176 subtract offset 1;
#X text 55 203 divide by range 1;
#X text 43 250 multiply by range 2;
#X text 85 274 add offset 2;
#X obj 493 58 loadbang;
#X obj 493 80 t b b b b;
#X obj 194 134 f;
#X text 399 39 initialize from arguments, f 36;
#X connect 0 0 30 0;
#X connect 1 0 10 0;
#X connect 2 0 11 0;
#X connect 3 0 12 0;
#X connect 4 0 13 0;
#X connect 10 0 16 0;
#X connect 11 0 15 0;
#X connect 12 0 23 0;
#X connect 13 0 22 0;
#X connect 14 0 17 0;
#X connect 15 0 17 1;
#X connect 16 0 14 1;
#X connect 16 1 15 0;
#X connect 16 2 15 1;
#X connect 17 0 20 0;
#X connect 20 0 21 0;
#X connect 21 0 5 0;
#X connect 22 0 20 1;
#X connect 23 0 21 1;
#X connect 23 1 22 0;
#X connect 23 2 22 1;
#X connect 28 0 29 0;
#X connect 29 0 10 0;
#X connect 29 1 11 0;
#X connect 29 2 12 0;
#X connect 29 3 13 0;
#X connect 30 0 14 0;
#X restore 15 154 pd map;
#X obj 261 82 loadbang;
#X msg 261 110 1;
#X msg 79 121 0;
#X floatatom 15 182 5 0 0 0 - - - 0;
#X text 192 11 Range;
#X obj 15 237 outlet;
#X text 78 239 Gain Value Scaled;
#X text 78 184 Mapped Value;
#X text 282 152 Map to [0.0 \, 1.0], f 23;
#X obj 14 209 expr 1 - $f1;
#X floatatom 291 250 5 0 0 0 - - - 0;
#X connect 0 0 3 0;
#X connect 1 0 3 2;
#X connect 3 0 7 0;
#X connect 4 0 6 0;
#X connect 4 0 5 0;
#X connect 5 0 3 4;
#X connect 6 0 3 1;
#X connect 6 0 3 3;
#X connect 7 0 13 0;
#X connect 13 0 9 0;
#X restore 210 137 pd geo_calc_gainvalue;
#X obj 41 493 fx;
#X obj 39 535 *~ 1.3;
#X connect 0 0 1 0;
#X connect 1 0 32 0;
#X connect 2 0 30 0;
#X connect 4 0 5 0;
#X connect 4 1 6 0;
#X connect 5 0 20 0;
#X connect 6 0 31 0;
#X connect 7 0 4 0;
#X connect 8 0 18 0;
#X connect 18 0 4 1;
#X connect 18 0 31 1;
#X connect 20 0 0 0;
#X connect 20 0 23 0;
#X connect 21 0 32 1;
#X connect 22 0 21 0;
#X connect 23 0 22 0;
#X connect 24 0 21 1;
#X connect 24 0 28 0;
#X connect 25 0 24 0;
#X connect 26 0 27 0;
#X connect 27 0 25 1;
#X connect 30 0 25 0;
#X connect 31 0 2 0;
#X connect 32 0 33 0;
#X connect 33 0 12 0;
#X restore 419 326 pd biome_space;
#N canvas 553 210 817 585 biome_ocean 0;
#N canvas 726 112 506 313 counter 0;
#X text 60 10 Bang for +1;
#X obj 13 168 int 1;
#X msg 154 61 0;
#X obj 61 168 + 1;
#X obj 13 198 outlet;
#X text 71 199 The count;
#X obj 13 102 metro 1000;
#X obj 13 75 tgl 15 0 empty empty empty 17 7 0 10 #fcfcfc #000000 #000000 0 1;
#X obj 156 28 r reset;
#X obj 13 47 inlet;
#X connect 1 0 3 0;
#X connect 1 0 4 0;
#X connect 2 0 1 0;
#X connect 3 0 1 1;
#X connect 6 0 1 0;
#X connect 7 0 6 0;
#X connect 8 0 2 0;
#X connect 9 0 7 0;
#X restore 17 383 pd counter;
#X floatatom 17 414 4 0 0 0 - - - 0;
#X floatatom 210 170 5 0 0 0 - - - 0;
#X text 380 137 Takes distance and maps and scales it to gainvalue;
#N canvas 622 93 818 702 geo_calc_dist_in_range 0;
#X obj 199 6 inlet;
#X text 241 6 Loc;
#X obj 207 343 outlet;
#X obj 17 39 unpack f f, f 15;
#X floatatom 17 101 9 0 0 0 - - - 0;
#X floatatom 118 101 8 0 0 0 - - - 0;
#X obj 199 39 unpack f f;
#X floatatom 200 101 7 0 0 0 - - - 0;
#X floatatom 268 101 7 0 0 0 - - - 0;
#X obj 17 212 expr pow(pow($f1 \, 2) + pow($f2 \, 2) \, 0.5);
#X floatatom 17 180 5 0 0 0 - - - 0;
#X floatatom 293 176 13 0 0 0 - - - 0;
#X obj 17 133 expr abs($f1 - $f3) \; abs($f2 - $f4), f 40;
#X text 310 139 Absolute value of dist between the x and y;
#X obj 317 6 inlet;
#X text 359 7 Range;
#X obj 22 347 outlet;
#X floatatom 43 243 10 0 0 0 - - - 0;
#X text 119 242 Distance;
#X text 311 211 Pythagoras;
#X text 62 179 Distance x;
#X text 404 178 Distance y;
#X text 261 345 Distance > 0;
#X obj 16 7 r live_loc;
#X text 75 344 In Range 0 = no 1 = yes, f 29;
#X obj 20 275 expr if($f1 < $f2 \, 1 \, 0) \; if($f1 < $f2 \, $f1 \, $f2), f 26;
#X connect 0 0 6 0;
#X connect 3 0 4 0;
#X connect 3 1 5 0;
#X connect 4 0 12 0;
#X connect 5 0 12 1;
#X connect 6 0 7 0;
#X connect 6 1 8 0;
#X connect 7 0 12 2;
#X connect 8 0 12 3;
#X connect 9 0 17 0;
#X connect 9 0 25 0;
#X connect 10 0 9 0;
#X connect 11 0 9 1;
#X connect 12 0 10 0;
#X connect 12 1 11 0;
#X connect 14 0 25 1;
#X connect 23 0 3 0;
#X connect 25 0 16 0;
#X connect 25 1 2 0;
#X restore 11 64 pd geo_calc_dist_in_range;
#X floatatom 11 97 5 0 0 0 - - - 0;
#X floatatom 210 105 5 0 0 0 - - - 0;
#X obj 12 6 inlet;
#X obj 235 2 inlet;
#X text 58 7 Loc Biome;
#X text 282 3 Range Biome;
#X text 50 414 Time elapsed in sec;
#X obj 37 589 outlet~;
#X text 98 589 Audio bus for biome;
#X text 257 170 Scaled gainvalue to atmosphere player;
#X text 48 98 In Range 0 = no 1 = yes, f 9;
#X text 243 62 in 1: biome location \, in 2 biome range \, out1: in range state \, out 2: distance;
#X text 254 105 Distance (values greater then range are filtered);
#X floatatom 234 29 5 0 0 0 - - - 0;
#X text 336 230 in 1: location of trigger in 2: range of trigger in 3: Bang the sample out 1: audio of sampler, f 25;
#X obj 12 156 change;
#X obj 32 350 *~, f 30;
#N canvas 316 50 1124 770 looper_ocean 0;
#X obj 36 32 inlet;
#X obj 36 65 sel 0 1;
#X obj 35 260 outlet~;
#X text 85 32 state** = 0 = OOB or 1 = IB;
#X obj 35 186 readsf~;
#X msg 36 111 0;
#X msg 79 141 1;
#X text 103 162 sample that needs to be played;
#X obj 79 110 t b b;
#X msg 112 141 open ocean.wav;
#X connect 0 0 1 0;
#X connect 1 0 5 0;
#X connect 1 1 8 0;
#X connect 4 0 2 0;
#X connect 4 1 8 0;
#X connect 5 0 4 0;
#X connect 6 0 4 0;
#X connect 8 0 6 0;
#X connect 8 1 9 0;
#X connect 9 0 4 0;
#X restore 37 205 pd looper_ocean;
#N canvas 207 262 875 487 0-delay 0;
#X obj 7 17 inlet;
#X obj 14 250 outlet;
#X obj 7 46 route 0;
#X obj 8 85 t 0 b;
#X msg 50 129 clear;
#X obj 4 172 pipe 6000;
#X connect 0 0 2 0;
#X connect 2 0 3 0;
#X connect 2 1 1 0;
#X connect 2 1 4 0;
#X connect 3 0 5 0;
#X connect 3 1 4 0;
#X connect 4 0 5 0;
#X connect 5 0 1 0;
#X restore 38 180 pd 0-delay;
#X obj 239 323 line;
#X obj 239 299 pack f f;
#X obj 290 254 loadbang;
#X msg 290 277 6000;
#X obj 227 236 change;
#N canvas 527 205 450 300 geo_calc_gainvalue 0;
#X obj 15 12 inlet;
#X obj 140 12 inlet;
#X text 61 11 Distance;
#N canvas 63 88 686 391 map 0;
#X obj 203 75 inlet;
#X obj 263 75 inlet;
#X obj 317 75 inlet;
#X obj 377 75 inlet;
#X obj 417 75 inlet;
#X obj 194 308 outlet;
#X text 270 59 lo;
#X text 324 59 hi;
#X text 384 59 lo;
#X text 424 59 hi;
#X obj 254 134 f \$1;
#X obj 308 134 f \$2;
#X obj 368 134 f \$3;
#X obj 408 134 f \$4;
#X obj 194 173 -;
#X obj 273 185 -;
#X obj 254 156 t f b f;
#X obj 194 202 /;
#X text 234 42 from;
#X text 347 40 to;
#X obj 194 246 *;
#X obj 194 274 +;
#X obj 387 185 -;
#X obj 368 156 t f b f;
#X text 53 176 subtract offset 1;
#X text 55 203 divide by range 1;
#X text 43 250 multiply by range 2;
#X text 85 274 add offset 2;
#X obj 493 58 loadbang;
#X obj 493 80 t b b b b;
#X obj 194 134 f;
#X text 399 39 initialize from arguments, f 36;
#X connect 0 0 30 0;
#X connect 1 0 10 0;
#X connect 2 0 11 0;
#X connect 3 0 12 0;
#X connect 4 0 13 0;
#X connect 10 0 16 0;
#X connect 11 0 15 0;
#X connect 12 0 23 0;
#X connect 13 0 22 0;
#X connect 14 0 17 0;
#X connect 15 0 17 1;
#X connect 16 0 14 1;
#X connect 16 1 15 0;
#X connect 16 2 15 1;
#X connect 17 0 20 0;
#X connect 20 0 21 0;
#X connect 21 0 5 0;
#X connect 22 0 20 1;
#X connect 23 0 21 1;
#X connect 23 1 22 0;
#X connect 23 2 22 1;
#X connect 28 0 29 0;
#X connect 29 0 10 0;
#X connect 29 1 11 0;
#X connect 29 2 12 0;
#X connect 29 3 13 0;
#X connect 30 0 14 0;
#X restore 15 154 pd map;
#X obj 261 82 loadbang;
#X msg 261 110 1;
#X msg 79 121 0;
#X floatatom 15 182 5 0 0 0 - - - 0;
#X text 192 11 Range;
#X obj 15 237 outlet;
#X text 78 239 Gain Value Scaled;
#X text 78 184 Mapped Value;
#X text 282 152 Map to [0.0 \, 1.0], f 23;
#X obj 14 209 expr 1 - $f1;
#X floatatom 291 250 5 0 0 0 - - - 0;
#X connect 0 0 3 0;
#X connect 1 0 3 2;
#X connect 3 0 7 0;
#X connect 4 0 6 0;
#X connect 4 0 5 0;
#X connect 5 0 3 4;
#X connect 6 0 3 1;
#X connect 6 0 3 3;
#X connect 7 0 13 0;
#X connect 13 0 9 0;
#X restore 210 137 pd geo_calc_gainvalue;
#X obj 28 480 fx, f 5;
#X connect 0 0 1 0;
#X connect 1 0 30 0;
#X connect 2 0 28 0;
#X connect 4 0 5 0;
#X connect 4 1 6 0;
#X connect 5 0 20 0;
#X connect 6 0 29 0;
#X connect 7 0 4 0;
#X connect 8 0 18 0;
#X connect 18 0 4 1;
#X connect 18 0 29 1;
#X connect 20 0 0 0;
#X connect 20 0 23 0;
#X connect 21 0 30 1;
#X connect 22 0 21 0;
#X connect 23 0 22 0;
#X connect 24 0 21 1;
#X connect 25 0 24 0;
#X connect 26 0 27 0;
#X connect 27 0 25 1;
#X connect 28 0 25 0;
#X connect 29 0 2 0;
#X connect 30 0 12 0;
#X restore 740 329 pd biome_ocean;
#X obj 267 5 loadbang;
#X text 384 34 Reset location;
#N canvas 729 196 562 501 reset 0;
#X obj 504 163 readsf~;
#X msg 679 119 start;
#X msg 504 123 open test.wav;
#X obj 812 163 t b b;
#X obj 272 101 inlet;
#X obj 20 529 outlet~;
#X connect 0 0 5 0;
#X connect 1 0 0 0;
#X connect 2 0 0 0;
#X connect 3 0 1 0;
#X connect 3 1 2 0;
#X connect 4 0 3 0;
#X restore 39 472 pd reset sound;
#X obj 887 310 loadbang;
#X msg 886 338 1;
#X obj 40 443 bng 15 250 50 0 empty empty empty 17 7 0 10 #fcfcfc #000000 #000000;
#X msg 505 27 0.0003;
#X obj 1022 180 s live_loc;
#X text 1205 140 Ocean;
#X text 1191 101 Desert;
#X text 1177 41 Jungle;
#X text 1184 68 Space;
#X text 1165 15 Reset;
#X obj 24 121 print live_loc;
#X obj 171 36 GPSFake;
#X obj 171 16 tgl 16 0 empty empty empty 0 -8 0 10 #fcfcfc #000000 #000000 0 1;
#X obj 146 73 print fake live_loc;
#X msg 1140 177 5.53388 52.1816;
#X text 1244 179 OOB Coord;
#X floatatom 109 302 5 0 0 0 - - - 0;
#X obj 22 383 *~ \$1;
#X obj 48 356 tgl 15 0 empty empty empty 17 7 0 10 #fcfcfc #000000 #000000 0 1;
#X obj 108 258 loadbang;
#X obj 21 207 loadbang;
#N canvas 493 145 854 632 biome_reset 1;
#N canvas 726 112 506 313 counter 0;
#X text 60 10 Bang for +1;
#X obj 13 168 int 1;
#X msg 154 61 0;
#X obj 61 168 + 1;
#X obj 13 198 outlet;
#X text 71 199 The count;
#X obj 13 102 metro 1000;
#X obj 13 75 tgl 15 0 empty empty empty 17 7 0 10 #fcfcfc #000000 #000000 0 1;
#X obj 156 28 r reset;
#X obj 13 47 inlet;
#X connect 1 0 3 0;
#X connect 1 0 4 0;
#X connect 2 0 1 0;
#X connect 3 0 1 1;
#X connect 6 0 1 0;
#X connect 7 0 6 0;
#X connect 8 0 2 0;
#X connect 9 0 7 0;
#X restore 17 383 pd counter;
#X floatatom 17 414 4 0 0 0 - - - 0;
#X floatatom 213 186 5 0 0 0 - - - 0;
#X text 380 137 Takes distance and maps and scales it to gainvalue;
#N canvas 470 167 818 702 geo_calc_dist_in_range 0;
#X obj 199 6 inlet;
#X text 241 6 Loc;
#X obj 207 343 outlet;
#X obj 17 39 unpack f f, f 15;
#X floatatom 17 101 9 0 0 0 - - - 0;
#X floatatom 118 101 8 0 0 0 - - - 0;
#X obj 199 39 unpack f f;
#X floatatom 200 101 7 0 0 0 - - - 0;
#X floatatom 268 101 7 0 0 0 - - - 0;
#X obj 17 212 expr pow(pow($f1 \, 2) + pow($f2 \, 2) \, 0.5);
#X floatatom 17 180 5 0 0 0 - - - 0;
#X floatatom 293 176 13 0 0 0 - - - 0;
#X obj 17 133 expr abs($f1 - $f3) \; abs($f2 - $f4), f 40;
#X text 310 139 Absolute value of dist between the x and y;
#X obj 317 6 inlet;
#X text 359 7 Range;
#X obj 22 347 outlet;
#X floatatom 43 243 10 0 0 0 - - - 0;
#X text 119 242 Distance;
#X text 311 211 Pythagoras;
#X text 62 179 Distance x;
#X text 404 178 Distance y;
#X text 261 345 Distance > 0;
#X obj 16 7 r live_loc;
#X text 75 344 In Range 0 = no 1 = yes, f 29;
#X obj 20 276 expr if($f1 < $f2 \, 1 \, 0) \; if($f1 < $f2 \, $f1 \, $f2), f 26;
#X connect 0 0 6 0;
#X connect 3 0 4 0;
#X connect 3 1 5 0;
#X connect 4 0 12 0;
#X connect 5 0 12 1;
#X connect 6 0 7 0;
#X connect 6 1 8 0;
#X connect 7 0 12 2;
#X connect 8 0 12 3;
#X connect 9 0 17 0;
#X connect 9 0 25 0;
#X connect 10 0 9 0;
#X connect 11 0 9 1;
#X connect 12 0 10 0;
#X connect 12 1 11 0;
#X connect 14 0 25 1;
#X connect 23 0 3 0;
#X connect 25 0 16 0;
#X connect 25 1 2 0;
#X restore 11 64 pd geo_calc_dist_in_range;
#X floatatom 11 97 5 0 0 0 - - - 0;
#X floatatom 210 105 5 0 0 0 - - - 0;
#X obj 12 6 inlet;
#X obj 235 2 inlet;
#X text 58 7 Loc Biome;
#X text 282 3 Range Biome;
#X text 50 414 Time elapsed in sec;
#X obj 37 589 outlet~;
#X text 98 589 Audio bus for biome;
#X text 257 170 Scaled gainvalue to atmosphere player;
#X text 48 98 In Range 0 = no 1 = yes, f 9;
#X text 243 62 in 1: biome location \, in 2 biome range \, out1: in range state \, out 2: distance;
#X text 254 105 Distance (values greater then range are filtered);
#X floatatom 234 29 5 0 0 0 - - - 0;
#X text 314 188 in 1: location of trigger in 2: range of trigger in 3: Bang the sample out 1: audio of sampler, f 25;
#X obj 12 133 change;
#N canvas 199 152 1124 708 looper_desert 0;
#X obj 36 32 inlet;
#X obj 36 65 sel 0 1;
#X obj 35 260 outlet~;
#X text 85 32 state** = 0 = OOB or 1 = IB;
#X obj 35 186 readsf~;
#X msg 36 111 0;
#X msg 79 141 1;
#X text 103 162 sample that needs to be played;
#X obj 79 110 t b b;
#X msg 112 141 open intro_reset.wav;
#X connect 0 0 1 0;
#X connect 1 0 5 0;
#X connect 1 1 8 0;
#X connect 4 0 2 0;
#X connect 4 1 8 0;
#X connect 5 0 4 0;
#X connect 6 0 4 0;
#X connect 8 0 6 0;
#X connect 8 1 9 0;
#X connect 9 0 4 0;
#X restore 31 185 pd looper_desert;
#X obj 32 350 *~, f 30;
#X obj 239 323 line;
#X obj 239 299 pack f f;
#X obj 290 254 loadbang;
#N canvas 227 222 875 487 0-delay 0;
#X obj 7 17 inlet;
#X obj 14 250 outlet;
#X obj 7 46 route 0;
#X obj 8 85 t 0 b;
#X msg 50 129 clear;
#X obj 4 172 pipe 6000;
#X connect 0 0 2 0;
#X connect 2 0 3 0;
#X connect 2 1 1 0;
#X connect 2 1 4 0;
#X connect 3 0 5 0;
#X connect 3 1 4 0;
#X connect 4 0 5 0;
#X connect 5 0 1 0;
#X restore 22 160 pd 0-delay;
#X floatatom 165 181 5 0 0 0 - - - 0;
#X msg 290 277 6000;
#X floatatom 325 388 5 0 0 0 - - - 0;
#X obj 240 276 change;
#N canvas 527 205 450 300 geo_calc_gainvalue 0;
#X obj 15 12 inlet;
#X obj 140 12 inlet;
#X text 61 11 Distance;
#N canvas 63 88 686 391 map 0;
#X obj 203 75 inlet;
#X obj 263 75 inlet;
#X obj 317 75 inlet;
#X obj 377 75 inlet;
#X obj 417 75 inlet;
#X obj 194 308 outlet;
#X text 270 59 lo;
#X text 324 59 hi;
#X text 384 59 lo;
#X text 424 59 hi;
#X obj 254 134 f \$1;
#X obj 308 134 f \$2;
#X obj 368 134 f \$3;
#X obj 408 134 f \$4;
#X obj 194 173 -;
#X obj 273 185 -;
#X obj 254 156 t f b f;
#X obj 194 202 /;
#X text 234 42 from;
#X text 347 40 to;
#X obj 194 246 *;
#X obj 194 274 +;
#X obj 387 185 -;
#X obj 368 156 t f b f;
#X text 53 176 subtract offset 1;
#X text 55 203 divide by range 1;
#X text 43 250 multiply by range 2;
#X text 85 274 add offset 2;
#X obj 493 58 loadbang;
#X obj 493 80 t b b b b;
#X obj 194 134 f;
#X text 399 39 initialize from arguments, f 36;
#X connect 0 0 30 0;
#X connect 1 0 10 0;
#X connect 2 0 11 0;
#X connect 3 0 12 0;
#X connect 4 0 13 0;
#X connect 10 0 16 0;
#X connect 11 0 15 0;
#X connect 12 0 23 0;
#X connect 13 0 22 0;
#X connect 14 0 17 0;
#X connect 15 0 17 1;
#X connect 16 0 14 1;
#X connect 16 1 15 0;
#X connect 16 2 15 1;
#X connect 17 0 20 0;
#X connect 20 0 21 0;
#X connect 21 0 5 0;
#X connect 22 0 20 1;
#X connect 23 0 21 1;
#X connect 23 1 22 0;
#X connect 23 2 22 1;
#X connect 28 0 29 0;
#X connect 29 0 10 0;
#X connect 29 1 11 0;
#X connect 29 2 12 0;
#X connect 29 3 13 0;
#X connect 30 0 14 0;
#X restore 15 154 pd map;
#X obj 261 82 loadbang;
#X msg 261 110 1;
#X msg 79 121 0;
#X floatatom 15 182 5 0 0 0 - - - 0;
#X text 192 11 Range;
#X obj 15 237 outlet;
#X text 78 239 Gain Value Scaled;
#X text 78 184 Mapped Value;
#X text 282 152 Map to [0.0 \, 1.0], f 23;
#X obj 14 209 expr 1 - $f1;
#X floatatom 291 250 5 0 0 0 - - - 0;
#X connect 0 0 3 0;
#X connect 1 0 3 2;
#X connect 3 0 7 0;
#X connect 4 0 6 0;
#X connect 4 0 5 0;
#X connect 5 0 3 4;
#X connect 6 0 3 1;
#X connect 6 0 3 3;
#X connect 7 0 13 0;
#X connect 13 0 9 0;
#X restore 210 137 pd geo_calc_gainvalue;
#X connect 0 0 1 0;
#X connect 2 0 30 0;
#X connect 4 0 5 0;
#X connect 4 1 6 0;
#X connect 5 0 20 0;
#X connect 6 0 31 0;
#X connect 7 0 4 0;
#X connect 8 0 18 0;
#X connect 18 0 4 1;
#X connect 18 0 31 1;
#X connect 20 0 0 0;
#X connect 20 0 26 0;
#X connect 21 0 22 0;
#X connect 22 0 12 0;
#X connect 23 0 22 1;
#X connect 23 0 29 0;
#X connect 24 0 23 0;
#X connect 25 0 28 0;
#X connect 26 0 21 0;
#X connect 26 0 27 0;
#X connect 28 0 24 1;
#X connect 30 0 24 0;
#X connect 31 0 2 0;
#X restore 24 329 pd biome_reset;
#X obj 209 16 bng 16 250 50 0 empty empty empty 0 -8 0 10 #fcfcfc #000000 #000000;
#N canvas -19 47 1440 770 triggers 0;
#N canvas 161 168 1208 544 trigger_camel 0;
#X obj 16 8 inlet;
#X obj 196 8 inlet;
#X obj 16 98 sel 1;
#X obj 17 231 outlet~;
#X obj 59 72 r reset;
#N canvas 854 254 818 702 geo_calc_dist_in_range 0;
#X obj 199 6 inlet;
#X text 241 6 Loc;
#X obj 207 343 outlet;
#X obj 17 39 unpack f f, f 15;
#X floatatom 17 101 9 0 0 0 - - - 0;
#X floatatom 118 101 8 0 0 0 - - - 0;
#X obj 199 39 unpack f f;
#X floatatom 200 101 7 0 0 0 - - - 0;
#X floatatom 268 101 7 0 0 0 - - - 0;
#X obj 17 212 expr pow(pow($f1 \, 2) + pow($f2 \, 2) \, 0.5);
#X floatatom 17 180 5 0 0 0 - - - 0;
#X floatatom 293 176 13 0 0 0 - - - 0;
#X obj 17 133 expr abs($f1 - $f3) \; abs($f2 - $f4), f 40;
#X text 310 139 Absolute value of dist between the x and y;
#X obj 317 6 inlet;
#X text 359 7 Range;
#X obj 20 276 expr if($f1 < $f2 \, 1 \, 0) \; if($f1 < $f2 \, $f1 \, 0), f 26;
#X obj 22 347 outlet;
#X floatatom 43 243 10 0 0 0 - - - 0;
#X text 119 242 Distance;
#X text 311 211 Pythagoras;
#X text 62 179 Distance x;
#X text 404 178 Distance y;
#X text 261 345 Distance > 0;
#X obj 16 7 r live_loc;
#X text 75 344 In Range 0 = no 1 = yes, f 8;
#X connect 0 0 6 0;
#X connect 3 0 4 0;
#X connect 3 1 5 0;
#X connect 4 0 12 0;
#X connect 5 0 12 1;
#X connect 6 0 7 0;
#X connect 6 1 8 0;
#X connect 7 0 12 2;
#X connect 8 0 12 3;
#X connect 9 0 16 0;
#X connect 9 0 18 0;
#X connect 10 0 9 0;
#X connect 11 0 9 1;
#X connect 12 0 10 0;
#X connect 12 1 11 0;
#X connect 14 0 16 1;
#X connect 16 0 17 0;
#X connect 16 1 2 0;
#X connect 24 0 3 0;
#X restore 16 48 pd geo_calc_dist_in_range;
#X f 26;
#X text 59 7 Loc of trigger;
#X text 244 7 Range of trigger;
#X msg 244 45 5.2 52.902, f 17;
#N canvas 145 84 1109 711 trigger 0;
#X obj 333 182 inlet;
#X obj 384 182 inlet;
#X text 384 155 reset, f 6;
#X text 329 155 trigger;
#X obj 333 354 readsf~, f 8;
#X obj 333 443 outlet~, f 8;
#X obj 435 182 inlet;
#X msg 333 213 start, f 6;
#X msg 394 250 0;
#X msg 384 213 1;
#X msg 333 314 start;
#X obj 435 240 print;
#X obj 333 269 spigot;
#X text 433 155 sample name;
#X obj 333 397 *~ 1;
#X connect 0 0 7 0;
#X connect 1 0 9 0;
#X connect 4 0 14 0;
#X connect 4 1 8 0;
#X connect 6 0 11 0;
#X connect 6 0 4 0;
#X connect 7 0 12 0;
#X connect 8 0 12 1;
#X connect 9 0 12 1;
#X connect 10 0 4 0;
#X connect 12 0 10 0;
#X connect 14 0 5 0;
#X restore 16 189 pd trigger;
#X obj 434 8 inlet;
#X text 476 7 Test trigger;
#X obj 59 128 t b b;
#X obj 434 41 t b b;
#X text 118 72 Global Reset;
#X text 61 97 If in range bang;
#X text 200 156 Load the sound and reset;
#X msg 89 155 open camel.wav;
#X connect 0 0 5 0;
#X connect 1 0 5 1;
#X connect 2 0 9 0;
#X connect 4 0 12 0;
#X connect 5 0 2 0;
#X connect 8 0 5 0;
#X connect 9 0 3 0;
#X connect 10 0 13 0;
#X connect 12 0 9 1;
#X connect 12 1 17 0;
#X connect 13 0 9 0;
#X connect 13 1 12 0;
#X connect 17 0 9 2;
#X restore 96 312 pd trigger_camel;
#N canvas 161 168 1208 544 trigger_vulture 0;
#X obj 16 8 inlet;
#X obj 196 8 inlet;
#X obj 16 98 sel 1;
#X obj 17 231 outlet~;
#X obj 59 72 r reset;
#N canvas 854 254 818 702 geo_calc_dist_in_range 0;
#X obj 199 6 inlet;
#X text 241 6 Loc;
#X obj 207 343 outlet;
#X obj 17 39 unpack f f, f 15;
#X floatatom 17 101 9 0 0 0 - - - 0;
#X floatatom 118 101 8 0 0 0 - - - 0;
#X obj 199 39 unpack f f;
#X floatatom 200 101 7 0 0 0 - - - 0;
#X floatatom 268 101 7 0 0 0 - - - 0;
#X obj 17 212 expr pow(pow($f1 \, 2) + pow($f2 \, 2) \, 0.5);
#X floatatom 17 180 5 0 0 0 - - - 0;
#X floatatom 293 176 13 0 0 0 - - - 0;
#X obj 17 133 expr abs($f1 - $f3) \; abs($f2 - $f4), f 40;
#X text 310 139 Absolute value of dist between the x and y;
#X obj 317 6 inlet;
#X text 359 7 Range;
#X obj 20 276 expr if($f1 < $f2 \, 1 \, 0) \; if($f1 < $f2 \, $f1 \, 0), f 26;
#X obj 22 347 outlet;
#X floatatom 43 243 10 0 0 0 - - - 0;
#X text 119 242 Distance;
#X text 311 211 Pythagoras;
#X text 62 179 Distance x;
#X text 404 178 Distance y;
#X text 261 345 Distance > 0;
#X obj 16 7 r live_loc;
#X text 75 344 In Range 0 = no 1 = yes, f 8;
#X connect 0 0 6 0;
#X connect 3 0 4 0;
#X connect 3 1 5 0;
#X connect 4 0 12 0;
#X connect 5 0 12 1;
#X connect 6 0 7 0;
#X connect 6 1 8 0;
#X connect 7 0 12 2;
#X connect 8 0 12 3;
#X connect 9 0 16 0;
#X connect 9 0 18 0;
#X connect 10 0 9 0;
#X connect 11 0 9 1;
#X connect 12 0 10 0;
#X connect 12 1 11 0;
#X connect 14 0 16 1;
#X connect 16 0 17 0;
#X connect 16 1 2 0;
#X connect 24 0 3 0;
#X restore 16 48 pd geo_calc_dist_in_range;
#X f 26;
#X text 59 7 Loc of trigger;
#X text 244 7 Range of trigger;
#X msg 244 45 5.2 52.902, f 17;
#N canvas 145 84 1109 711 trigger 0;
#X obj 333 182 inlet;
#X obj 384 182 inlet;
#X text 384 155 reset, f 6;
#X text 329 155 trigger;
#X obj 333 354 readsf~, f 8;
#X obj 333 443 outlet~, f 8;
#X obj 435 182 inlet;
#X msg 333 213 start, f 6;
#X msg 394 250 0;
#X msg 384 213 1;
#X msg 333 314 start;
#X obj 435 240 print;
#X obj 333 269 spigot;
#X text 433 155 sample name;
#X obj 333 397 *~ 1;
#X connect 0 0 7 0;
#X connect 1 0 9 0;
#X connect 4 0 14 0;
#X connect 4 1 8 0;
#X connect 6 0 11 0;
#X connect 6 0 4 0;
#X connect 7 0 12 0;
#X connect 8 0 12 1;
#X connect 9 0 12 1;
#X connect 10 0 4 0;
#X connect 12 0 10 0;
#X connect 14 0 5 0;
#X restore 16 189 pd trigger;
#X obj 434 8 inlet;
#X text 476 7 Test trigger;
#X obj 59 128 t b b;
#X obj 434 41 t b b;
#X text 118 72 Global Reset;
#X text 61 97 If in range bang;
#X text 200 156 Load the sound and reset;
#X msg 89 155 open vulture.wav;
#X connect 0 0 5 0;
#X connect 1 0 5 1;
#X connect 2 0 9 0;
#X connect 4 0 12 0;
#X connect 5 0 2 0;
#X connect 8 0 5 0;
#X connect 9 0 3 0;
#X connect 10 0 13 0;
#X connect 12 0 9 1;
#X connect 12 1 17 0;
#X connect 13 0 9 0;
#X connect 13 1 12 0;
#X connect 17 0 9 2;
#X restore 220 312 pd trigger_vulture;
#N canvas 161 168 1208 544 trigger_lion 0;
#X obj 16 8 inlet;
#X obj 196 8 inlet;
#X obj 16 98 sel 1;
#X obj 17 231 outlet~;
#X obj 59 72 r reset;
#N canvas 854 254 818 702 geo_calc_dist_in_range 0;
#X obj 199 6 inlet;
#X text 241 6 Loc;
#X obj 207 343 outlet;
#X obj 17 39 unpack f f, f 15;
#X floatatom 17 101 9 0 0 0 - - - 0;
#X floatatom 118 101 8 0 0 0 - - - 0;
#X obj 199 39 unpack f f;
#X floatatom 200 101 7 0 0 0 - - - 0;
#X floatatom 268 101 7 0 0 0 - - - 0;
#X obj 17 212 expr pow(pow($f1 \, 2) + pow($f2 \, 2) \, 0.5);
#X floatatom 17 180 5 0 0 0 - - - 0;
#X floatatom 293 176 13 0 0 0 - - - 0;
#X obj 17 133 expr abs($f1 - $f3) \; abs($f2 - $f4), f 40;
#X text 310 139 Absolute value of dist between the x and y;
#X obj 317 6 inlet;
#X text 359 7 Range;
#X obj 20 276 expr if($f1 < $f2 \, 1 \, 0) \; if($f1 < $f2 \, $f1 \, 0), f 26;
#X obj 22 347 outlet;
#X floatatom 43 243 10 0 0 0 - - - 0;
#X text 119 242 Distance;
#X text 311 211 Pythagoras;
#X text 62 179 Distance x;
#X text 404 178 Distance y;
#X text 261 345 Distance > 0;
#X obj 16 7 r live_loc;
#X text 75 344 In Range 0 = no 1 = yes, f 8;
#X connect 0 0 6 0;
#X connect 3 0 4 0;
#X connect 3 1 5 0;
#X connect 4 0 12 0;
#X connect 5 0 12 1;
#X connect 6 0 7 0;
#X connect 6 1 8 0;
#X connect 7 0 12 2;
#X connect 8 0 12 3;
#X connect 9 0 16 0;
#X connect 9 0 18 0;
#X connect 10 0 9 0;
#X connect 11 0 9 1;
#X connect 12 0 10 0;
#X connect 12 1 11 0;
#X connect 14 0 16 1;
#X connect 16 0 17 0;
#X connect 16 1 2 0;
#X connect 24 0 3 0;
#X restore 16 48 pd geo_calc_dist_in_range;
#X f 26;
#X text 59 7 Loc of trigger;
#X text 244 7 Range of trigger;
#X msg 244 45 5.2 52.902, f 17;
#N canvas 145 84 1109 711 trigger 0;
#X obj 333 182 inlet;
#X obj 384 182 inlet;
#X text 384 155 reset, f 6;
#X text 329 155 trigger;
#X obj 333 354 readsf~, f 8;
#X obj 333 443 outlet~, f 8;
#X obj 435 182 inlet;
#X msg 333 213 start, f 6;
#X msg 394 250 0;
#X msg 384 213 1;
#X msg 333 314 start;
#X obj 435 240 print;
#X obj 333 269 spigot;
#X text 433 155 sample name;
#X obj 333 397 *~ 1;
#X connect 0 0 7 0;
#X connect 1 0 9 0;
#X connect 4 0 14 0;
#X connect 4 1 8 0;
#X connect 6 0 11 0;
#X connect 6 0 4 0;
#X connect 7 0 12 0;
#X connect 8 0 12 1;
#X connect 9 0 12 1;
#X connect 10 0 4 0;
#X connect 12 0 10 0;
#X connect 14 0 5 0;
#X restore 16 189 pd trigger;
#X obj 434 8 inlet;
#X text 476 7 Test trigger;
#X obj 59 128 t b b;
#X obj 434 41 t b b;
#X text 118 72 Global Reset;
#X text 61 97 If in range bang;
#X text 200 156 Load the sound and reset;
#X msg 89 155 open camel.wav;
#X connect 0 0 5 0;
#X connect 1 0 5 1;
#X connect 2 0 9 0;
#X connect 4 0 12 0;
#X connect 5 0 2 0;
#X connect 8 0 5 0;
#X connect 9 0 3 0;
#X connect 10 0 13 0;
#X connect 12 0 9 1;
#X connect 12 1 17 0;
#X connect 13 0 9 0;
#X connect 13 1 12 0;
#X connect 17 0 9 2;
#X restore 579 332 pd trigger_lion;
#N canvas 161 168 1208 544 trigger_monkey 0;
#X obj 16 8 inlet;
#X obj 196 8 inlet;
#X obj 16 98 sel 1;
#X obj 17 231 outlet~;
#X obj 59 72 r reset;
#N canvas 854 254 818 702 geo_calc_dist_in_range 0;
#X obj 199 6 inlet;
#X text 241 6 Loc;
#X obj 207 343 outlet;
#X obj 17 39 unpack f f, f 15;
#X floatatom 17 101 9 0 0 0 - - - 0;
#X floatatom 118 101 8 0 0 0 - - - 0;
#X obj 199 39 unpack f f;
#X floatatom 200 101 7 0 0 0 - - - 0;
#X floatatom 268 101 7 0 0 0 - - - 0;
#X obj 17 212 expr pow(pow($f1 \, 2) + pow($f2 \, 2) \, 0.5);
#X floatatom 17 180 5 0 0 0 - - - 0;
#X floatatom 293 176 13 0 0 0 - - - 0;
#X obj 17 133 expr abs($f1 - $f3) \; abs($f2 - $f4), f 40;
#X text 310 139 Absolute value of dist between the x and y;
#X obj 317 6 inlet;
#X text 359 7 Range;
#X obj 20 276 expr if($f1 < $f2 \, 1 \, 0) \; if($f1 < $f2 \, $f1 \, 0), f 26;
#X obj 22 347 outlet;
#X floatatom 43 243 10 0 0 0 - - - 0;
#X text 119 242 Distance;
#X text 311 211 Pythagoras;
#X text 62 179 Distance x;
#X text 404 178 Distance y;
#X text 261 345 Distance > 0;
#X obj 16 7 r live_loc;
#X text 75 344 In Range 0 = no 1 = yes, f 8;
#X connect 0 0 6 0;
#X connect 3 0 4 0;
#X connect 3 1 5 0;
#X connect 4 0 12 0;
#X connect 5 0 12 1;
#X connect 6 0 7 0;
#X connect 6 1 8 0;
#X connect 7 0 12 2;
#X connect 8 0 12 3;
#X connect 9 0 16 0;
#X connect 9 0 18 0;
#X connect 10 0 9 0;
#X connect 11 0 9 1;
#X connect 12 0 10 0;
#X connect 12 1 11 0;
#X connect 14 0 16 1;
#X connect 16 0 17 0;
#X connect 16 1 2 0;
#X connect 24 0 3 0;
#X restore 16 48 pd geo_calc_dist_in_range;
#X f 26;
#X text 59 7 Loc of trigger;
#X text 244 7 Range of trigger;
#X msg 244 45 5.2 52.902, f 17;
#N canvas 145 84 1109 711 trigger 0;
#X obj 333 182 inlet;
#X obj 384 182 inlet;
#X text 384 155 reset, f 6;
#X text 329 155 trigger;
#X obj 333 354 readsf~, f 8;
#X obj 333 443 outlet~, f 8;
#X obj 435 182 inlet;
#X msg 333 213 start, f 6;
#X msg 394 250 0;
#X msg 384 213 1;
#X msg 333 314 start;
#X obj 435 240 print;
#X obj 333 269 spigot;
#X text 433 155 sample name;
#X obj 333 397 *~ 1;
#X connect 0 0 7 0;
#X connect 1 0 9 0;
#X connect 4 0 14 0;
#X connect 4 1 8 0;
#X connect 6 0 11 0;
#X connect 6 0 4 0;
#X connect 7 0 12 0;
#X connect 8 0 12 1;
#X connect 9 0 12 1;
#X connect 10 0 4 0;
#X connect 12 0 10 0;
#X connect 14 0 5 0;
#X restore 16 189 pd trigger;
#X obj 434 8 inlet;
#X text 476 7 Test trigger;
#X obj 59 128 t b b;
#X obj 434 41 t b b;
#X text 118 72 Global Reset;
#X text 61 97 If in range bang;
#X text 200 156 Load the sound and reset;
#X msg 89 155 open monkey.wav;
#X connect 0 0 5 0;
#X connect 1 0 5 1;
#X connect 2 0 9 0;
#X connect 4 0 12 0;
#X connect 5 0 2 0;
#X connect 8 0 5 0;
#X connect 9 0 3 0;
#X connect 10 0 13 0;
#X connect 12 0 9 1;
#X connect 12 1 17 0;
#X connect 13 0 9 0;
#X connect 13 1 12 0;
#X connect 17 0 9 2;
#X restore 698 332 pd trigger_monkey;
#N canvas 161 168 1208 544 trigger_ocean 0;
#X obj 16 8 inlet;
#X obj 196 8 inlet;
#X obj 16 98 sel 1;
#X obj 17 231 outlet~;
#X obj 59 72 r reset;
#N canvas 854 254 818 702 geo_calc_dist_in_range 0;
#X obj 199 6 inlet;
#X text 241 6 Loc;
#X obj 207 343 outlet;
#X obj 17 39 unpack f f, f 15;
#X floatatom 17 101 9 0 0 0 - - - 0;
#X floatatom 118 101 8 0 0 0 - - - 0;
#X obj 199 39 unpack f f;
#X floatatom 200 101 7 0 0 0 - - - 0;
#X floatatom 268 101 7 0 0 0 - - - 0;
#X obj 17 212 expr pow(pow($f1 \, 2) + pow($f2 \, 2) \, 0.5);
#X floatatom 17 180 5 0 0 0 - - - 0;
#X floatatom 293 176 13 0 0 0 - - - 0;
#X obj 17 133 expr abs($f1 - $f3) \; abs($f2 - $f4), f 40;
#X text 310 139 Absolute value of dist between the x and y;
#X obj 317 6 inlet;
#X text 359 7 Range;
#X obj 20 276 expr if($f1 < $f2 \, 1 \, 0) \; if($f1 < $f2 \, $f1 \, 0), f 26;
#X obj 22 347 outlet;
#X floatatom 43 243 10 0 0 0 - - - 0;
#X text 119 242 Distance;
#X text 311 211 Pythagoras;
#X text 62 179 Distance x;
#X text 404 178 Distance y;
#X text 261 345 Distance > 0;
#X obj 16 7 r live_loc;
#X text 75 344 In Range 0 = no 1 = yes, f 8;
#X connect 0 0 6 0;
#X connect 3 0 4 0;
#X connect 3 1 5 0;
#X connect 4 0 12 0;
#X connect 5 0 12 1;
#X connect 6 0 7 0;
#X connect 6 1 8 0;
#X connect 7 0 12 2;
#X connect 8 0 12 3;
#X connect 9 0 16 0;
#X connect 9 0 18 0;
#X connect 10 0 9 0;
#X connect 11 0 9 1;
#X connect 12 0 10 0;
#X connect 12 1 11 0;
#X connect 14 0 16 1;
#X connect 16 0 17 0;
#X connect 16 1 2 0;
#X connect 24 0 3 0;
#X restore 16 48 pd geo_calc_dist_in_range;
#X f 26;
#X text 59 7 Loc of trigger;
#X text 244 7 Range of trigger;
#X msg 244 45 5.2 52.902, f 17;
#N canvas 145 84 1109 711 trigger 0;
#X obj 333 182 inlet;
#X obj 384 182 inlet;
#X text 384 155 reset, f 6;
#X text 329 155 trigger;
#X obj 333 354 readsf~, f 8;
#X obj 333 443 outlet~, f 8;
#X obj 435 182 inlet;
#X msg 333 213 start, f 6;
#X msg 394 250 0;
#X msg 384 213 1;
#X msg 333 314 start;
#X obj 435 240 print;
#X obj 333 269 spigot;
#X text 433 155 sample name;
#X obj 333 397 *~ 1;
#X connect 0 0 7 0;
#X connect 1 0 9 0;
#X connect 4 0 14 0;
#X connect 4 1 8 0;
#X connect 6 0 11 0;
#X connect 6 0 4 0;
#X connect 7 0 12 0;
#X connect 8 0 12 1;
#X connect 9 0 12 1;
#X connect 10 0 4 0;
#X connect 12 0 10 0;
#X connect 14 0 5 0;
#X restore 16 189 pd trigger;
#X obj 434 8 inlet;
#X text 476 7 Test trigger;
#X obj 59 128 t b b;
#X obj 434 41 t b b;
#X text 118 72 Global Reset;
#X text 61 97 If in range bang;
#X text 200 156 Load the sound and reset;
#X msg 89 155 open walvis.wav;
#X connect 0 0 5 0;
#X connect 1 0 5 1;
#X connect 2 0 9 0;
#X connect 4 0 12 0;
#X connect 5 0 2 0;
#X connect 8 0 5 0;
#X connect 9 0 3 0;
#X connect 10 0 13 0;
#X connect 12 0 9 1;
#X connect 12 1 17 0;
#X connect 13 0 9 0;
#X connect 13 1 12 0;
#X connect 17 0 9 2;
#X restore 524 544 pd trigger_ocean;
#N canvas 161 168 1208 544 trigger_space_animal 0;
#X obj 16 8 inlet;
#X obj 196 8 inlet;
#X obj 16 98 sel 1;
#X obj 17 231 outlet~;
#X obj 59 72 r reset;
#N canvas 854 254 818 702 geo_calc_dist_in_range 0;
#X obj 199 6 inlet;
#X text 241 6 Loc;
#X obj 207 343 outlet;
#X obj 17 39 unpack f f, f 15;
#X floatatom 17 101 9 0 0 0 - - - 0;
#X floatatom 118 101 8 0 0 0 - - - 0;
#X obj 199 39 unpack f f;
#X floatatom 200 101 7 0 0 0 - - - 0;
#X floatatom 268 101 7 0 0 0 - - - 0;
#X obj 17 212 expr pow(pow($f1 \, 2) + pow($f2 \, 2) \, 0.5);
#X floatatom 17 180 5 0 0 0 - - - 0;
#X floatatom 293 176 13 0 0 0 - - - 0;
#X obj 17 133 expr abs($f1 - $f3) \; abs($f2 - $f4), f 40;
#X text 310 139 Absolute value of dist between the x and y;
#X obj 317 6 inlet;
#X text 359 7 Range;
#X obj 20 276 expr if($f1 < $f2 \, 1 \, 0) \; if($f1 < $f2 \, $f1 \, 0), f 26;
#X obj 22 347 outlet;
#X floatatom 43 243 10 0 0 0 - - - 0;
#X text 119 242 Distance;
#X text 311 211 Pythagoras;
#X text 62 179 Distance x;
#X text 404 178 Distance y;
#X text 261 345 Distance > 0;
#X obj 16 7 r live_loc;
#X text 75 344 In Range 0 = no 1 = yes, f 8;
#X connect 0 0 6 0;
#X connect 3 0 4 0;
#X connect 3 1 5 0;
#X connect 4 0 12 0;
#X connect 5 0 12 1;
#X connect 6 0 7 0;
#X connect 6 1 8 0;
#X connect 7 0 12 2;
#X connect 8 0 12 3;
#X connect 9 0 16 0;
#X connect 9 0 18 0;
#X connect 10 0 9 0;
#X connect 11 0 9 1;
#X connect 12 0 10 0;
#X connect 12 1 11 0;
#X connect 14 0 16 1;
#X connect 16 0 17 0;
#X connect 16 1 2 0;
#X connect 24 0 3 0;
#X restore 16 48 pd geo_calc_dist_in_range;
#X f 26;
#X text 59 7 Loc of trigger;
#X text 244 7 Range of trigger;
#X msg 244 45 5.2 52.902, f 17;
#N canvas 145 84 1109 711 trigger 0;
#X obj 333 182 inlet;
#X obj 384 182 inlet;
#X text 384 155 reset, f 6;
#X text 329 155 trigger;
#X obj 333 354 readsf~, f 8;
#X obj 333 443 outlet~, f 8;
#X obj 435 182 inlet;
#X msg 333 213 start, f 6;
#X msg 394 250 0;
#X msg 384 213 1;
#X msg 333 314 start;
#X obj 435 240 print;
#X obj 333 269 spigot;
#X text 433 155 sample name;
#X obj 333 397 *~ 1;
#X connect 0 0 7 0;
#X connect 1 0 9 0;
#X connect 4 0 14 0;
#X connect 4 1 8 0;
#X connect 6 0 11 0;
#X connect 6 0 4 0;
#X connect 7 0 12 0;
#X connect 8 0 12 1;
#X connect 9 0 12 1;
#X connect 10 0 4 0;
#X connect 12 0 10 0;
#X connect 14 0 5 0;
#X restore 16 189 pd trigger;
#X obj 434 8 inlet;
#X text 476 7 Test trigger;
#X obj 59 128 t b b;
#X obj 434 41 t b b;
#X text 118 72 Global Reset;
#X text 61 97 If in range bang;
#X text 255 155 Load the sound and reset;
#X msg 89 155 open space_animal.wav;
#X connect 0 0 5 0;
#X connect 1 0 5 1;
#X connect 2 0 9 0;
#X connect 4 0 12 0;
#X connect 5 0 2 0;
#X connect 8 0 5 0;
#X connect 9 0 3 0;
#X connect 10 0 13 0;
#X connect 12 0 9 1;
#X connect 12 1 17 0;
#X connect 13 0 9 0;
#X connect 13 1 12 0;
#X connect 17 0 9 2;
#X restore 75 519 pd trigger_space_animal;
#N canvas 161 168 1208 544 trigger_spaceship 0;
#X obj 16 8 inlet;
#X obj 196 8 inlet;
#X obj 16 98 sel 1;
#X obj 17 231 outlet~;
#X obj 59 72 r reset;
#N canvas 854 254 818 702 geo_calc_dist_in_range 0;
#X obj 199 6 inlet;
#X text 241 6 Loc;
#X obj 207 343 outlet;
#X obj 17 39 unpack f f, f 15;
#X floatatom 17 101 9 0 0 0 - - - 0;
#X floatatom 118 101 8 0 0 0 - - - 0;
#X obj 199 39 unpack f f;
#X floatatom 200 101 7 0 0 0 - - - 0;
#X floatatom 268 101 7 0 0 0 - - - 0;
#X obj 17 212 expr pow(pow($f1 \, 2) + pow($f2 \, 2) \, 0.5);
#X floatatom 17 180 5 0 0 0 - - - 0;
#X floatatom 293 176 13 0 0 0 - - - 0;
#X obj 17 133 expr abs($f1 - $f3) \; abs($f2 - $f4), f 40;
#X text 310 139 Absolute value of dist between the x and y;
#X obj 317 6 inlet;
#X text 359 7 Range;
#X obj 20 276 expr if($f1 < $f2 \, 1 \, 0) \; if($f1 < $f2 \, $f1 \, 0), f 26;
#X obj 22 347 outlet;
#X floatatom 43 243 10 0 0 0 - - - 0;
#X text 119 242 Distance;
#X text 311 211 Pythagoras;
#X text 62 179 Distance x;
#X text 404 178 Distance y;
#X text 261 345 Distance > 0;
#X obj 16 7 r live_loc;
#X text 75 344 In Range 0 = no 1 = yes, f 8;
#X connect 0 0 6 0;
#X connect 3 0 4 0;
#X connect 3 1 5 0;
#X connect 4 0 12 0;
#X connect 5 0 12 1;
#X connect 6 0 7 0;
#X connect 6 1 8 0;
#X connect 7 0 12 2;
#X connect 8 0 12 3;
#X connect 9 0 16 0;
#X connect 9 0 18 0;
#X connect 10 0 9 0;
#X connect 11 0 9 1;
#X connect 12 0 10 0;
#X connect 12 1 11 0;
#X connect 14 0 16 1;
#X connect 16 0 17 0;
#X connect 16 1 2 0;
#X connect 24 0 3 0;
#X restore 16 48 pd geo_calc_dist_in_range;
#X f 26;
#X text 59 7 Loc of trigger;
#X text 244 7 Range of trigger;
#X msg 244 45 5.2 52.902, f 17;
#N canvas 145 84 1109 711 trigger 0;
#X obj 333 182 inlet;
#X obj 384 182 inlet;
#X text 384 155 reset, f 6;
#X text 329 155 trigger;
#X obj 333 354 readsf~, f 8;
#X obj 333 443 outlet~, f 8;
#X obj 435 182 inlet;
#X msg 333 213 start, f 6;
#X msg 394 250 0;
#X msg 384 213 1;
#X msg 333 314 start;
#X obj 435 240 print;
#X obj 333 269 spigot;
#X text 433 155 sample name;
#X obj 333 397 *~ 1;
#X connect 0 0 7 0;
#X connect 1 0 9 0;
#X connect 4 0 14 0;
#X connect 4 1 8 0;
#X connect 6 0 11 0;
#X connect 6 0 4 0;
#X connect 7 0 12 0;
#X connect 8 0 12 1;
#X connect 9 0 12 1;
#X connect 10 0 4 0;
#X connect 12 0 10 0;
#X connect 14 0 5 0;
#X restore 16 189 pd trigger;
#X obj 434 8 inlet;
#X text 476 7 Test trigger;
#X obj 59 128 t b b;
#X obj 434 41 t b b;
#X text 118 72 Global Reset;
#X text 61 97 If in range bang;
#X text 230 156 Load the sound and reset;
#X msg 89 155 open spaceship.wav;
#X connect 0 0 5 0;
#X connect 1 0 5 1;
#X connect 2 0 9 0;
#X connect 4 0 12 0;
#X connect 5 0 2 0;
#X connect 8 0 5 0;
#X connect 9 0 3 0;
#X connect 10 0 13 0;
#X connect 12 0 9 1;
#X connect 12 1 17 0;
#X connect 13 0 9 0;
#X connect 13 1 12 0;
#X connect 17 0 9 2;
#X restore 255 519 pd trigger_spaceship;
#N canvas 161 168 1208 544 trigger_sea_monster 0;
#X obj 16 8 inlet;
#X obj 196 8 inlet;
#X obj 16 98 sel 1;
#X obj 17 231 outlet~;
#X obj 59 72 r reset;
#N canvas 854 254 818 702 geo_calc_dist_in_range 0;
#X obj 199 6 inlet;
#X text 241 6 Loc;
#X obj 207 343 outlet;
#X obj 17 39 unpack f f, f 15;
#X floatatom 17 101 9 0 0 0 - - - 0;
#X floatatom 118 101 8 0 0 0 - - - 0;
#X obj 199 39 unpack f f;
#X floatatom 200 101 7 0 0 0 - - - 0;
#X floatatom 268 101 7 0 0 0 - - - 0;
#X obj 17 212 expr pow(pow($f1 \, 2) + pow($f2 \, 2) \, 0.5);
#X floatatom 17 180 5 0 0 0 - - - 0;
#X floatatom 293 176 13 0 0 0 - - - 0;
#X obj 17 133 expr abs($f1 - $f3) \; abs($f2 - $f4), f 40;
#X text 310 139 Absolute value of dist between the x and y;
#X obj 317 6 inlet;
#X text 359 7 Range;
#X obj 20 276 expr if($f1 < $f2 \, 1 \, 0) \; if($f1 < $f2 \, $f1 \, 0), f 26;
#X obj 22 347 outlet;
#X floatatom 43 243 10 0 0 0 - - - 0;
#X text 119 242 Distance;
#X text 311 211 Pythagoras;
#X text 62 179 Distance x;
#X text 404 178 Distance y;
#X text 261 345 Distance > 0;
#X obj 16 7 r live_loc;
#X text 75 344 In Range 0 = no 1 = yes, f 8;
#X connect 0 0 6 0;
#X connect 3 0 4 0;
#X connect 3 1 5 0;
#X connect 4 0 12 0;
#X connect 5 0 12 1;
#X connect 6 0 7 0;
#X connect 6 1 8 0;
#X connect 7 0 12 2;
#X connect 8 0 12 3;
#X connect 9 0 16 0;
#X connect 9 0 18 0;
#X connect 10 0 9 0;
#X connect 11 0 9 1;
#X connect 12 0 10 0;
#X connect 12 1 11 0;
#X connect 14 0 16 1;
#X connect 16 0 17 0;
#X connect 16 1 2 0;
#X connect 24 0 3 0;
#X restore 16 48 pd geo_calc_dist_in_range;
#X f 26;
#X text 59 7 Loc of trigger;
#X text 244 7 Range of trigger;
#X msg 244 45 5.2 52.902, f 17;
#N canvas 145 84 1109 711 trigger 0;
#X obj 333 182 inlet;
#X obj 384 182 inlet;
#X text 384 155 reset, f 6;
#X text 329 155 trigger;
#X obj 333 354 readsf~, f 8;
#X obj 333 443 outlet~, f 8;
#X obj 435 182 inlet;
#X msg 333 213 start, f 6;
#X msg 394 250 0;
#X msg 384 213 1;
#X msg 333 314 start;
#X obj 435 240 print;
#X obj 333 269 spigot;
#X text 433 155 sample name;
#X obj 333 397 *~ 1;
#X connect 0 0 7 0;
#X connect 1 0 9 0;
#X connect 4 0 14 0;
#X connect 4 1 8 0;
#X connect 6 0 11 0;
#X connect 6 0 4 0;
#X connect 7 0 12 0;
#X connect 8 0 12 1;
#X connect 9 0 12 1;
#X connect 10 0 4 0;
#X connect 12 0 10 0;
#X connect 14 0 5 0;
#X restore 16 189 pd trigger;
#X obj 434 8 inlet;
#X text 476 7 Test trigger;
#X obj 59 128 t b b;
#X obj 434 41 t b b;
#X text 118 72 Global Reset;
#X text 61 97 If in range bang;
#X text 249 159 Load the sound and reset;
#X msg 89 155 open sea_monster.wav;
#X connect 0 0 5 0;
#X connect 1 0 5 1;
#X connect 2 0 9 0;
#X connect 4 0 12 0;
#X connect 5 0 2 0;
#X connect 8 0 5 0;
#X connect 9 0 3 0;
#X connect 10 0 13 0;
#X connect 12 0 9 1;
#X connect 12 1 17 0;
#X connect 13 0 9 0;
#X connect 13 1 12 0;
#X connect 17 0 9 2;
#X restore 648 544 pd trigger_sea_monster;
#X obj 150 277 r range trigger;
#X obj 280 277 r range trigger;
#X text 192 247 desert;
#X obj 627 297 r range trigger;
#X obj 754 297 r range trigger;
#X obj 576 509 r range trigger;
#X obj 720 509 r range trigger;
#X obj 153 484 r range trigger;
#X obj 321 484 r range trigger;
#X text 684 192 jungle;
#X text 652 457 ocean;
#X text 286 370 space;
#X obj 58 667 outlet~;
#X obj 1064 147 inlet;
#X obj 1149 86 loadbang;
#X obj 1149 154 s range trigger;
#X text 1273 115 sets range of all triggers;
#X obj 94 185 loadbang;
#X obj 220 188 loadbang;
#X obj 580 227 loadbang;
#X obj 726 215 loadbang;
#X obj 284 407 loadbang;
#X obj 71 409 loadbang;
#X obj 750 389 loadbang;
#X obj 524 461 loadbang;
#N canvas 204 108 1208 544 trigger_voice_over 1;
#X obj 16 8 inlet;
#X obj 196 8 inlet;
#X obj 16 98 sel 1;
#X obj 17 231 outlet~;
#X obj 59 72 r reset;
#N canvas 622 93 818 702 geo_calc_dist_in_range 1;
#X obj 199 6 inlet;
#X text 241 6 Loc;
#X obj 207 343 outlet;
#X obj 17 39 unpack f f, f 15;
#X floatatom 17 101 9 0 0 0 - - - 0;
#X floatatom 118 101 8 0 0 0 - - - 0;
#X obj 199 39 unpack f f;
#X floatatom 200 101 7 0 0 0 - - - 0;
#X floatatom 268 101 7 0 0 0 - - - 0;
#X obj 17 212 expr pow(pow($f1 \, 2) + pow($f2 \, 2) \, 0.5);
#X floatatom 17 180 5 0 0 0 - - - 0;
#X floatatom 293 176 13 0 0 0 - - - 0;
#X obj 17 133 expr abs($f1 - $f3) \; abs($f2 - $f4), f 40;
#X text 310 139 Absolute value of dist between the x and y;
#X obj 317 6 inlet;
#X text 359 7 Range;
#X obj 20 276 expr if($f1 < $f2 \, 1 \, 0) \; if($f1 < $f2 \, $f1 \, 0), f 26;
#X obj 22 347 outlet;
#X floatatom 43 243 10 0 0 0 - - - 0;
#X text 119 242 Distance;
#X text 311 211 Pythagoras;
#X text 62 179 Distance x;
#X text 404 178 Distance y;
#X text 261 345 Distance > 0;
#X obj 16 7 r live_loc;
#X text 75 344 In Range 0 = no 1 = yes, f 8;
#X floatatom 129 410 5 0 0 0 - - - 0;
#X obj 499 183 bng 16 250 50 0 empty empty empty 0 -8 0 10 #fcfcfc #000000 #000000;
#X connect 0 0 6 0;
#X connect 3 0 4 0;
#X connect 3 1 5 0;
#X connect 4 0 12 0;
#X connect 5 0 12 1;
#X connect 6 0 7 0;
#X connect 6 1 8 0;
#X connect 7 0 12 2;
#X connect 8 0 12 3;
#X connect 9 0 16 0;
#X connect 9 0 18 0;
#X connect 10 0 9 0;
#X connect 11 0 9 1;
#X connect 12 0 10 0;
#X connect 12 1 11 0;
#X connect 14 0 16 1;
#X connect 16 0 17 0;
#X connect 16 0 26 0;
#X connect 16 1 2 0;
#X connect 24 0 3 0;
#X restore 16 48 pd geo_calc_dist_in_range;
#X f 26;
#X text 59 7 Loc of trigger;
#X text 244 7 Range of trigger;
#X msg 244 45 5.2 52.902, f 17;
#N canvas 145 84 1109 711 trigger 0;
#X obj 333 182 inlet;
#X obj 384 182 inlet;
#X text 384 155 reset, f 6;
#X text 329 155 trigger;
#X obj 333 354 readsf~, f 8;
#X obj 333 443 outlet~, f 8;
#X obj 435 182 inlet;
#X msg 333 213 start, f 6;
#X msg 394 250 0;
#X msg 384 213 1;
#X msg 333 314 start;
#X obj 435 240 print;
#X obj 333 269 spigot;
#X text 433 155 sample name;
#X obj 333 397 *~ 1;
#X connect 0 0 7 0;
#X connect 1 0 9 0;
#X connect 4 0 14 0;
#X connect 4 1 8 0;
#X connect 6 0 11 0;
#X connect 6 0 4 0;
#X connect 7 0 12 0;
#X connect 8 0 12 1;
#X connect 9 0 12 1;
#X connect 10 0 4 0;
#X connect 12 0 10 0;
#X connect 14 0 5 0;
#X restore 16 189 pd trigger;
#X obj 434 8 inlet;
#X text 476 7 Test trigger;
#X obj 59 128 t b b;
#X obj 434 41 t b b;
#X text 118 72 Global Reset;
#X text 61 97 If in range bang;
#X text 249 159 Load the sound and reset;
#X msg 90 155 open voice_over.wav;
#X connect 0 0 5 0;
#X connect 1 0 5 1;
#X connect 2 0 9 0;
#X connect 4 0 12 0;
#X connect 5 0 2 0;
#X connect 8 0 5 0;
#X connect 9 0 3 0;
#X connect 10 0 13 0;
#X connect 12 0 9 1;
#X connect 12 1 17 0;
#X connect 13 0 9 0;
#X connect 13 1 12 0;
#X connect 17 0 9 2;
#X restore 880 549 pd trigger_voice_over;
#X obj 884 462 loadbang;
#X msg 583 268 5.13215 52.0786;
#X msg 729 260 5.13183 52.0787;
#X msg 74 433 5.13146 52.0787;
#X msg 283 433 5.1313 52.0788;
#X msg 91 227 5.13115 52.0789;
#X msg 219 230 5.13129 52.0789;
#X msg 523 497 5.13099 52.079;
#X msg 745 436 5.1308 52.079;
#X msg 884 497 5.13257 52.0785;
#X obj 1003 516 r range trigger;
#X msg 1149 119 0.0001, f 15;
#X connect 0 0 20 0;
#X connect 1 0 20 0;
#X connect 2 0 20 0;
#X connect 3 0 20 0;
#X connect 4 0 20 0;
#X connect 5 0 20 0;
#X connect 6 0 20 0;
#X connect 7 0 20 0;
#X connect 8 0 0 1;
#X connect 9 0 1 1;
#X connect 11 0 2 1;
#X connect 12 0 3 1;
#X connect 13 0 4 1;
#X connect 14 0 7 1;
#X connect 15 0 5 1;
#X connect 16 0 6 1;
#X connect 21 0 23 0;
#X connect 22 0 45 0;
#X connect 25 0 39 0;
#X connect 26 0 40 0;
#X connect 27 0 35 0;
#X connect 28 0 36 0;
#X connect 29 0 38 0;
#X connect 30 0 37 0;
#X connect 31 0 42 0;
#X connect 32 0 41 0;
#X connect 33 0 20 0;
#X connect 34 0 43 0;
#X connect 35 0 2 0;
#X connect 36 0 3 0;
#X connect 37 0 5 0;
#X connect 38 0 6 0;
#X connect 39 0 0 0;
#X connect 40 0 1 0;
#X connect 41 0 4 0;
#X connect 42 0 7 0;
#X connect 43 0 33 0;
#X connect 44 0 33 1;
#X connect 45 0 23 0;
#X restore 978 502 pd triggers;
#X text 690 477 inlet for range of all triggers (automatic on 0.0003);
#X msg 205 234 5.13197 52.0786;
#X msg 21 232 5.13314 52.0784;
#X msg 422 238 5.13145 52.0788;
#X msg 589 232 5.1312 52.0789;
#X msg 742 239 5.13084 52.079;
#X msg 1055 13 5.13314 52.0784;
#X msg 1067 37 5.13197 52.0786;
#X msg 1072 66 5.13145 52.0788;
#X msg 1086 93 5.1312 52.0789;
#X msg 1104 138 5.13084 52.079;
#X msg 268 31 5.13314 52.0784, f 17;
#X msg 287 280 0.0003, f 7;
#X msg 826 281 0.0003, f 7;
#X msg 676 281 0.00025;
#X msg 506 280 0.00025;
#X obj 840 111 Heartbeat;
#X obj 17 46 unpackOSC;
#X obj 17 65 route /gps;
#X msg 16 9 port 8890;
#X obj 17 28 udpreceive 8890;
#X msg 908 74 5.13241 52.0785;
#X msg 106 282 0.0008;
#X msg 912 137 5.13256 52.0785;
#X connect 2 0 3 0;
#X connect 4 0 7 0;
#X connect 4 0 10 0;
#X connect 6 0 8 0;
#X connect 6 0 3 0;
#X connect 6 0 43 0;
#X connect 10 0 6 0;
#X connect 10 1 6 1;
#X connect 17 0 18 1;
#X connect 18 0 19 0;
#X connect 19 0 16 0;
#X connect 20 0 19 1;
#X connect 21 0 38 1;
#X connect 22 0 16 0;
#X connect 23 0 22 1;
#X connect 24 0 82 0;
#X connect 25 0 80 0;
#X connect 26 0 39 1;
#X connect 27 0 16 0;
#X connect 28 0 27 1;
#X connect 29 0 83 0;
#X connect 30 0 40 1;
#X connect 31 0 16 0;
#X connect 32 0 31 1;
#X connect 33 0 81 0;
#X connect 34 0 72 0;
#X connect 35 0 69 0;
#X connect 36 0 71 0;
#X connect 37 0 73 0;
#X connect 38 0 22 0;
#X connect 39 0 27 0;
#X connect 40 0 31 0;
#X connect 41 0 79 0;
#X connect 41 0 47 0;
#X connect 43 0 16 0;
#X connect 44 0 45 0;
#X connect 45 0 20 0;
#X connect 45 0 23 0;
#X connect 45 0 28 0;
#X connect 45 0 32 0;
#X connect 45 0 62 0;
#X connect 46 0 43 0;
#X connect 47 0 4 1;
#X connect 55 0 0 0;
#X connect 55 0 57 0;
#X connect 56 0 55 0;
#X connect 58 0 48 0;
#X connect 60 0 65 1;
#X connect 61 0 16 0;
#X connect 62 0 61 1;
#X connect 63 0 90 0;
#X connect 64 0 70 0;
#X connect 65 0 61 0;
#X connect 66 0 55 1;
#X connect 67 0 16 0;
#X connect 69 0 38 0;
#X connect 70 0 65 0;
#X connect 71 0 39 0;
#X connect 72 0 18 0;
#X connect 73 0 40 0;
#X connect 74 0 48 0;
#X connect 75 0 48 0;
#X connect 76 0 48 0;
#X connect 77 0 48 0;
#X connect 78 0 48 0;
#X connect 79 0 4 0;
#X connect 80 0 21 0;
#X connect 81 0 30 0;
#X connect 82 0 17 0;
#X connect 83 0 26 0;
#X connect 84 0 16 0;
#X connect 85 0 86 0;
#X connect 86 0 54 0;
#X connect 86 0 0 0;
#X connect 87 0 88 0;
#X connect 88 0 85 0;
#X connect 89 0 48 0;
#X connect 90 0 60 0;
#X connect 91 0 48 0;
#X restore 150 208 pd zone-gps-biomes;
#X text 267 209 CSD3 2023);
#X connect 0 0 28 0;
#X connect 3 0 4 0;
#X connect 4 0 5 0;
#X connect 5 0 6 0;
#X connect 5 0 55 1;
#X connect 6 0 7 0;
#X connect 6 1 8 0;
#X connect 7 0 49 0;
#X connect 7 0 51 0;
#X connect 8 0 50 0;
#X connect 9 0 10 0;
#X connect 9 0 53 0;
#X connect 10 0 25 0;
#X connect 11 0 25 0;
#X connect 13 0 57 0;
#X connect 14 0 29 0;
#X connect 15 0 36 0;
#X connect 17 0 58 0;
#X connect 17 1 58 1;
#X connect 21 0 23 0;
#X connect 22 0 23 0;
#X connect 23 0 0 0;
#X connect 24 0 48 0;
#X connect 25 0 0 0;
#X connect 26 0 27 0;
#X connect 27 0 25 1;
#X connect 28 0 1 0;
#X connect 29 0 1 1;
#X connect 30 0 28 1;
#X connect 30 0 29 1;
#X connect 31 0 32 0;
#X connect 32 0 30 0;
#X connect 33 0 0 0;
#X connect 34 0 14 0;
#X connect 35 0 43 0;
#X connect 36 0 33 0;
#X connect 36 1 34 0;
#X connect 43 0 36 1;
#X connect 44 0 46 0;
#X connect 45 0 47 0;
#X connect 46 0 33 0;
#X connect 46 1 34 0;
#X connect 47 0 46 1;
#X connect 48 0 23 1;
#X connect 49 0 22 0;
#X connect 50 0 21 0;
#X connect 51 0 44 0;
#X connect 51 1 15 0;
#X connect 53 0 11 0;
#X connect 54 0 17 0;
#X connect 56 0 55 0;
#X connect 57 0 12 0;
#X connect 57 1 59 0;
#X connect 57 2 60 0;
#X connect 59 0 54 0;
#X connect 59 0 62 0;
#X connect 60 0 56 0;
#X connect 61 0 58 0;
#X connect 62 0 61 1;
#X connect 63 0 58 0;
#X connect 63 0 58 1;
