#N canvas 0 25 1440 770 10;
#X declare -path mrpeach;
#X obj 420 527 +~;
#X obj 419 631 dac~;
#X text 8 7 sonic kayak zone mixer;
#X msg 396 43 port 8888;
#X obj 395 72 udpreceive 8888;
#X obj 396 97 unpackOSC;
#X obj 424 132 route /entered-zone /left-zone;
#X obj 423 159 unpack s;
#X obj 511 159 unpack s;
#X obj 708 372 loadbang;
#X msg 708 396 1;
#X msg 740 418 0;
#X msg 6 84 \; pd dsp 1;
#X obj 7 26 loadbang;
#X obj 465 527 +~;
#X msg 608 291 1;
#X text 715 347 startup sound;
#X obj 3 150 zone-gps-sense;
#N canvas 0 50 450 250 (subpatch) 0;
#X array out 100 float 3;
#A 0 0 0 0 0 0 0 0 0 0 0 0 0 0 0 0 0 0 0 0 0 0 0 0 0 0 0 0 0 0 0 0 0 0 0 0 0 0 0 0 0 0 0 0 0 0 0 0 0 0 0 0 0 0 0 0 0 0 0 0 0 0 0 0 0 0 0 0 0 0 0 0 0 0 0 0 0 0 0 0 0 0 0 0 0 0 0 0 0 0 0 0 0 0 0 0 0 0 0 0 0;
#X coords 0 1 99 -1 200 140 1;
#X restore 952 49 graph;
#X text 217 29 continuously playing things, f 13;
#X text 393 23 input from swamp zone system;
#X msg 455 276 0;
#X msg 424 275 1;
#X obj 424 346 loop;
#X obj 459 301 loadbang;
#X obj 708 460 loop;
#X obj 773 418 loadbang;
#X msg 775 438 _ ../sound/kayaks.wav;
#X obj 419 594 *~;
#X obj 465 594 *~;
#X floatatom 507 570 5 0 0 0 - - - 0;
#X obj 506 526 loadbang;
#X msg 506 548 4;
#X obj 608 343 +~;
#X obj 634 343 +~;
#X obj 647 310 loadbang;
#X obj 608 310 1shot;
#X msg 1035 230 1;
#X msg 1068 231 1;
#X msg 1065 279 _ ../sound/lz7.wav;
#X msg 1065 300 _ ../sound/lz8.wav;
#X msg 1069 325 _ ../sound/lz9.wav;
#X msg 1064 350 _ ../sound/lz10.wav;
#X msg 713 310 _ ../sound/duck.wav;
#X msg 609 250 1;
#X obj 648 269 loadbang;
#X obj 609 269 1shot;
#X msg 714 269 _ ../sound/pulse_fat.wav;
#X msg 461 320 _ ../sound/welcome.wav;
#X obj 423 213 select start;
#X obj 455 241 select start;
#X obj 608 226 select duck hydro;
#X obj 721 45 declare -path mrpeach;
#X obj 740 396 delay 10000;
#X obj 4 125 tgl 15 0 empty empty empty 17 7 0 10 #fcfcfc #000000 #000000 0 1;
#X obj 142 143 soundscape/_main-soundscape, f 35;
#X obj 142 121 tgl 15 0 empty empty empty 17 7 0 10 #fcfcfc #000000 #000000 0 1;
#X obj 6 53 t b b b, f 19;
#X obj 3 331 dac~;
#X msg 85 99 1;
#X msg 116 98 0;
#N canvas 25 63 1322 597 zone-gps-biomes 1;
#X obj 15 134 s live_loc;
#X text 9 151 Sends to geo_calc_dist_in_range, f 14;
#X obj 601 156 s reset;
#N canvas 308 93 818 702 geo_calc_dist_in_range 0;
#X obj 199 6 inlet;
#X text 241 6 Loc;
#X obj 207 343 outlet;
#X obj 17 39 unpack f f, f 15;
#X floatatom 17 101 9 0 0 0 - - - 0;
#X floatatom 118 101 8 0 0 0 - - - 0;
#X obj 199 39 unpack f f;
#X floatatom 200 101 7 0 0 0 - - - 0;
#X floatatom 268 101 7 0 0 0 - - - 0;
#X obj 17 212 expr pow(pow($f1 \, 2) + pow($f2 \, 2) \, 0.5);
#X floatatom 17 180 5 0 0 0 - - - 0;
#X floatatom 293 176 13 0 0 0 - - - 0;
#X obj 17 133 expr abs($f1 - $f3) \; abs($f2 - $f4), f 40;
#X text 310 139 Absolute value of dist between the x and y;
#X obj 317 6 inlet;
#X text 359 7 Range;
#X obj 20 276 expr if($f1 < $f2 \, 1 \, 0) \; if($f1 < $f2 \, $f1 \, 0), f 26;
#X obj 22 347 outlet;
#X floatatom 43 243 10 0 0 0 - - - 0;
#X text 119 242 Distance;
#X text 311 211 Pythagoras;
#X text 62 179 Distance x;
#X text 404 178 Distance y;
#X text 261 345 Distance > 0;
#X obj 16 7 r live_loc;
#X text 75 344 In Range 0 = no 1 = yes, f 8;
#X floatatom 376 47 5 0 0 0 - - - 0;
#X floatatom 256 309 22 0 0 0 - - - 0;
#X text 13 415 This abstraction patch is the bread and butter of the whole patch. It checks the distance between the current live location (return live_loc) and the set location (inlet 1) and returns if it is in range (outlet 1) and the distance (outlet 2).;
#X connect 0 0 6 0;
#X connect 3 0 4 0;
#X connect 3 1 5 0;
#X connect 4 0 12 0;
#X connect 5 0 12 1;
#X connect 6 0 7 0;
#X connect 6 1 8 0;
#X connect 7 0 12 2;
#X connect 8 0 12 3;
#X connect 9 0 16 0;
#X connect 9 0 18 0;
#X connect 10 0 9 0;
#X connect 11 0 9 1;
#X connect 12 0 10 0;
#X connect 12 1 11 0;
#X connect 14 0 16 1;
#X connect 14 0 26 0;
#X connect 16 0 17 0;
#X connect 16 1 2 0;
#X connect 16 1 27 0;
#X connect 24 0 3 0;
#X restore 598 57 pd geo_calc_dist_in_range;
#X text 765 58 in 1: loc|in 2: range|out 1: in rage [0 \, 1]|out2: dist;
#X obj 602 128 onebang;
#X floatatom 671 83 5 0 0 0 - - - 0;
#X text 920 31 location and range for reset point;
#X obj 602 101 sel 1 0, f 14;
#X text 710 82 0 = out or range \, 1 = in range;
#X text 185 165 Global reset;
#X text 127 369 out1: biome audio;
#X obj 20 550 outlet~;
#X floatatom 677 302 5 0 0 0 - - - 0;
#N canvas 560 106 854 632 biome_desert 0;
#N canvas 726 112 506 313 counter 0;
#X text 60 10 Bang for +1;
#X obj 13 168 int 1;
#X msg 154 61 0;
#X obj 61 168 + 1;
#X obj 13 198 outlet;
#X text 71 199 The count;
#X obj 13 102 metro 1000;
#X obj 13 75 tgl 15 0 empty empty empty 17 7 0 10 #fcfcfc #000000 #000000 0 1;
#X obj 156 28 r reset;
#X obj 13 47 inlet;
#X connect 1 0 3 0;
#X connect 1 0 4 0;
#X connect 2 0 1 0;
#X connect 3 0 1 1;
#X connect 6 0 1 0;
#X connect 7 0 6 0;
#X connect 8 0 2 0;
#X connect 9 0 7 0;
#X restore 17 383 pd counter;
#X floatatom 17 414 4 0 0 0 - - - 0;
#X floatatom 213 186 5 0 0 0 - - - 0;
#X text 380 137 Takes distance and maps and scales it to gainvalue;
#N canvas 847 1678 818 702 geo_calc_dist_in_range 0;
#X obj 199 6 inlet;
#X text 241 6 Loc;
#X obj 207 343 outlet;
#X obj 17 39 unpack f f, f 15;
#X floatatom 17 101 9 0 0 0 - - - 0;
#X floatatom 118 101 8 0 0 0 - - - 0;
#X obj 199 39 unpack f f;
#X floatatom 200 101 7 0 0 0 - - - 0;
#X floatatom 268 101 7 0 0 0 - - - 0;
#X obj 17 212 expr pow(pow($f1 \, 2) + pow($f2 \, 2) \, 0.5);
#X floatatom 17 180 5 0 0 0 - - - 0;
#X floatatom 293 176 13 0 0 0 - - - 0;
#X obj 17 133 expr abs($f1 - $f3) \; abs($f2 - $f4), f 40;
#X text 310 139 Absolute value of dist between the x and y;
#X obj 317 6 inlet;
#X text 359 7 Range;
#X obj 22 347 outlet;
#X floatatom 43 243 10 0 0 0 - - - 0;
#X text 119 242 Distance;
#X text 311 211 Pythagoras;
#X text 62 179 Distance x;
#X text 404 178 Distance y;
#X text 261 345 Distance > 0;
#X obj 16 7 r live_loc;
#X text 75 344 In Range 0 = no 1 = yes, f 29;
#X obj 20 276 expr if($f1 < $f2 \, 1 \, 0) \; if($f1 < $f2 \, $f1 \, $f2), f 26;
#X connect 0 0 6 0;
#X connect 3 0 4 0;
#X connect 3 1 5 0;
#X connect 4 0 12 0;
#X connect 5 0 12 1;
#X connect 6 0 7 0;
#X connect 6 1 8 0;
#X connect 7 0 12 2;
#X connect 8 0 12 3;
#X connect 9 0 17 0;
#X connect 9 0 25 0;
#X connect 10 0 9 0;
#X connect 11 0 9 1;
#X connect 12 0 10 0;
#X connect 12 1 11 0;
#X connect 14 0 25 1;
#X connect 23 0 3 0;
#X connect 25 0 16 0;
#X connect 25 1 2 0;
#X restore 11 64 pd geo_calc_dist_in_range;
#X floatatom 11 97 5 0 0 0 - - - 0;
#X floatatom 210 105 5 0 0 0 - - - 0;
#X obj 12 6 inlet;
#X obj 235 2 inlet;
#X text 58 7 Loc Biome;
#X text 282 3 Range Biome;
#X text 50 414 Time elapsed in sec;
#X obj 22 499 outlet~;
#X text 83 499 Audio bus for biome;
#X text 257 170 Scaled gainvalue to atmosphere player;
#X text 48 98 In Range 0 = no 1 = yes, f 9;
#X text 243 62 in 1: biome location \, in 2 biome range \, out1: in range state \, out 2: distance;
#X text 254 105 Distance (values greater then range are filtered);
#X floatatom 234 29 5 0 0 0 - - - 0;
#X text 314 188 in 1: location of trigger in 2: range of trigger in 3: Bang the sample out 1: audio of sampler, f 25;
#X obj 12 133 change;
#N canvas 199 152 1124 708 looper_desert 0;
#X obj 36 32 inlet;
#X obj 36 65 sel 0 1;
#X obj 35 260 outlet~;
#X text 85 32 state** = 0 = OOB or 1 = IB;
#X obj 35 186 readsf~;
#X msg 36 111 0;
#X msg 79 141 1;
#X text 103 162 sample that needs to be played;
#X obj 79 110 t b b;
#X msg 112 141 open desert.wav;
#X connect 0 0 1 0;
#X connect 1 0 5 0;
#X connect 1 1 8 0;
#X connect 4 0 2 0;
#X connect 4 1 8 0;
#X connect 5 0 4 0;
#X connect 6 0 4 0;
#X connect 8 0 6 0;
#X connect 8 1 9 0;
#X connect 9 0 4 0;
#X restore 31 185 pd looper_desert;
#X obj 32 350 *~, f 30;
#X obj 239 323 line;
#X obj 239 299 pack f f;
#X obj 290 254 loadbang;
#N canvas 227 222 875 487 0-delay 0;
#X obj 7 17 inlet;
#X obj 14 250 outlet;
#X obj 7 46 route 0;
#X obj 8 85 t 0 b;
#X msg 50 129 clear;
#X obj 4 172 pipe 6000;
#X connect 0 0 2 0;
#X connect 2 0 3 0;
#X connect 2 1 1 0;
#X connect 2 1 4 0;
#X connect 3 0 5 0;
#X connect 3 1 4 0;
#X connect 4 0 5 0;
#X connect 5 0 1 0;
#X restore 22 160 pd 0-delay;
#X floatatom 165 181 5 0 0 0 - - - 0;
#X msg 290 277 6000;
#X floatatom 325 388 5 0 0 0 - - - 0;
#X obj 240 276 change;
#N canvas 527 205 450 300 geo_calc_gainvalue 0;
#X obj 15 12 inlet;
#X obj 140 12 inlet;
#X text 61 11 Distance;
#N canvas 63 88 686 391 map 0;
#X obj 203 75 inlet;
#X obj 263 75 inlet;
#X obj 317 75 inlet;
#X obj 377 75 inlet;
#X obj 417 75 inlet;
#X obj 194 308 outlet;
#X text 270 59 lo;
#X text 324 59 hi;
#X text 384 59 lo;
#X text 424 59 hi;
#X obj 254 134 f \$1;
#X obj 308 134 f \$2;
#X obj 368 134 f \$3;
#X obj 408 134 f \$4;
#X obj 194 173 -;
#X obj 273 185 -;
#X obj 254 156 t f b f;
#X obj 194 202 /;
#X text 234 42 from;
#X text 347 40 to;
#X obj 194 246 *;
#X obj 194 274 +;
#X obj 387 185 -;
#X obj 368 156 t f b f;
#X text 53 176 subtract offset 1;
#X text 55 203 divide by range 1;
#X text 43 250 multiply by range 2;
#X text 85 274 add offset 2;
#X obj 493 58 loadbang;
#X obj 493 80 t b b b b;
#X obj 194 134 f;
#X text 399 39 initialize from arguments, f 36;
#X connect 0 0 30 0;
#X connect 1 0 10 0;
#X connect 2 0 11 0;
#X connect 3 0 12 0;
#X connect 4 0 13 0;
#X connect 10 0 16 0;
#X connect 11 0 15 0;
#X connect 12 0 23 0;
#X connect 13 0 22 0;
#X connect 14 0 17 0;
#X connect 15 0 17 1;
#X connect 16 0 14 1;
#X connect 16 1 15 0;
#X connect 16 2 15 1;
#X connect 17 0 20 0;
#X connect 20 0 21 0;
#X connect 21 0 5 0;
#X connect 22 0 20 1;
#X connect 23 0 21 1;
#X connect 23 1 22 0;
#X connect 23 2 22 1;
#X connect 28 0 29 0;
#X connect 29 0 10 0;
#X connect 29 1 11 0;
#X connect 29 2 12 0;
#X connect 29 3 13 0;
#X connect 30 0 14 0;
#X restore 15 154 pd map;
#X obj 261 82 loadbang;
#X msg 261 110 1;
#X msg 79 121 0;
#X floatatom 15 182 5 0 0 0 - - - 0;
#X text 192 11 Range;
#X obj 15 237 outlet;
#X text 78 239 Gain Value Scaled;
#X text 78 184 Mapped Value;
#X text 282 152 Map to [0.0 \, 1.0], f 23;
#X obj 14 209 expr 1 - $f1;
#X floatatom 291 250 5 0 0 0 - - - 0;
#X connect 0 0 3 0;
#X connect 1 0 3 2;
#X connect 3 0 7 0;
#X connect 4 0 6 0;
#X connect 4 0 5 0;
#X connect 5 0 3 4;
#X connect 6 0 3 1;
#X connect 6 0 3 3;
#X connect 7 0 13 0;
#X connect 13 0 9 0;
#X restore 210 137 pd geo_calc_gainvalue;
#X obj 20 454 fx;
#X connect 0 0 1 0;
#X connect 1 0 32 0;
#X connect 2 0 30 0;
#X connect 4 0 5 0;
#X connect 4 1 6 0;
#X connect 5 0 20 0;
#X connect 6 0 31 0;
#X connect 7 0 4 0;
#X connect 8 0 18 0;
#X connect 18 0 4 1;
#X connect 18 0 31 1;
#X connect 20 0 0 0;
#X connect 20 0 26 0;
#X connect 21 0 22 0;
#X connect 22 0 32 1;
#X connect 23 0 22 1;
#X connect 23 0 29 0;
#X connect 24 0 23 0;
#X connect 25 0 28 0;
#X connect 26 0 21 0;
#X connect 26 0 27 0;
#X connect 28 0 24 1;
#X connect 30 0 24 0;
#X connect 31 0 2 0;
#X connect 32 0 12 0;
#X restore 592 329 pd biome_desert;
#X obj 590 383 *~ \$1;
#X obj 616 356 tgl 15 0 empty empty empty 17 7 0 10 #fcfcfc #000000 #000000 0 1;
#X floatatom 304 308 5 0 0 0 - - - 0;
#X obj 201 382 *~ \$1;
#X obj 227 355 tgl 15 0 empty empty empty 17 7 0 10 #fcfcfc #000000 #000000 0 1;
#X obj 676 258 loadbang;
#X obj 285 257 loadbang;
#X floatatom 507 301 5 0 0 0 - - - 0;
#X obj 420 382 *~ \$1;
#X obj 446 355 tgl 15 0 empty empty empty 17 7 0 10 #fcfcfc #000000 #000000 0 1;
#X obj 504 257 loadbang;
#X floatatom 827 302 5 0 0 0 - - - 0;
#X obj 740 383 *~ \$1;
#X obj 766 356 tgl 15 0 empty empty empty 17 7 0 10 #fcfcfc #000000 #000000 0 1;
#X obj 824 258 loadbang;
#X obj 589 207 loadbang;
#X obj 203 209 loadbang;
#X obj 419 207 loadbang;
#X obj 742 211 loadbang;
#N canvas 168 195 817 498 biome_jungle 0;
#N canvas 726 112 506 313 counter 0;
#X text 60 10 Bang for +1;
#X obj 13 168 int 1;
#X msg 154 61 0;
#X obj 61 168 + 1;
#X obj 13 198 outlet;
#X text 71 199 The count;
#X obj 13 102 metro 1000;
#X obj 13 75 tgl 15 0 empty empty empty 17 7 0 10 #fcfcfc #000000 #000000 0 1;
#X obj 156 28 r reset;
#X obj 13 47 inlet;
#X connect 1 0 3 0;
#X connect 1 0 4 0;
#X connect 2 0 1 0;
#X connect 3 0 1 1;
#X connect 6 0 1 0;
#X connect 7 0 6 0;
#X connect 8 0 2 0;
#X connect 9 0 7 0;
#X restore 17 383 pd counter;
#X floatatom 17 414 4 0 0 0 - - - 0;
#X floatatom 210 170 5 0 0 0 - - - 0;
#X text 380 137 Takes distance and maps and scales it to gainvalue;
#N canvas 394 202 818 702 geo_calc_dist_in_range 0;
#X obj 199 6 inlet;
#X text 241 6 Loc;
#X obj 207 343 outlet;
#X obj 17 39 unpack f f, f 15;
#X floatatom 17 101 9 0 0 0 - - - 0;
#X floatatom 118 101 8 0 0 0 - - - 0;
#X obj 199 39 unpack f f;
#X floatatom 200 101 7 0 0 0 - - - 0;
#X floatatom 268 101 7 0 0 0 - - - 0;
#X obj 17 212 expr pow(pow($f1 \, 2) + pow($f2 \, 2) \, 0.5);
#X floatatom 17 180 5 0 0 0 - - - 0;
#X floatatom 293 176 13 0 0 0 - - - 0;
#X obj 17 133 expr abs($f1 - $f3) \; abs($f2 - $f4), f 40;
#X text 310 139 Absolute value of dist between the x and y;
#X obj 317 6 inlet;
#X text 359 7 Range;
#X obj 22 347 outlet;
#X floatatom 43 243 10 0 0 0 - - - 0;
#X text 119 242 Distance;
#X text 311 211 Pythagoras;
#X text 62 179 Distance x;
#X text 404 178 Distance y;
#X text 261 345 Distance > 0;
#X obj 16 7 r live_loc;
#X text 75 344 In Range 0 = no 1 = yes, f 29;
#X obj 20 276 expr if($f1 < $f2 \, 1 \, 0) \; if($f1 < $f2 \, $f1 \, $f2), f 26;
#X connect 0 0 6 0;
#X connect 3 0 4 0;
#X connect 3 1 5 0;
#X connect 4 0 12 0;
#X connect 5 0 12 1;
#X connect 6 0 7 0;
#X connect 6 1 8 0;
#X connect 7 0 12 2;
#X connect 8 0 12 3;
#X connect 9 0 17 0;
#X connect 9 0 25 0;
#X connect 10 0 9 0;
#X connect 11 0 9 1;
#X connect 12 0 10 0;
#X connect 12 1 11 0;
#X connect 14 0 25 1;
#X connect 23 0 3 0;
#X connect 25 0 16 0;
#X connect 25 1 2 0;
#X restore 11 64 pd geo_calc_dist_in_range;
#X floatatom 11 97 5 0 0 0 - - - 0;
#X floatatom 210 105 5 0 0 0 - - - 0;
#X obj 12 6 inlet;
#X obj 235 2 inlet;
#X text 58 7 Loc Biome;
#X text 282 3 Range Biome;
#X text 50 414 Time elapsed in sec;
#X obj 23 522 outlet~;
#X text 84 522 Audio bus for biome;
#X text 257 170 Scaled gainvalue to atmosphere player;
#X text 48 98 In Range 0 = no 1 = yes, f 9;
#X text 243 62 in 1: biome location \, in 2 biome range \, out1: in range state \, out 2: distance;
#X text 254 105 Distance (values greater then range are filtered);
#X floatatom 234 29 5 0 0 0 - - - 0;
#X text 365 205 in 1: location of trigger in 2: range of trigger in 3: Bang the sample out 1: audio of sampler, f 25;
#X obj 8 136 change;
#X obj 30 350 *~, f 30;
#N canvas 215 289 1124 708 looper_jungle 0;
#X obj 36 32 inlet;
#X obj 36 65 sel 0 1;
#X obj 35 260 outlet~;
#X text 85 32 state** = 0 = OOB or 1 = IB;
#X obj 35 186 readsf~;
#X msg 36 111 0;
#X msg 79 141 1;
#X text 103 162 sample that needs to be played;
#X obj 79 110 t b b;
#X msg 112 141 open jungle.wav;
#X connect 0 0 1 0;
#X connect 1 0 5 0;
#X connect 1 1 8 0;
#X connect 4 0 2 0;
#X connect 4 1 8 0;
#X connect 5 0 4 0;
#X connect 6 0 4 0;
#X connect 8 0 6 0;
#X connect 8 1 9 0;
#X connect 9 0 4 0;
#X restore 31 185 pd looper_jungle;
#N canvas 227 222 875 487 0-delay 0;
#X obj 7 17 inlet;
#X obj 14 250 outlet;
#X obj 7 46 route 0;
#X obj 8 85 t 0 b;
#X msg 50 129 clear;
#X obj 4 172 pipe 6000;
#X connect 0 0 2 0;
#X connect 2 0 3 0;
#X connect 2 1 1 0;
#X connect 2 1 4 0;
#X connect 3 0 5 0;
#X connect 3 1 4 0;
#X connect 4 0 5 0;
#X connect 5 0 1 0;
#X restore 31 160 pd 0-delay;
#X obj 243 327 line;
#X obj 243 303 pack f f;
#X obj 294 258 loadbang;
#X msg 294 281 6000;
#X floatatom 263 376 5 0 0 0 - - - 0;
#X obj 232 252 change;
#N canvas 527 205 450 300 geo_calc_gainvalue 0;
#X obj 15 12 inlet;
#X obj 140 12 inlet;
#X text 61 11 Distance;
#N canvas 63 88 686 391 map 0;
#X obj 203 75 inlet;
#X obj 263 75 inlet;
#X obj 317 75 inlet;
#X obj 377 75 inlet;
#X obj 417 75 inlet;
#X obj 194 308 outlet;
#X text 270 59 lo;
#X text 324 59 hi;
#X text 384 59 lo;
#X text 424 59 hi;
#X obj 254 134 f \$1;
#X obj 308 134 f \$2;
#X obj 368 134 f \$3;
#X obj 408 134 f \$4;
#X obj 194 173 -;
#X obj 273 185 -;
#X obj 254 156 t f b f;
#X obj 194 202 /;
#X text 234 42 from;
#X text 347 40 to;
#X obj 194 246 *;
#X obj 194 274 +;
#X obj 387 185 -;
#X obj 368 156 t f b f;
#X text 53 176 subtract offset 1;
#X text 55 203 divide by range 1;
#X text 43 250 multiply by range 2;
#X text 85 274 add offset 2;
#X obj 493 58 loadbang;
#X obj 493 80 t b b b b;
#X obj 194 134 f;
#X text 399 39 initialize from arguments, f 36;
#X connect 0 0 30 0;
#X connect 1 0 10 0;
#X connect 2 0 11 0;
#X connect 3 0 12 0;
#X connect 4 0 13 0;
#X connect 10 0 16 0;
#X connect 11 0 15 0;
#X connect 12 0 23 0;
#X connect 13 0 22 0;
#X connect 14 0 17 0;
#X connect 15 0 17 1;
#X connect 16 0 14 1;
#X connect 16 1 15 0;
#X connect 16 2 15 1;
#X connect 17 0 20 0;
#X connect 20 0 21 0;
#X connect 21 0 5 0;
#X connect 22 0 20 1;
#X connect 23 0 21 1;
#X connect 23 1 22 0;
#X connect 23 2 22 1;
#X connect 28 0 29 0;
#X connect 29 0 10 0;
#X connect 29 1 11 0;
#X connect 29 2 12 0;
#X connect 29 3 13 0;
#X connect 30 0 14 0;
#X restore 15 154 pd map;
#X obj 261 82 loadbang;
#X msg 261 110 1;
#X msg 79 121 0;
#X floatatom 15 182 5 0 0 0 - - - 0;
#X text 192 11 Range;
#X obj 15 237 outlet;
#X text 78 239 Gain Value Scaled;
#X text 78 184 Mapped Value;
#X text 282 152 Map to [0.0 \, 1.0], f 23;
#X obj 14 209 expr 1 - $f1;
#X floatatom 291 250 5 0 0 0 - - - 0;
#X connect 0 0 3 0;
#X connect 1 0 3 2;
#X connect 3 0 7 0;
#X connect 4 0 6 0;
#X connect 4 0 5 0;
#X connect 5 0 3 4;
#X connect 6 0 3 1;
#X connect 6 0 3 3;
#X connect 7 0 13 0;
#X connect 13 0 9 0;
#X restore 210 137 pd geo_calc_gainvalue;
#X obj 22 473 fx;
#X connect 0 0 1 0;
#X connect 1 0 31 0;
#X connect 2 0 29 0;
#X connect 4 0 5 0;
#X connect 4 1 6 0;
#X connect 5 0 20 0;
#X connect 6 0 30 0;
#X connect 7 0 4 0;
#X connect 8 0 18 0;
#X connect 18 0 4 1;
#X connect 18 0 30 1;
#X connect 20 0 0 0;
#X connect 20 0 23 0;
#X connect 21 0 31 1;
#X connect 22 0 21 0;
#X connect 23 0 22 0;
#X connect 24 0 21 1;
#X connect 24 0 28 0;
#X connect 25 0 24 0;
#X connect 26 0 27 0;
#X connect 27 0 25 1;
#X connect 29 0 25 0;
#X connect 30 0 2 0;
#X connect 31 0 12 0;
#X restore 201 328 pd biome_jungle;
#N canvas 285 149 817 498 biome_space 0;
#N canvas 726 112 506 313 counter 0;
#X text 60 10 Bang for +1;
#X obj 13 168 int 1;
#X msg 154 61 0;
#X obj 61 168 + 1;
#X obj 13 198 outlet;
#X text 71 199 The count;
#X obj 13 102 metro 1000;
#X obj 13 75 tgl 15 0 empty empty empty 17 7 0 10 #fcfcfc #000000 #000000 0 1;
#X obj 156 28 r reset;
#X obj 13 47 inlet;
#X connect 1 0 3 0;
#X connect 1 0 4 0;
#X connect 2 0 1 0;
#X connect 3 0 1 1;
#X connect 6 0 1 0;
#X connect 7 0 6 0;
#X connect 8 0 2 0;
#X connect 9 0 7 0;
#X restore 17 383 pd counter;
#X floatatom 17 414 4 0 0 0 - - - 0;
#X floatatom 210 170 5 0 0 0 - - - 0;
#X text 380 137 Takes distance and maps and scales it to gainvalue;
#N canvas 268 143 818 702 geo_calc_dist_in_range 0;
#X obj 199 6 inlet;
#X text 241 6 Loc;
#X obj 207 343 outlet;
#X obj 17 39 unpack f f, f 15;
#X floatatom 17 101 9 0 0 0 - - - 0;
#X floatatom 118 101 8 0 0 0 - - - 0;
#X obj 199 39 unpack f f;
#X floatatom 200 101 7 0 0 0 - - - 0;
#X floatatom 268 101 7 0 0 0 - - - 0;
#X obj 17 212 expr pow(pow($f1 \, 2) + pow($f2 \, 2) \, 0.5);
#X floatatom 17 180 5 0 0 0 - - - 0;
#X floatatom 293 176 13 0 0 0 - - - 0;
#X obj 17 133 expr abs($f1 - $f3) \; abs($f2 - $f4), f 40;
#X text 310 139 Absolute value of dist between the x and y;
#X obj 317 6 inlet;
#X text 359 7 Range;
#X obj 22 347 outlet;
#X floatatom 43 243 10 0 0 0 - - - 0;
#X text 119 242 Distance;
#X text 311 211 Pythagoras;
#X text 62 179 Distance x;
#X text 404 178 Distance y;
#X text 261 345 Distance > 0;
#X obj 16 7 r live_loc;
#X text 75 344 In Range 0 = no 1 = yes, f 29;
#X obj 20 276 expr if($f1 < $f2 \, 1 \, 0) \; if($f1 < $f2 \, $f1 \, $f2), f 26;
#X connect 0 0 6 0;
#X connect 3 0 4 0;
#X connect 3 1 5 0;
#X connect 4 0 12 0;
#X connect 5 0 12 1;
#X connect 6 0 7 0;
#X connect 6 1 8 0;
#X connect 7 0 12 2;
#X connect 8 0 12 3;
#X connect 9 0 17 0;
#X connect 9 0 25 0;
#X connect 10 0 9 0;
#X connect 11 0 9 1;
#X connect 12 0 10 0;
#X connect 12 1 11 0;
#X connect 14 0 25 1;
#X connect 23 0 3 0;
#X connect 25 0 16 0;
#X connect 25 1 2 0;
#X restore 11 64 pd geo_calc_dist_in_range;
#X floatatom 11 97 5 0 0 0 - - - 0;
#X floatatom 210 105 5 0 0 0 - - - 0;
#X obj 12 6 inlet;
#X obj 235 2 inlet;
#X text 58 7 Loc Biome;
#X text 282 3 Range Biome;
#X text 50 414 Time elapsed in sec;
#X obj 18 576 outlet~;
#X text 79 576 Audio bus for biome;
#X text 257 170 Scaled gainvalue to atmosphere player;
#X text 48 98 In Range 0 = no 1 = yes, f 9;
#X text 243 62 in 1: biome location \, in 2 biome range \, out1: in range state \, out 2: distance;
#X text 254 105 Distance (values greater then range are filtered);
#X floatatom 234 29 5 0 0 0 - - - 0;
#X text 390 211 in 1: location of trigger in 2: range of trigger in 3: Bang the sample out 1: audio of sampler, f 25;
#X obj 12 156 change;
#X obj 32 350 *~, f 30;
#N canvas 316 50 1124 770 looper_space 0;
#X obj 36 32 inlet;
#X obj 36 65 sel 0 1;
#X obj 35 260 outlet~;
#X text 85 32 state** = 0 = OOB or 1 = IB;
#X obj 35 186 readsf~;
#X msg 36 111 0;
#X msg 79 141 1;
#X text 103 162 sample that needs to be played;
#X obj 79 110 t b b;
#X msg 112 141 open space.wav;
#X connect 0 0 1 0;
#X connect 1 0 5 0;
#X connect 1 1 8 0;
#X connect 4 0 2 0;
#X connect 4 1 8 0;
#X connect 5 0 4 0;
#X connect 6 0 4 0;
#X connect 8 0 6 0;
#X connect 8 1 9 0;
#X connect 9 0 4 0;
#X restore 31 200 pd looper_space;
#N canvas 182 260 875 487 0-delay 0;
#X obj 7 17 inlet;
#X obj 14 250 outlet;
#X obj 7 46 route 0;
#X obj 8 85 t 0 b;
#X msg 50 129 clear;
#X obj 4 172 pipe 6000;
#X connect 0 0 2 0;
#X connect 2 0 3 0;
#X connect 2 1 1 0;
#X connect 2 1 4 0;
#X connect 3 0 5 0;
#X connect 3 1 4 0;
#X connect 4 0 5 0;
#X connect 5 0 1 0;
#X restore 30 178 pd 0-delay;
#X obj 239 324 line;
#X obj 239 299 pack f f;
#X obj 290 254 loadbang;
#X msg 290 277 6000;
#X floatatom 280 366 5 0 0 0 - - - 0;
#X text 39 39 comment;
#X obj 238 224 change;
#N canvas 527 205 450 300 geo_calc_gainvalue 0;
#X obj 15 12 inlet;
#X obj 140 12 inlet;
#X text 61 11 Distance;
#N canvas 63 88 686 391 map 0;
#X obj 203 75 inlet;
#X obj 263 75 inlet;
#X obj 317 75 inlet;
#X obj 377 75 inlet;
#X obj 417 75 inlet;
#X obj 194 308 outlet;
#X text 270 59 lo;
#X text 324 59 hi;
#X text 384 59 lo;
#X text 424 59 hi;
#X obj 254 134 f \$1;
#X obj 308 134 f \$2;
#X obj 368 134 f \$3;
#X obj 408 134 f \$4;
#X obj 194 173 -;
#X obj 273 185 -;
#X obj 254 156 t f b f;
#X obj 194 202 /;
#X text 234 42 from;
#X text 347 40 to;
#X obj 194 246 *;
#X obj 194 274 +;
#X obj 387 185 -;
#X obj 368 156 t f b f;
#X text 53 176 subtract offset 1;
#X text 55 203 divide by range 1;
#X text 43 250 multiply by range 2;
#X text 85 274 add offset 2;
#X obj 493 58 loadbang;
#X obj 493 80 t b b b b;
#X obj 194 134 f;
#X text 399 39 initialize from arguments, f 36;
#X connect 0 0 30 0;
#X connect 1 0 10 0;
#X connect 2 0 11 0;
#X connect 3 0 12 0;
#X connect 4 0 13 0;
#X connect 10 0 16 0;
#X connect 11 0 15 0;
#X connect 12 0 23 0;
#X connect 13 0 22 0;
#X connect 14 0 17 0;
#X connect 15 0 17 1;
#X connect 16 0 14 1;
#X connect 16 1 15 0;
#X connect 16 2 15 1;
#X connect 17 0 20 0;
#X connect 20 0 21 0;
#X connect 21 0 5 0;
#X connect 22 0 20 1;
#X connect 23 0 21 1;
#X connect 23 1 22 0;
#X connect 23 2 22 1;
#X connect 28 0 29 0;
#X connect 29 0 10 0;
#X connect 29 1 11 0;
#X connect 29 2 12 0;
#X connect 29 3 13 0;
#X connect 30 0 14 0;
#X restore 15 154 pd map;
#X obj 261 82 loadbang;
#X msg 261 110 1;
#X msg 79 121 0;
#X floatatom 15 182 5 0 0 0 - - - 0;
#X text 192 11 Range;
#X obj 15 237 outlet;
#X text 78 239 Gain Value Scaled;
#X text 78 184 Mapped Value;
#X text 282 152 Map to [0.0 \, 1.0], f 23;
#X obj 14 209 expr 1 - $f1;
#X floatatom 291 250 5 0 0 0 - - - 0;
#X connect 0 0 3 0;
#X connect 1 0 3 2;
#X connect 3 0 7 0;
#X connect 4 0 6 0;
#X connect 4 0 5 0;
#X connect 5 0 3 4;
#X connect 6 0 3 1;
#X connect 6 0 3 3;
#X connect 7 0 13 0;
#X connect 13 0 9 0;
#X restore 210 137 pd geo_calc_gainvalue;
#X obj 19 480 fx;
#X obj 17 522 *~ 1.3;
#X text 70 518 Gained a little harder \, the .wav was not so loud.;
#X connect 0 0 1 0;
#X connect 1 0 32 0;
#X connect 2 0 30 0;
#X connect 4 0 5 0;
#X connect 4 1 6 0;
#X connect 5 0 20 0;
#X connect 6 0 31 0;
#X connect 7 0 4 0;
#X connect 8 0 18 0;
#X connect 18 0 4 1;
#X connect 18 0 31 1;
#X connect 20 0 0 0;
#X connect 20 0 23 0;
#X connect 21 0 32 1;
#X connect 22 0 21 0;
#X connect 23 0 22 0;
#X connect 24 0 21 1;
#X connect 24 0 28 0;
#X connect 25 0 24 0;
#X connect 26 0 27 0;
#X connect 27 0 25 1;
#X connect 30 0 25 0;
#X connect 31 0 2 0;
#X connect 32 0 33 0;
#X connect 33 0 12 0;
#X restore 419 326 pd biome_space;
#N canvas 553 210 817 585 biome_ocean 0;
#N canvas 726 112 506 313 counter 0;
#X text 60 10 Bang for +1;
#X obj 13 168 int 1;
#X msg 154 61 0;
#X obj 61 168 + 1;
#X obj 13 198 outlet;
#X text 71 199 The count;
#X obj 13 102 metro 1000;
#X obj 13 75 tgl 15 0 empty empty empty 17 7 0 10 #fcfcfc #000000 #000000 0 1;
#X obj 156 28 r reset;
#X obj 13 47 inlet;
#X connect 1 0 3 0;
#X connect 1 0 4 0;
#X connect 2 0 1 0;
#X connect 3 0 1 1;
#X connect 6 0 1 0;
#X connect 7 0 6 0;
#X connect 8 0 2 0;
#X connect 9 0 7 0;
#X restore 17 383 pd counter;
#X floatatom 17 414 4 0 0 0 - - - 0;
#X floatatom 210 170 5 0 0 0 - - - 0;
#X text 380 137 Takes distance and maps and scales it to gainvalue;
#N canvas 622 93 818 702 geo_calc_dist_in_range 0;
#X obj 199 6 inlet;
#X text 241 6 Loc;
#X obj 207 343 outlet;
#X obj 17 39 unpack f f, f 15;
#X floatatom 17 101 9 0 0 0 - - - 0;
#X floatatom 118 101 8 0 0 0 - - - 0;
#X obj 199 39 unpack f f;
#X floatatom 200 101 7 0 0 0 - - - 0;
#X floatatom 268 101 7 0 0 0 - - - 0;
#X obj 17 212 expr pow(pow($f1 \, 2) + pow($f2 \, 2) \, 0.5);
#X floatatom 17 180 5 0 0 0 - - - 0;
#X floatatom 293 176 13 0 0 0 - - - 0;
#X obj 17 133 expr abs($f1 - $f3) \; abs($f2 - $f4), f 40;
#X text 310 139 Absolute value of dist between the x and y;
#X obj 317 6 inlet;
#X text 359 7 Range;
#X obj 22 347 outlet;
#X floatatom 43 243 10 0 0 0 - - - 0;
#X text 119 242 Distance;
#X text 311 211 Pythagoras;
#X text 62 179 Distance x;
#X text 404 178 Distance y;
#X text 261 345 Distance > 0;
#X obj 16 7 r live_loc;
#X text 75 344 In Range 0 = no 1 = yes, f 29;
#X obj 20 275 expr if($f1 < $f2 \, 1 \, 0) \; if($f1 < $f2 \, $f1 \, $f2), f 26;
#X connect 0 0 6 0;
#X connect 3 0 4 0;
#X connect 3 1 5 0;
#X connect 4 0 12 0;
#X connect 5 0 12 1;
#X connect 6 0 7 0;
#X connect 6 1 8 0;
#X connect 7 0 12 2;
#X connect 8 0 12 3;
#X connect 9 0 17 0;
#X connect 9 0 25 0;
#X connect 10 0 9 0;
#X connect 11 0 9 1;
#X connect 12 0 10 0;
#X connect 12 1 11 0;
#X connect 14 0 25 1;
#X connect 23 0 3 0;
#X connect 25 0 16 0;
#X connect 25 1 2 0;
#X restore 11 64 pd geo_calc_dist_in_range;
#X floatatom 11 97 5 0 0 0 - - - 0;
#X floatatom 210 105 5 0 0 0 - - - 0;
#X obj 12 6 inlet;
#X obj 235 2 inlet;
#X text 58 7 Loc Biome;
#X text 282 3 Range Biome;
#X text 50 414 Time elapsed in sec;
#X obj 19 507 outlet~;
#X text 80 507 Audio bus for biome;
#X text 257 170 Scaled gainvalue to atmosphere player;
#X text 48 98 In Range 0 = no 1 = yes, f 9;
#X text 243 62 in 1: biome location \, in 2 biome range \, out1: in range state \, out 2: distance;
#X text 254 105 Distance (values greater then range are filtered);
#X floatatom 234 29 5 0 0 0 - - - 0;
#X text 336 230 in 1: location of trigger in 2: range of trigger in 3: Bang the sample out 1: audio of sampler, f 25;
#X obj 12 156 change;
#X obj 32 350 *~, f 30;
#N canvas 316 50 1124 770 looper_ocean 0;
#X obj 36 32 inlet;
#X obj 36 65 sel 0 1;
#X obj 35 260 outlet~;
#X text 85 32 state** = 0 = OOB or 1 = IB;
#X obj 35 186 readsf~;
#X msg 36 111 0;
#X msg 79 141 1;
#X text 103 162 sample that needs to be played;
#X obj 79 110 t b b;
#X msg 112 141 open ocean.wav;
#X connect 0 0 1 0;
#X connect 1 0 5 0;
#X connect 1 1 8 0;
#X connect 4 0 2 0;
#X connect 4 1 8 0;
#X connect 5 0 4 0;
#X connect 6 0 4 0;
#X connect 8 0 6 0;
#X connect 8 1 9 0;
#X connect 9 0 4 0;
#X restore 37 205 pd looper_ocean;
#N canvas 207 262 875 487 0-delay 0;
#X obj 7 17 inlet;
#X obj 14 250 outlet;
#X obj 7 46 route 0;
#X obj 8 85 t 0 b;
#X msg 50 129 clear;
#X obj 4 172 pipe 6000;
#X connect 0 0 2 0;
#X connect 2 0 3 0;
#X connect 2 1 1 0;
#X connect 2 1 4 0;
#X connect 3 0 5 0;
#X connect 3 1 4 0;
#X connect 4 0 5 0;
#X connect 5 0 1 0;
#X restore 38 180 pd 0-delay;
#X obj 239 323 line;
#X obj 239 299 pack f f;
#X obj 290 254 loadbang;
#X msg 290 277 6000;
#X obj 227 236 change;
#N canvas 527 205 450 300 geo_calc_gainvalue 0;
#X obj 15 12 inlet;
#X obj 140 12 inlet;
#X text 61 11 Distance;
#N canvas 63 88 686 391 map 0;
#X obj 203 75 inlet;
#X obj 263 75 inlet;
#X obj 317 75 inlet;
#X obj 377 75 inlet;
#X obj 417 75 inlet;
#X obj 194 308 outlet;
#X text 270 59 lo;
#X text 324 59 hi;
#X text 384 59 lo;
#X text 424 59 hi;
#X obj 254 134 f \$1;
#X obj 308 134 f \$2;
#X obj 368 134 f \$3;
#X obj 408 134 f \$4;
#X obj 194 173 -;
#X obj 273 185 -;
#X obj 254 156 t f b f;
#X obj 194 202 /;
#X text 234 42 from;
#X text 347 40 to;
#X obj 194 246 *;
#X obj 194 274 +;
#X obj 387 185 -;
#X obj 368 156 t f b f;
#X text 53 176 subtract offset 1;
#X text 55 203 divide by range 1;
#X text 43 250 multiply by range 2;
#X text 85 274 add offset 2;
#X obj 493 58 loadbang;
#X obj 493 80 t b b b b;
#X obj 194 134 f;
#X text 399 39 initialize from arguments, f 36;
#X connect 0 0 30 0;
#X connect 1 0 10 0;
#X connect 2 0 11 0;
#X connect 3 0 12 0;
#X connect 4 0 13 0;
#X connect 10 0 16 0;
#X connect 11 0 15 0;
#X connect 12 0 23 0;
#X connect 13 0 22 0;
#X connect 14 0 17 0;
#X connect 15 0 17 1;
#X connect 16 0 14 1;
#X connect 16 1 15 0;
#X connect 16 2 15 1;
#X connect 17 0 20 0;
#X connect 20 0 21 0;
#X connect 21 0 5 0;
#X connect 22 0 20 1;
#X connect 23 0 21 1;
#X connect 23 1 22 0;
#X connect 23 2 22 1;
#X connect 28 0 29 0;
#X connect 29 0 10 0;
#X connect 29 1 11 0;
#X connect 29 2 12 0;
#X connect 29 3 13 0;
#X connect 30 0 14 0;
#X restore 15 154 pd map;
#X obj 261 82 loadbang;
#X msg 261 110 1;
#X msg 79 121 0;
#X floatatom 15 182 5 0 0 0 - - - 0;
#X text 192 11 Range;
#X obj 15 237 outlet;
#X text 78 239 Gain Value Scaled;
#X text 78 184 Mapped Value;
#X text 282 152 Map to [0.0 \, 1.0], f 23;
#X obj 14 209 expr 1 - $f1;
#X floatatom 291 250 5 0 0 0 - - - 0;
#X connect 0 0 3 0;
#X connect 1 0 3 2;
#X connect 3 0 7 0;
#X connect 4 0 6 0;
#X connect 4 0 5 0;
#X connect 5 0 3 4;
#X connect 6 0 3 1;
#X connect 6 0 3 3;
#X connect 7 0 13 0;
#X connect 13 0 9 0;
#X restore 210 137 pd geo_calc_gainvalue;
#X obj 18 458 fx, f 5;
#X connect 0 0 1 0;
#X connect 1 0 30 0;
#X connect 2 0 28 0;
#X connect 4 0 5 0;
#X connect 4 1 6 0;
#X connect 5 0 20 0;
#X connect 6 0 29 0;
#X connect 7 0 4 0;
#X connect 8 0 18 0;
#X connect 18 0 4 1;
#X connect 18 0 29 1;
#X connect 20 0 0 0;
#X connect 20 0 23 0;
#X connect 21 0 30 1;
#X connect 22 0 21 0;
#X connect 23 0 22 0;
#X connect 24 0 21 1;
#X connect 25 0 24 0;
#X connect 26 0 27 0;
#X connect 27 0 25 1;
#X connect 28 0 25 0;
#X connect 29 0 2 0;
#X connect 30 0 12 0;
#X restore 740 329 pd biome_ocean;
#X obj 597 5 loadbang;
#X text 714 33 Reset location;
#N canvas 321 118 949 676 reset 0;
#X obj 14 113 readsf~;
#X msg 15 60 start;
#X msg 52 83 open test.wav;
#X obj 15 36 t b b, f 7;
#X obj 15 6 inlet;
#X obj 14 148 outlet~;
#X text 85 6 Patch to play the reset sound.;
#X connect 0 0 5 0;
#X connect 1 0 0 0;
#X connect 2 0 0 0;
#X connect 3 0 1 0;
#X connect 3 1 2 0;
#X connect 4 0 3 0;
#X restore 39 472 pd reset sound;
#X obj 887 310 loadbang;
#X msg 886 338 1;
#X obj 40 443 bng 15 250 50 0 empty empty empty 17 7 0 10 #fcfcfc #000000 #000000;
#X msg 835 27 0.0003;
#X obj 1503 202 s live_loc;
#X text 1652 138 Ocean;
#X text 1638 99 Desert;
#X text 1624 39 Jungle;
#X text 1631 66 Space;
#X text 1612 13 Reset;
#X obj 24 111 print live_loc;
#X obj 353 34 GPSFake;
#X obj 353 14 tgl 16 0 empty empty empty 0 -8 0 10 #fcfcfc #000000 #000000 0 1;
#X obj 353 61 print fake live_loc;
#X msg 1587 175 5.53388 52.1816;
#X text 1691 177 OOB Coord;
#X floatatom 109 302 5 0 0 0 - - - 0;
#X obj 22 383 *~ \$1;
#X obj 48 356 tgl 15 0 empty empty empty 17 7 0 10 #fcfcfc #000000 #000000 0 1;
#X obj 108 258 loadbang;
#X obj 21 207 loadbang;
#N canvas 359 88 854 632 biome_reset 0;
#N canvas 726 112 506 313 counter 0;
#X text 60 10 Bang for +1;
#X obj 13 168 int 1;
#X msg 154 61 0;
#X obj 61 168 + 1;
#X obj 13 198 outlet;
#X text 71 199 The count;
#X obj 13 102 metro 1000;
#X obj 13 75 tgl 15 0 empty empty empty 17 7 0 10 #fcfcfc #000000 #000000 0 1;
#X obj 156 28 r reset;
#X obj 13 47 inlet;
#X connect 1 0 3 0;
#X connect 1 0 4 0;
#X connect 2 0 1 0;
#X connect 3 0 1 1;
#X connect 6 0 1 0;
#X connect 7 0 6 0;
#X connect 8 0 2 0;
#X connect 9 0 7 0;
#X restore 17 383 pd counter;
#X floatatom 17 414 4 0 0 0 - - - 0;
#X floatatom 213 186 5 0 0 0 - - - 0;
#X text 380 137 Takes distance and maps and scales it to gainvalue;
#N canvas 470 167 818 702 geo_calc_dist_in_range 0;
#X obj 199 6 inlet;
#X text 241 6 Loc;
#X obj 207 343 outlet;
#X obj 17 39 unpack f f, f 15;
#X floatatom 17 101 9 0 0 0 - - - 0;
#X floatatom 118 101 8 0 0 0 - - - 0;
#X obj 199 39 unpack f f;
#X floatatom 200 101 7 0 0 0 - - - 0;
#X floatatom 268 101 7 0 0 0 - - - 0;
#X obj 17 212 expr pow(pow($f1 \, 2) + pow($f2 \, 2) \, 0.5);
#X floatatom 17 180 5 0 0 0 - - - 0;
#X floatatom 293 176 13 0 0 0 - - - 0;
#X obj 17 133 expr abs($f1 - $f3) \; abs($f2 - $f4), f 40;
#X text 310 139 Absolute value of dist between the x and y;
#X obj 317 6 inlet;
#X text 359 7 Range;
#X obj 22 347 outlet;
#X floatatom 43 243 10 0 0 0 - - - 0;
#X text 119 242 Distance;
#X text 311 211 Pythagoras;
#X text 62 179 Distance x;
#X text 404 178 Distance y;
#X text 261 345 Distance > 0;
#X obj 16 7 r live_loc;
#X text 75 344 In Range 0 = no 1 = yes, f 29;
#X obj 20 276 expr if($f1 < $f2 \, 1 \, 0) \; if($f1 < $f2 \, $f1 \, $f2), f 26;
#X connect 0 0 6 0;
#X connect 3 0 4 0;
#X connect 3 1 5 0;
#X connect 4 0 12 0;
#X connect 5 0 12 1;
#X connect 6 0 7 0;
#X connect 6 1 8 0;
#X connect 7 0 12 2;
#X connect 8 0 12 3;
#X connect 9 0 17 0;
#X connect 9 0 25 0;
#X connect 10 0 9 0;
#X connect 11 0 9 1;
#X connect 12 0 10 0;
#X connect 12 1 11 0;
#X connect 14 0 25 1;
#X connect 23 0 3 0;
#X connect 25 0 16 0;
#X connect 25 1 2 0;
#X restore 11 64 pd geo_calc_dist_in_range;
#X floatatom 11 97 5 0 0 0 - - - 0;
#X floatatom 210 105 5 0 0 0 - - - 0;
#X obj 12 6 inlet;
#X obj 235 2 inlet;
#X text 58 7 Loc Biome;
#X text 282 3 Range Biome;
#X text 50 414 Time elapsed in sec;
#X obj 37 589 outlet~;
#X text 98 589 Audio bus for biome;
#X text 257 170 Scaled gainvalue to atmosphere player;
#X text 48 98 In Range 0 = no 1 = yes, f 9;
#X text 243 62 in 1: biome location \, in 2 biome range \, out1: in range state \, out 2: distance;
#X text 254 105 Distance (values greater then range are filtered);
#X floatatom 234 29 5 0 0 0 - - - 0;
#X text 314 188 in 1: location of trigger in 2: range of trigger in 3: Bang the sample out 1: audio of sampler, f 25;
#X obj 12 133 change;
#N canvas 199 152 1124 708 looper_desert 0;
#X obj 36 32 inlet;
#X obj 36 65 sel 0 1;
#X obj 35 260 outlet~;
#X text 85 32 state** = 0 = OOB or 1 = IB;
#X obj 35 186 readsf~;
#X msg 36 111 0;
#X msg 79 141 1;
#X text 103 162 sample that needs to be played;
#X obj 79 110 t b b;
#X msg 112 141 open intro_reset.wav;
#X connect 0 0 1 0;
#X connect 1 0 5 0;
#X connect 1 1 8 0;
#X connect 4 0 2 0;
#X connect 4 1 8 0;
#X connect 5 0 4 0;
#X connect 6 0 4 0;
#X connect 8 0 6 0;
#X connect 8 1 9 0;
#X connect 9 0 4 0;
#X restore 31 185 pd looper_desert;
#X obj 32 350 *~, f 30;
#X obj 239 323 line;
#X obj 239 299 pack f f;
#X obj 290 254 loadbang;
#N canvas 227 222 875 487 0-delay 0;
#X obj 7 17 inlet;
#X obj 14 250 outlet;
#X obj 7 46 route 0;
#X obj 8 85 t 0 b;
#X msg 50 129 clear;
#X obj 4 172 pipe 6000;
#X connect 0 0 2 0;
#X connect 2 0 3 0;
#X connect 2 1 1 0;
#X connect 2 1 4 0;
#X connect 3 0 5 0;
#X connect 3 1 4 0;
#X connect 4 0 5 0;
#X connect 5 0 1 0;
#X restore 22 160 pd 0-delay;
#X floatatom 165 181 5 0 0 0 - - - 0;
#X msg 290 277 6000;
#X floatatom 325 388 5 0 0 0 - - - 0;
#X obj 240 276 change;
#N canvas 527 205 450 300 geo_calc_gainvalue 0;
#X obj 15 12 inlet;
#X obj 140 12 inlet;
#X text 61 11 Distance;
#N canvas 63 88 686 391 map 0;
#X obj 203 75 inlet;
#X obj 263 75 inlet;
#X obj 317 75 inlet;
#X obj 377 75 inlet;
#X obj 417 75 inlet;
#X obj 194 308 outlet;
#X text 270 59 lo;
#X text 324 59 hi;
#X text 384 59 lo;
#X text 424 59 hi;
#X obj 254 134 f \$1;
#X obj 308 134 f \$2;
#X obj 368 134 f \$3;
#X obj 408 134 f \$4;
#X obj 194 173 -;
#X obj 273 185 -;
#X obj 254 156 t f b f;
#X obj 194 202 /;
#X text 234 42 from;
#X text 347 40 to;
#X obj 194 246 *;
#X obj 194 274 +;
#X obj 387 185 -;
#X obj 368 156 t f b f;
#X text 53 176 subtract offset 1;
#X text 55 203 divide by range 1;
#X text 43 250 multiply by range 2;
#X text 85 274 add offset 2;
#X obj 493 58 loadbang;
#X obj 493 80 t b b b b;
#X obj 194 134 f;
#X text 399 39 initialize from arguments, f 36;
#X connect 0 0 30 0;
#X connect 1 0 10 0;
#X connect 2 0 11 0;
#X connect 3 0 12 0;
#X connect 4 0 13 0;
#X connect 10 0 16 0;
#X connect 11 0 15 0;
#X connect 12 0 23 0;
#X connect 13 0 22 0;
#X connect 14 0 17 0;
#X connect 15 0 17 1;
#X connect 16 0 14 1;
#X connect 16 1 15 0;
#X connect 16 2 15 1;
#X connect 17 0 20 0;
#X connect 20 0 21 0;
#X connect 21 0 5 0;
#X connect 22 0 20 1;
#X connect 23 0 21 1;
#X connect 23 1 22 0;
#X connect 23 2 22 1;
#X connect 28 0 29 0;
#X connect 29 0 10 0;
#X connect 29 1 11 0;
#X connect 29 2 12 0;
#X connect 29 3 13 0;
#X connect 30 0 14 0;
#X restore 15 154 pd map;
#X obj 261 82 loadbang;
#X msg 261 110 1;
#X msg 79 121 0;
#X floatatom 15 182 5 0 0 0 - - - 0;
#X text 192 11 Range;
#X obj 15 237 outlet;
#X text 78 239 Gain Value Scaled;
#X text 78 184 Mapped Value;
#X text 282 152 Map to [0.0 \, 1.0], f 23;
#X obj 14 209 expr 1 - $f1;
#X floatatom 291 250 5 0 0 0 - - - 0;
#X connect 0 0 3 0;
#X connect 1 0 3 2;
#X connect 3 0 7 0;
#X connect 4 0 6 0;
#X connect 4 0 5 0;
#X connect 5 0 3 4;
#X connect 6 0 3 1;
#X connect 6 0 3 3;
#X connect 7 0 13 0;
#X connect 13 0 9 0;
#X restore 210 137 pd geo_calc_gainvalue;
#X text 56 502 No FX patch to degrade \, this is the reset biome.;
#X connect 0 0 1 0;
#X connect 2 0 30 0;
#X connect 4 0 5 0;
#X connect 4 1 6 0;
#X connect 5 0 20 0;
#X connect 6 0 31 0;
#X connect 7 0 4 0;
#X connect 8 0 18 0;
#X connect 18 0 4 1;
#X connect 18 0 31 1;
#X connect 20 0 0 0;
#X connect 20 0 26 0;
#X connect 21 0 22 0;
#X connect 22 0 12 0;
#X connect 23 0 22 1;
#X connect 23 0 29 0;
#X connect 24 0 23 0;
#X connect 25 0 28 0;
#X connect 26 0 21 0;
#X connect 26 0 27 0;
#X connect 28 0 24 1;
#X connect 30 0 24 0;
#X connect 31 0 2 0;
#X restore 24 329 pd biome_reset;
#X obj 391 14 bng 16 250 50 0 empty empty empty 0 -8 0 10 #fcfcfc #000000 #000000;
#N canvas -19 47 1440 770 triggers 0;
#N canvas 161 168 1208 544 trigger_camel 0;
#X obj 16 8 inlet;
#X obj 196 8 inlet;
#X obj 16 98 sel 1;
#X obj 17 231 outlet~;
#X obj 59 72 r reset;
#N canvas 854 254 818 702 geo_calc_dist_in_range 0;
#X obj 199 6 inlet;
#X text 241 6 Loc;
#X obj 207 343 outlet;
#X obj 17 39 unpack f f, f 15;
#X floatatom 17 101 9 0 0 0 - - - 0;
#X floatatom 118 101 8 0 0 0 - - - 0;
#X obj 199 39 unpack f f;
#X floatatom 200 101 7 0 0 0 - - - 0;
#X floatatom 268 101 7 0 0 0 - - - 0;
#X obj 17 212 expr pow(pow($f1 \, 2) + pow($f2 \, 2) \, 0.5);
#X floatatom 17 180 5 0 0 0 - - - 0;
#X floatatom 293 176 13 0 0 0 - - - 0;
#X obj 17 133 expr abs($f1 - $f3) \; abs($f2 - $f4), f 40;
#X text 310 139 Absolute value of dist between the x and y;
#X obj 317 6 inlet;
#X text 359 7 Range;
#X obj 20 276 expr if($f1 < $f2 \, 1 \, 0) \; if($f1 < $f2 \, $f1 \, 0), f 26;
#X obj 22 347 outlet;
#X floatatom 43 243 10 0 0 0 - - - 0;
#X text 119 242 Distance;
#X text 311 211 Pythagoras;
#X text 62 179 Distance x;
#X text 404 178 Distance y;
#X text 261 345 Distance > 0;
#X obj 16 7 r live_loc;
#X text 75 344 In Range 0 = no 1 = yes, f 8;
#X connect 0 0 6 0;
#X connect 3 0 4 0;
#X connect 3 1 5 0;
#X connect 4 0 12 0;
#X connect 5 0 12 1;
#X connect 6 0 7 0;
#X connect 6 1 8 0;
#X connect 7 0 12 2;
#X connect 8 0 12 3;
#X connect 9 0 16 0;
#X connect 9 0 18 0;
#X connect 10 0 9 0;
#X connect 11 0 9 1;
#X connect 12 0 10 0;
#X connect 12 1 11 0;
#X connect 14 0 16 1;
#X connect 16 0 17 0;
#X connect 16 1 2 0;
#X connect 24 0 3 0;
#X restore 16 48 pd geo_calc_dist_in_range;
#X f 26;
#X text 59 7 Loc of trigger;
#X text 244 7 Range of trigger;
#X msg 244 45 5.2 52.902, f 17;
#N canvas 145 84 1109 711 trigger 0;
#X obj 333 182 inlet;
#X obj 384 182 inlet;
#X text 384 155 reset, f 6;
#X text 329 155 trigger;
#X obj 333 354 readsf~, f 8;
#X obj 333 443 outlet~, f 8;
#X obj 435 182 inlet;
#X msg 333 213 start, f 6;
#X msg 394 250 0;
#X msg 384 213 1;
#X msg 333 314 start;
#X obj 435 240 print;
#X obj 333 269 spigot;
#X text 433 155 sample name;
#X obj 333 397 *~ 1;
#X connect 0 0 7 0;
#X connect 1 0 9 0;
#X connect 4 0 14 0;
#X connect 4 1 8 0;
#X connect 6 0 11 0;
#X connect 6 0 4 0;
#X connect 7 0 12 0;
#X connect 8 0 12 1;
#X connect 9 0 12 1;
#X connect 10 0 4 0;
#X connect 12 0 10 0;
#X connect 14 0 5 0;
#X restore 16 189 pd trigger;
#X obj 434 8 inlet;
#X text 476 7 Test trigger;
#X obj 59 128 t b b;
#X obj 434 41 t b b;
#X text 118 72 Global Reset;
#X text 61 97 If in range bang;
#X text 200 156 Load the sound and reset;
#X msg 89 155 open camel.wav;
#X connect 0 0 5 0;
#X connect 1 0 5 1;
#X connect 2 0 9 0;
#X connect 4 0 12 0;
#X connect 5 0 2 0;
#X connect 8 0 5 0;
#X connect 9 0 3 0;
#X connect 10 0 13 0;
#X connect 12 0 9 1;
#X connect 12 1 17 0;
#X connect 13 0 9 0;
#X connect 13 1 12 0;
#X connect 17 0 9 2;
#X restore 96 312 pd trigger_camel;
#N canvas 161 168 1208 544 trigger_vulture 0;
#X obj 16 8 inlet;
#X obj 196 8 inlet;
#X obj 16 98 sel 1;
#X obj 17 231 outlet~;
#X obj 59 72 r reset;
#N canvas 854 254 818 702 geo_calc_dist_in_range 0;
#X obj 199 6 inlet;
#X text 241 6 Loc;
#X obj 207 343 outlet;
#X obj 17 39 unpack f f, f 15;
#X floatatom 17 101 9 0 0 0 - - - 0;
#X floatatom 118 101 8 0 0 0 - - - 0;
#X obj 199 39 unpack f f;
#X floatatom 200 101 7 0 0 0 - - - 0;
#X floatatom 268 101 7 0 0 0 - - - 0;
#X obj 17 212 expr pow(pow($f1 \, 2) + pow($f2 \, 2) \, 0.5);
#X floatatom 17 180 5 0 0 0 - - - 0;
#X floatatom 293 176 13 0 0 0 - - - 0;
#X obj 17 133 expr abs($f1 - $f3) \; abs($f2 - $f4), f 40;
#X text 310 139 Absolute value of dist between the x and y;
#X obj 317 6 inlet;
#X text 359 7 Range;
#X obj 20 276 expr if($f1 < $f2 \, 1 \, 0) \; if($f1 < $f2 \, $f1 \, 0), f 26;
#X obj 22 347 outlet;
#X floatatom 43 243 10 0 0 0 - - - 0;
#X text 119 242 Distance;
#X text 311 211 Pythagoras;
#X text 62 179 Distance x;
#X text 404 178 Distance y;
#X text 261 345 Distance > 0;
#X obj 16 7 r live_loc;
#X text 75 344 In Range 0 = no 1 = yes, f 8;
#X connect 0 0 6 0;
#X connect 3 0 4 0;
#X connect 3 1 5 0;
#X connect 4 0 12 0;
#X connect 5 0 12 1;
#X connect 6 0 7 0;
#X connect 6 1 8 0;
#X connect 7 0 12 2;
#X connect 8 0 12 3;
#X connect 9 0 16 0;
#X connect 9 0 18 0;
#X connect 10 0 9 0;
#X connect 11 0 9 1;
#X connect 12 0 10 0;
#X connect 12 1 11 0;
#X connect 14 0 16 1;
#X connect 16 0 17 0;
#X connect 16 1 2 0;
#X connect 24 0 3 0;
#X restore 16 48 pd geo_calc_dist_in_range;
#X f 26;
#X text 59 7 Loc of trigger;
#X text 244 7 Range of trigger;
#X msg 244 45 5.2 52.902, f 17;
#N canvas 145 84 1109 711 trigger 0;
#X obj 333 182 inlet;
#X obj 384 182 inlet;
#X text 384 155 reset, f 6;
#X text 329 155 trigger;
#X obj 333 354 readsf~, f 8;
#X obj 333 443 outlet~, f 8;
#X obj 435 182 inlet;
#X msg 333 213 start, f 6;
#X msg 394 250 0;
#X msg 384 213 1;
#X msg 333 314 start;
#X obj 435 240 print;
#X obj 333 269 spigot;
#X text 433 155 sample name;
#X obj 333 397 *~ 1;
#X connect 0 0 7 0;
#X connect 1 0 9 0;
#X connect 4 0 14 0;
#X connect 4 1 8 0;
#X connect 6 0 11 0;
#X connect 6 0 4 0;
#X connect 7 0 12 0;
#X connect 8 0 12 1;
#X connect 9 0 12 1;
#X connect 10 0 4 0;
#X connect 12 0 10 0;
#X connect 14 0 5 0;
#X restore 16 189 pd trigger;
#X obj 434 8 inlet;
#X text 476 7 Test trigger;
#X obj 59 128 t b b;
#X obj 434 41 t b b;
#X text 118 72 Global Reset;
#X text 61 97 If in range bang;
#X text 200 156 Load the sound and reset;
#X msg 89 155 open vulture.wav;
#X connect 0 0 5 0;
#X connect 1 0 5 1;
#X connect 2 0 9 0;
#X connect 4 0 12 0;
#X connect 5 0 2 0;
#X connect 8 0 5 0;
#X connect 9 0 3 0;
#X connect 10 0 13 0;
#X connect 12 0 9 1;
#X connect 12 1 17 0;
#X connect 13 0 9 0;
#X connect 13 1 12 0;
#X connect 17 0 9 2;
#X restore 220 312 pd trigger_vulture;
#N canvas 161 168 1208 544 trigger_lion 0;
#X obj 16 8 inlet;
#X obj 196 8 inlet;
#X obj 16 98 sel 1;
#X obj 17 231 outlet~;
#X obj 59 72 r reset;
#N canvas 854 254 818 702 geo_calc_dist_in_range 0;
#X obj 199 6 inlet;
#X text 241 6 Loc;
#X obj 207 343 outlet;
#X obj 17 39 unpack f f, f 15;
#X floatatom 17 101 9 0 0 0 - - - 0;
#X floatatom 118 101 8 0 0 0 - - - 0;
#X obj 199 39 unpack f f;
#X floatatom 200 101 7 0 0 0 - - - 0;
#X floatatom 268 101 7 0 0 0 - - - 0;
#X obj 17 212 expr pow(pow($f1 \, 2) + pow($f2 \, 2) \, 0.5);
#X floatatom 17 180 5 0 0 0 - - - 0;
#X floatatom 293 176 13 0 0 0 - - - 0;
#X obj 17 133 expr abs($f1 - $f3) \; abs($f2 - $f4), f 40;
#X text 310 139 Absolute value of dist between the x and y;
#X obj 317 6 inlet;
#X text 359 7 Range;
#X obj 20 276 expr if($f1 < $f2 \, 1 \, 0) \; if($f1 < $f2 \, $f1 \, 0), f 26;
#X obj 22 347 outlet;
#X floatatom 43 243 10 0 0 0 - - - 0;
#X text 119 242 Distance;
#X text 311 211 Pythagoras;
#X text 62 179 Distance x;
#X text 404 178 Distance y;
#X text 261 345 Distance > 0;
#X obj 16 7 r live_loc;
#X text 75 344 In Range 0 = no 1 = yes, f 8;
#X connect 0 0 6 0;
#X connect 3 0 4 0;
#X connect 3 1 5 0;
#X connect 4 0 12 0;
#X connect 5 0 12 1;
#X connect 6 0 7 0;
#X connect 6 1 8 0;
#X connect 7 0 12 2;
#X connect 8 0 12 3;
#X connect 9 0 16 0;
#X connect 9 0 18 0;
#X connect 10 0 9 0;
#X connect 11 0 9 1;
#X connect 12 0 10 0;
#X connect 12 1 11 0;
#X connect 14 0 16 1;
#X connect 16 0 17 0;
#X connect 16 1 2 0;
#X connect 24 0 3 0;
#X restore 16 48 pd geo_calc_dist_in_range;
#X f 26;
#X text 59 7 Loc of trigger;
#X text 244 7 Range of trigger;
#X msg 244 45 5.2 52.902, f 17;
#N canvas 145 84 1109 711 trigger 0;
#X obj 333 182 inlet;
#X obj 384 182 inlet;
#X text 384 155 reset, f 6;
#X text 329 155 trigger;
#X obj 333 354 readsf~, f 8;
#X obj 333 443 outlet~, f 8;
#X obj 435 182 inlet;
#X msg 333 213 start, f 6;
#X msg 394 250 0;
#X msg 384 213 1;
#X msg 333 314 start;
#X obj 435 240 print;
#X obj 333 269 spigot;
#X text 433 155 sample name;
#X obj 333 397 *~ 1;
#X connect 0 0 7 0;
#X connect 1 0 9 0;
#X connect 4 0 14 0;
#X connect 4 1 8 0;
#X connect 6 0 11 0;
#X connect 6 0 4 0;
#X connect 7 0 12 0;
#X connect 8 0 12 1;
#X connect 9 0 12 1;
#X connect 10 0 4 0;
#X connect 12 0 10 0;
#X connect 14 0 5 0;
#X restore 16 189 pd trigger;
#X obj 434 8 inlet;
#X text 476 7 Test trigger;
#X obj 59 128 t b b;
#X obj 434 41 t b b;
#X text 118 72 Global Reset;
#X text 61 97 If in range bang;
#X text 200 156 Load the sound and reset;
#X msg 89 155 open camel.wav;
#X connect 0 0 5 0;
#X connect 1 0 5 1;
#X connect 2 0 9 0;
#X connect 4 0 12 0;
#X connect 5 0 2 0;
#X connect 8 0 5 0;
#X connect 9 0 3 0;
#X connect 10 0 13 0;
#X connect 12 0 9 1;
#X connect 12 1 17 0;
#X connect 13 0 9 0;
#X connect 13 1 12 0;
#X connect 17 0 9 2;
#X restore 579 332 pd trigger_lion;
#N canvas 161 168 1208 544 trigger_monkey 0;
#X obj 16 8 inlet;
#X obj 196 8 inlet;
#X obj 16 98 sel 1;
#X obj 17 231 outlet~;
#X obj 59 72 r reset;
#N canvas 854 254 818 702 geo_calc_dist_in_range 0;
#X obj 199 6 inlet;
#X text 241 6 Loc;
#X obj 207 343 outlet;
#X obj 17 39 unpack f f, f 15;
#X floatatom 17 101 9 0 0 0 - - - 0;
#X floatatom 118 101 8 0 0 0 - - - 0;
#X obj 199 39 unpack f f;
#X floatatom 200 101 7 0 0 0 - - - 0;
#X floatatom 268 101 7 0 0 0 - - - 0;
#X obj 17 212 expr pow(pow($f1 \, 2) + pow($f2 \, 2) \, 0.5);
#X floatatom 17 180 5 0 0 0 - - - 0;
#X floatatom 293 176 13 0 0 0 - - - 0;
#X obj 17 133 expr abs($f1 - $f3) \; abs($f2 - $f4), f 40;
#X text 310 139 Absolute value of dist between the x and y;
#X obj 317 6 inlet;
#X text 359 7 Range;
#X obj 20 276 expr if($f1 < $f2 \, 1 \, 0) \; if($f1 < $f2 \, $f1 \, 0), f 26;
#X obj 22 347 outlet;
#X floatatom 43 243 10 0 0 0 - - - 0;
#X text 119 242 Distance;
#X text 311 211 Pythagoras;
#X text 62 179 Distance x;
#X text 404 178 Distance y;
#X text 261 345 Distance > 0;
#X obj 16 7 r live_loc;
#X text 75 344 In Range 0 = no 1 = yes, f 8;
#X connect 0 0 6 0;
#X connect 3 0 4 0;
#X connect 3 1 5 0;
#X connect 4 0 12 0;
#X connect 5 0 12 1;
#X connect 6 0 7 0;
#X connect 6 1 8 0;
#X connect 7 0 12 2;
#X connect 8 0 12 3;
#X connect 9 0 16 0;
#X connect 9 0 18 0;
#X connect 10 0 9 0;
#X connect 11 0 9 1;
#X connect 12 0 10 0;
#X connect 12 1 11 0;
#X connect 14 0 16 1;
#X connect 16 0 17 0;
#X connect 16 1 2 0;
#X connect 24 0 3 0;
#X restore 16 48 pd geo_calc_dist_in_range;
#X f 26;
#X text 59 7 Loc of trigger;
#X text 244 7 Range of trigger;
#X msg 244 45 5.2 52.902, f 17;
#N canvas 145 84 1109 711 trigger 0;
#X obj 333 182 inlet;
#X obj 384 182 inlet;
#X text 384 155 reset, f 6;
#X text 329 155 trigger;
#X obj 333 354 readsf~, f 8;
#X obj 333 443 outlet~, f 8;
#X obj 435 182 inlet;
#X msg 333 213 start, f 6;
#X msg 394 250 0;
#X msg 384 213 1;
#X msg 333 314 start;
#X obj 435 240 print;
#X obj 333 269 spigot;
#X text 433 155 sample name;
#X obj 333 397 *~ 1;
#X connect 0 0 7 0;
#X connect 1 0 9 0;
#X connect 4 0 14 0;
#X connect 4 1 8 0;
#X connect 6 0 11 0;
#X connect 6 0 4 0;
#X connect 7 0 12 0;
#X connect 8 0 12 1;
#X connect 9 0 12 1;
#X connect 10 0 4 0;
#X connect 12 0 10 0;
#X connect 14 0 5 0;
#X restore 16 189 pd trigger;
#X obj 434 8 inlet;
#X text 476 7 Test trigger;
#X obj 59 128 t b b;
#X obj 434 41 t b b;
#X text 118 72 Global Reset;
#X text 61 97 If in range bang;
#X text 200 156 Load the sound and reset;
#X msg 89 155 open monkey.wav;
#X connect 0 0 5 0;
#X connect 1 0 5 1;
#X connect 2 0 9 0;
#X connect 4 0 12 0;
#X connect 5 0 2 0;
#X connect 8 0 5 0;
#X connect 9 0 3 0;
#X connect 10 0 13 0;
#X connect 12 0 9 1;
#X connect 12 1 17 0;
#X connect 13 0 9 0;
#X connect 13 1 12 0;
#X connect 17 0 9 2;
#X restore 698 332 pd trigger_monkey;
#N canvas 161 168 1208 544 trigger_ocean 0;
#X obj 16 8 inlet;
#X obj 196 8 inlet;
#X obj 16 98 sel 1;
#X obj 17 231 outlet~;
#X obj 59 72 r reset;
#N canvas 854 254 818 702 geo_calc_dist_in_range 0;
#X obj 199 6 inlet;
#X text 241 6 Loc;
#X obj 207 343 outlet;
#X obj 17 39 unpack f f, f 15;
#X floatatom 17 101 9 0 0 0 - - - 0;
#X floatatom 118 101 8 0 0 0 - - - 0;
#X obj 199 39 unpack f f;
#X floatatom 200 101 7 0 0 0 - - - 0;
#X floatatom 268 101 7 0 0 0 - - - 0;
#X obj 17 212 expr pow(pow($f1 \, 2) + pow($f2 \, 2) \, 0.5);
#X floatatom 17 180 5 0 0 0 - - - 0;
#X floatatom 293 176 13 0 0 0 - - - 0;
#X obj 17 133 expr abs($f1 - $f3) \; abs($f2 - $f4), f 40;
#X text 310 139 Absolute value of dist between the x and y;
#X obj 317 6 inlet;
#X text 359 7 Range;
#X obj 20 276 expr if($f1 < $f2 \, 1 \, 0) \; if($f1 < $f2 \, $f1 \, 0), f 26;
#X obj 22 347 outlet;
#X floatatom 43 243 10 0 0 0 - - - 0;
#X text 119 242 Distance;
#X text 311 211 Pythagoras;
#X text 62 179 Distance x;
#X text 404 178 Distance y;
#X text 261 345 Distance > 0;
#X obj 16 7 r live_loc;
#X text 75 344 In Range 0 = no 1 = yes, f 8;
#X connect 0 0 6 0;
#X connect 3 0 4 0;
#X connect 3 1 5 0;
#X connect 4 0 12 0;
#X connect 5 0 12 1;
#X connect 6 0 7 0;
#X connect 6 1 8 0;
#X connect 7 0 12 2;
#X connect 8 0 12 3;
#X connect 9 0 16 0;
#X connect 9 0 18 0;
#X connect 10 0 9 0;
#X connect 11 0 9 1;
#X connect 12 0 10 0;
#X connect 12 1 11 0;
#X connect 14 0 16 1;
#X connect 16 0 17 0;
#X connect 16 1 2 0;
#X connect 24 0 3 0;
#X restore 16 48 pd geo_calc_dist_in_range;
#X f 26;
#X text 59 7 Loc of trigger;
#X text 244 7 Range of trigger;
#X msg 244 45 5.2 52.902, f 17;
#N canvas 145 84 1109 711 trigger 0;
#X obj 333 182 inlet;
#X obj 384 182 inlet;
#X text 384 155 reset, f 6;
#X text 329 155 trigger;
#X obj 333 354 readsf~, f 8;
#X obj 333 443 outlet~, f 8;
#X obj 435 182 inlet;
#X msg 333 213 start, f 6;
#X msg 394 250 0;
#X msg 384 213 1;
#X msg 333 314 start;
#X obj 435 240 print;
#X obj 333 269 spigot;
#X text 433 155 sample name;
#X obj 333 397 *~ 1;
#X connect 0 0 7 0;
#X connect 1 0 9 0;
#X connect 4 0 14 0;
#X connect 4 1 8 0;
#X connect 6 0 11 0;
#X connect 6 0 4 0;
#X connect 7 0 12 0;
#X connect 8 0 12 1;
#X connect 9 0 12 1;
#X connect 10 0 4 0;
#X connect 12 0 10 0;
#X connect 14 0 5 0;
#X restore 16 189 pd trigger;
#X obj 434 8 inlet;
#X text 476 7 Test trigger;
#X obj 59 128 t b b;
#X obj 434 41 t b b;
#X text 118 72 Global Reset;
#X text 61 97 If in range bang;
#X text 200 156 Load the sound and reset;
#X msg 89 155 open walvis.wav;
#X connect 0 0 5 0;
#X connect 1 0 5 1;
#X connect 2 0 9 0;
#X connect 4 0 12 0;
#X connect 5 0 2 0;
#X connect 8 0 5 0;
#X connect 9 0 3 0;
#X connect 10 0 13 0;
#X connect 12 0 9 1;
#X connect 12 1 17 0;
#X connect 13 0 9 0;
#X connect 13 1 12 0;
#X connect 17 0 9 2;
#X restore 524 544 pd trigger_ocean;
#N canvas 161 168 1208 544 trigger_space_animal 0;
#X obj 16 8 inlet;
#X obj 196 8 inlet;
#X obj 16 98 sel 1;
#X obj 17 231 outlet~;
#X obj 59 72 r reset;
#N canvas 854 254 818 702 geo_calc_dist_in_range 0;
#X obj 199 6 inlet;
#X text 241 6 Loc;
#X obj 207 343 outlet;
#X obj 17 39 unpack f f, f 15;
#X floatatom 17 101 9 0 0 0 - - - 0;
#X floatatom 118 101 8 0 0 0 - - - 0;
#X obj 199 39 unpack f f;
#X floatatom 200 101 7 0 0 0 - - - 0;
#X floatatom 268 101 7 0 0 0 - - - 0;
#X obj 17 212 expr pow(pow($f1 \, 2) + pow($f2 \, 2) \, 0.5);
#X floatatom 17 180 5 0 0 0 - - - 0;
#X floatatom 293 176 13 0 0 0 - - - 0;
#X obj 17 133 expr abs($f1 - $f3) \; abs($f2 - $f4), f 40;
#X text 310 139 Absolute value of dist between the x and y;
#X obj 317 6 inlet;
#X text 359 7 Range;
#X obj 20 276 expr if($f1 < $f2 \, 1 \, 0) \; if($f1 < $f2 \, $f1 \, 0), f 26;
#X obj 22 347 outlet;
#X floatatom 43 243 10 0 0 0 - - - 0;
#X text 119 242 Distance;
#X text 311 211 Pythagoras;
#X text 62 179 Distance x;
#X text 404 178 Distance y;
#X text 261 345 Distance > 0;
#X obj 16 7 r live_loc;
#X text 75 344 In Range 0 = no 1 = yes, f 8;
#X connect 0 0 6 0;
#X connect 3 0 4 0;
#X connect 3 1 5 0;
#X connect 4 0 12 0;
#X connect 5 0 12 1;
#X connect 6 0 7 0;
#X connect 6 1 8 0;
#X connect 7 0 12 2;
#X connect 8 0 12 3;
#X connect 9 0 16 0;
#X connect 9 0 18 0;
#X connect 10 0 9 0;
#X connect 11 0 9 1;
#X connect 12 0 10 0;
#X connect 12 1 11 0;
#X connect 14 0 16 1;
#X connect 16 0 17 0;
#X connect 16 1 2 0;
#X connect 24 0 3 0;
#X restore 16 48 pd geo_calc_dist_in_range;
#X f 26;
#X text 59 7 Loc of trigger;
#X text 244 7 Range of trigger;
#X msg 244 45 5.2 52.902, f 17;
#N canvas 145 84 1109 711 trigger 0;
#X obj 333 182 inlet;
#X obj 384 182 inlet;
#X text 384 155 reset, f 6;
#X text 329 155 trigger;
#X obj 333 354 readsf~, f 8;
#X obj 333 443 outlet~, f 8;
#X obj 435 182 inlet;
#X msg 333 213 start, f 6;
#X msg 394 250 0;
#X msg 384 213 1;
#X msg 333 314 start;
#X obj 435 240 print;
#X obj 333 269 spigot;
#X text 433 155 sample name;
#X obj 333 397 *~ 1;
#X connect 0 0 7 0;
#X connect 1 0 9 0;
#X connect 4 0 14 0;
#X connect 4 1 8 0;
#X connect 6 0 11 0;
#X connect 6 0 4 0;
#X connect 7 0 12 0;
#X connect 8 0 12 1;
#X connect 9 0 12 1;
#X connect 10 0 4 0;
#X connect 12 0 10 0;
#X connect 14 0 5 0;
#X restore 16 189 pd trigger;
#X obj 434 8 inlet;
#X text 476 7 Test trigger;
#X obj 59 128 t b b;
#X obj 434 41 t b b;
#X text 118 72 Global Reset;
#X text 61 97 If in range bang;
#X text 255 155 Load the sound and reset;
#X msg 89 155 open space_animal.wav;
#X connect 0 0 5 0;
#X connect 1 0 5 1;
#X connect 2 0 9 0;
#X connect 4 0 12 0;
#X connect 5 0 2 0;
#X connect 8 0 5 0;
#X connect 9 0 3 0;
#X connect 10 0 13 0;
#X connect 12 0 9 1;
#X connect 12 1 17 0;
#X connect 13 0 9 0;
#X connect 13 1 12 0;
#X connect 17 0 9 2;
#X restore 75 519 pd trigger_space_animal;
#N canvas 161 168 1208 544 trigger_spaceship 0;
#X obj 16 8 inlet;
#X obj 196 8 inlet;
#X obj 16 98 sel 1;
#X obj 17 231 outlet~;
#X obj 59 72 r reset;
#N canvas 854 254 818 702 geo_calc_dist_in_range 0;
#X obj 199 6 inlet;
#X text 241 6 Loc;
#X obj 207 343 outlet;
#X obj 17 39 unpack f f, f 15;
#X floatatom 17 101 9 0 0 0 - - - 0;
#X floatatom 118 101 8 0 0 0 - - - 0;
#X obj 199 39 unpack f f;
#X floatatom 200 101 7 0 0 0 - - - 0;
#X floatatom 268 101 7 0 0 0 - - - 0;
#X obj 17 212 expr pow(pow($f1 \, 2) + pow($f2 \, 2) \, 0.5);
#X floatatom 17 180 5 0 0 0 - - - 0;
#X floatatom 293 176 13 0 0 0 - - - 0;
#X obj 17 133 expr abs($f1 - $f3) \; abs($f2 - $f4), f 40;
#X text 310 139 Absolute value of dist between the x and y;
#X obj 317 6 inlet;
#X text 359 7 Range;
#X obj 20 276 expr if($f1 < $f2 \, 1 \, 0) \; if($f1 < $f2 \, $f1 \, 0), f 26;
#X obj 22 347 outlet;
#X floatatom 43 243 10 0 0 0 - - - 0;
#X text 119 242 Distance;
#X text 311 211 Pythagoras;
#X text 62 179 Distance x;
#X text 404 178 Distance y;
#X text 261 345 Distance > 0;
#X obj 16 7 r live_loc;
#X text 75 344 In Range 0 = no 1 = yes, f 8;
#X connect 0 0 6 0;
#X connect 3 0 4 0;
#X connect 3 1 5 0;
#X connect 4 0 12 0;
#X connect 5 0 12 1;
#X connect 6 0 7 0;
#X connect 6 1 8 0;
#X connect 7 0 12 2;
#X connect 8 0 12 3;
#X connect 9 0 16 0;
#X connect 9 0 18 0;
#X connect 10 0 9 0;
#X connect 11 0 9 1;
#X connect 12 0 10 0;
#X connect 12 1 11 0;
#X connect 14 0 16 1;
#X connect 16 0 17 0;
#X connect 16 1 2 0;
#X connect 24 0 3 0;
#X restore 16 48 pd geo_calc_dist_in_range;
#X f 26;
#X text 59 7 Loc of trigger;
#X text 244 7 Range of trigger;
#X msg 244 45 5.2 52.902, f 17;
#N canvas 145 84 1109 711 trigger 0;
#X obj 333 182 inlet;
#X obj 384 182 inlet;
#X text 384 155 reset, f 6;
#X text 329 155 trigger;
#X obj 333 354 readsf~, f 8;
#X obj 333 443 outlet~, f 8;
#X obj 435 182 inlet;
#X msg 333 213 start, f 6;
#X msg 394 250 0;
#X msg 384 213 1;
#X msg 333 314 start;
#X obj 435 240 print;
#X obj 333 269 spigot;
#X text 433 155 sample name;
#X obj 333 397 *~ 1;
#X connect 0 0 7 0;
#X connect 1 0 9 0;
#X connect 4 0 14 0;
#X connect 4 1 8 0;
#X connect 6 0 11 0;
#X connect 6 0 4 0;
#X connect 7 0 12 0;
#X connect 8 0 12 1;
#X connect 9 0 12 1;
#X connect 10 0 4 0;
#X connect 12 0 10 0;
#X connect 14 0 5 0;
#X restore 16 189 pd trigger;
#X obj 434 8 inlet;
#X text 476 7 Test trigger;
#X obj 59 128 t b b;
#X obj 434 41 t b b;
#X text 118 72 Global Reset;
#X text 61 97 If in range bang;
#X text 230 156 Load the sound and reset;
#X msg 89 155 open spaceship.wav;
#X connect 0 0 5 0;
#X connect 1 0 5 1;
#X connect 2 0 9 0;
#X connect 4 0 12 0;
#X connect 5 0 2 0;
#X connect 8 0 5 0;
#X connect 9 0 3 0;
#X connect 10 0 13 0;
#X connect 12 0 9 1;
#X connect 12 1 17 0;
#X connect 13 0 9 0;
#X connect 13 1 12 0;
#X connect 17 0 9 2;
#X restore 255 519 pd trigger_spaceship;
#N canvas 161 168 1208 544 trigger_sea_monster 0;
#X obj 16 8 inlet;
#X obj 196 8 inlet;
#X obj 16 98 sel 1;
#X obj 17 231 outlet~;
#X obj 59 72 r reset;
#N canvas 854 254 818 702 geo_calc_dist_in_range 0;
#X obj 199 6 inlet;
#X text 241 6 Loc;
#X obj 207 343 outlet;
#X obj 17 39 unpack f f, f 15;
#X floatatom 17 101 9 0 0 0 - - - 0;
#X floatatom 118 101 8 0 0 0 - - - 0;
#X obj 199 39 unpack f f;
#X floatatom 200 101 7 0 0 0 - - - 0;
#X floatatom 268 101 7 0 0 0 - - - 0;
#X obj 17 212 expr pow(pow($f1 \, 2) + pow($f2 \, 2) \, 0.5);
#X floatatom 17 180 5 0 0 0 - - - 0;
#X floatatom 293 176 13 0 0 0 - - - 0;
#X obj 17 133 expr abs($f1 - $f3) \; abs($f2 - $f4), f 40;
#X text 310 139 Absolute value of dist between the x and y;
#X obj 317 6 inlet;
#X text 359 7 Range;
#X obj 20 276 expr if($f1 < $f2 \, 1 \, 0) \; if($f1 < $f2 \, $f1 \, 0), f 26;
#X obj 22 347 outlet;
#X floatatom 43 243 10 0 0 0 - - - 0;
#X text 119 242 Distance;
#X text 311 211 Pythagoras;
#X text 62 179 Distance x;
#X text 404 178 Distance y;
#X text 261 345 Distance > 0;
#X obj 16 7 r live_loc;
#X text 75 344 In Range 0 = no 1 = yes, f 8;
#X connect 0 0 6 0;
#X connect 3 0 4 0;
#X connect 3 1 5 0;
#X connect 4 0 12 0;
#X connect 5 0 12 1;
#X connect 6 0 7 0;
#X connect 6 1 8 0;
#X connect 7 0 12 2;
#X connect 8 0 12 3;
#X connect 9 0 16 0;
#X connect 9 0 18 0;
#X connect 10 0 9 0;
#X connect 11 0 9 1;
#X connect 12 0 10 0;
#X connect 12 1 11 0;
#X connect 14 0 16 1;
#X connect 16 0 17 0;
#X connect 16 1 2 0;
#X connect 24 0 3 0;
#X restore 16 48 pd geo_calc_dist_in_range;
#X f 26;
#X text 59 7 Loc of trigger;
#X text 244 7 Range of trigger;
#X msg 244 45 5.2 52.902, f 17;
#N canvas 145 84 1109 711 trigger 0;
#X obj 333 182 inlet;
#X obj 384 182 inlet;
#X text 384 155 reset, f 6;
#X text 329 155 trigger;
#X obj 333 354 readsf~, f 8;
#X obj 333 443 outlet~, f 8;
#X obj 435 182 inlet;
#X msg 333 213 start, f 6;
#X msg 394 250 0;
#X msg 384 213 1;
#X msg 333 314 start;
#X obj 435 240 print;
#X obj 333 269 spigot;
#X text 433 155 sample name;
#X obj 333 397 *~ 1;
#X connect 0 0 7 0;
#X connect 1 0 9 0;
#X connect 4 0 14 0;
#X connect 4 1 8 0;
#X connect 6 0 11 0;
#X connect 6 0 4 0;
#X connect 7 0 12 0;
#X connect 8 0 12 1;
#X connect 9 0 12 1;
#X connect 10 0 4 0;
#X connect 12 0 10 0;
#X connect 14 0 5 0;
#X restore 16 189 pd trigger;
#X obj 434 8 inlet;
#X text 476 7 Test trigger;
#X obj 59 128 t b b;
#X obj 434 41 t b b;
#X text 118 72 Global Reset;
#X text 61 97 If in range bang;
#X text 249 159 Load the sound and reset;
#X msg 89 155 open sea_monster.wav;
#X connect 0 0 5 0;
#X connect 1 0 5 1;
#X connect 2 0 9 0;
#X connect 4 0 12 0;
#X connect 5 0 2 0;
#X connect 8 0 5 0;
#X connect 9 0 3 0;
#X connect 10 0 13 0;
#X connect 12 0 9 1;
#X connect 12 1 17 0;
#X connect 13 0 9 0;
#X connect 13 1 12 0;
#X connect 17 0 9 2;
#X restore 648 544 pd trigger_sea_monster;
#X obj 150 277 r range trigger;
#X obj 280 277 r range trigger;
#X text 192 247 desert;
#X obj 627 297 r range trigger;
#X obj 754 297 r range trigger;
#X obj 576 509 r range trigger;
#X obj 720 509 r range trigger;
#X obj 153 484 r range trigger;
#X obj 321 484 r range trigger;
#X text 684 192 jungle;
#X text 652 457 ocean;
#X text 286 370 space;
#X obj 58 667 outlet~;
#X obj 1064 147 inlet;
#X obj 1149 86 loadbang;
#X obj 1149 154 s range trigger;
#X text 1273 115 sets range of all triggers;
#X obj 94 185 loadbang;
#X obj 220 188 loadbang;
#X obj 580 227 loadbang;
#X obj 726 215 loadbang;
#X obj 284 407 loadbang;
#X obj 71 409 loadbang;
#X obj 750 389 loadbang;
#X obj 524 461 loadbang;
#N canvas 204 108 1208 544 trigger_voice_over 1;
#X obj 16 8 inlet;
#X obj 196 8 inlet;
#X obj 16 98 sel 1;
#X obj 17 231 outlet~;
#X obj 59 72 r reset;
#N canvas 622 93 818 702 geo_calc_dist_in_range 1;
#X obj 199 6 inlet;
#X text 241 6 Loc;
#X obj 207 343 outlet;
#X obj 17 39 unpack f f, f 15;
#X floatatom 17 101 9 0 0 0 - - - 0;
#X floatatom 118 101 8 0 0 0 - - - 0;
#X obj 199 39 unpack f f;
#X floatatom 200 101 7 0 0 0 - - - 0;
#X floatatom 268 101 7 0 0 0 - - - 0;
#X obj 17 212 expr pow(pow($f1 \, 2) + pow($f2 \, 2) \, 0.5);
#X floatatom 17 180 5 0 0 0 - - - 0;
#X floatatom 293 176 13 0 0 0 - - - 0;
#X obj 17 133 expr abs($f1 - $f3) \; abs($f2 - $f4), f 40;
#X text 310 139 Absolute value of dist between the x and y;
#X obj 317 6 inlet;
#X text 359 7 Range;
#X obj 20 276 expr if($f1 < $f2 \, 1 \, 0) \; if($f1 < $f2 \, $f1 \, 0), f 26;
#X obj 22 347 outlet;
#X floatatom 43 243 10 0 0 0 - - - 0;
#X text 119 242 Distance;
#X text 311 211 Pythagoras;
#X text 62 179 Distance x;
#X text 404 178 Distance y;
#X text 261 345 Distance > 0;
#X obj 16 7 r live_loc;
#X text 75 344 In Range 0 = no 1 = yes, f 8;
#X floatatom 129 410 5 0 0 0 - - - 0;
#X obj 499 183 bng 16 250 50 0 empty empty empty 0 -8 0 10 #fcfcfc #000000 #000000;
#X connect 0 0 6 0;
#X connect 3 0 4 0;
#X connect 3 1 5 0;
#X connect 4 0 12 0;
#X connect 5 0 12 1;
#X connect 6 0 7 0;
#X connect 6 1 8 0;
#X connect 7 0 12 2;
#X connect 8 0 12 3;
#X connect 9 0 16 0;
#X connect 9 0 18 0;
#X connect 10 0 9 0;
#X connect 11 0 9 1;
#X connect 12 0 10 0;
#X connect 12 1 11 0;
#X connect 14 0 16 1;
#X connect 16 0 17 0;
#X connect 16 0 26 0;
#X connect 16 1 2 0;
#X connect 24 0 3 0;
#X restore 16 48 pd geo_calc_dist_in_range;
#X f 26;
#X text 59 7 Loc of trigger;
#X text 244 7 Range of trigger;
#X msg 244 45 5.2 52.902, f 17;
#N canvas 145 84 1109 711 trigger 0;
#X obj 333 182 inlet;
#X obj 384 182 inlet;
#X text 384 155 reset, f 6;
#X text 329 155 trigger;
#X obj 333 354 readsf~, f 8;
#X obj 333 443 outlet~, f 8;
#X obj 435 182 inlet;
#X msg 333 213 start, f 6;
#X msg 394 250 0;
#X msg 384 213 1;
#X msg 333 314 start;
#X obj 435 240 print;
#X obj 333 269 spigot;
#X text 433 155 sample name;
#X obj 333 397 *~ 1;
#X connect 0 0 7 0;
#X connect 1 0 9 0;
#X connect 4 0 14 0;
#X connect 4 1 8 0;
#X connect 6 0 11 0;
#X connect 6 0 4 0;
#X connect 7 0 12 0;
#X connect 8 0 12 1;
#X connect 9 0 12 1;
#X connect 10 0 4 0;
#X connect 12 0 10 0;
#X connect 14 0 5 0;
#X restore 16 189 pd trigger;
#X obj 434 8 inlet;
#X text 476 7 Test trigger;
#X obj 59 128 t b b;
#X obj 434 41 t b b;
#X text 118 72 Global Reset;
#X text 61 97 If in range bang;
#X text 249 159 Load the sound and reset;
#X msg 90 155 open voice_over.wav;
#X connect 0 0 5 0;
#X connect 1 0 5 1;
#X connect 2 0 9 0;
#X connect 4 0 12 0;
#X connect 5 0 2 0;
#X connect 8 0 5 0;
#X connect 9 0 3 0;
#X connect 10 0 13 0;
#X connect 12 0 9 1;
#X connect 12 1 17 0;
#X connect 13 0 9 0;
#X connect 13 1 12 0;
#X connect 17 0 9 2;
#X restore 880 549 pd trigger_voice_over;
#X obj 884 462 loadbang;
#X msg 583 268 5.13215 52.0786;
#X msg 729 260 5.13183 52.0787;
#X msg 74 433 5.13146 52.0787;
#X msg 283 433 5.1313 52.0788;
#X msg 91 227 5.13115 52.0789;
#X msg 219 230 5.13129 52.0789;
#X msg 523 497 5.13099 52.079;
#X msg 745 436 5.1308 52.079;
#X msg 884 497 5.13257 52.0785;
#X obj 1003 516 r range trigger;
#X msg 1149 119 0.0001, f 15;
#X connect 0 0 20 0;
#X connect 1 0 20 0;
#X connect 2 0 20 0;
#X connect 3 0 20 0;
#X connect 4 0 20 0;
#X connect 5 0 20 0;
#X connect 6 0 20 0;
#X connect 7 0 20 0;
#X connect 8 0 0 1;
#X connect 9 0 1 1;
#X connect 11 0 2 1;
#X connect 12 0 3 1;
#X connect 13 0 4 1;
#X connect 14 0 7 1;
#X connect 15 0 5 1;
#X connect 16 0 6 1;
#X connect 21 0 23 0;
#X connect 22 0 45 0;
#X connect 25 0 39 0;
#X connect 26 0 40 0;
#X connect 27 0 35 0;
#X connect 28 0 36 0;
#X connect 29 0 38 0;
#X connect 30 0 37 0;
#X connect 31 0 42 0;
#X connect 32 0 41 0;
#X connect 33 0 20 0;
#X connect 34 0 43 0;
#X connect 35 0 2 0;
#X connect 36 0 3 0;
#X connect 37 0 5 0;
#X connect 38 0 6 0;
#X connect 39 0 0 0;
#X connect 40 0 1 0;
#X connect 41 0 4 0;
#X connect 42 0 7 0;
#X connect 43 0 33 0;
#X connect 44 0 33 1;
#X connect 45 0 23 0;
#X restore 978 502 pd triggers;
#X text 1069 506 inlet for range of all triggers (automatic on 0.0003);
#X msg 205 234 5.13197 52.0786;
#X msg 21 232 5.13314 52.0784;
#X msg 422 238 5.13145 52.0788;
#X msg 589 232 5.1312 52.0789;
#X msg 742 239 5.13084 52.079;
#X msg 1502 11 5.13314 52.0784;
#X msg 1514 35 5.13197 52.0786;
#X msg 1519 64 5.13145 52.0788;
#X msg 1533 91 5.1312 52.0789;
#X msg 1551 136 5.13084 52.079;
#X msg 598 31 5.13314 52.0784, f 17;
#X msg 287 280 0.0003, f 7;
#X msg 826 281 0.0003, f 7;
#X msg 676 281 0.00025;
#X msg 506 280 0.00025;
#X obj 980 429 Heartbeat;
#X obj 17 46 unpackOSC;
#X obj 17 65 route /gps;
#X msg 16 9 port 8890;
#X obj 17 28 udpreceive 8890;
#X msg 106 282 0.0008;
#X text 972 537 Patch for all the triggers \, open this patch to modify the locations and sounds of the one shots.;
#X text 1045 428 This patch generates a sonar sample if there is no connection with the GPS. If there is a connection \, it will turn into a heartbeat. Open patch for more info.;
#X text 889 202 These are biome sub patches \, these are all unique but based on the abstraction biome.pd (but a little different) Inlet 1: location of the biome | Inlet 2: the range of the biome | Outlet 1 : audio signal;
#X text 236 83 GPS Faker \, puts out the coords from the GPS.txt bang right inlet to reload the .txt;
#X text 97 7 The OSC port for the GPS input;
#X text 818 124 CHECK OUT geo_calc_dist_in_range \, important patch for the backend;
#X text 1368 15 Test locations;
#X connect 3 0 6 0;
#X connect 3 0 8 0;
#X connect 5 0 2 0;
#X connect 5 0 39 0;
#X connect 8 0 5 0;
#X connect 8 1 5 1;
#X connect 13 0 14 1;
#X connect 14 0 15 0;
#X connect 15 0 12 0;
#X connect 16 0 15 1;
#X connect 17 0 34 1;
#X connect 18 0 12 0;
#X connect 19 0 18 1;
#X connect 20 0 78 0;
#X connect 21 0 76 0;
#X connect 22 0 35 1;
#X connect 23 0 12 0;
#X connect 24 0 23 1;
#X connect 25 0 79 0;
#X connect 26 0 36 1;
#X connect 27 0 12 0;
#X connect 28 0 27 1;
#X connect 29 0 77 0;
#X connect 30 0 68 0;
#X connect 31 0 65 0;
#X connect 32 0 67 0;
#X connect 33 0 69 0;
#X connect 34 0 18 0;
#X connect 35 0 23 0;
#X connect 36 0 27 0;
#X connect 37 0 75 0;
#X connect 37 0 43 0;
#X connect 39 0 12 0;
#X connect 40 0 41 0;
#X connect 41 0 16 0;
#X connect 41 0 19 0;
#X connect 41 0 24 0;
#X connect 41 0 28 0;
#X connect 41 0 58 0;
#X connect 42 0 39 0;
#X connect 43 0 3 1;
#X connect 51 0 0 0;
#X connect 51 0 53 0;
#X connect 52 0 51 0;
#X connect 54 0 44 0;
#X connect 56 0 61 1;
#X connect 57 0 12 0;
#X connect 58 0 57 1;
#X connect 59 0 85 0;
#X connect 60 0 66 0;
#X connect 61 0 57 0;
#X connect 62 0 51 1;
#X connect 63 0 12 0;
#X connect 65 0 34 0;
#X connect 66 0 61 0;
#X connect 67 0 35 0;
#X connect 68 0 14 0;
#X connect 69 0 36 0;
#X connect 70 0 44 0;
#X connect 71 0 44 0;
#X connect 72 0 44 0;
#X connect 73 0 44 0;
#X connect 74 0 44 0;
#X connect 75 0 3 0;
#X connect 76 0 17 0;
#X connect 77 0 26 0;
#X connect 78 0 13 0;
#X connect 79 0 22 0;
#X connect 80 0 12 0;
#X connect 81 0 82 0;
#X connect 82 0 50 0;
#X connect 82 0 0 0;
#X connect 83 0 84 0;
#X connect 84 0 81 0;
#X connect 85 0 56 0;
#X restore 150 208 pd zone-gps-biomes;
#X text 267 209 CSD3 2023);
#X obj 142 285 *~;
#X text 238 186 Sonic Echoes;
#X text 651 61 Include the libraries;
#X connect 0 0 28 0;
#X connect 3 0 4 0;
#X connect 4 0 5 0;
#X connect 5 0 6 0;
#X connect 5 0 55 1;
#X connect 6 0 7 0;
#X connect 6 1 8 0;
#X connect 7 0 49 0;
#X connect 7 0 51 0;
#X connect 8 0 50 0;
#X connect 9 0 10 0;
#X connect 9 0 53 0;
#X connect 10 0 25 0;
#X connect 11 0 25 0;
#X connect 13 0 57 0;
#X connect 14 0 29 0;
#X connect 15 0 36 0;
#X connect 17 0 58 0;
#X connect 17 1 58 1;
#X connect 21 0 23 0;
#X connect 22 0 23 0;
#X connect 23 0 0 0;
#X connect 24 0 48 0;
#X connect 25 0 0 0;
#X connect 26 0 27 0;
#X connect 27 0 25 1;
#X connect 28 0 1 0;
#X connect 29 0 1 1;
#X connect 30 0 28 1;
#X connect 30 0 29 1;
#X connect 31 0 32 0;
#X connect 32 0 30 0;
#X connect 33 0 0 0;
#X connect 34 0 14 0;
#X connect 35 0 43 0;
#X connect 36 0 33 0;
#X connect 36 1 34 0;
#X connect 43 0 36 1;
#X connect 44 0 46 0;
#X connect 45 0 47 0;
#X connect 46 0 33 0;
#X connect 46 1 34 0;
#X connect 47 0 46 1;
#X connect 48 0 23 1;
#X connect 49 0 22 0;
#X connect 50 0 21 0;
#X connect 51 0 44 0;
#X connect 51 1 15 0;
#X connect 53 0 11 0;
#X connect 54 0 17 0;
#X connect 56 0 55 0;
#X connect 57 0 12 0;
#X connect 57 1 59 0;
#X connect 57 2 60 0;
#X connect 59 0 54 0;
#X connect 59 0 63 1;
#X connect 60 0 56 0;
#X connect 61 0 63 0;
#X connect 63 0 58 0;
#X connect 63 0 58 1;
