#N canvas 584 283 849 512 12;
#X obj 40 208 f;
#X obj 77 208 f;
#X floatatom 40 266 5 0 0 0 - - - 0;
#X obj 40 235 * 0.98;
#X obj 97 235 * 1.02;
#X obj 39 327 clip, f 19;
#X msg 168 301 120;
#X obj 101 264 loadbang;
#X msg 102 302 40;
#X obj 39 177 sel 0 1, f 11;
#X obj 38 354 outlet;
#X floatatom 39 122 5 0 0 0 - - - 0;
#X floatatom 41 -92 7 0 0 0 - - - 0;
#X floatatom 108 -95 6 0 0 0 - - - 0;
#X obj 40 -65 +, f 10;
#X obj 40 -36 / 2, f 4;
#X obj 41 17 f, f 7;
#X obj 39 41 -, f 4;
#X floatatom 39 67 5 0 0 0 - - - 0;
#X obj 41 -9 t b i i;
#X obj 39 94 expr abs($f1);
#X text 199 -64 Take sum of both coords;
#X text 87 -39 Take the avarage number;
#X text 129 58 Get the difference between the current and previous coord;
#X text 101 121 Output the value;
#X obj 39 149 expr if($f1 > 0.5 \, 1 \, 0);
#X obj 41 -119 unpack f f;
#X obj 41 -149 r live_loc;
#X connect 0 0 3 0;
#X connect 1 0 4 0;
#X connect 2 0 5 0;
#X connect 3 0 2 0;
#X connect 4 0 2 0;
#X connect 5 0 0 1;
#X connect 5 0 1 1;
#X connect 5 0 10 0;
#X connect 6 0 5 2;
#X connect 7 0 8 0;
#X connect 7 0 6 0;
#X connect 8 0 5 1;
#X connect 9 0 0 0;
#X connect 9 1 1 0;
#X connect 11 0 25 0;
#X connect 12 0 14 0;
#X connect 13 0 14 1;
#X connect 14 0 15 0;
#X connect 15 0 19 0;
#X connect 16 0 17 1;
#X connect 17 0 18 0;
#X connect 18 0 20 0;
#X connect 19 0 16 0;
#X connect 19 1 17 0;
#X connect 19 2 16 1;
#X connect 20 0 11 0;
#X connect 25 0 9 0;
#X connect 26 0 12 0;
#X connect 26 1 13 0;
#X connect 27 0 26 0;
