#N canvas 357 181 1131 595 12;
#X obj 569 248 phasor~ 1;
#X obj 737 221 f;
#X obj 569 468 *~;
#X msg 629 225 0;
#X obj 629 202 t b, f 4;
#X obj 569 300 +~;
#X msg 552 226 0;
#X obj 755 51 random 220;
#X obj 699 468 *~;
#X obj 13 508 *~;
#X obj 148 508 *~;
#X obj 271 505 *~;
#X obj 342 505 *~;
#X obj 629 161 loadbang;
#X obj 289 428 line~;
#X obj 471 248 phasor~ 0.05;
#X obj 587 368 samplerate~;
#X obj 569 445 tabread4~ \$0-waa1;
#X obj 699 445 tabread4~ \$0-waa2;
#X obj 25 110 tabwrite~ \$0-waa1;
#X obj 160 110 tabwrite~ \$0-waa2;
#X obj 148 14 inlet~;
#X obj 13 14 inlet~;
#X obj 76 543 outlet~;
#X obj 195 544 outlet~;
#X msg 349 55 stop;
#X obj 952 146 array define \$0-waa1;
#X obj 952 168 array define \$0-waa2;
#X obj 610 391 array size \$0-waa1;
#X obj 610 414 array size \$0-waa2;
#X msg 766 199 40;
#X obj 755 119 line;
#X obj 755 97 pack 0 500;
#X obj 587 278 samphold~;
#X obj 717 357 line~;
#X obj 760 306 del 100;
#X obj 677 299 del 100;
#X obj 737 243 t b b f;
#X obj 289 10 inlet;
#X obj 569 415 *~;
#X msg 717 329 1 10;
#X msg 760 329 0 10;
#X obj 806 283 + 10;
#X obj 723 277 + 20;
#X obj 755 73 + 10;
#X obj 289 405 pack 0 10;
#X obj 166 470 expr~ 1 - $v1;
#X text 68 13 audio in;
#X obj 289 32 t f b b b;
#X text 335 8 on off trigger;
#X text 835 53 random stutter length;
#X text 335 225 move the stutter loop in time;
#X connect 0 0 5 0;
#X connect 0 0 33 1;
#X connect 1 0 37 0;
#X connect 2 0 11 0;
#X connect 3 0 0 1;
#X connect 4 0 3 0;
#X connect 4 0 1 0;
#X connect 5 0 39 0;
#X connect 6 0 15 1;
#X connect 7 0 44 0;
#X connect 8 0 12 0;
#X connect 9 0 23 0;
#X connect 10 0 24 0;
#X connect 11 0 23 0;
#X connect 12 0 24 0;
#X connect 13 0 16 0;
#X connect 13 0 4 0;
#X connect 13 0 30 0;
#X connect 14 0 11 1;
#X connect 14 0 12 1;
#X connect 14 0 46 0;
#X connect 15 0 33 0;
#X connect 16 0 29 0;
#X connect 16 0 28 0;
#X connect 16 0 39 1;
#X connect 17 0 2 0;
#X connect 18 0 8 0;
#X connect 21 0 20 0;
#X connect 21 0 10 0;
#X connect 22 0 9 0;
#X connect 22 0 19 0;
#X connect 25 0 19 0;
#X connect 25 0 20 0;
#X connect 30 0 1 1;
#X connect 31 0 1 1;
#X connect 32 0 31 0;
#X connect 33 0 5 1;
#X connect 34 0 8 1;
#X connect 34 0 2 1;
#X connect 35 0 41 0;
#X connect 36 0 4 0;
#X connect 37 0 36 0;
#X connect 37 1 35 0;
#X connect 37 1 40 0;
#X connect 37 2 42 0;
#X connect 37 2 43 0;
#X connect 38 0 48 0;
#X connect 39 0 17 0;
#X connect 39 0 18 0;
#X connect 40 0 34 0;
#X connect 41 0 34 0;
#X connect 42 0 35 1;
#X connect 43 0 36 1;
#X connect 44 0 32 0;
#X connect 45 0 14 0;
#X connect 46 0 10 1;
#X connect 46 0 9 1;
#X connect 48 0 45 0;
#X connect 48 1 20 0;
#X connect 48 1 19 0;
#X connect 48 2 6 0;
#X connect 48 2 7 0;
#X connect 48 3 25 0;
#X coords 0 595 1 594 150 100 0;
