#N canvas 298 102 1262 609 10;
#X obj 74 8 change;
#X obj 285 -210 unpack f s f s f s;
#X msg 43 -169 1;
#X msg 103 -169 0;
#X obj 74 -147 tgl 15 0 empty empty empty 17 7 0 10 -262144 -1 -1 0
1;
#X msg 164 -169 1;
#X msg 224 -169 0;
#X obj 200 -147 tgl 15 0 empty empty empty 17 7 0 10 -262144 -1 -1
0 1;
#X obj 43 -187 select rise-begin rise-end fall-begin fall-end none
;
#X msg 401 -169 1;
#X msg 461 -169 0;
#X obj 432 -151 tgl 15 0 empty empty empty 17 7 0 10 -262144 -1 -1
0 1;
#X msg 522 -169 1;
#X msg 582 -169 0;
#X obj 551 -151 tgl 15 0 empty empty empty 17 7 0 10 -262144 -1 -1
0 1;
#X obj 401 -187 select rise-begin rise-end fall-begin fall-end none
;
#X msg 733 -169 1;
#X msg 793 -169 0;
#X obj 764 -151 tgl 15 0 empty empty empty 17 7 0 10 -262144 -1 -1
0 1;
#X msg 824 -169 1;
#X msg 884 -169 0;
#X obj 860 -151 tgl 15 0 empty empty empty 17 7 0 10 -262144 -1 -1
0 1;
#X obj 733 -187 select rise-begin rise-end fall-begin fall-end none
;
#X obj 493 -93 change;
#X obj 493 9 phasor~;
#X floatatom 438 91 5 0 0 0 - - -, f 5;
#X obj 493 -29 line;
#X obj 493 -48 pack 0 1000;
#X msg 438 73 57;
#X obj 492 36 hip~ 500;
#X floatatom 502 90 5 0 0 0 - - -, f 5;
#X msg 502 72 500;
#X obj 502 54 loadbang;
#X obj 438 54 loadbang;
#X text 433 38 resonance;
#X obj 493 108 vcf~;
#X floatatom 493 -71 5 0 0 0 - - -, f 5;
#X obj 429 243 +~;
#X obj 454 243 +~;
#X obj 557 76 pack 0 1000;
#X obj 493 140 *~;
#X obj 212 29 line;
#X obj 212 11 pack 0 1000;
#X obj 197 113 osc~;
#X obj 75 113 line;
#X obj 75 96 pack 0 1000;
#X obj 197 95 +~;
#X obj 196 -10 *~ 18;
#X obj 197 149 *~ 1;
#X obj 212 65 + 70;
#X obj 197 131 *~ 0.025;
#X obj 74 30 bng 15 250 50 0 empty empty empty 17 7 0 10 -262144 -1
-1;
#X obj 102 63 bng 15 250 50 0 empty empty empty 17 7 0 10 -262144 -1
-1;
#X msg 102 78 0;
#X msg 75 78 1;
#X obj 74 45 delay 1000;
#X obj 196 -29 osc~ 90;
#X floatatom 212 -91 5 0 0 0 - - -, f 5;
#X obj 229 197 *~;
#X obj 272 130 pack 0 1000;
#X floatatom 212 -49 5 0 0 0 - - -, f 5;
#X obj 211 47 * 500;
#X obj 493 -11 * 0.5;
#X obj 212 -69 autonorm 10 20;
#X obj 75 131 * 2;
#X obj 692 225 *~ 0.3;
#X obj 744 226 *~ 0.7;
#X obj 250 225 *~ 0.3;
#X obj 206 225 *~ 0.7;
#X obj 272 149 line~;
#X obj 557 94 line~;
#X obj 821 -105 change;
#X obj 837 -46 soundfiler;
#N canvas 0 50 450 300 (subpatch) 0;
#X array turbid-sample 58731 float 0;
#X coords 0 1 58730 -1 200 140 1 0 0;
#X restore 936 -4 graph;
#X obj 837 -82 loadbang;
#X obj 822 181 tabread4~ turbid-sample;
#X obj 821 99 phasor~;
#X obj 821 63 pack 0 1000;
#X obj 821 81 line;
#X obj 822 130 *~;
#X floatatom 821 20 5 0 0 0 - - -, f 5;
#X obj 821 -1 autonorm 700 900;
#X obj 751 200 *~;
#X obj 764 -108 line;
#X msg 837 -65 read -resize Dong4A-1.wav turbid-sample;
#X obj 821 39 / 2;
#X obj 764 -131 pack 0 1000;
#X obj 288 -258 unpackOSC;
#X obj 286 -231 route /sensors, f 19;
#X msg 289 -298 port 8889;
#X obj 288 -278 udpreceive 8889;
#X obj 474 274 outlet~;
#X obj 419 275 outlet~;
#X obj -50 -278 inlet;
#X obj 22 -244 line~;
#X obj 23 -269 pack 1 5000;
#X obj -52 -166 switch~;
#X obj -51 -255 moses 1;
#X obj -51 -210 delay 5000;
#X floatatom -51 -183 5 0 0 0 - - -, f 5;
#X obj -53 -232 sel 0;
#X text -55 -301 switch off the audio dsp after it's finished fading
out;
#X obj 366 112 *~;
#X obj 326 -87 bng 15 250 50 0 empty empty empty 17 7 0 10 -262144
-1 -1;
#X msg 356 -35 0;
#X msg 329 -34 1;
#X obj 333 -109 loadbang;
#X obj 366 135 *~ 0.2;
#X obj 358 87 osc~ 540;
#X obj 310 71 line~;
#X obj 328 -68 delay 100;
#X obj 309 52 pack 0 100;
#X obj 266 368 soundfiler;
#N canvas 0 50 450 300 (subpatch) 0;
#X array error-sample 120512 float 0;
#X coords 0 1 120511 -1 200 140 1 0 0;
#X restore 45 265 graph;
#X obj 266 332 loadbang;
#X msg 266 349 read -resize sensor-error.wav error-sample;
#X obj 38 409 tabplay~ error-sample;
#X obj 27 264 bng 15 250 50 0 empty empty empty 17 7 0 10 -262144 -1
-1;
#X obj 25 -218 route /sensors-error;
#X connect 0 0 51 0;
#X connect 1 0 0 0;
#X connect 1 0 57 0;
#X connect 1 1 8 0;
#X connect 1 2 23 0;
#X connect 1 3 15 0;
#X connect 1 4 71 0;
#X connect 1 5 22 0;
#X connect 2 0 4 0;
#X connect 3 0 4 0;
#X connect 4 0 59 0;
#X connect 5 0 7 0;
#X connect 6 0 7 0;
#X connect 7 0 59 0;
#X connect 8 0 2 0;
#X connect 8 1 3 0;
#X connect 8 2 5 0;
#X connect 8 3 6 0;
#X connect 9 0 11 0;
#X connect 10 0 11 0;
#X connect 11 0 39 0;
#X connect 12 0 14 0;
#X connect 13 0 14 0;
#X connect 14 0 39 0;
#X connect 15 0 9 0;
#X connect 15 1 10 0;
#X connect 15 2 12 0;
#X connect 15 3 13 0;
#X connect 16 0 18 0;
#X connect 17 0 18 0;
#X connect 18 0 86 0;
#X connect 19 0 21 0;
#X connect 20 0 21 0;
#X connect 21 0 86 0;
#X connect 22 0 16 0;
#X connect 22 1 17 0;
#X connect 22 2 19 0;
#X connect 22 3 20 0;
#X connect 23 0 36 0;
#X connect 24 0 29 0;
#X connect 25 0 35 2;
#X connect 26 0 62 0;
#X connect 27 0 26 0;
#X connect 28 0 25 0;
#X connect 29 0 35 0;
#X connect 30 0 35 1;
#X connect 31 0 30 0;
#X connect 32 0 31 0;
#X connect 33 0 28 0;
#X connect 35 0 40 0;
#X connect 36 0 27 0;
#X connect 37 0 92 0;
#X connect 38 0 91 0;
#X connect 39 0 70 0;
#X connect 40 0 38 0;
#X connect 40 0 37 0;
#X connect 41 0 61 0;
#X connect 42 0 41 0;
#X connect 43 0 50 0;
#X connect 44 0 64 0;
#X connect 45 0 44 0;
#X connect 46 0 43 0;
#X connect 47 0 46 0;
#X connect 48 0 58 0;
#X connect 49 0 46 1;
#X connect 50 0 48 0;
#X connect 51 0 54 0;
#X connect 51 0 55 0;
#X connect 52 0 53 0;
#X connect 53 0 45 0;
#X connect 54 0 45 0;
#X connect 55 0 52 0;
#X connect 56 0 47 0;
#X connect 57 0 63 0;
#X connect 58 0 67 0;
#X connect 58 0 68 0;
#X connect 59 0 69 0;
#X connect 61 0 49 0;
#X connect 62 0 24 0;
#X connect 63 0 42 0;
#X connect 63 0 60 0;
#X connect 64 0 48 1;
#X connect 65 0 37 0;
#X connect 66 0 38 0;
#X connect 67 0 38 0;
#X connect 68 0 37 0;
#X connect 69 0 58 1;
#X connect 70 0 40 1;
#X connect 71 0 81 0;
#X connect 72 0 79 1;
#X connect 74 0 84 0;
#X connect 75 0 82 0;
#X connect 76 0 79 0;
#X connect 77 0 78 0;
#X connect 78 0 76 0;
#X connect 79 0 75 0;
#X connect 80 0 85 0;
#X connect 81 0 80 0;
#X connect 82 0 66 0;
#X connect 82 0 65 0;
#X connect 83 0 82 1;
#X connect 84 0 72 0;
#X connect 85 0 77 0;
#X connect 86 0 83 0;
#X connect 87 0 88 0;
#X connect 87 0 118 0;
#X connect 88 0 1 0;
#X connect 89 0 90 0;
#X connect 90 0 87 0;
#X connect 93 0 95 0;
#X connect 93 0 97 0;
#X connect 95 0 94 0;
#X connect 97 0 100 0;
#X connect 97 1 96 0;
#X connect 98 0 99 0;
#X connect 99 0 96 0;
#X connect 100 0 98 0;
#X connect 102 0 107 0;
#X connect 103 0 105 0;
#X connect 103 0 110 0;
#X connect 104 0 111 0;
#X connect 105 0 111 0;
#X connect 106 0 103 0;
#X connect 107 0 37 0;
#X connect 108 0 102 0;
#X connect 109 0 102 1;
#X connect 110 0 104 0;
#X connect 111 0 109 0;
#X connect 114 0 115 0;
#X connect 115 0 112 0;
#X connect 116 0 37 0;
#X connect 116 0 38 0;
#X connect 117 0 116 0;
#X connect 118 0 117 0;
