#N canvas 63 88 1603 906 12;
#N canvas 92 117 1576 852 triggers 1;
#N canvas 161 168 1208 544 trigger_camel 0;
#X obj 16 8 inlet;
#X obj 196 8 inlet;
#X obj 16 98 sel 1;
#X obj 17 231 outlet~;
#X obj 59 72 r reset;
#N canvas 854 254 818 702 geo_calc_dist_in_range 0;
#X obj 199 6 inlet;
#X text 241 6 Loc;
#X obj 207 343 outlet;
#X obj 17 39 unpack f f, f 15;
#X floatatom 17 101 9 0 0 0 - - - 0;
#X floatatom 118 101 8 0 0 0 - - - 0;
#X obj 199 39 unpack f f;
#X floatatom 200 101 7 0 0 0 - - - 0;
#X floatatom 268 101 7 0 0 0 - - - 0;
#X obj 17 212 expr pow(pow($f1 \, 2) + pow($f2 \, 2) \, 0.5);
#X floatatom 17 180 5 0 0 0 - - - 0;
#X floatatom 293 176 13 0 0 0 - - - 0;
#X obj 17 133 expr abs($f1 - $f3) \; abs($f2 - $f4), f 40;
#X text 310 139 Absolute value of dist between the x and y;
#X obj 317 6 inlet;
#X text 359 7 Range;
#X obj 20 276 expr if($f1 < $f2 \, 1 \, 0) \; if($f1 < $f2 \, $f1 \, 0), f 26;
#X obj 22 347 outlet;
#X floatatom 43 243 10 0 0 0 - - - 0;
#X text 119 242 Distance;
#X text 311 211 Pythagoras;
#X text 62 179 Distance x;
#X text 404 178 Distance y;
#X text 261 345 Distance > 0;
#X obj 16 7 r live_loc;
#X text 75 344 In Range 0 = no 1 = yes, f 8;
#X connect 0 0 6 0;
#X connect 3 0 4 0;
#X connect 3 1 5 0;
#X connect 4 0 12 0;
#X connect 5 0 12 1;
#X connect 6 0 7 0;
#X connect 6 1 8 0;
#X connect 7 0 12 2;
#X connect 8 0 12 3;
#X connect 9 0 16 0;
#X connect 9 0 18 0;
#X connect 10 0 9 0;
#X connect 11 0 9 1;
#X connect 12 0 10 0;
#X connect 12 1 11 0;
#X connect 14 0 16 1;
#X connect 16 0 17 0;
#X connect 16 1 2 0;
#X connect 24 0 3 0;
#X restore 16 48 pd geo_calc_dist_in_range;
#X f 26;
#X text 59 7 Loc of trigger;
#X text 244 7 Range of trigger;
#X msg 244 45 5.2 52.902, f 17;
#N canvas 145 84 1109 711 trigger 0;
#X obj 333 182 inlet;
#X obj 384 182 inlet;
#X text 384 155 reset, f 6;
#X text 329 155 trigger;
#X obj 333 354 readsf~, f 8;
#X obj 333 443 outlet~, f 8;
#X obj 435 182 inlet;
#X msg 333 213 start, f 6;
#X msg 394 250 0;
#X msg 384 213 1;
#X msg 333 314 start;
#X obj 435 240 print;
#X obj 333 269 spigot;
#X text 433 155 sample name;
#X obj 333 397 *~ 1;
#X connect 0 0 7 0;
#X connect 1 0 9 0;
#X connect 4 0 14 0;
#X connect 4 1 8 0;
#X connect 6 0 11 0;
#X connect 6 0 4 0;
#X connect 7 0 12 0;
#X connect 8 0 12 1;
#X connect 9 0 12 1;
#X connect 10 0 4 0;
#X connect 12 0 10 0;
#X connect 14 0 5 0;
#X restore 16 189 pd trigger;
#X obj 434 8 inlet;
#X text 476 7 Test trigger;
#X obj 59 128 t b b;
#X obj 434 41 t b b;
#X text 118 72 Global Reset;
#X text 61 97 If in range bang;
#X text 200 156 Load the sound and reset;
#X msg 89 155 open camel.wav;
#X connect 0 0 5 0;
#X connect 1 0 5 1;
#X connect 2 0 9 0;
#X connect 4 0 12 0;
#X connect 5 0 2 0;
#X connect 8 0 5 0;
#X connect 9 0 3 0;
#X connect 10 0 13 0;
#X connect 12 0 9 1;
#X connect 12 1 17 0;
#X connect 13 0 9 0;
#X connect 13 1 12 0;
#X connect 17 0 9 2;
#X restore 96 312 pd trigger_camel;
#N canvas 161 168 1208 544 trigger_vulture 0;
#X obj 16 8 inlet;
#X obj 196 8 inlet;
#X obj 16 98 sel 1;
#X obj 17 231 outlet~;
#X obj 59 72 r reset;
#N canvas 854 254 818 702 geo_calc_dist_in_range 0;
#X obj 199 6 inlet;
#X text 241 6 Loc;
#X obj 207 343 outlet;
#X obj 17 39 unpack f f, f 15;
#X floatatom 17 101 9 0 0 0 - - - 0;
#X floatatom 118 101 8 0 0 0 - - - 0;
#X obj 199 39 unpack f f;
#X floatatom 200 101 7 0 0 0 - - - 0;
#X floatatom 268 101 7 0 0 0 - - - 0;
#X obj 17 212 expr pow(pow($f1 \, 2) + pow($f2 \, 2) \, 0.5);
#X floatatom 17 180 5 0 0 0 - - - 0;
#X floatatom 293 176 13 0 0 0 - - - 0;
#X obj 17 133 expr abs($f1 - $f3) \; abs($f2 - $f4), f 40;
#X text 310 139 Absolute value of dist between the x and y;
#X obj 317 6 inlet;
#X text 359 7 Range;
#X obj 20 276 expr if($f1 < $f2 \, 1 \, 0) \; if($f1 < $f2 \, $f1 \, 0), f 26;
#X obj 22 347 outlet;
#X floatatom 43 243 10 0 0 0 - - - 0;
#X text 119 242 Distance;
#X text 311 211 Pythagoras;
#X text 62 179 Distance x;
#X text 404 178 Distance y;
#X text 261 345 Distance > 0;
#X obj 16 7 r live_loc;
#X text 75 344 In Range 0 = no 1 = yes, f 8;
#X connect 0 0 6 0;
#X connect 3 0 4 0;
#X connect 3 1 5 0;
#X connect 4 0 12 0;
#X connect 5 0 12 1;
#X connect 6 0 7 0;
#X connect 6 1 8 0;
#X connect 7 0 12 2;
#X connect 8 0 12 3;
#X connect 9 0 16 0;
#X connect 9 0 18 0;
#X connect 10 0 9 0;
#X connect 11 0 9 1;
#X connect 12 0 10 0;
#X connect 12 1 11 0;
#X connect 14 0 16 1;
#X connect 16 0 17 0;
#X connect 16 1 2 0;
#X connect 24 0 3 0;
#X restore 16 48 pd geo_calc_dist_in_range;
#X f 26;
#X text 59 7 Loc of trigger;
#X text 244 7 Range of trigger;
#X msg 244 45 5.2 52.902, f 17;
#N canvas 145 84 1109 711 trigger 0;
#X obj 333 182 inlet;
#X obj 384 182 inlet;
#X text 384 155 reset, f 6;
#X text 329 155 trigger;
#X obj 333 354 readsf~, f 8;
#X obj 333 443 outlet~, f 8;
#X obj 435 182 inlet;
#X msg 333 213 start, f 6;
#X msg 394 250 0;
#X msg 384 213 1;
#X msg 333 314 start;
#X obj 435 240 print;
#X obj 333 269 spigot;
#X text 433 155 sample name;
#X obj 333 397 *~ 1;
#X connect 0 0 7 0;
#X connect 1 0 9 0;
#X connect 4 0 14 0;
#X connect 4 1 8 0;
#X connect 6 0 11 0;
#X connect 6 0 4 0;
#X connect 7 0 12 0;
#X connect 8 0 12 1;
#X connect 9 0 12 1;
#X connect 10 0 4 0;
#X connect 12 0 10 0;
#X connect 14 0 5 0;
#X restore 16 189 pd trigger;
#X obj 434 8 inlet;
#X text 476 7 Test trigger;
#X obj 59 128 t b b;
#X obj 434 41 t b b;
#X text 118 72 Global Reset;
#X text 61 97 If in range bang;
#X text 200 156 Load the sound and reset;
#X msg 89 155 open vulture.wav;
#X connect 0 0 5 0;
#X connect 1 0 5 1;
#X connect 2 0 9 0;
#X connect 4 0 12 0;
#X connect 5 0 2 0;
#X connect 8 0 5 0;
#X connect 9 0 3 0;
#X connect 10 0 13 0;
#X connect 12 0 9 1;
#X connect 12 1 17 0;
#X connect 13 0 9 0;
#X connect 13 1 12 0;
#X connect 17 0 9 2;
#X restore 220 312 pd trigger_vulture;
#N canvas 161 168 1208 544 trigger_lion 0;
#X obj 16 8 inlet;
#X obj 196 8 inlet;
#X obj 16 98 sel 1;
#X obj 17 231 outlet~;
#X obj 59 72 r reset;
#N canvas 854 254 818 702 geo_calc_dist_in_range 0;
#X obj 199 6 inlet;
#X text 241 6 Loc;
#X obj 207 343 outlet;
#X obj 17 39 unpack f f, f 15;
#X floatatom 17 101 9 0 0 0 - - - 0;
#X floatatom 118 101 8 0 0 0 - - - 0;
#X obj 199 39 unpack f f;
#X floatatom 200 101 7 0 0 0 - - - 0;
#X floatatom 268 101 7 0 0 0 - - - 0;
#X obj 17 212 expr pow(pow($f1 \, 2) + pow($f2 \, 2) \, 0.5);
#X floatatom 17 180 5 0 0 0 - - - 0;
#X floatatom 293 176 13 0 0 0 - - - 0;
#X obj 17 133 expr abs($f1 - $f3) \; abs($f2 - $f4), f 40;
#X text 310 139 Absolute value of dist between the x and y;
#X obj 317 6 inlet;
#X text 359 7 Range;
#X obj 20 276 expr if($f1 < $f2 \, 1 \, 0) \; if($f1 < $f2 \, $f1 \, 0), f 26;
#X obj 22 347 outlet;
#X floatatom 43 243 10 0 0 0 - - - 0;
#X text 119 242 Distance;
#X text 311 211 Pythagoras;
#X text 62 179 Distance x;
#X text 404 178 Distance y;
#X text 261 345 Distance > 0;
#X obj 16 7 r live_loc;
#X text 75 344 In Range 0 = no 1 = yes, f 8;
#X connect 0 0 6 0;
#X connect 3 0 4 0;
#X connect 3 1 5 0;
#X connect 4 0 12 0;
#X connect 5 0 12 1;
#X connect 6 0 7 0;
#X connect 6 1 8 0;
#X connect 7 0 12 2;
#X connect 8 0 12 3;
#X connect 9 0 16 0;
#X connect 9 0 18 0;
#X connect 10 0 9 0;
#X connect 11 0 9 1;
#X connect 12 0 10 0;
#X connect 12 1 11 0;
#X connect 14 0 16 1;
#X connect 16 0 17 0;
#X connect 16 1 2 0;
#X connect 24 0 3 0;
#X restore 16 48 pd geo_calc_dist_in_range;
#X f 26;
#X text 59 7 Loc of trigger;
#X text 244 7 Range of trigger;
#X msg 244 45 5.2 52.902, f 17;
#N canvas 145 84 1109 711 trigger 0;
#X obj 333 182 inlet;
#X obj 384 182 inlet;
#X text 384 155 reset, f 6;
#X text 329 155 trigger;
#X obj 333 354 readsf~, f 8;
#X obj 333 443 outlet~, f 8;
#X obj 435 182 inlet;
#X msg 333 213 start, f 6;
#X msg 394 250 0;
#X msg 384 213 1;
#X msg 333 314 start;
#X obj 435 240 print;
#X obj 333 269 spigot;
#X text 433 155 sample name;
#X obj 333 397 *~ 1;
#X connect 0 0 7 0;
#X connect 1 0 9 0;
#X connect 4 0 14 0;
#X connect 4 1 8 0;
#X connect 6 0 11 0;
#X connect 6 0 4 0;
#X connect 7 0 12 0;
#X connect 8 0 12 1;
#X connect 9 0 12 1;
#X connect 10 0 4 0;
#X connect 12 0 10 0;
#X connect 14 0 5 0;
#X restore 16 189 pd trigger;
#X obj 434 8 inlet;
#X text 476 7 Test trigger;
#X obj 59 128 t b b;
#X obj 434 41 t b b;
#X text 118 72 Global Reset;
#X text 61 97 If in range bang;
#X text 200 156 Load the sound and reset;
#X msg 89 155 open camel.wav;
#X connect 0 0 5 0;
#X connect 1 0 5 1;
#X connect 2 0 9 0;
#X connect 4 0 12 0;
#X connect 5 0 2 0;
#X connect 8 0 5 0;
#X connect 9 0 3 0;
#X connect 10 0 13 0;
#X connect 12 0 9 1;
#X connect 12 1 17 0;
#X connect 13 0 9 0;
#X connect 13 1 12 0;
#X connect 17 0 9 2;
#X restore 579 332 pd trigger_lion;
#N canvas 161 168 1208 544 trigger_monkey 0;
#X obj 16 8 inlet;
#X obj 196 8 inlet;
#X obj 16 98 sel 1;
#X obj 17 231 outlet~;
#X obj 59 72 r reset;
#N canvas 854 254 818 702 geo_calc_dist_in_range 0;
#X obj 199 6 inlet;
#X text 241 6 Loc;
#X obj 207 343 outlet;
#X obj 17 39 unpack f f, f 15;
#X floatatom 17 101 9 0 0 0 - - - 0;
#X floatatom 118 101 8 0 0 0 - - - 0;
#X obj 199 39 unpack f f;
#X floatatom 200 101 7 0 0 0 - - - 0;
#X floatatom 268 101 7 0 0 0 - - - 0;
#X obj 17 212 expr pow(pow($f1 \, 2) + pow($f2 \, 2) \, 0.5);
#X floatatom 17 180 5 0 0 0 - - - 0;
#X floatatom 293 176 13 0 0 0 - - - 0;
#X obj 17 133 expr abs($f1 - $f3) \; abs($f2 - $f4), f 40;
#X text 310 139 Absolute value of dist between the x and y;
#X obj 317 6 inlet;
#X text 359 7 Range;
#X obj 20 276 expr if($f1 < $f2 \, 1 \, 0) \; if($f1 < $f2 \, $f1 \, 0), f 26;
#X obj 22 347 outlet;
#X floatatom 43 243 10 0 0 0 - - - 0;
#X text 119 242 Distance;
#X text 311 211 Pythagoras;
#X text 62 179 Distance x;
#X text 404 178 Distance y;
#X text 261 345 Distance > 0;
#X obj 16 7 r live_loc;
#X text 75 344 In Range 0 = no 1 = yes, f 8;
#X connect 0 0 6 0;
#X connect 3 0 4 0;
#X connect 3 1 5 0;
#X connect 4 0 12 0;
#X connect 5 0 12 1;
#X connect 6 0 7 0;
#X connect 6 1 8 0;
#X connect 7 0 12 2;
#X connect 8 0 12 3;
#X connect 9 0 16 0;
#X connect 9 0 18 0;
#X connect 10 0 9 0;
#X connect 11 0 9 1;
#X connect 12 0 10 0;
#X connect 12 1 11 0;
#X connect 14 0 16 1;
#X connect 16 0 17 0;
#X connect 16 1 2 0;
#X connect 24 0 3 0;
#X restore 16 48 pd geo_calc_dist_in_range;
#X f 26;
#X text 59 7 Loc of trigger;
#X text 244 7 Range of trigger;
#X msg 244 45 5.2 52.902, f 17;
#N canvas 145 84 1109 711 trigger 0;
#X obj 333 182 inlet;
#X obj 384 182 inlet;
#X text 384 155 reset, f 6;
#X text 329 155 trigger;
#X obj 333 354 readsf~, f 8;
#X obj 333 443 outlet~, f 8;
#X obj 435 182 inlet;
#X msg 333 213 start, f 6;
#X msg 394 250 0;
#X msg 384 213 1;
#X msg 333 314 start;
#X obj 435 240 print;
#X obj 333 269 spigot;
#X text 433 155 sample name;
#X obj 333 397 *~ 1;
#X connect 0 0 7 0;
#X connect 1 0 9 0;
#X connect 4 0 14 0;
#X connect 4 1 8 0;
#X connect 6 0 11 0;
#X connect 6 0 4 0;
#X connect 7 0 12 0;
#X connect 8 0 12 1;
#X connect 9 0 12 1;
#X connect 10 0 4 0;
#X connect 12 0 10 0;
#X connect 14 0 5 0;
#X restore 16 189 pd trigger;
#X obj 434 8 inlet;
#X text 476 7 Test trigger;
#X obj 59 128 t b b;
#X obj 434 41 t b b;
#X text 118 72 Global Reset;
#X text 61 97 If in range bang;
#X text 200 156 Load the sound and reset;
#X msg 89 155 open monkey.wav;
#X connect 0 0 5 0;
#X connect 1 0 5 1;
#X connect 2 0 9 0;
#X connect 4 0 12 0;
#X connect 5 0 2 0;
#X connect 8 0 5 0;
#X connect 9 0 3 0;
#X connect 10 0 13 0;
#X connect 12 0 9 1;
#X connect 12 1 17 0;
#X connect 13 0 9 0;
#X connect 13 1 12 0;
#X connect 17 0 9 2;
#X restore 698 332 pd trigger_monkey;
#N canvas 161 168 1208 544 trigger_ocean 0;
#X obj 16 8 inlet;
#X obj 196 8 inlet;
#X obj 16 98 sel 1;
#X obj 17 231 outlet~;
#X obj 59 72 r reset;
#N canvas 854 254 818 702 geo_calc_dist_in_range 0;
#X obj 199 6 inlet;
#X text 241 6 Loc;
#X obj 207 343 outlet;
#X obj 17 39 unpack f f, f 15;
#X floatatom 17 101 9 0 0 0 - - - 0;
#X floatatom 118 101 8 0 0 0 - - - 0;
#X obj 199 39 unpack f f;
#X floatatom 200 101 7 0 0 0 - - - 0;
#X floatatom 268 101 7 0 0 0 - - - 0;
#X obj 17 212 expr pow(pow($f1 \, 2) + pow($f2 \, 2) \, 0.5);
#X floatatom 17 180 5 0 0 0 - - - 0;
#X floatatom 293 176 13 0 0 0 - - - 0;
#X obj 17 133 expr abs($f1 - $f3) \; abs($f2 - $f4), f 40;
#X text 310 139 Absolute value of dist between the x and y;
#X obj 317 6 inlet;
#X text 359 7 Range;
#X obj 20 276 expr if($f1 < $f2 \, 1 \, 0) \; if($f1 < $f2 \, $f1 \, 0), f 26;
#X obj 22 347 outlet;
#X floatatom 43 243 10 0 0 0 - - - 0;
#X text 119 242 Distance;
#X text 311 211 Pythagoras;
#X text 62 179 Distance x;
#X text 404 178 Distance y;
#X text 261 345 Distance > 0;
#X obj 16 7 r live_loc;
#X text 75 344 In Range 0 = no 1 = yes, f 8;
#X connect 0 0 6 0;
#X connect 3 0 4 0;
#X connect 3 1 5 0;
#X connect 4 0 12 0;
#X connect 5 0 12 1;
#X connect 6 0 7 0;
#X connect 6 1 8 0;
#X connect 7 0 12 2;
#X connect 8 0 12 3;
#X connect 9 0 16 0;
#X connect 9 0 18 0;
#X connect 10 0 9 0;
#X connect 11 0 9 1;
#X connect 12 0 10 0;
#X connect 12 1 11 0;
#X connect 14 0 16 1;
#X connect 16 0 17 0;
#X connect 16 1 2 0;
#X connect 24 0 3 0;
#X restore 16 48 pd geo_calc_dist_in_range;
#X f 26;
#X text 59 7 Loc of trigger;
#X text 244 7 Range of trigger;
#X msg 244 45 5.2 52.902, f 17;
#N canvas 145 84 1109 711 trigger 0;
#X obj 333 182 inlet;
#X obj 384 182 inlet;
#X text 384 155 reset, f 6;
#X text 329 155 trigger;
#X obj 333 354 readsf~, f 8;
#X obj 333 443 outlet~, f 8;
#X obj 435 182 inlet;
#X msg 333 213 start, f 6;
#X msg 394 250 0;
#X msg 384 213 1;
#X msg 333 314 start;
#X obj 435 240 print;
#X obj 333 269 spigot;
#X text 433 155 sample name;
#X obj 333 397 *~ 1;
#X connect 0 0 7 0;
#X connect 1 0 9 0;
#X connect 4 0 14 0;
#X connect 4 1 8 0;
#X connect 6 0 11 0;
#X connect 6 0 4 0;
#X connect 7 0 12 0;
#X connect 8 0 12 1;
#X connect 9 0 12 1;
#X connect 10 0 4 0;
#X connect 12 0 10 0;
#X connect 14 0 5 0;
#X restore 16 189 pd trigger;
#X obj 434 8 inlet;
#X text 476 7 Test trigger;
#X obj 59 128 t b b;
#X obj 434 41 t b b;
#X text 118 72 Global Reset;
#X text 61 97 If in range bang;
#X text 200 156 Load the sound and reset;
#X msg 89 155 open walvis.wav;
#X connect 0 0 5 0;
#X connect 1 0 5 1;
#X connect 2 0 9 0;
#X connect 4 0 12 0;
#X connect 5 0 2 0;
#X connect 8 0 5 0;
#X connect 9 0 3 0;
#X connect 10 0 13 0;
#X connect 12 0 9 1;
#X connect 12 1 17 0;
#X connect 13 0 9 0;
#X connect 13 1 12 0;
#X connect 17 0 9 2;
#X restore 47 528 pd trigger_ocean;
#N canvas 161 168 1208 544 trigger_space_animal 0;
#X obj 16 8 inlet;
#X obj 196 8 inlet;
#X obj 16 98 sel 1;
#X obj 17 231 outlet~;
#X obj 59 72 r reset;
#N canvas 854 254 818 702 geo_calc_dist_in_range 0;
#X obj 199 6 inlet;
#X text 241 6 Loc;
#X obj 207 343 outlet;
#X obj 17 39 unpack f f, f 15;
#X floatatom 17 101 9 0 0 0 - - - 0;
#X floatatom 118 101 8 0 0 0 - - - 0;
#X obj 199 39 unpack f f;
#X floatatom 200 101 7 0 0 0 - - - 0;
#X floatatom 268 101 7 0 0 0 - - - 0;
#X obj 17 212 expr pow(pow($f1 \, 2) + pow($f2 \, 2) \, 0.5);
#X floatatom 17 180 5 0 0 0 - - - 0;
#X floatatom 293 176 13 0 0 0 - - - 0;
#X obj 17 133 expr abs($f1 - $f3) \; abs($f2 - $f4), f 40;
#X text 310 139 Absolute value of dist between the x and y;
#X obj 317 6 inlet;
#X text 359 7 Range;
#X obj 20 276 expr if($f1 < $f2 \, 1 \, 0) \; if($f1 < $f2 \, $f1 \, 0), f 26;
#X obj 22 347 outlet;
#X floatatom 43 243 10 0 0 0 - - - 0;
#X text 119 242 Distance;
#X text 311 211 Pythagoras;
#X text 62 179 Distance x;
#X text 404 178 Distance y;
#X text 261 345 Distance > 0;
#X obj 16 7 r live_loc;
#X text 75 344 In Range 0 = no 1 = yes, f 8;
#X connect 0 0 6 0;
#X connect 3 0 4 0;
#X connect 3 1 5 0;
#X connect 4 0 12 0;
#X connect 5 0 12 1;
#X connect 6 0 7 0;
#X connect 6 1 8 0;
#X connect 7 0 12 2;
#X connect 8 0 12 3;
#X connect 9 0 16 0;
#X connect 9 0 18 0;
#X connect 10 0 9 0;
#X connect 11 0 9 1;
#X connect 12 0 10 0;
#X connect 12 1 11 0;
#X connect 14 0 16 1;
#X connect 16 0 17 0;
#X connect 16 1 2 0;
#X connect 24 0 3 0;
#X restore 16 48 pd geo_calc_dist_in_range;
#X f 26;
#X text 59 7 Loc of trigger;
#X text 244 7 Range of trigger;
#X msg 244 45 5.2 52.902, f 17;
#N canvas 145 84 1109 711 trigger 0;
#X obj 333 182 inlet;
#X obj 384 182 inlet;
#X text 384 155 reset, f 6;
#X text 329 155 trigger;
#X obj 333 354 readsf~, f 8;
#X obj 333 443 outlet~, f 8;
#X obj 435 182 inlet;
#X msg 333 213 start, f 6;
#X msg 394 250 0;
#X msg 384 213 1;
#X msg 333 314 start;
#X obj 435 240 print;
#X obj 333 269 spigot;
#X text 433 155 sample name;
#X obj 333 397 *~ 1;
#X connect 0 0 7 0;
#X connect 1 0 9 0;
#X connect 4 0 14 0;
#X connect 4 1 8 0;
#X connect 6 0 11 0;
#X connect 6 0 4 0;
#X connect 7 0 12 0;
#X connect 8 0 12 1;
#X connect 9 0 12 1;
#X connect 10 0 4 0;
#X connect 12 0 10 0;
#X connect 14 0 5 0;
#X restore 16 189 pd trigger;
#X obj 434 8 inlet;
#X text 476 7 Test trigger;
#X obj 59 128 t b b;
#X obj 434 41 t b b;
#X text 118 72 Global Reset;
#X text 61 97 If in range bang;
#X text 255 155 Load the sound and reset;
#X msg 89 155 open space_animal.wav;
#X connect 0 0 5 0;
#X connect 1 0 5 1;
#X connect 2 0 9 0;
#X connect 4 0 12 0;
#X connect 5 0 2 0;
#X connect 8 0 5 0;
#X connect 9 0 3 0;
#X connect 10 0 13 0;
#X connect 12 0 9 1;
#X connect 12 1 17 0;
#X connect 13 0 9 0;
#X connect 13 1 12 0;
#X connect 17 0 9 2;
#X restore 501 542 pd trigger_space_animal;
#N canvas 161 168 1208 544 trigger_spaceship 0;
#X obj 16 8 inlet;
#X obj 196 8 inlet;
#X obj 16 98 sel 1;
#X obj 17 231 outlet~;
#X obj 59 72 r reset;
#N canvas 854 254 818 702 geo_calc_dist_in_range 0;
#X obj 199 6 inlet;
#X text 241 6 Loc;
#X obj 207 343 outlet;
#X obj 17 39 unpack f f, f 15;
#X floatatom 17 101 9 0 0 0 - - - 0;
#X floatatom 118 101 8 0 0 0 - - - 0;
#X obj 199 39 unpack f f;
#X floatatom 200 101 7 0 0 0 - - - 0;
#X floatatom 268 101 7 0 0 0 - - - 0;
#X obj 17 212 expr pow(pow($f1 \, 2) + pow($f2 \, 2) \, 0.5);
#X floatatom 17 180 5 0 0 0 - - - 0;
#X floatatom 293 176 13 0 0 0 - - - 0;
#X obj 17 133 expr abs($f1 - $f3) \; abs($f2 - $f4), f 40;
#X text 310 139 Absolute value of dist between the x and y;
#X obj 317 6 inlet;
#X text 359 7 Range;
#X obj 20 276 expr if($f1 < $f2 \, 1 \, 0) \; if($f1 < $f2 \, $f1 \, 0), f 26;
#X obj 22 347 outlet;
#X floatatom 43 243 10 0 0 0 - - - 0;
#X text 119 242 Distance;
#X text 311 211 Pythagoras;
#X text 62 179 Distance x;
#X text 404 178 Distance y;
#X text 261 345 Distance > 0;
#X obj 16 7 r live_loc;
#X text 75 344 In Range 0 = no 1 = yes, f 8;
#X connect 0 0 6 0;
#X connect 3 0 4 0;
#X connect 3 1 5 0;
#X connect 4 0 12 0;
#X connect 5 0 12 1;
#X connect 6 0 7 0;
#X connect 6 1 8 0;
#X connect 7 0 12 2;
#X connect 8 0 12 3;
#X connect 9 0 16 0;
#X connect 9 0 18 0;
#X connect 10 0 9 0;
#X connect 11 0 9 1;
#X connect 12 0 10 0;
#X connect 12 1 11 0;
#X connect 14 0 16 1;
#X connect 16 0 17 0;
#X connect 16 1 2 0;
#X connect 24 0 3 0;
#X restore 16 48 pd geo_calc_dist_in_range;
#X f 26;
#X text 59 7 Loc of trigger;
#X text 244 7 Range of trigger;
#X msg 244 45 5.2 52.902, f 17;
#N canvas 145 84 1109 711 trigger 0;
#X obj 333 182 inlet;
#X obj 384 182 inlet;
#X text 384 155 reset, f 6;
#X text 329 155 trigger;
#X obj 333 354 readsf~, f 8;
#X obj 333 443 outlet~, f 8;
#X obj 435 182 inlet;
#X msg 333 213 start, f 6;
#X msg 394 250 0;
#X msg 384 213 1;
#X msg 333 314 start;
#X obj 435 240 print;
#X obj 333 269 spigot;
#X text 433 155 sample name;
#X obj 333 397 *~ 1;
#X connect 0 0 7 0;
#X connect 1 0 9 0;
#X connect 4 0 14 0;
#X connect 4 1 8 0;
#X connect 6 0 11 0;
#X connect 6 0 4 0;
#X connect 7 0 12 0;
#X connect 8 0 12 1;
#X connect 9 0 12 1;
#X connect 10 0 4 0;
#X connect 12 0 10 0;
#X connect 14 0 5 0;
#X restore 16 189 pd trigger;
#X obj 434 8 inlet;
#X text 476 7 Test trigger;
#X obj 59 128 t b b;
#X obj 434 41 t b b;
#X text 118 72 Global Reset;
#X text 61 97 If in range bang;
#X text 230 156 Load the sound and reset;
#X msg 89 155 open spaceship.wav;
#X connect 0 0 5 0;
#X connect 1 0 5 1;
#X connect 2 0 9 0;
#X connect 4 0 12 0;
#X connect 5 0 2 0;
#X connect 8 0 5 0;
#X connect 9 0 3 0;
#X connect 10 0 13 0;
#X connect 12 0 9 1;
#X connect 12 1 17 0;
#X connect 13 0 9 0;
#X connect 13 1 12 0;
#X connect 17 0 9 2;
#X restore 681 542 pd trigger_spaceship;
#N canvas 161 168 1208 544 trigger_sea_monster 0;
#X obj 16 8 inlet;
#X obj 196 8 inlet;
#X obj 16 98 sel 1;
#X obj 17 231 outlet~;
#X obj 59 72 r reset;
#N canvas 854 254 818 702 geo_calc_dist_in_range 0;
#X obj 199 6 inlet;
#X text 241 6 Loc;
#X obj 207 343 outlet;
#X obj 17 39 unpack f f, f 15;
#X floatatom 17 101 9 0 0 0 - - - 0;
#X floatatom 118 101 8 0 0 0 - - - 0;
#X obj 199 39 unpack f f;
#X floatatom 200 101 7 0 0 0 - - - 0;
#X floatatom 268 101 7 0 0 0 - - - 0;
#X obj 17 212 expr pow(pow($f1 \, 2) + pow($f2 \, 2) \, 0.5);
#X floatatom 17 180 5 0 0 0 - - - 0;
#X floatatom 293 176 13 0 0 0 - - - 0;
#X obj 17 133 expr abs($f1 - $f3) \; abs($f2 - $f4), f 40;
#X text 310 139 Absolute value of dist between the x and y;
#X obj 317 6 inlet;
#X text 359 7 Range;
#X obj 20 276 expr if($f1 < $f2 \, 1 \, 0) \; if($f1 < $f2 \, $f1 \, 0), f 26;
#X obj 22 347 outlet;
#X floatatom 43 243 10 0 0 0 - - - 0;
#X text 119 242 Distance;
#X text 311 211 Pythagoras;
#X text 62 179 Distance x;
#X text 404 178 Distance y;
#X text 261 345 Distance > 0;
#X obj 16 7 r live_loc;
#X text 75 344 In Range 0 = no 1 = yes, f 8;
#X connect 0 0 6 0;
#X connect 3 0 4 0;
#X connect 3 1 5 0;
#X connect 4 0 12 0;
#X connect 5 0 12 1;
#X connect 6 0 7 0;
#X connect 6 1 8 0;
#X connect 7 0 12 2;
#X connect 8 0 12 3;
#X connect 9 0 16 0;
#X connect 9 0 18 0;
#X connect 10 0 9 0;
#X connect 11 0 9 1;
#X connect 12 0 10 0;
#X connect 12 1 11 0;
#X connect 14 0 16 1;
#X connect 16 0 17 0;
#X connect 16 1 2 0;
#X connect 24 0 3 0;
#X restore 16 48 pd geo_calc_dist_in_range;
#X f 26;
#X text 59 7 Loc of trigger;
#X text 244 7 Range of trigger;
#X msg 244 45 5.2 52.902, f 17;
#N canvas 145 84 1109 711 trigger 0;
#X obj 333 182 inlet;
#X obj 384 182 inlet;
#X text 384 155 reset, f 6;
#X text 329 155 trigger;
#X obj 333 354 readsf~, f 8;
#X obj 333 443 outlet~, f 8;
#X obj 435 182 inlet;
#X msg 333 213 start, f 6;
#X msg 394 250 0;
#X msg 384 213 1;
#X msg 333 314 start;
#X obj 435 240 print;
#X obj 333 269 spigot;
#X text 433 155 sample name;
#X obj 333 397 *~ 1;
#X connect 0 0 7 0;
#X connect 1 0 9 0;
#X connect 4 0 14 0;
#X connect 4 1 8 0;
#X connect 6 0 11 0;
#X connect 6 0 4 0;
#X connect 7 0 12 0;
#X connect 8 0 12 1;
#X connect 9 0 12 1;
#X connect 10 0 4 0;
#X connect 12 0 10 0;
#X connect 14 0 5 0;
#X restore 16 189 pd trigger;
#X obj 434 8 inlet;
#X text 476 7 Test trigger;
#X obj 59 128 t b b;
#X obj 434 41 t b b;
#X text 118 72 Global Reset;
#X text 61 97 If in range bang;
#X text 249 159 Load the sound and reset;
#X msg 89 155 open sea_monster.wav;
#X connect 0 0 5 0;
#X connect 1 0 5 1;
#X connect 2 0 9 0;
#X connect 4 0 12 0;
#X connect 5 0 2 0;
#X connect 8 0 5 0;
#X connect 9 0 3 0;
#X connect 10 0 13 0;
#X connect 12 0 9 1;
#X connect 12 1 17 0;
#X connect 13 0 9 0;
#X connect 13 1 12 0;
#X connect 17 0 9 2;
#X restore 171 528 pd trigger_sea_monster;
#X obj 150 277 r range trigger;
#X obj 280 277 r range trigger;
#X text 192 247 desert;
#X obj 627 297 r range trigger;
#X obj 754 297 r range trigger;
#X obj 99 493 r range trigger;
#X obj 243 493 r range trigger;
#X obj 579 507 r range trigger;
#X obj 828 499 r range trigger;
#X text 684 192 jungle;
#X text 175 441 ocean;
#X text 712 420 space;
#X obj 58 667 outlet~;
#X obj 1064 147 inlet;
#X msg 1149 118 0.0003;
#X obj 1149 86 loadbang;
#X obj 1149 154 s range trigger;
#X text 1209 120 sets range of all triggers;
#X obj 94 185 loadbang;
#X obj 220 188 loadbang;
#X obj 580 227 loadbang;
#X obj 726 215 loadbang;
#X obj 710 457 loadbang;
#X obj 497 470 loadbang;
#X obj 273 373 loadbang;
#X obj 47 445 loadbang;
#N canvas 161 168 1208 544 voice_over 0;
#X obj 16 8 inlet;
#X obj 196 8 inlet;
#X obj 16 98 sel 1;
#X obj 17 231 outlet~;
#X obj 59 72 r reset;
#N canvas 854 254 818 702 geo_calc_dist_in_range 0;
#X obj 199 6 inlet;
#X text 241 6 Loc;
#X obj 207 343 outlet;
#X obj 17 39 unpack f f, f 15;
#X floatatom 17 101 9 0 0 0 - - - 0;
#X floatatom 118 101 8 0 0 0 - - - 0;
#X obj 199 39 unpack f f;
#X floatatom 200 101 7 0 0 0 - - - 0;
#X floatatom 268 101 7 0 0 0 - - - 0;
#X obj 17 212 expr pow(pow($f1 \, 2) + pow($f2 \, 2) \, 0.5);
#X floatatom 17 180 5 0 0 0 - - - 0;
#X floatatom 293 176 13 0 0 0 - - - 0;
#X obj 17 133 expr abs($f1 - $f3) \; abs($f2 - $f4), f 40;
#X text 310 139 Absolute value of dist between the x and y;
#X obj 317 6 inlet;
#X text 359 7 Range;
#X obj 20 276 expr if($f1 < $f2 \, 1 \, 0) \; if($f1 < $f2 \, $f1 \, 0), f 26;
#X obj 22 347 outlet;
#X floatatom 43 243 10 0 0 0 - - - 0;
#X text 119 242 Distance;
#X text 311 211 Pythagoras;
#X text 62 179 Distance x;
#X text 404 178 Distance y;
#X text 261 345 Distance > 0;
#X obj 16 7 r live_loc;
#X text 75 344 In Range 0 = no 1 = yes, f 8;
#X connect 0 0 6 0;
#X connect 3 0 4 0;
#X connect 3 1 5 0;
#X connect 4 0 12 0;
#X connect 5 0 12 1;
#X connect 6 0 7 0;
#X connect 6 1 8 0;
#X connect 7 0 12 2;
#X connect 8 0 12 3;
#X connect 9 0 16 0;
#X connect 9 0 18 0;
#X connect 10 0 9 0;
#X connect 11 0 9 1;
#X connect 12 0 10 0;
#X connect 12 1 11 0;
#X connect 14 0 16 1;
#X connect 16 0 17 0;
#X connect 16 1 2 0;
#X connect 24 0 3 0;
#X restore 16 48 pd geo_calc_dist_in_range;
#X f 26;
#X text 59 7 Loc of trigger;
#X text 244 7 Range of trigger;
#X msg 244 45 5.2 52.902, f 17;
#N canvas 145 84 1109 711 trigger 0;
#X obj 333 182 inlet;
#X obj 384 182 inlet;
#X text 384 155 reset, f 6;
#X text 329 155 trigger;
#X obj 333 354 readsf~, f 8;
#X obj 333 443 outlet~, f 8;
#X obj 435 182 inlet;
#X msg 333 213 start, f 6;
#X msg 394 250 0;
#X msg 384 213 1;
#X msg 333 314 start;
#X obj 435 240 print;
#X obj 333 269 spigot;
#X text 433 155 sample name;
#X obj 333 397 *~ 1;
#X connect 0 0 7 0;
#X connect 1 0 9 0;
#X connect 4 0 14 0;
#X connect 4 1 8 0;
#X connect 6 0 11 0;
#X connect 6 0 4 0;
#X connect 7 0 12 0;
#X connect 8 0 12 1;
#X connect 9 0 12 1;
#X connect 10 0 4 0;
#X connect 12 0 10 0;
#X connect 14 0 5 0;
#X restore 16 189 pd trigger;
#X obj 434 8 inlet;
#X text 476 7 Test trigger;
#X obj 59 128 t b b;
#X obj 434 41 t b b;
#X text 118 72 Global Reset;
#X text 61 97 If in range bang;
#X text 230 156 Load the sound and reset;
#X msg 89 155 open spaceship.wav;
#X connect 0 0 5 0;
#X connect 1 0 5 1;
#X connect 2 0 9 0;
#X connect 4 0 12 0;
#X connect 5 0 2 0;
#X connect 8 0 5 0;
#X connect 9 0 3 0;
#X connect 10 0 13 0;
#X connect 12 0 9 1;
#X connect 12 1 17 0;
#X connect 13 0 9 0;
#X connect 13 1 12 0;
#X connect 17 0 9 2;
#X restore 908 546 pd voice_over;
#X msg 498 506 5.13146 52.0787;
#X msg 710 500 5.1313 52.0788;
#X msg 93 226 5.13115 52.0789;
#X msg 218 228 5.13129 52.0789;
#X msg 47 480 5.13099 52.079;
#X msg 267 420 5.1308 52.079;
#X msg 581 264 5.13215 52.0786;
#X msg 727 261 5.13183 52.0787;
#X connect 0 0 20 0;
#X connect 1 0 20 0;
#X connect 2 0 20 0;
#X connect 3 0 20 0;
#X connect 4 0 20 0;
#X connect 5 0 20 0;
#X connect 6 0 20 0;
#X connect 7 0 20 0;
#X connect 8 0 0 1;
#X connect 9 0 1 1;
#X connect 11 0 2 1;
#X connect 12 0 3 1;
#X connect 13 0 4 1;
#X connect 14 0 7 1;
#X connect 15 0 5 1;
#X connect 16 0 6 1;
#X connect 21 0 24 0;
#X connect 22 0 24 0;
#X connect 23 0 22 0;
#X connect 26 0 37 0;
#X connect 27 0 38 0;
#X connect 28 0 41 0;
#X connect 29 0 42 0;
#X connect 30 0 36 0;
#X connect 31 0 35 0;
#X connect 32 0 40 0;
#X connect 33 0 39 0;
#X connect 34 0 20 0;
#X connect 35 0 5 0;
#X connect 36 0 6 0;
#X connect 37 0 0 0;
#X connect 38 0 1 0;
#X connect 39 0 4 0;
#X connect 40 0 7 0;
#X connect 41 0 2 0;
#X connect 42 0 3 0;
#X restore 556 430 pd triggers;
#X text 178 404 inlet for range of all triggers (automatic on 0.0003);
#X text 464 450 ouputs audio;
