#N canvas 543 190 625 420 10;
#X obj 524 399 outlet~;
#X obj 11 23 inlet;
#X obj 460 337 *~;
#X obj 102 76 line~;
#X obj 101 51 pack 1 5000;
#X obj 11 146 switch~;
#X text 255 25 fade in/out bit;
#X text 6 0 switch off the audio dsp after it's finished fading out
;
#X obj 455 401 outlet~;
#X obj 455 39 adc~;
#X floatatom 605 224 5 -3.40282e+38 3.40282e+38 0 - - - 0;
#X obj 458 280 *~;
#X obj 605 158 loadbang;
#X obj 378 400 writesf~;
#X obj 154 146 loadbang;
#X text 9 322 chop audio into 5 min chunks;
#X obj 10 205 bng 15 250 50 0 empty empty empty 17 7 0 10 #fcfcfc #000000
#000000;
#X obj 10 238 f;
#X obj 32 238 + 1;
#X msg 10 220 0, f 5;
#X obj 59 238 makefilename hydro-%%d-%d.wav;
#X msg 59 256 set \$1, f 9;
#X obj 59 274 makefilename _;
#X msg 9 305 stop \, open \$1 \, start \;, f 23;
#X text 9 343 add random num so we don't overwrite the file;
#X obj 59 220 f;
#X obj 9 188 metro 300000;
#X obj 106 213 textfile;
#X obj 105 138 f;
#X obj 119 170 + 1;
#X msg 119 190 set \$1 \, write trip.txt \;;
#X msg 154 168 read trip.txt \, rewind \, bang \;, f 29;
#N canvas 0 22 450 278 (subpatch) 0;
#X text 0 0 plugdatainfo <?xml version="1.0" encoding="UTF-8"?> <PlugDataInfo/>
;
#X coords 0 1 100 -1 1 1 1;
#X restore 0 0 graph;
#X obj 457 89 lop~;
#X obj 457 223 expr~ tanh($v1*1.2);
#X obj 457 118 lop~;
#X obj 458 148 lop~;
#X obj 459 183 lop~;
#X obj 523 16 loadbang;
#X msg 524 55 3500, f 8;
#X floatatom 527 88 5 0 0 0 - - - 0;
#X msg 605 191 5, f 5;
#X obj 11 50 sel 0;
#X obj 11 122 tgl 15 0 empty empty empty 17 7 0 10 #fcfcfc #000000
#000000 0 1;
#X obj 10 73 delay 5001;
#X msg 11 96 1;
#X connect 1 0 4 0;
#X connect 1 0 42 0;
#X connect 2 0 8 0;
#X connect 2 0 13 0;
#X connect 2 0 0 0;
#X connect 3 0 2 1;
#X connect 4 0 3 0;
#X connect 9 0 33 0;
#X connect 9 1 33 0;
#X connect 10 0 11 1;
#X connect 11 0 2 0;
#X connect 12 0 41 0;
#X connect 14 0 31 0;
#X connect 16 0 25 0;
#X connect 17 0 18 0;
#X connect 17 0 22 0;
#X connect 18 0 17 1;
#X connect 19 0 17 0;
#X connect 20 0 21 0;
#X connect 21 0 22 0;
#X connect 22 0 23 0;
#X connect 23 0 13 0;
#X connect 25 0 20 0;
#X connect 26 0 16 0;
#X connect 26 0 17 0;
#X connect 27 0 28 0;
#X connect 28 0 29 0;
#X connect 28 0 25 1;
#X connect 28 0 26 0;
#X connect 29 0 30 0;
#X connect 30 0 27 0;
#X connect 31 0 27 0;
#X connect 33 0 35 0;
#X connect 34 0 11 0;
#X connect 35 0 36 0;
#X connect 36 0 37 0;
#X connect 37 0 34 0;
#X connect 38 0 39 0;
#X connect 39 0 40 0;
#X connect 40 0 33 1;
#X connect 40 0 35 1;
#X connect 40 0 36 1;
#X connect 40 0 37 1;
#X connect 41 0 10 0;
#X connect 42 0 44 0;
#X connect 42 1 43 0;
#X connect 43 0 5 0;
#X connect 44 0 45 0;
#X connect 45 0 43 0;
