#N canvas 634 142 844 544 10;
#X obj 135 452 outlet~;
#X obj 69 428 *~;
#X text 255 25 fade in/out bit;
#X text 6 0 switch off the audio dsp after it's finished fading out
;
#X obj 176 259 phasor~;
#X floatatom 299 220 5 0 0 0 - - -, f 5;
#X obj 283 184 loadbang;
#X obj 70 453 outlet~;
#X obj 120 426 *~;
#X obj 278 89 unpackOSC;
#X obj 176 187 unpack f;
#X obj 176 259 phasor~;
#X obj 176 223 line;
#X obj 176 205 pack 0 1000;
#X obj 260 381 *~ 1;
#X obj 204 87 nbx 5 14 -1e+37 1e+37 0 0 empty empty empty 0 -8 0 10
-262144 -1 -1 94 256;
#X msg 299 202 57;
#X obj 176 277 hip~ 500;
#X floatatom 187 333 5 0 0 0 - - -, f 5;
#X msg 187 314 500;
#X obj 187 295 loadbang;
#X obj 177 351 vcf~;
#X obj 176 259 phasor~;
#X obj 176 187 unpack f;
#X obj 176 259 phasor~;
#X obj 176 223 line;
#X obj 176 205 pack 0 1000;
#X obj 176 277 hip~ 500;
#X floatatom 187 333 5 0 0 0 - - -, f 5;
#X msg 187 314 500;
#X obj 187 295 loadbang;
#X obj 177 351 vcf~;
#X msg 278 48 port 8891;
#X obj 278 69 udpreceive 8891;
#X obj 276 117 route /turbid;
#X obj 176 241 / 20;
#X obj 176 241 /;
#X obj 11 23 inlet;
#X obj 76 54 line~;
#X obj 77 29 pack 1 5000;
#X obj 9 135 switch~;
#X obj 10 46 moses 1;
#X obj 10 91 delay 5000;
#X floatatom 10 116 5 0 0 0 - - -, f 5;
#X obj 8 69 sel 0;
#X connect 1 0 7 0;
#X connect 4 0 17 0;
#X connect 5 0 21 2;
#X connect 6 0 16 0;
#X connect 8 0 0 0;
#X connect 9 0 34 0;
#X connect 10 0 13 0;
#X connect 12 0 35 0;
#X connect 13 0 12 0;
#X connect 14 0 1 0;
#X connect 14 0 8 0;
#X connect 15 0 10 0;
#X connect 16 0 5 0;
#X connect 17 0 21 0;
#X connect 18 0 21 1;
#X connect 19 0 18 0;
#X connect 20 0 19 0;
#X connect 21 0 14 0;
#X connect 22 0 27 0;
#X connect 25 0 36 0;
#X connect 26 0 25 0;
#X connect 27 0 31 0;
#X connect 28 0 31 1;
#X connect 29 0 28 0;
#X connect 30 0 29 0;
#X connect 32 0 33 0;
#X connect 33 0 9 0;
#X connect 34 0 10 0;
#X connect 35 0 4 0;
#X connect 36 0 22 0;
#X connect 37 0 39 0;
#X connect 37 0 41 0;
#X connect 38 0 1 1;
#X connect 38 0 8 1;
#X connect 39 0 38 0;
#X connect 41 0 44 0;
#X connect 41 1 40 0;
#X connect 42 0 43 0;
#X connect 43 0 40 0;
#X connect 44 0 42 0;
