#N canvas 394 166 844 544 10;
#X obj 135 452 outlet~;
#X obj 11 23 inlet;
#X obj 69 428 *~;
#X obj 76 54 line~;
#X obj 77 29 pack 1 5000;
#X obj 9 135 switch~;
#X obj 10 46 moses 1;
#X obj 10 91 delay 5000;
#X floatatom 10 116 5 0 0 0 - - -, f 5;
#X obj 8 69 sel 0;
#X text 255 25 fade in/out bit;
#X text 6 0 switch off the audio dsp after it's finished fading out
;
#X obj 176 259 phasor~;
#X floatatom 519 231 5 0 0 0 - - -, f 5;
#X obj 503 195 loadbang;
#X obj 70 453 outlet~;
#X obj 120 426 *~;
#X obj 278 89 unpackOSC;
#X obj 176 187 unpack f;
#X obj 176 259 phasor~;
#X obj 176 223 line;
#X obj 176 205 pack 0 1000;
#X obj 176 241 *;
#X floatatom 481 231 5 0 0 0 - - -, f 5;
#X obj 260 381 *~ 1;
#X msg 481 213 2;
#X obj 204 91 nbx 5 14 -1e+37 1e+37 0 0 empty empty empty 0 -8 0 10
-262144 -1 -1 0 256;
#X msg 519 213 57;
#X obj 176 277 hip~ 500;
#X obj 204 107 nbx 5 14 -1e+37 1e+37 0 0 empty empty empty 0 -8 0 10
-262144 -1 -1 0 256;
#X floatatom 187 333 5 0 0 0 - - -, f 5;
#X msg 187 314 500;
#X obj 187 295 loadbang;
#X obj 177 351 vcf~;
#X obj 258 259 phasor~;
#X obj 258 187 unpack f;
#X obj 258 259 phasor~;
#X obj 258 223 line;
#X obj 258 205 pack 0 1000;
#X obj 258 241 *;
#X obj 258 277 hip~ 500;
#X floatatom 269 333 5 0 0 0 - - -, f 5;
#X obj 269 295 loadbang;
#X obj 259 351 vcf~;
#X obj 176 259 phasor~;
#X obj 176 187 unpack f;
#X obj 176 259 phasor~;
#X obj 176 223 line;
#X obj 176 205 pack 0 1000;
#X obj 176 241 *;
#X obj 176 277 hip~ 500;
#X floatatom 187 333 5 0 0 0 - - -, f 5;
#X msg 187 314 500;
#X obj 187 295 loadbang;
#X obj 177 351 vcf~;
#X obj 344 264 phasor~;
#X obj 344 192 unpack f;
#X obj 344 264 phasor~;
#X obj 344 228 line;
#X obj 344 210 pack 0 1000;
#X obj 344 246 *;
#X obj 344 282 hip~ 500;
#X floatatom 355 338 5 0 0 0 - - -, f 5;
#X obj 355 300 loadbang;
#X obj 345 356 vcf~;
#X obj 204 124 nbx 5 14 -1e+37 1e+37 0 0 empty empty empty 0 -8 0 10
-262144 -1 -1 0 256;
#X msg 269 314 700;
#X msg 355 319 1000;
#X msg 278 48 port 8891;
#X obj 278 69 udpreceive 8891;
#X obj 276 117 route /pm3 /pm2 /pm1;
#X connect 1 0 4 0;
#X connect 1 0 6 0;
#X connect 2 0 15 0;
#X connect 3 0 2 1;
#X connect 3 0 16 1;
#X connect 4 0 3 0;
#X connect 6 0 9 0;
#X connect 6 1 5 0;
#X connect 7 0 8 0;
#X connect 8 0 5 0;
#X connect 9 0 7 0;
#X connect 12 0 28 0;
#X connect 13 0 33 2;
#X connect 13 0 43 2;
#X connect 13 0 64 2;
#X connect 14 0 27 0;
#X connect 14 0 25 0;
#X connect 16 0 0 0;
#X connect 17 0 70 0;
#X connect 18 0 21 0;
#X connect 20 0 22 0;
#X connect 21 0 20 0;
#X connect 22 0 12 0;
#X connect 23 0 22 1;
#X connect 23 0 39 1;
#X connect 23 0 60 1;
#X connect 24 0 2 0;
#X connect 24 0 16 0;
#X connect 25 0 23 0;
#X connect 26 0 18 0;
#X connect 27 0 13 0;
#X connect 28 0 33 0;
#X connect 29 0 35 0;
#X connect 30 0 33 1;
#X connect 31 0 30 0;
#X connect 32 0 31 0;
#X connect 33 0 24 0;
#X connect 34 0 40 0;
#X connect 35 0 38 0;
#X connect 37 0 39 0;
#X connect 38 0 37 0;
#X connect 39 0 34 0;
#X connect 40 0 43 0;
#X connect 41 0 43 1;
#X connect 42 0 66 0;
#X connect 43 0 24 0;
#X connect 44 0 50 0;
#X connect 47 0 49 0;
#X connect 48 0 47 0;
#X connect 49 0 44 0;
#X connect 50 0 54 0;
#X connect 51 0 54 1;
#X connect 52 0 51 0;
#X connect 53 0 52 0;
#X connect 55 0 61 0;
#X connect 56 0 59 0;
#X connect 58 0 60 0;
#X connect 59 0 58 0;
#X connect 60 0 55 0;
#X connect 61 0 64 0;
#X connect 62 0 64 1;
#X connect 63 0 67 0;
#X connect 64 0 24 0;
#X connect 65 0 56 0;
#X connect 66 0 41 0;
#X connect 67 0 62 0;
#X connect 68 0 69 0;
#X connect 69 0 17 0;
#X connect 70 0 18 0;
#X connect 70 1 35 0;
#X connect 70 2 56 0;
