#N canvas 68 185 633 450 12;
#X obj 127 223 max;
#X obj 217 222 min;
#X obj 338 167 loadbang;
#X obj 254 193 +;
#X obj 160 198 -;
#X obj 82 298 -;
#X obj 127 298 -;
#X obj 82 341 /;
#X obj 80 80 inlet;
#X obj 270 83 inlet;
#X floatatom 271 127 5 0 0 0 - - - 0;
#X text 288 223 record min/max;
#X text 318 34 "annealing" value;
#X text 324 55 amount to add to min/subtract from max;
#X text 324 71 this depends on the input;
#X text 325 87 and means it autocalibrates;
#X text 77 40 value in;
#X text 159 296 use the current range to normalise;
#X text 381 192 init min with large num(tm), f 13;
#X msg 338 190 1e+08;
#X obj 82 375 outlet;
#X obj 160 223 f;
#X obj 253 222 f;
#X obj 216 183 f \$1;
#X obj 50 189 f \$2;
#X obj 50 123 bng 15 250 50 0 empty empty empty 17 7 0 10 #fcfcfc #000000
#000000;
#X text 15 123 init;
#X text 131 375 normalized output 0 - 1;
#X connect 0 0 4 0;
#X connect 0 0 6 0;
#X connect 0 0 21 0;
#X connect 1 0 3 0;
#X connect 1 0 5 1;
#X connect 1 0 6 1;
#X connect 1 0 22 0;
#X connect 2 0 19 0;
#X connect 3 0 22 0;
#X connect 4 0 21 0;
#X connect 5 0 7 0;
#X connect 6 0 7 1;
#X connect 7 0 20 0;
#X connect 8 0 0 0;
#X connect 8 0 1 0;
#X connect 8 0 5 0;
#X connect 8 0 25 0;
#X connect 9 0 10 0;
#X connect 10 0 4 1;
#X connect 10 0 3 1;
#X connect 19 0 22 0;
#X connect 21 0 0 1;
#X connect 22 0 1 1;
#X connect 23 0 1 0;
#X connect 24 0 0 0;
#X connect 25 0 24 0;
#X connect 25 0 23 0;
