#N canvas 287 112 614 474 12;
#X obj 50 131 % 16;
#X obj 50 197 * 3;
#X obj 50 166 / 8;
#X obj 50 231 i;
#X obj 50 264 change;
#X text 249 37 Euclidean generator;
#X text 248 69 by Timo Hoogland (c) 2022 \, www.timohoogland.com;
#X obj 49 41 inlet;
#X text 249 113 methods:;
#X text 272 133 int - input an integer for the stepcount resulting
in a bang based on the ratio of steps vs. hits, f 30;
#X text 248 204 arguments:;
#X text 272 247 hits - the amount of hits within the steps;
#X obj 98 41 inlet;
#X obj 98 110 i \$1;
#X obj 167 116 inlet;
#X obj 145 155 i \$2;
#X obj 50 295 t b;
#X obj 50 329 outlet;
#X obj 146 41 loadbang;
#X text 272 226 steps - the amount of total steps (min. 2);
#X obj 50 79 +;
#X text 272 267 rotate - add an amount of steps for rotation of the
rhythm, f 36;
#X obj 164 81 i \$3;
#X connect 0 0 2 0;
#X connect 1 0 3 0;
#X connect 2 0 1 0;
#X connect 3 0 4 0;
#X connect 4 0 16 0;
#X connect 7 0 20 0;
#X connect 12 0 13 0;
#X connect 13 0 0 1;
#X connect 13 0 2 1;
#X connect 14 0 15 0;
#X connect 15 0 1 1;
#X connect 16 0 17 0;
#X connect 18 0 13 0;
#X connect 18 0 15 0;
#X connect 18 0 22 0;
#X connect 20 0 0 0;
#X connect 22 0 20 1;
