#N canvas 167 161 675 430 12;
#X obj 50 218 noise~;
#X obj 51 338 *~;
#X obj 110 179 vline~;
#X obj 110 218 *~;
#X obj 51 305 bp~ 5300 4;
#X text 325 57 by Timo Hoogland (c) www.timohoogland.com;
#X text 326 149 arguments:;
#X text 344 121 bang - trigger sound;
#X text 343 169 length - fade out;
#X text 327 102 methods:;
#X text 325 33 hat/shaker sound synthesis;
#X text 342 190 tuning - bandpass freq;
#X obj 110 36 inlet;
#X obj 110 114 f \$1;
#X obj 50 377 outlet~;
#X obj 274 327 switch~;
#X msg 274 187 1;
#X msg 225 285 0;
#X obj 225 255 delay;
#X text 312 255 unmute/mute;
#X msg 224 220 stop;
#X obj 110 71 t b b;
#X obj 177 183 + 10;
#X obj 145 249 f \$2;
#X obj 145 219 loadbang;
#X msg 110 149 0.4 8 \, 0 \$1 \$1;
#X connect 0 0 4 0;
#X connect 1 0 14 0;
#X connect 2 0 3 1;
#X connect 2 0 3 0;
#X connect 3 0 1 1;
#X connect 4 0 1 0;
#X connect 12 0 21 0;
#X connect 13 0 22 0;
#X connect 13 0 25 0;
#X connect 16 0 15 0;
#X connect 16 0 20 0;
#X connect 17 0 15 0;
#X connect 18 0 17 0;
#X connect 20 0 18 0;
#X connect 21 0 13 0;
#X connect 21 1 16 0;
#X connect 22 0 18 0;
#X connect 23 0 4 1;
#X connect 24 0 23 0;
#X connect 25 0 2 0;
