#N canvas 825 102 493 506 12;
#X obj 72 46 inlet;
#X obj 71 178 *;
#X obj 157 46 inlet;
#X obj 218 45 inlet;
#X obj 157 98 f \$1;
#X obj 218 125 f \$2;
#X obj 173 180 -;
#X obj 157 127 t b f;
#X obj 72 213 +;
#X obj 71 391 outlet;
#X obj 274 42 loadbang;
#X obj 166 254 i \$3;
#X obj 71 340 spigot;
#X obj 127 254 i;
#X obj 127 340 spigot;
#X obj 110 310 == 0;
#X text 275 120 scale incoming normalized values to a specific range
, f 19;
#X text 275 191 methods:;
#X text 299 210 float - scale value;
#X text 274 236 arguments:;
#X text 297 257 float/int - low output;
#X text 298 275 float/int - hi output;
#X text 298 292 bool - float/int output;
#X connect 0 0 1 0;
#X connect 1 0 8 0;
#X connect 2 0 4 0;
#X connect 3 0 5 0;
#X connect 4 0 7 0;
#X connect 5 0 6 0;
#X connect 6 0 1 1;
#X connect 7 0 6 0;
#X connect 7 1 6 1;
#X connect 7 1 8 1;
#X connect 8 0 13 0;
#X connect 8 0 12 0;
#X connect 10 0 5 0;
#X connect 10 0 4 0;
#X connect 10 0 11 0;
#X connect 11 0 15 0;
#X connect 11 0 14 1;
#X connect 12 0 9 0;
#X connect 13 0 14 0;
#X connect 14 0 9 0;
#X connect 15 0 12 1;
