#N canvas 132 111 768 628 12;
#X obj 57 449 osc~;
#X obj 57 503 *~;
#X obj 212 416 vline~;
#X obj 60 148 line~;
#X obj 59 247 *~ 500;
#X obj 215 70 bng 15 250 50 0 empty empty empty 17 7 0 10 #fcfcfc #000000
#000000;
#X obj 59 297 +~ 180;
#X obj 60 187 expr~ pow($v1 \, $v2);
#X msg 61 111 1 \, 0 \$1;
#X msg 212 382 1 1 \, 0 \$1 1;
#X obj 212 449 *~;
#X obj 57 538 expr~ tanh($v1*1.4);
#X text 426 55 by Timo Hoogland (c) www.timohoogland.com;
#X text 427 147 arguments:;
#X text 445 119 bang - trigger sound;
#X text 444 167 length - fade out;
#X text 445 208 tuning - low freq;
#X text 446 228 tuning - high freq;
#X obj 216 37 inlet;
#X obj 239 240 loadbang;
#X text 445 186 transient sharp - curve of transient fm;
#X obj 63 79 f \$1;
#X obj 190 154 f \$2;
#X text 428 100 methods:;
#X obj 130 263 f \$3;
#X obj 132 215 f \$4;
#X obj 55 569 outlet~;
#X obj 374 445 switch~;
#X msg 374 293 1;
#X obj 216 97 t b b;
#X obj 213 320 f \$1;
#X msg 325 384 0;
#X obj 325 354 delay;
#X text 412 354 unmute/mute;
#X msg 373 264 0;
#X text 404 264 reset phase;
#X obj 58 410 +~;
#X obj 92 374 *~ 2;
#X obj 92 341 osc~ 5;
#X text 426 31 percussion sound synthesis;
#X msg 325 322 stop;
#X obj 279 318 + 2;
#X connect 0 0 1 0;
#X connect 1 0 11 0;
#X connect 2 0 10 1;
#X connect 2 0 10 0;
#X connect 3 0 7 0;
#X connect 4 0 6 0;
#X connect 5 0 29 0;
#X connect 6 0 36 0;
#X connect 7 0 4 0;
#X connect 8 0 3 0;
#X connect 9 0 2 0;
#X connect 10 0 1 1;
#X connect 11 0 26 0;
#X connect 18 0 5 0;
#X connect 19 0 21 0;
#X connect 19 0 22 0;
#X connect 19 0 25 0;
#X connect 19 0 24 0;
#X connect 19 0 30 1;
#X connect 21 0 8 0;
#X connect 22 0 7 1;
#X connect 24 0 6 1;
#X connect 25 0 4 1;
#X connect 28 0 27 0;
#X connect 28 0 40 0;
#X connect 29 0 21 0;
#X connect 29 0 30 0;
#X connect 29 1 28 0;
#X connect 29 1 34 0;
#X connect 30 0 9 0;
#X connect 30 0 41 0;
#X connect 31 0 27 0;
#X connect 32 0 31 0;
#X connect 34 0 0 1;
#X connect 36 0 0 0;
#X connect 37 0 36 1;
#X connect 38 0 37 0;
#X connect 40 0 32 0;
#X connect 41 0 32 0;
