#N canvas 252 88 555 637 12;
#X obj 259 437 lop~ 2500;
#X obj 259 403 *~ 0.7;
#X obj 112 437 lop~ 2500;
#X obj 112 403 *~ 0.7;
#X obj 117 52 r tempo;
#X obj 259 222 line~;
#X msg 259 192 \$1 100;
#X obj 115 221 line~;
#X msg 115 191 \$1 100;
#X obj 116 157 / 6;
#X obj 260 159 / 4;
#X obj 283 483 outlet~;
#X obj 140 486 outlet~;
#X obj 412 325 inlet;
#X obj 409 409 inlet;
#X obj 201 52 inlet;
#X obj 259 53 inlet;
#X obj 112 533 delwrite~ \$0d2 1000;
#X obj 260 532 delwrite~ \$0d1 1000;
#X obj 48 486 inlet~;
#X obj 412 355 clip 0 0.99;
#X obj 200 81 t b f;
#X obj 117 118 f;
#X obj 259 81 t b f;
#X obj 259 295 vd~ \$0d2 333;
#X obj 115 295 vd~ \$0d1 455;
#X connect 0 0 18 0;
#X connect 0 0 11 0;
#X connect 1 0 0 0;
#X connect 2 0 17 0;
#X connect 2 0 12 0;
#X connect 3 0 2 0;
#X connect 4 0 22 0;
#X connect 5 0 24 0;
#X connect 6 0 5 0;
#X connect 7 0 25 0;
#X connect 8 0 7 0;
#X connect 9 0 8 0;
#X connect 10 0 6 0;
#X connect 13 0 20 0;
#X connect 14 0 0 1;
#X connect 14 0 2 1;
#X connect 15 0 21 0;
#X connect 16 0 23 0;
#X connect 19 0 17 0;
#X connect 19 0 18 0;
#X connect 20 0 1 1;
#X connect 20 0 3 1;
#X connect 21 0 22 0;
#X connect 21 1 9 1;
#X connect 22 0 10 0;
#X connect 22 0 9 0;
#X connect 23 0 22 0;
#X connect 23 1 10 1;
#X connect 24 0 1 0;
#X connect 25 0 3 0;
