#N canvas 135 130 289 447 12;
#X obj 53 37 inlet~;
#X obj 160 36 inlet;
#X obj 52 94 *~;
#X obj 103 159 *~;
#X obj 103 195 *~ 0.28;
#X obj 102 229 +~ 1;
#X obj 53 276 /~;
#X obj 54 323 /~;
#X obj 163 276 sqrt;
#X obj 54 370 outlet~;
#X connect 0 0 2 0;
#X connect 1 0 2 1;
#X connect 1 0 8 0;
#X connect 2 0 3 0;
#X connect 2 0 3 1;
#X connect 2 0 6 0;
#X connect 3 0 4 0;
#X connect 4 0 5 0;
#X connect 5 0 6 1;
#X connect 6 0 7 0;
#X connect 7 0 9 0;
#X connect 8 0 7 1;
