#N canvas 0 22 1440 856 12;
#X obj 224 357 expr pow(2 \, ($f1-15)/5) * 432;
#X obj 227 614 *~;
#X obj 385 529 line~;
#X obj 451 448 delay 2;
#X obj 384 415 t b b;
#X obj 385 568 *~;
#X obj 225 449 sig~;
#X obj 223 256 +;
#X obj 222 180 random 3;
#X obj 223 224 - 1;
#X floatatom 339 146 5 0 0 0 - - - 0;
#X obj 339 178 / 2;
#X obj 339 211 i;
#X obj 262 256 i;
#X obj 223 326 + 10;
#X floatatom 520 448 5 0 0 0 - - - 0;
#X obj 451 479 pack f f;
#X floatatom 152 759 5 0 0 0 - - - 0;
#X floatatom 59 759 5 0 0 0 - - - 0;
#X floatatom 104 759 5 0 0 0 - - - 0;
#X obj 96 809 sdelay~;
#X obj 226 483 osc~;
#X obj 520 373 loadbang;
#X msg 519 401 60;
#X obj 339 76 loadbang;
#X msg 340 116 3;
#X obj 126 675 loadbang;
#X msg 151 726 0.75;
#X obj 307 706 tgl 15 0 empty empty empty 17 7 0 10 #fcfcfc #000000
#000000 0 1;
#X obj 307 767 line~;
#X msg 307 734 \$1 5000;
#X obj 260 855 *~;
#X text 395 149 sinewave synth with short envelope \, some LFO and
stereodelay triggered as an arpeggiator with a drunk randomness, f
24;
#X msg 384 479 1 2;
#X obj 222 44 r mainBeat;
#X obj 228 652 lop~;
#X floatatom 456 588 5 0 0 0 - - - 0;
#X obj 227 520 expr~ tanh($v1*1.2);
#X obj 456 531 loadbang;
#X msg 456 561 1;
#X obj 425 861 switch~;
#X obj 379 676 loadbang;
#X msg 378 830 0;
#X obj 396 731 sel 0;
#X obj 307 674 inlet;
#X obj 260 891 outlet~;
#X obj 185 893 outlet~;
#X obj 396 789 delay 6000;
#X text 432 39 by Timo Hoogland (c) 2022 \, www.timohoogland.com \,
@tmhglnd, f 27;
#X msg 439 759 stop;
#X obj 647 117 r temp;
#X floatatom 714 117 5 0 0 0 - - - 0;
#X obj 223 288 clip 0 7;
#X obj 658 207 normscale 10 15 1;
#X obj 606 371 normscale 150 60;
#X obj 458 615 expr pow($f1 \, 2) * 7000 + 700;
#X msg 104 727 8;
#X msg 59 729 4;
#X obj 643 647 normscale 0.3 0.8;
#X obj 186 855 *~;
#X obj 694 233 normscale 3 7 1;
#X obj 222 116 euclid 9 4;
#X obj 740 261 normscale 4 7 1;
#X obj 647 160 autonorm 0 0;
#X connect 0 0 4 0;
#X connect 0 0 6 0;
#X connect 1 0 35 0;
#X connect 2 0 5 1;
#X connect 2 0 5 0;
#X connect 3 0 16 0;
#X connect 4 0 33 0;
#X connect 4 1 3 0;
#X connect 5 0 1 1;
#X connect 6 0 21 0;
#X connect 7 0 52 0;
#X connect 8 0 9 0;
#X connect 9 0 7 0;
#X connect 10 0 8 1;
#X connect 10 0 11 0;
#X connect 11 0 12 0;
#X connect 12 0 9 1;
#X connect 13 0 7 1;
#X connect 14 0 0 0;
#X connect 15 0 16 1;
#X connect 16 0 2 0;
#X connect 17 0 20 4;
#X connect 18 0 20 1;
#X connect 19 0 20 2;
#X connect 20 0 59 0;
#X connect 20 1 31 0;
#X connect 21 0 37 0;
#X connect 22 0 23 0;
#X connect 23 0 15 0;
#X connect 24 0 25 0;
#X connect 25 0 10 0;
#X connect 26 0 27 0;
#X connect 26 0 56 0;
#X connect 26 0 57 0;
#X connect 27 0 17 0;
#X connect 28 0 30 0;
#X connect 28 0 43 0;
#X connect 29 0 31 1;
#X connect 29 0 59 1;
#X connect 30 0 29 0;
#X connect 31 0 45 0;
#X connect 33 0 2 0;
#X connect 34 0 61 0;
#X connect 35 0 20 0;
#X connect 35 0 59 0;
#X connect 35 0 31 0;
#X connect 36 0 55 0;
#X connect 37 0 1 0;
#X connect 38 0 39 0;
#X connect 39 0 36 0;
#X connect 41 0 42 0;
#X connect 42 0 40 0;
#X connect 43 0 47 0;
#X connect 43 1 40 0;
#X connect 43 1 49 0;
#X connect 44 0 28 0;
#X connect 47 0 42 0;
#X connect 49 0 47 0;
#X connect 50 0 63 0;
#X connect 51 0 63 0;
#X connect 52 0 13 0;
#X connect 52 0 14 0;
#X connect 53 0 14 1;
#X connect 54 0 15 0;
#X connect 55 0 35 1;
#X connect 56 0 19 0;
#X connect 57 0 18 0;
#X connect 58 0 17 0;
#X connect 59 0 46 0;
#X connect 60 0 10 0;
#X connect 61 0 8 0;
#X connect 62 0 61 2;
#X connect 63 0 53 0;
#X connect 63 0 54 0;
#X connect 63 0 55 0;
#X connect 63 0 58 0;
#X connect 63 0 60 0;
#X connect 63 0 62 0;
