#N canvas 201 22 836 841 12;
#X obj 103 573 bng 15 250 50 0 empty empty empty 17 7 0 10 #fcfcfc
#000000 #000000;
#X obj 149 539 bng 15 250 50 0 empty empty empty 17 7 0 10 #fcfcfc
#000000 #000000;
#X obj 61 607 bng 15 250 50 0 empty empty empty 17 7 0 10 #fcfcfc #000000
#000000;
#X obj 192 507 bng 15 250 50 0 empty empty empty 17 7 0 10 #fcfcfc
#000000 #000000;
#X obj 194 694 +~;
#X obj 219 350 spigot;
#X obj 102 387 euclid 21 9;
#X obj 258 325 tgl 15 0 empty empty empty 17 7 0 10 #fcfcfc #000000
#000000 0 1;
#X obj 260 264 sel 0;
#X obj 151 351 spigot;
#X obj 188 327 tgl 15 0 empty empty empty 17 7 0 10 #fcfcfc #000000
#000000 0 1;
#X obj 188 285 sel 0;
#X obj 362 416 spigot;
#X obj 401 392 tgl 15 0 empty empty empty 17 7 0 10 #fcfcfc #000000
#000000 0 1;
#X obj 400 365 sel 0;
#X obj 60 420 euclid 24 2;
#X obj 188 259 % 48;
#X obj 149 421 euclid 12 6;
#X obj 400 339 % 96;
#X obj 260 238 % 192;
#X obj 363 446 euclid 16 4 2;
#X obj 192 387 euclid 7 4;
#X obj 239 790 rev3~ 90 75 1100 30;
#X obj 473 540 tgl 15 0 empty empty empty 17 7 0 10 #fcfcfc #000000
#000000 0 1;
#X obj 474 655 line~;
#X msg 474 622 \$1 5000;
#X obj 194 739 *~;
#X obj 190 867 outlet~;
#X obj 261 867 outlet~;
#X obj 473 510 inlet;
#X obj 622 693 switch~;
#X obj 566 510 loadbang;
#X msg 565 659 0;
#X obj 591 565 sel 0;
#X obj 591 622 delay 5001;
#X text 415 21 percussive sounds with some euclidean rhythm generator
, f 24;
#X obj 60 93 r mainBeat;
#X text 61 24 by Timo Hoogland (c) 2022 \, www.timohoogland.com \,
@tmhglnd, f 27;
#X obj 153 217 spigot;
#X obj 192 193 tgl 15 0 empty empty empty 17 7 0 10 #fcfcfc #000000
#000000 0 1;
#X obj 192 152 sel 0;
#X obj 192 126 % 384;
#X msg 632 593 stop;
#X obj 192 534 perc~ 90 150 281 6700;
#X obj 149 566 perc~ 110 160 242 6500;
#X obj 103 599 perc~ 220 130 210 5000;
#X obj 362 534 hat~ 30 5400;
#X obj 363 507 bng 15 250 50 0 empty empty empty 17 7 0 10 #fcfcfc
#000000 #000000;
#X obj 149 476 ratchet 5;
#X obj 192 448 ratchet 30;
#X obj 363 476 ratchet 5;
#X obj 474 688 *~ 0.4;
#X obj 61 633 perc~ 300 150 148 5400;
#X obj 396 94 r temp;
#X obj 432 235 > 0.7;
#X obj 351 198 > 0.5;
#X obj 377 234 > 0.8;
#X obj 329 161 > 0.3;
#X obj 396 125 autonorm 19 20;
#X connect 0 0 45 0;
#X connect 1 0 44 0;
#X connect 2 0 52 0;
#X connect 3 0 43 0;
#X connect 4 0 26 0;
#X connect 5 0 21 0;
#X connect 6 0 0 0;
#X connect 7 0 5 1;
#X connect 9 0 17 0;
#X connect 10 0 9 1;
#X connect 12 0 20 0;
#X connect 13 0 12 1;
#X connect 14 0 13 0;
#X connect 15 0 2 0;
#X connect 16 0 11 0;
#X connect 17 0 48 0;
#X connect 18 0 14 0;
#X connect 19 0 8 0;
#X connect 20 0 50 0;
#X connect 21 0 49 0;
#X connect 22 0 27 0;
#X connect 22 1 28 0;
#X connect 22 2 27 0;
#X connect 22 3 28 0;
#X connect 23 0 25 0;
#X connect 23 0 33 0;
#X connect 24 0 51 0;
#X connect 25 0 24 0;
#X connect 26 0 22 0;
#X connect 26 0 22 1;
#X connect 26 0 27 0;
#X connect 26 0 28 0;
#X connect 29 0 23 0;
#X connect 31 0 32 0;
#X connect 32 0 30 0;
#X connect 33 0 34 0;
#X connect 33 1 30 0;
#X connect 33 1 42 0;
#X connect 34 0 32 0;
#X connect 36 0 15 0;
#X connect 36 0 38 0;
#X connect 36 0 41 0;
#X connect 36 0 18 0;
#X connect 38 0 12 0;
#X connect 38 0 19 0;
#X connect 38 0 5 0;
#X connect 38 0 16 0;
#X connect 38 0 9 0;
#X connect 38 0 6 0;
#X connect 39 0 38 1;
#X connect 41 0 40 0;
#X connect 42 0 34 0;
#X connect 43 0 4 0;
#X connect 44 0 4 0;
#X connect 45 0 4 0;
#X connect 46 0 4 0;
#X connect 47 0 46 0;
#X connect 48 0 1 0;
#X connect 49 0 3 0;
#X connect 50 0 47 0;
#X connect 51 0 26 1;
#X connect 52 0 4 0;
#X connect 53 0 58 0;
#X connect 55 0 10 0;
#X connect 56 0 7 0;
#X connect 57 0 39 0;
#X connect 58 0 54 0;
#X connect 58 0 55 0;
#X connect 58 0 56 0;
#X connect 58 0 57 0;
