#N canvas 0 22 1440 856 12;
#X obj 230 131 expr pow(2 \, ($f1-15)/5) * 432;
#X obj 233 265 osc~;
#X obj 354 265 osc~;
#X floatatom 229 100 5 0 0 0 - - - 0;
#X obj 430 263 osc~;
#X obj 239 551 *~;
#X floatatom 409 687 5 0 0 0 - - - 0;
#X floatatom 456 687 5 0 0 0 - - - 0;
#X obj 280 264 osc~;
#X obj 233 320 *~ 0.25;
#X obj 316 414 phasor~;
#X floatatom 316 387 5 0 0 0 - - - 0;
#X obj 316 446 *~;
#X floatatom 383 414 5 0 0 0 - - - 0;
#X obj 317 473 expr~ 1-($v1-trunc($v1));
#X obj 393 506 cos~;
#N canvas 488 556 450 300 mix 0;
#X obj 71 50 inlet~;
#X obj 144 49 inlet~;
#X obj 215 33 inlet;
#X obj 144 132 *~;
#X obj 71 133 *~;
#X obj 70 188 outlet~;
#X obj 216 94 line~;
#X obj 87 97 expr~ 1-$v1;
#X msg 217 63 \$1 20;
#X connect 0 0 4 0;
#X connect 1 0 3 0;
#X connect 2 0 8 0;
#X connect 3 0 5 0;
#X connect 4 0 5 0;
#X connect 6 0 7 0;
#X connect 6 0 3 1;
#X connect 7 0 4 1;
#X connect 8 0 6 0;
#X restore 317 551 pd mix;
#X floatatom 441 507 5 0 2 0 - - - 0;
#X obj 374 720 rev2~ 90 90 5000 30;
#X obj 241 784 *~;
#X obj 51 701 line~;
#X msg 51 668 \$1 5000;
#X obj 410 609 loadbang;
#X msg 411 640 89;
#X msg 455 639 93;
#X obj 230 39 loadbang;
#X obj 380 310 loadbang;
#X msg 439 349 0.23;
#X text 367 41 4 slight detuned oscillators with a mix between an LFO
and a inverted phasor for rhythmical patterns, f 35;
#X obj 430 229 *~ 0.50123;
#X obj 355 229 *~ 0.4997;
#X obj 277 230 *~ 0.99462;
#X obj 231 188 line~;
#X msg 230 161 \$1 250;
#X msg 229 69 10;
#X obj 182 702 switch~;
#X obj 127 505 loadbang;
#X msg 126 668 0;
#X obj 152 567 sel 0;
#X obj 152 627 delay 5001;
#X obj 50 507 inlet;
#X obj 51 543 tgl 15 0 empty empty empty 17 7 0 10 #fcfcfc #000000
#000000 0 1;
#X obj 241 822 outlet~;
#X obj 335 821 outlet~;
#X text 540 132 by Timo Hoogland (c) 2022 \, www.timohoogland.com \,
@tmhglnd, f 27;
#X msg 192 599 stop;
#X obj 258 352 r freq;
#X obj 581 228 r turb;
#X obj 581 294 expr 1-$f1;
#X floatatom 647 228 5 0 0 0 - - - 0;
#X obj 585 640 normscale 40 90;
#X obj 605 335 normscale 8 11 1;
#X msg 382 350 2.6;
#X msg 317 350 1.2;
#X obj 335 786 *~;
#X obj 317 506 lop~ 500;
#X obj 238 611 expr~ tanh($v1*1.5)*0.8;
#X obj 237 448 *~ 0.9;
#X obj 581 260 autonorm 0 0;
#X connect 0 0 33 0;
#X connect 1 0 9 0;
#X connect 2 0 9 0;
#X connect 3 0 0 0;
#X connect 4 0 9 0;
#X connect 5 0 56 0;
#X connect 6 0 18 1;
#X connect 7 0 18 2;
#X connect 8 0 9 0;
#X connect 9 0 57 0;
#X connect 10 0 12 0;
#X connect 10 0 15 0;
#X connect 11 0 10 0;
#X connect 12 0 14 0;
#X connect 13 0 12 1;
#X connect 14 0 55 0;
#X connect 15 0 16 1;
#X connect 16 0 5 1;
#X connect 17 0 16 2;
#X connect 18 0 19 0;
#X connect 18 1 54 0;
#X connect 18 2 19 0;
#X connect 18 3 54 0;
#X connect 19 0 42 0;
#X connect 20 0 19 1;
#X connect 20 0 54 1;
#X connect 21 0 20 0;
#X connect 22 0 23 0;
#X connect 22 0 24 0;
#X connect 23 0 6 0;
#X connect 24 0 7 0;
#X connect 25 0 34 0;
#X connect 26 0 53 0;
#X connect 26 0 52 0;
#X connect 26 0 27 0;
#X connect 27 0 17 0;
#X connect 29 0 4 0;
#X connect 30 0 2 0;
#X connect 31 0 8 0;
#X connect 32 0 29 0;
#X connect 32 0 30 0;
#X connect 32 0 31 0;
#X connect 32 0 1 0;
#X connect 33 0 32 0;
#X connect 34 0 3 0;
#X connect 36 0 37 0;
#X connect 37 0 35 0;
#X connect 38 0 39 0;
#X connect 38 1 35 0;
#X connect 38 1 45 0;
#X connect 39 0 37 0;
#X connect 40 0 41 0;
#X connect 41 0 21 0;
#X connect 41 0 38 0;
#X connect 45 0 39 0;
#X connect 46 0 11 0;
#X connect 47 0 58 0;
#X connect 48 0 17 0;
#X connect 48 0 50 0;
#X connect 48 0 51 0;
#X connect 49 0 58 0;
#X connect 50 0 7 0;
#X connect 51 0 3 0;
#X connect 52 0 13 0;
#X connect 53 0 11 0;
#X connect 54 0 43 0;
#X connect 55 0 16 0;
#X connect 56 0 19 0;
#X connect 56 0 18 0;
#X connect 56 0 54 0;
#X connect 57 0 5 0;
#X connect 58 0 48 0;
