#N canvas 0 22 1440 856 12;
#X obj 605 492 *~;
#X obj 605 534 delwrite~ d1 1000;
#X obj 322 358 bng 15 250 50 0 empty empty empty 17 7 0 10 #fcfcfc
#000000 #000000;
#X obj 368 482 delread~ d1 10;
#X obj 368 449 /;
#X msg 345 415 1000;
#X obj 354 386 t b f;
#X obj 322 329 t b f;
#X obj 604 412 noise~;
#X floatatom 237 491 5 0 0 0 - - - 0;
#X obj 322 301 expr pow(2 \, ($f1-15)/5) * 432;
#X obj 321 170 i;
#X obj 321 198 + 1;
#X obj 321 228 % 3;
#X obj 321 262 +;
#X floatatom 366 235 5 0 0 0 - - - 0;
#X floatatom 367 197 5 0 0 0 - - - 0;
#X floatatom 466 651 5 0 0 0 - - - 0;
#X floatatom 516 651 5 0 0 0 - - - 0;
#X floatatom 568 652 5 0 0 0 - - - 0;
#X floatatom 618 652 5 0 0 0 - - - 0;
#X obj 448 699 rev2~ 95 96 3000 80;
#X floatatom 393 653 5 0 0 0 - - - 0;
#X floatatom 300 653 5 0 0 0 - - - 0;
#X floatatom 345 653 5 0 0 0 - - - 0;
#X obj 684 446 vline~;
#X msg 684 412 1 10 \, 0 0 15;
#X obj 421 129 loadbang;
#X msg 435 163 5;
#X msg 421 195 4;
#X obj 238 427 loadbang;
#X obj 298 571 loadbang;
#X msg 298 618 2;
#X msg 346 620 6;
#X msg 394 619 0.76;
#X obj 467 576 loadbang;
#X msg 466 619 100;
#X msg 516 619 94;
#X msg 568 619 2903;
#X msg 616 618 96;
#X obj 144 492 tgl 15 0 empty empty empty 17 7 0 10 #fcfcfc #000000
#000000 0 1;
#X obj 144 572 line~;
#X msg 144 540 \$1 5000;
#X text 565 123 karplusstrong string synth with stereo delay and reverb
triggered once in a few bars, f 19;
#X obj 286 696 sdelay~;
#X obj 319 32 r mainBeat;
#X obj 143 457 inlet;
#X obj 83 644 switch~;
#X obj 38 482 loadbang;
#X msg 37 613 0;
#X obj 55 520 sel 0;
#X obj 55 574 delay 6000;
#X text 565 32 by Timo Hoogland (c) 2022 \, www.timohoogland.com \,
@tmhglnd, f 27;
#X obj 519 486 lop~ 1500;
#X msg 96 547 stop;
#X obj 145 36 r air;
#X floatatom 201 129 5 0 0 0 - - - 0;
#X floatatom 72 39 5 0 0 0 - - - 0;
#X obj 123 243 normscale 2000 400;
#X obj 188 170 normscale 8 2 1;
#X obj 229 538 squash~;
#X obj 92 281 normscale 1 20;
#X obj 40 318 normscale 0.8 0.1;
#X obj 226 785 *~;
#X obj 307 786 *~;
#X obj 226 820 outlet~;
#X obj 307 819 outlet~;
#X obj 227 617 +~;
#X obj 228 572 *~ 0.5;
#X obj 166 207 normscale 4 -3 1;
#X obj 519 453 *~ 0.94;
#X obj 604 446 lop~ 3500;
#X obj 408 65 normscale 7 2 1;
#X obj 320 95 euclid 64 2 2;
#X obj 320 129 prob 50;
#X msg 237 456 2.1;
#X obj 145 71 autonorm 0 0;
#X connect 0 0 1 0;
#X connect 2 0 26 0;
#X connect 3 0 60 0;
#X connect 3 0 70 0;
#X connect 4 0 3 0;
#X connect 5 0 4 0;
#X connect 6 0 5 0;
#X connect 6 1 4 1;
#X connect 7 0 2 0;
#X connect 7 1 6 0;
#X connect 8 0 71 0;
#X connect 9 0 60 1;
#X connect 10 0 7 0;
#X connect 11 0 12 0;
#X connect 12 0 13 0;
#X connect 13 0 11 1;
#X connect 13 0 14 0;
#X connect 14 0 10 0;
#X connect 15 0 14 1;
#X connect 16 0 13 1;
#X connect 17 0 21 1;
#X connect 18 0 21 2;
#X connect 19 0 21 3;
#X connect 20 0 21 4;
#X connect 21 0 63 0;
#X connect 21 1 64 0;
#X connect 21 2 63 0;
#X connect 21 3 64 0;
#X connect 22 0 44 4;
#X connect 23 0 44 1;
#X connect 24 0 44 2;
#X connect 25 0 0 1;
#X connect 26 0 25 0;
#X connect 27 0 28 0;
#X connect 27 0 29 0;
#X connect 28 0 16 0;
#X connect 29 0 15 0;
#X connect 30 0 75 0;
#X connect 31 0 32 0;
#X connect 31 0 33 0;
#X connect 31 0 34 0;
#X connect 32 0 23 0;
#X connect 33 0 24 0;
#X connect 34 0 22 0;
#X connect 35 0 36 0;
#X connect 35 0 37 0;
#X connect 35 0 38 0;
#X connect 35 0 39 0;
#X connect 36 0 17 0;
#X connect 37 0 18 0;
#X connect 38 0 19 0;
#X connect 39 0 20 0;
#X connect 40 0 42 0;
#X connect 40 0 50 0;
#X connect 41 0 63 1;
#X connect 41 0 64 1;
#X connect 42 0 41 0;
#X connect 44 0 63 0;
#X connect 44 1 64 0;
#X connect 45 0 73 0;
#X connect 46 0 40 0;
#X connect 48 0 49 0;
#X connect 49 0 47 0;
#X connect 50 0 51 0;
#X connect 50 1 47 0;
#X connect 50 1 54 0;
#X connect 51 0 49 0;
#X connect 53 0 1 0;
#X connect 54 0 51 0;
#X connect 55 0 76 0;
#X connect 57 0 76 0;
#X connect 58 0 53 1;
#X connect 59 0 16 0;
#X connect 60 0 68 0;
#X connect 61 0 9 0;
#X connect 62 0 22 0;
#X connect 63 0 65 0;
#X connect 64 0 66 0;
#X connect 67 0 21 0;
#X connect 67 0 44 0;
#X connect 67 0 63 0;
#X connect 67 0 64 0;
#X connect 68 0 67 0;
#X connect 69 0 15 0;
#X connect 70 0 53 0;
#X connect 71 0 0 0;
#X connect 72 0 73 2;
#X connect 73 0 74 0;
#X connect 74 0 11 0;
#X connect 75 0 9 0;
#X connect 76 0 56 0;
#X connect 76 0 58 0;
#X connect 76 0 59 0;
#X connect 76 0 61 0;
#X connect 76 0 62 0;
#X connect 76 0 69 0;
#X connect 76 0 72 0;
